G04 #@! TF.GenerationSoftware,KiCad,Pcbnew,(5.1.4)-1*
G04 #@! TF.CreationDate,2021-01-18T10:38:24+05:30*
G04 #@! TF.ProjectId,power,706f7765-722e-46b6-9963-61645f706362,rev?*
G04 #@! TF.SameCoordinates,Original*
G04 #@! TF.FileFunction,Soldermask,Bot*
G04 #@! TF.FilePolarity,Negative*
%FSLAX46Y46*%
G04 Gerber Fmt 4.6, Leading zero omitted, Abs format (unit mm)*
G04 Created by KiCad (PCBNEW (5.1.4)-1) date 2021-01-18 10:38:24*
%MOMM*%
%LPD*%
G04 APERTURE LIST*
%ADD10C,0.100000*%
G04 APERTURE END LIST*
D10*
G36*
X152503395Y-124180546D02*
G01*
X152676466Y-124252234D01*
X152676467Y-124252235D01*
X152832227Y-124356310D01*
X152964690Y-124488773D01*
X152964691Y-124488775D01*
X153068766Y-124644534D01*
X153140454Y-124817605D01*
X153177000Y-125001333D01*
X153177000Y-125188667D01*
X153140454Y-125372395D01*
X153068766Y-125545466D01*
X153068765Y-125545467D01*
X152964690Y-125701227D01*
X152832227Y-125833690D01*
X152753818Y-125886081D01*
X152676466Y-125937766D01*
X152503395Y-126009454D01*
X152319667Y-126046000D01*
X152132333Y-126046000D01*
X151948605Y-126009454D01*
X151775534Y-125937766D01*
X151698182Y-125886081D01*
X151619773Y-125833690D01*
X151487310Y-125701227D01*
X151383235Y-125545467D01*
X151383234Y-125545466D01*
X151311546Y-125372395D01*
X151275000Y-125188667D01*
X151275000Y-125001333D01*
X151311546Y-124817605D01*
X151383234Y-124644534D01*
X151487309Y-124488775D01*
X151487310Y-124488773D01*
X151619773Y-124356310D01*
X151775533Y-124252235D01*
X151775534Y-124252234D01*
X151948605Y-124180546D01*
X152132333Y-124144000D01*
X152319667Y-124144000D01*
X152503395Y-124180546D01*
X152503395Y-124180546D01*
G37*
G36*
X157503395Y-124180546D02*
G01*
X157676466Y-124252234D01*
X157676467Y-124252235D01*
X157832227Y-124356310D01*
X157964690Y-124488773D01*
X157964691Y-124488775D01*
X158068766Y-124644534D01*
X158140454Y-124817605D01*
X158177000Y-125001333D01*
X158177000Y-125188667D01*
X158140454Y-125372395D01*
X158068766Y-125545466D01*
X158068765Y-125545467D01*
X157964690Y-125701227D01*
X157832227Y-125833690D01*
X157753818Y-125886081D01*
X157676466Y-125937766D01*
X157503395Y-126009454D01*
X157319667Y-126046000D01*
X157132333Y-126046000D01*
X156948605Y-126009454D01*
X156775534Y-125937766D01*
X156698182Y-125886081D01*
X156619773Y-125833690D01*
X156487310Y-125701227D01*
X156383235Y-125545467D01*
X156383234Y-125545466D01*
X156311546Y-125372395D01*
X156275000Y-125188667D01*
X156275000Y-125001333D01*
X156311546Y-124817605D01*
X156383234Y-124644534D01*
X156487309Y-124488775D01*
X156487310Y-124488773D01*
X156619773Y-124356310D01*
X156775533Y-124252235D01*
X156775534Y-124252234D01*
X156948605Y-124180546D01*
X157132333Y-124144000D01*
X157319667Y-124144000D01*
X157503395Y-124180546D01*
X157503395Y-124180546D01*
G37*
G36*
X162503395Y-124180546D02*
G01*
X162676466Y-124252234D01*
X162676467Y-124252235D01*
X162832227Y-124356310D01*
X162964690Y-124488773D01*
X162964691Y-124488775D01*
X163068766Y-124644534D01*
X163140454Y-124817605D01*
X163177000Y-125001333D01*
X163177000Y-125188667D01*
X163140454Y-125372395D01*
X163068766Y-125545466D01*
X163068765Y-125545467D01*
X162964690Y-125701227D01*
X162832227Y-125833690D01*
X162753818Y-125886081D01*
X162676466Y-125937766D01*
X162503395Y-126009454D01*
X162319667Y-126046000D01*
X162132333Y-126046000D01*
X161948605Y-126009454D01*
X161775534Y-125937766D01*
X161698182Y-125886081D01*
X161619773Y-125833690D01*
X161487310Y-125701227D01*
X161383235Y-125545467D01*
X161383234Y-125545466D01*
X161311546Y-125372395D01*
X161275000Y-125188667D01*
X161275000Y-125001333D01*
X161311546Y-124817605D01*
X161383234Y-124644534D01*
X161487309Y-124488775D01*
X161487310Y-124488773D01*
X161619773Y-124356310D01*
X161775533Y-124252235D01*
X161775534Y-124252234D01*
X161948605Y-124180546D01*
X162132333Y-124144000D01*
X162319667Y-124144000D01*
X162503395Y-124180546D01*
X162503395Y-124180546D01*
G37*
G36*
X180009951Y-118795792D02*
G01*
X180076136Y-118802311D01*
X180245975Y-118853831D01*
X180245977Y-118853832D01*
X180324238Y-118895664D01*
X180402500Y-118937496D01*
X180438238Y-118966826D01*
X180539695Y-119050088D01*
X180622957Y-119151545D01*
X180652287Y-119187283D01*
X180735952Y-119343808D01*
X180787472Y-119513647D01*
X180804868Y-119690274D01*
X180787472Y-119866901D01*
X180735952Y-120036740D01*
X180652287Y-120193265D01*
X180622957Y-120229003D01*
X180539695Y-120330460D01*
X180438238Y-120413722D01*
X180402500Y-120443052D01*
X180245975Y-120526717D01*
X180076136Y-120578237D01*
X180009952Y-120584755D01*
X179943769Y-120591274D01*
X179855249Y-120591274D01*
X179789066Y-120584755D01*
X179722882Y-120578237D01*
X179553043Y-120526717D01*
X179396518Y-120443052D01*
X179360780Y-120413722D01*
X179259323Y-120330460D01*
X179176061Y-120229003D01*
X179146731Y-120193265D01*
X179063066Y-120036740D01*
X179011546Y-119866901D01*
X178994150Y-119690274D01*
X179011546Y-119513647D01*
X179063066Y-119343808D01*
X179146731Y-119187283D01*
X179176061Y-119151545D01*
X179259323Y-119050088D01*
X179360780Y-118966826D01*
X179396518Y-118937496D01*
X179474780Y-118895664D01*
X179553041Y-118853832D01*
X179553043Y-118853831D01*
X179722882Y-118802311D01*
X179789067Y-118795792D01*
X179855249Y-118789274D01*
X179943769Y-118789274D01*
X180009951Y-118795792D01*
X180009951Y-118795792D01*
G37*
G36*
X136221473Y-117562938D02*
G01*
X136349049Y-117615782D01*
X136463859Y-117692495D01*
X136561505Y-117790141D01*
X136638218Y-117904951D01*
X136691062Y-118032527D01*
X136718000Y-118167956D01*
X136718000Y-118306044D01*
X136691062Y-118441473D01*
X136638218Y-118569049D01*
X136561505Y-118683859D01*
X136463859Y-118781505D01*
X136349049Y-118858218D01*
X136221473Y-118911062D01*
X136086044Y-118938000D01*
X135947956Y-118938000D01*
X135812527Y-118911062D01*
X135684951Y-118858218D01*
X135570141Y-118781505D01*
X135472495Y-118683859D01*
X135395782Y-118569049D01*
X135342938Y-118441473D01*
X135316000Y-118306044D01*
X135316000Y-118167956D01*
X135342938Y-118032527D01*
X135395782Y-117904951D01*
X135472495Y-117790141D01*
X135570141Y-117692495D01*
X135684951Y-117615782D01*
X135812527Y-117562938D01*
X135947956Y-117536000D01*
X136086044Y-117536000D01*
X136221473Y-117562938D01*
X136221473Y-117562938D01*
G37*
G36*
X180009951Y-116255792D02*
G01*
X180076136Y-116262311D01*
X180245975Y-116313831D01*
X180245977Y-116313832D01*
X180305751Y-116345782D01*
X180402500Y-116397496D01*
X180432961Y-116422495D01*
X180539695Y-116510088D01*
X180622957Y-116611545D01*
X180652287Y-116647283D01*
X180735952Y-116803808D01*
X180787472Y-116973647D01*
X180804868Y-117150274D01*
X180787472Y-117326901D01*
X180735952Y-117496740D01*
X180735951Y-117496742D01*
X180728060Y-117511505D01*
X180652287Y-117653265D01*
X180640194Y-117668000D01*
X180539695Y-117790460D01*
X180438238Y-117873722D01*
X180402500Y-117903052D01*
X180245975Y-117986717D01*
X180076136Y-118038237D01*
X180009951Y-118044756D01*
X179943769Y-118051274D01*
X179855249Y-118051274D01*
X179789067Y-118044756D01*
X179722882Y-118038237D01*
X179553043Y-117986717D01*
X179396518Y-117903052D01*
X179360780Y-117873722D01*
X179259323Y-117790460D01*
X179158824Y-117668000D01*
X179146731Y-117653265D01*
X179070958Y-117511505D01*
X179063067Y-117496742D01*
X179063066Y-117496740D01*
X179011546Y-117326901D01*
X178994150Y-117150274D01*
X179011546Y-116973647D01*
X179063066Y-116803808D01*
X179146731Y-116647283D01*
X179176061Y-116611545D01*
X179259323Y-116510088D01*
X179366057Y-116422495D01*
X179396518Y-116397496D01*
X179493267Y-116345782D01*
X179553041Y-116313832D01*
X179553043Y-116313831D01*
X179722882Y-116262311D01*
X179789067Y-116255792D01*
X179855249Y-116249274D01*
X179943769Y-116249274D01*
X180009951Y-116255792D01*
X180009951Y-116255792D01*
G37*
G36*
X133681473Y-116292938D02*
G01*
X133809049Y-116345782D01*
X133923859Y-116422495D01*
X134021505Y-116520141D01*
X134098218Y-116634951D01*
X134151062Y-116762527D01*
X134178000Y-116897956D01*
X134178000Y-117036044D01*
X134151062Y-117171473D01*
X134098218Y-117299049D01*
X134021505Y-117413859D01*
X133923859Y-117511505D01*
X133809049Y-117588218D01*
X133681473Y-117641062D01*
X133546044Y-117668000D01*
X133407956Y-117668000D01*
X133272527Y-117641062D01*
X133144951Y-117588218D01*
X133030141Y-117511505D01*
X132932495Y-117413859D01*
X132855782Y-117299049D01*
X132802938Y-117171473D01*
X132776000Y-117036044D01*
X132776000Y-116897956D01*
X132802938Y-116762527D01*
X132855782Y-116634951D01*
X132932495Y-116520141D01*
X133030141Y-116422495D01*
X133144951Y-116345782D01*
X133272527Y-116292938D01*
X133407956Y-116266000D01*
X133546044Y-116266000D01*
X133681473Y-116292938D01*
X133681473Y-116292938D01*
G37*
G36*
X136221473Y-115022938D02*
G01*
X136349049Y-115075782D01*
X136463859Y-115152495D01*
X136561505Y-115250141D01*
X136638218Y-115364951D01*
X136691062Y-115492527D01*
X136718000Y-115627956D01*
X136718000Y-115766044D01*
X136691062Y-115901473D01*
X136638218Y-116029049D01*
X136561505Y-116143859D01*
X136463859Y-116241505D01*
X136349049Y-116318218D01*
X136221473Y-116371062D01*
X136086044Y-116398000D01*
X135947956Y-116398000D01*
X135812527Y-116371062D01*
X135684951Y-116318218D01*
X135570141Y-116241505D01*
X135472495Y-116143859D01*
X135395782Y-116029049D01*
X135342938Y-115901473D01*
X135316000Y-115766044D01*
X135316000Y-115627956D01*
X135342938Y-115492527D01*
X135395782Y-115364951D01*
X135472495Y-115250141D01*
X135570141Y-115152495D01*
X135684951Y-115075782D01*
X135812527Y-115022938D01*
X135947956Y-114996000D01*
X136086044Y-114996000D01*
X136221473Y-115022938D01*
X136221473Y-115022938D01*
G37*
G36*
X180800509Y-115511274D02*
G01*
X178998509Y-115511274D01*
X178998509Y-113709274D01*
X180800509Y-113709274D01*
X180800509Y-115511274D01*
X180800509Y-115511274D01*
G37*
G36*
X133681473Y-113752938D02*
G01*
X133809049Y-113805782D01*
X133923859Y-113882495D01*
X134021505Y-113980141D01*
X134098218Y-114094951D01*
X134151062Y-114222527D01*
X134178000Y-114357956D01*
X134178000Y-114496044D01*
X134151062Y-114631473D01*
X134098218Y-114759049D01*
X134021505Y-114873859D01*
X133923859Y-114971505D01*
X133809049Y-115048218D01*
X133681473Y-115101062D01*
X133546044Y-115128000D01*
X133407956Y-115128000D01*
X133272527Y-115101062D01*
X133144951Y-115048218D01*
X133030141Y-114971505D01*
X132932495Y-114873859D01*
X132855782Y-114759049D01*
X132802938Y-114631473D01*
X132776000Y-114496044D01*
X132776000Y-114357956D01*
X132802938Y-114222527D01*
X132855782Y-114094951D01*
X132932495Y-113980141D01*
X133030141Y-113882495D01*
X133144951Y-113805782D01*
X133272527Y-113752938D01*
X133407956Y-113726000D01*
X133546044Y-113726000D01*
X133681473Y-113752938D01*
X133681473Y-113752938D01*
G37*
G36*
X136221473Y-112482938D02*
G01*
X136349049Y-112535782D01*
X136463859Y-112612495D01*
X136561505Y-112710141D01*
X136638218Y-112824951D01*
X136691062Y-112952527D01*
X136718000Y-113087956D01*
X136718000Y-113226044D01*
X136691062Y-113361473D01*
X136638218Y-113489049D01*
X136561505Y-113603859D01*
X136463859Y-113701505D01*
X136349049Y-113778218D01*
X136221473Y-113831062D01*
X136086044Y-113858000D01*
X135947956Y-113858000D01*
X135812527Y-113831062D01*
X135684951Y-113778218D01*
X135570141Y-113701505D01*
X135472495Y-113603859D01*
X135395782Y-113489049D01*
X135342938Y-113361473D01*
X135316000Y-113226044D01*
X135316000Y-113087956D01*
X135342938Y-112952527D01*
X135395782Y-112824951D01*
X135472495Y-112710141D01*
X135570141Y-112612495D01*
X135684951Y-112535782D01*
X135812527Y-112482938D01*
X135947956Y-112456000D01*
X136086044Y-112456000D01*
X136221473Y-112482938D01*
X136221473Y-112482938D01*
G37*
G36*
X133681473Y-111212938D02*
G01*
X133809049Y-111265782D01*
X133923859Y-111342495D01*
X134021505Y-111440141D01*
X134098218Y-111554951D01*
X134151062Y-111682527D01*
X134178000Y-111817956D01*
X134178000Y-111956044D01*
X134151062Y-112091473D01*
X134098218Y-112219049D01*
X134021505Y-112333859D01*
X133923859Y-112431505D01*
X133809049Y-112508218D01*
X133681473Y-112561062D01*
X133546044Y-112588000D01*
X133407956Y-112588000D01*
X133272527Y-112561062D01*
X133144951Y-112508218D01*
X133030141Y-112431505D01*
X132932495Y-112333859D01*
X132855782Y-112219049D01*
X132802938Y-112091473D01*
X132776000Y-111956044D01*
X132776000Y-111817956D01*
X132802938Y-111682527D01*
X132855782Y-111554951D01*
X132932495Y-111440141D01*
X133030141Y-111342495D01*
X133144951Y-111265782D01*
X133272527Y-111212938D01*
X133407956Y-111186000D01*
X133546044Y-111186000D01*
X133681473Y-111212938D01*
X133681473Y-111212938D01*
G37*
G36*
X136221473Y-109942938D02*
G01*
X136349049Y-109995782D01*
X136463859Y-110072495D01*
X136561505Y-110170141D01*
X136638218Y-110284951D01*
X136691062Y-110412527D01*
X136718000Y-110547956D01*
X136718000Y-110686044D01*
X136691062Y-110821473D01*
X136638218Y-110949049D01*
X136561505Y-111063859D01*
X136463859Y-111161505D01*
X136349049Y-111238218D01*
X136221473Y-111291062D01*
X136086044Y-111318000D01*
X135947956Y-111318000D01*
X135812527Y-111291062D01*
X135684951Y-111238218D01*
X135570141Y-111161505D01*
X135472495Y-111063859D01*
X135395782Y-110949049D01*
X135342938Y-110821473D01*
X135316000Y-110686044D01*
X135316000Y-110547956D01*
X135342938Y-110412527D01*
X135395782Y-110284951D01*
X135472495Y-110170141D01*
X135570141Y-110072495D01*
X135684951Y-109995782D01*
X135812527Y-109942938D01*
X135947956Y-109916000D01*
X136086044Y-109916000D01*
X136221473Y-109942938D01*
X136221473Y-109942938D01*
G37*
G36*
X133681473Y-108672938D02*
G01*
X133809049Y-108725782D01*
X133923859Y-108802495D01*
X134021505Y-108900141D01*
X134098218Y-109014951D01*
X134151062Y-109142527D01*
X134178000Y-109277956D01*
X134178000Y-109416044D01*
X134151062Y-109551473D01*
X134098218Y-109679049D01*
X134021505Y-109793859D01*
X133923859Y-109891505D01*
X133809049Y-109968218D01*
X133681473Y-110021062D01*
X133546044Y-110048000D01*
X133407956Y-110048000D01*
X133272527Y-110021062D01*
X133144951Y-109968218D01*
X133030141Y-109891505D01*
X132932495Y-109793859D01*
X132855782Y-109679049D01*
X132802938Y-109551473D01*
X132776000Y-109416044D01*
X132776000Y-109277956D01*
X132802938Y-109142527D01*
X132855782Y-109014951D01*
X132932495Y-108900141D01*
X133030141Y-108802495D01*
X133144951Y-108725782D01*
X133272527Y-108672938D01*
X133407956Y-108646000D01*
X133546044Y-108646000D01*
X133681473Y-108672938D01*
X133681473Y-108672938D01*
G37*
G36*
X165210142Y-105339442D02*
G01*
X165358101Y-105400729D01*
X165491255Y-105489699D01*
X165604501Y-105602945D01*
X165693471Y-105736099D01*
X165754758Y-105884058D01*
X165786000Y-106041125D01*
X165786000Y-106201275D01*
X165754758Y-106358342D01*
X165693471Y-106506301D01*
X165604501Y-106639455D01*
X165491255Y-106752701D01*
X165358101Y-106841671D01*
X165210142Y-106902958D01*
X165053075Y-106934200D01*
X164892925Y-106934200D01*
X164735858Y-106902958D01*
X164587899Y-106841671D01*
X164454745Y-106752701D01*
X164341499Y-106639455D01*
X164252529Y-106506301D01*
X164191242Y-106358342D01*
X164160000Y-106201275D01*
X164160000Y-106041125D01*
X164191242Y-105884058D01*
X164252529Y-105736099D01*
X164341499Y-105602945D01*
X164454745Y-105489699D01*
X164587899Y-105400729D01*
X164735858Y-105339442D01*
X164892925Y-105308200D01*
X165053075Y-105308200D01*
X165210142Y-105339442D01*
X165210142Y-105339442D01*
G37*
G36*
X186952647Y-103564763D02*
G01*
X187125718Y-103636451D01*
X187125719Y-103636452D01*
X187281479Y-103740527D01*
X187413942Y-103872990D01*
X187413943Y-103872992D01*
X187518018Y-104028751D01*
X187589706Y-104201822D01*
X187626252Y-104385550D01*
X187626252Y-104572884D01*
X187589706Y-104756612D01*
X187518018Y-104929683D01*
X187518017Y-104929684D01*
X187413942Y-105085444D01*
X187281479Y-105217907D01*
X187203070Y-105270298D01*
X187125718Y-105321983D01*
X186952647Y-105393671D01*
X186768919Y-105430217D01*
X186581585Y-105430217D01*
X186397857Y-105393671D01*
X186224786Y-105321983D01*
X186147434Y-105270298D01*
X186069025Y-105217907D01*
X185936562Y-105085444D01*
X185832487Y-104929684D01*
X185832486Y-104929683D01*
X185760798Y-104756612D01*
X185724252Y-104572884D01*
X185724252Y-104385550D01*
X185760798Y-104201822D01*
X185832486Y-104028751D01*
X185936561Y-103872992D01*
X185936562Y-103872990D01*
X186069025Y-103740527D01*
X186224785Y-103636452D01*
X186224786Y-103636451D01*
X186397857Y-103564763D01*
X186581585Y-103528217D01*
X186768919Y-103528217D01*
X186952647Y-103564763D01*
X186952647Y-103564763D01*
G37*
G36*
X191952647Y-103564763D02*
G01*
X192125718Y-103636451D01*
X192125719Y-103636452D01*
X192281479Y-103740527D01*
X192413942Y-103872990D01*
X192413943Y-103872992D01*
X192518018Y-104028751D01*
X192589706Y-104201822D01*
X192626252Y-104385550D01*
X192626252Y-104572884D01*
X192589706Y-104756612D01*
X192518018Y-104929683D01*
X192518017Y-104929684D01*
X192413942Y-105085444D01*
X192281479Y-105217907D01*
X192203070Y-105270298D01*
X192125718Y-105321983D01*
X191952647Y-105393671D01*
X191768919Y-105430217D01*
X191581585Y-105430217D01*
X191397857Y-105393671D01*
X191224786Y-105321983D01*
X191147434Y-105270298D01*
X191069025Y-105217907D01*
X190936562Y-105085444D01*
X190832487Y-104929684D01*
X190832486Y-104929683D01*
X190760798Y-104756612D01*
X190724252Y-104572884D01*
X190724252Y-104385550D01*
X190760798Y-104201822D01*
X190832486Y-104028751D01*
X190936561Y-103872992D01*
X190936562Y-103872990D01*
X191069025Y-103740527D01*
X191224785Y-103636452D01*
X191224786Y-103636451D01*
X191397857Y-103564763D01*
X191581585Y-103528217D01*
X191768919Y-103528217D01*
X191952647Y-103564763D01*
X191952647Y-103564763D01*
G37*
G36*
X181952647Y-103564763D02*
G01*
X182125718Y-103636451D01*
X182125719Y-103636452D01*
X182281479Y-103740527D01*
X182413942Y-103872990D01*
X182413943Y-103872992D01*
X182518018Y-104028751D01*
X182589706Y-104201822D01*
X182626252Y-104385550D01*
X182626252Y-104572884D01*
X182589706Y-104756612D01*
X182518018Y-104929683D01*
X182518017Y-104929684D01*
X182413942Y-105085444D01*
X182281479Y-105217907D01*
X182203070Y-105270298D01*
X182125718Y-105321983D01*
X181952647Y-105393671D01*
X181768919Y-105430217D01*
X181581585Y-105430217D01*
X181397857Y-105393671D01*
X181224786Y-105321983D01*
X181147434Y-105270298D01*
X181069025Y-105217907D01*
X180936562Y-105085444D01*
X180832487Y-104929684D01*
X180832486Y-104929683D01*
X180760798Y-104756612D01*
X180724252Y-104572884D01*
X180724252Y-104385550D01*
X180760798Y-104201822D01*
X180832486Y-104028751D01*
X180936561Y-103872992D01*
X180936562Y-103872990D01*
X181069025Y-103740527D01*
X181224785Y-103636452D01*
X181224786Y-103636451D01*
X181397857Y-103564763D01*
X181581585Y-103528217D01*
X181768919Y-103528217D01*
X181952647Y-103564763D01*
X181952647Y-103564763D01*
G37*
G36*
X157590142Y-101885042D02*
G01*
X157738101Y-101946329D01*
X157871255Y-102035299D01*
X157984501Y-102148545D01*
X158073471Y-102281699D01*
X158134758Y-102429658D01*
X158166000Y-102586725D01*
X158166000Y-102746875D01*
X158134758Y-102903942D01*
X158073471Y-103051901D01*
X157984501Y-103185055D01*
X157871255Y-103298301D01*
X157738101Y-103387271D01*
X157590142Y-103448558D01*
X157433075Y-103479800D01*
X157272925Y-103479800D01*
X157115858Y-103448558D01*
X156967899Y-103387271D01*
X156834745Y-103298301D01*
X156721499Y-103185055D01*
X156632529Y-103051901D01*
X156571242Y-102903942D01*
X156540000Y-102746875D01*
X156540000Y-102586725D01*
X156571242Y-102429658D01*
X156632529Y-102281699D01*
X156721499Y-102148545D01*
X156834745Y-102035299D01*
X156967899Y-101946329D01*
X157115858Y-101885042D01*
X157272925Y-101853800D01*
X157433075Y-101853800D01*
X157590142Y-101885042D01*
X157590142Y-101885042D01*
G37*
G36*
X181776000Y-94302000D02*
G01*
X181611660Y-94302000D01*
X181587274Y-94304402D01*
X181563825Y-94311515D01*
X181542214Y-94323066D01*
X181523272Y-94338611D01*
X181507727Y-94357553D01*
X181496176Y-94379164D01*
X181489063Y-94402613D01*
X181486661Y-94426999D01*
X181489063Y-94451385D01*
X181496176Y-94474834D01*
X181507727Y-94496445D01*
X181523272Y-94515387D01*
X181532345Y-94523609D01*
X181609264Y-94586736D01*
X181681244Y-94674443D01*
X181708119Y-94724724D01*
X181734728Y-94774505D01*
X181734729Y-94774508D01*
X181767666Y-94883084D01*
X181778787Y-94996000D01*
X181767666Y-95108916D01*
X181743710Y-95187886D01*
X181734728Y-95217495D01*
X181715429Y-95253601D01*
X181681244Y-95317557D01*
X181609264Y-95405264D01*
X181521557Y-95477244D01*
X181440141Y-95520761D01*
X181419766Y-95534375D01*
X181402439Y-95551702D01*
X181388826Y-95572076D01*
X181379448Y-95594715D01*
X181374668Y-95618748D01*
X181374668Y-95643252D01*
X181379448Y-95667285D01*
X181388826Y-95689924D01*
X181402440Y-95710299D01*
X181419767Y-95727626D01*
X181440141Y-95741239D01*
X181521557Y-95784756D01*
X181609264Y-95856736D01*
X181681244Y-95944443D01*
X181715429Y-96008399D01*
X181734728Y-96044505D01*
X181734729Y-96044508D01*
X181767666Y-96153084D01*
X181778787Y-96266000D01*
X181767666Y-96378916D01*
X181734729Y-96487492D01*
X181734728Y-96487495D01*
X181715429Y-96523601D01*
X181681244Y-96587557D01*
X181609264Y-96675264D01*
X181521557Y-96747244D01*
X181457601Y-96781429D01*
X181421495Y-96800728D01*
X181421492Y-96800729D01*
X181312916Y-96833666D01*
X181228298Y-96842000D01*
X180721702Y-96842000D01*
X180637084Y-96833666D01*
X180528508Y-96800729D01*
X180528505Y-96800728D01*
X180492399Y-96781429D01*
X180428443Y-96747244D01*
X180340736Y-96675264D01*
X180268756Y-96587557D01*
X180234571Y-96523601D01*
X180215272Y-96487495D01*
X180215271Y-96487492D01*
X180182334Y-96378916D01*
X180171213Y-96266000D01*
X180182334Y-96153084D01*
X180215271Y-96044508D01*
X180215272Y-96044505D01*
X180234571Y-96008399D01*
X180268756Y-95944443D01*
X180340736Y-95856736D01*
X180428443Y-95784756D01*
X180509859Y-95741239D01*
X180530234Y-95727625D01*
X180547561Y-95710298D01*
X180561174Y-95689924D01*
X180570552Y-95667285D01*
X180575332Y-95643252D01*
X180575332Y-95618748D01*
X180570552Y-95594715D01*
X180561174Y-95572076D01*
X180547560Y-95551701D01*
X180530233Y-95534374D01*
X180509859Y-95520761D01*
X180428443Y-95477244D01*
X180340736Y-95405264D01*
X180268756Y-95317557D01*
X180234571Y-95253601D01*
X180215272Y-95217495D01*
X180206290Y-95187886D01*
X180182334Y-95108916D01*
X180171213Y-94996000D01*
X180182334Y-94883084D01*
X180215271Y-94774508D01*
X180215272Y-94774505D01*
X180241881Y-94724724D01*
X180268756Y-94674443D01*
X180340736Y-94586736D01*
X180417646Y-94523617D01*
X180434965Y-94506298D01*
X180448579Y-94485923D01*
X180457957Y-94463284D01*
X180462737Y-94439251D01*
X180462737Y-94414747D01*
X180457957Y-94390714D01*
X180448579Y-94368075D01*
X180434966Y-94347701D01*
X180417639Y-94330374D01*
X180397264Y-94316760D01*
X180374625Y-94307382D01*
X180350592Y-94302602D01*
X180338340Y-94302000D01*
X180174000Y-94302000D01*
X180174000Y-93150000D01*
X181776000Y-93150000D01*
X181776000Y-94302000D01*
X181776000Y-94302000D01*
G37*
G36*
X140871840Y-93336800D02*
G01*
X140707500Y-93336800D01*
X140683114Y-93339202D01*
X140659665Y-93346315D01*
X140638054Y-93357866D01*
X140619112Y-93373411D01*
X140603567Y-93392353D01*
X140592016Y-93413964D01*
X140584903Y-93437413D01*
X140582501Y-93461799D01*
X140584903Y-93486185D01*
X140592016Y-93509634D01*
X140603567Y-93531245D01*
X140619112Y-93550187D01*
X140628185Y-93558409D01*
X140705104Y-93621536D01*
X140777084Y-93709243D01*
X140811269Y-93773199D01*
X140830568Y-93809305D01*
X140830569Y-93809308D01*
X140863506Y-93917884D01*
X140874627Y-94030800D01*
X140863506Y-94143716D01*
X140830569Y-94252292D01*
X140830568Y-94252295D01*
X140811269Y-94288401D01*
X140777084Y-94352357D01*
X140705104Y-94440064D01*
X140617397Y-94512044D01*
X140535981Y-94555561D01*
X140515606Y-94569175D01*
X140498279Y-94586502D01*
X140484666Y-94606876D01*
X140475288Y-94629515D01*
X140470508Y-94653548D01*
X140470508Y-94678052D01*
X140475288Y-94702085D01*
X140484666Y-94724724D01*
X140498280Y-94745099D01*
X140515607Y-94762426D01*
X140535981Y-94776039D01*
X140617397Y-94819556D01*
X140705104Y-94891536D01*
X140777084Y-94979243D01*
X140811269Y-95043199D01*
X140830568Y-95079305D01*
X140830569Y-95079308D01*
X140863506Y-95187884D01*
X140874627Y-95300800D01*
X140863506Y-95413716D01*
X140831033Y-95520761D01*
X140830568Y-95522295D01*
X140824111Y-95534375D01*
X140777084Y-95622357D01*
X140705104Y-95710064D01*
X140617397Y-95782044D01*
X140553441Y-95816229D01*
X140517335Y-95835528D01*
X140517332Y-95835529D01*
X140408756Y-95868466D01*
X140324138Y-95876800D01*
X139817542Y-95876800D01*
X139732924Y-95868466D01*
X139624348Y-95835529D01*
X139624345Y-95835528D01*
X139588239Y-95816229D01*
X139524283Y-95782044D01*
X139436576Y-95710064D01*
X139364596Y-95622357D01*
X139317569Y-95534375D01*
X139311112Y-95522295D01*
X139310647Y-95520761D01*
X139278174Y-95413716D01*
X139267053Y-95300800D01*
X139278174Y-95187884D01*
X139311111Y-95079308D01*
X139311112Y-95079305D01*
X139330411Y-95043199D01*
X139364596Y-94979243D01*
X139436576Y-94891536D01*
X139524283Y-94819556D01*
X139605699Y-94776039D01*
X139626074Y-94762425D01*
X139643401Y-94745098D01*
X139657014Y-94724724D01*
X139666392Y-94702085D01*
X139671172Y-94678052D01*
X139671172Y-94653548D01*
X139666392Y-94629515D01*
X139657014Y-94606876D01*
X139643400Y-94586501D01*
X139626073Y-94569174D01*
X139605699Y-94555561D01*
X139524283Y-94512044D01*
X139436576Y-94440064D01*
X139364596Y-94352357D01*
X139330411Y-94288401D01*
X139311112Y-94252295D01*
X139311111Y-94252292D01*
X139278174Y-94143716D01*
X139267053Y-94030800D01*
X139278174Y-93917884D01*
X139311111Y-93809308D01*
X139311112Y-93809305D01*
X139330411Y-93773199D01*
X139364596Y-93709243D01*
X139436576Y-93621536D01*
X139513486Y-93558417D01*
X139530805Y-93541098D01*
X139544419Y-93520723D01*
X139553797Y-93498084D01*
X139558577Y-93474051D01*
X139558577Y-93449547D01*
X139553797Y-93425514D01*
X139544419Y-93402875D01*
X139530806Y-93382501D01*
X139513479Y-93365174D01*
X139493104Y-93351560D01*
X139470465Y-93342182D01*
X139446432Y-93337402D01*
X139434180Y-93336800D01*
X139269840Y-93336800D01*
X139269840Y-92184800D01*
X140871840Y-92184800D01*
X140871840Y-93336800D01*
X140871840Y-93336800D01*
G37*
G36*
X181776000Y-81983000D02*
G01*
X181611660Y-81983000D01*
X181587274Y-81985402D01*
X181563825Y-81992515D01*
X181542214Y-82004066D01*
X181523272Y-82019611D01*
X181507727Y-82038553D01*
X181496176Y-82060164D01*
X181489063Y-82083613D01*
X181486661Y-82107999D01*
X181489063Y-82132385D01*
X181496176Y-82155834D01*
X181507727Y-82177445D01*
X181523272Y-82196387D01*
X181532345Y-82204609D01*
X181609264Y-82267736D01*
X181681244Y-82355443D01*
X181696749Y-82384452D01*
X181734728Y-82455505D01*
X181734729Y-82455508D01*
X181767666Y-82564084D01*
X181778787Y-82677000D01*
X181767666Y-82789916D01*
X181736005Y-82894286D01*
X181734728Y-82898495D01*
X181715429Y-82934601D01*
X181681244Y-82998557D01*
X181609264Y-83086264D01*
X181521557Y-83158244D01*
X181440141Y-83201761D01*
X181419766Y-83215375D01*
X181402439Y-83232702D01*
X181388826Y-83253076D01*
X181379448Y-83275715D01*
X181374668Y-83299748D01*
X181374668Y-83324252D01*
X181379448Y-83348285D01*
X181388826Y-83370924D01*
X181402440Y-83391299D01*
X181419767Y-83408626D01*
X181440141Y-83422239D01*
X181521557Y-83465756D01*
X181609264Y-83537736D01*
X181681244Y-83625443D01*
X181715429Y-83689399D01*
X181734728Y-83725505D01*
X181734729Y-83725508D01*
X181767666Y-83834084D01*
X181778787Y-83947000D01*
X181767666Y-84059916D01*
X181734729Y-84168492D01*
X181734728Y-84168495D01*
X181715429Y-84204601D01*
X181681244Y-84268557D01*
X181609264Y-84356264D01*
X181521557Y-84428244D01*
X181457601Y-84462429D01*
X181421495Y-84481728D01*
X181421492Y-84481729D01*
X181312916Y-84514666D01*
X181228298Y-84523000D01*
X180721702Y-84523000D01*
X180637084Y-84514666D01*
X180528508Y-84481729D01*
X180528505Y-84481728D01*
X180492399Y-84462429D01*
X180428443Y-84428244D01*
X180340736Y-84356264D01*
X180268756Y-84268557D01*
X180234571Y-84204601D01*
X180215272Y-84168495D01*
X180215271Y-84168492D01*
X180182334Y-84059916D01*
X180171213Y-83947000D01*
X180182334Y-83834084D01*
X180215271Y-83725508D01*
X180215272Y-83725505D01*
X180234571Y-83689399D01*
X180268756Y-83625443D01*
X180340736Y-83537736D01*
X180428443Y-83465756D01*
X180509859Y-83422239D01*
X180530234Y-83408625D01*
X180547561Y-83391298D01*
X180561174Y-83370924D01*
X180570552Y-83348285D01*
X180575332Y-83324252D01*
X180575332Y-83299748D01*
X180570552Y-83275715D01*
X180561174Y-83253076D01*
X180547560Y-83232701D01*
X180530233Y-83215374D01*
X180509859Y-83201761D01*
X180428443Y-83158244D01*
X180340736Y-83086264D01*
X180268756Y-82998557D01*
X180234571Y-82934601D01*
X180215272Y-82898495D01*
X180213995Y-82894286D01*
X180182334Y-82789916D01*
X180171213Y-82677000D01*
X180182334Y-82564084D01*
X180215271Y-82455508D01*
X180215272Y-82455505D01*
X180253251Y-82384452D01*
X180268756Y-82355443D01*
X180340736Y-82267736D01*
X180417646Y-82204617D01*
X180434965Y-82187298D01*
X180448579Y-82166923D01*
X180457957Y-82144284D01*
X180462737Y-82120251D01*
X180462737Y-82095747D01*
X180457957Y-82071714D01*
X180448579Y-82049075D01*
X180434966Y-82028701D01*
X180417639Y-82011374D01*
X180397264Y-81997760D01*
X180374625Y-81988382D01*
X180350592Y-81983602D01*
X180338340Y-81983000D01*
X180174000Y-81983000D01*
X180174000Y-80831000D01*
X181776000Y-80831000D01*
X181776000Y-81983000D01*
X181776000Y-81983000D01*
G37*
G36*
X140414640Y-81043200D02*
G01*
X140250300Y-81043200D01*
X140225914Y-81045602D01*
X140202465Y-81052715D01*
X140180854Y-81064266D01*
X140161912Y-81079811D01*
X140146367Y-81098753D01*
X140134816Y-81120364D01*
X140127703Y-81143813D01*
X140125301Y-81168199D01*
X140127703Y-81192585D01*
X140134816Y-81216034D01*
X140146367Y-81237645D01*
X140161912Y-81256587D01*
X140170985Y-81264809D01*
X140247904Y-81327936D01*
X140319884Y-81415643D01*
X140354069Y-81479599D01*
X140373368Y-81515705D01*
X140373369Y-81515708D01*
X140406306Y-81624284D01*
X140417427Y-81737200D01*
X140406306Y-81850116D01*
X140373369Y-81958692D01*
X140373368Y-81958695D01*
X140357500Y-81988382D01*
X140319884Y-82058757D01*
X140247904Y-82146464D01*
X140160197Y-82218444D01*
X140078781Y-82261961D01*
X140058406Y-82275575D01*
X140041079Y-82292902D01*
X140027466Y-82313276D01*
X140018088Y-82335915D01*
X140013308Y-82359948D01*
X140013308Y-82384452D01*
X140018088Y-82408485D01*
X140027466Y-82431124D01*
X140041080Y-82451499D01*
X140058407Y-82468826D01*
X140078781Y-82482439D01*
X140160197Y-82525956D01*
X140247904Y-82597936D01*
X140319884Y-82685643D01*
X140354069Y-82749599D01*
X140373368Y-82785705D01*
X140373369Y-82785708D01*
X140406306Y-82894284D01*
X140417427Y-83007200D01*
X140406306Y-83120116D01*
X140373369Y-83228692D01*
X140373368Y-83228695D01*
X140360336Y-83253076D01*
X140319884Y-83328757D01*
X140247904Y-83416464D01*
X140160197Y-83488444D01*
X140096241Y-83522629D01*
X140060135Y-83541928D01*
X140060132Y-83541929D01*
X139951556Y-83574866D01*
X139866938Y-83583200D01*
X139360342Y-83583200D01*
X139275724Y-83574866D01*
X139167148Y-83541929D01*
X139167145Y-83541928D01*
X139131039Y-83522629D01*
X139067083Y-83488444D01*
X138979376Y-83416464D01*
X138907396Y-83328757D01*
X138866944Y-83253076D01*
X138853912Y-83228695D01*
X138853911Y-83228692D01*
X138820974Y-83120116D01*
X138809853Y-83007200D01*
X138820974Y-82894284D01*
X138853911Y-82785708D01*
X138853912Y-82785705D01*
X138873211Y-82749599D01*
X138907396Y-82685643D01*
X138979376Y-82597936D01*
X139067083Y-82525956D01*
X139148499Y-82482439D01*
X139168874Y-82468825D01*
X139186201Y-82451498D01*
X139199814Y-82431124D01*
X139209192Y-82408485D01*
X139213972Y-82384452D01*
X139213972Y-82359948D01*
X139209192Y-82335915D01*
X139199814Y-82313276D01*
X139186200Y-82292901D01*
X139168873Y-82275574D01*
X139148499Y-82261961D01*
X139067083Y-82218444D01*
X138979376Y-82146464D01*
X138907396Y-82058757D01*
X138869780Y-81988382D01*
X138853912Y-81958695D01*
X138853911Y-81958692D01*
X138820974Y-81850116D01*
X138809853Y-81737200D01*
X138820974Y-81624284D01*
X138853911Y-81515708D01*
X138853912Y-81515705D01*
X138873211Y-81479599D01*
X138907396Y-81415643D01*
X138979376Y-81327936D01*
X139056286Y-81264817D01*
X139073605Y-81247498D01*
X139087219Y-81227123D01*
X139096597Y-81204484D01*
X139101377Y-81180451D01*
X139101377Y-81155947D01*
X139096597Y-81131914D01*
X139087219Y-81109275D01*
X139073606Y-81088901D01*
X139056279Y-81071574D01*
X139035904Y-81057960D01*
X139013265Y-81048582D01*
X138989232Y-81043802D01*
X138976980Y-81043200D01*
X138812640Y-81043200D01*
X138812640Y-79891200D01*
X140414640Y-79891200D01*
X140414640Y-81043200D01*
X140414640Y-81043200D01*
G37*
G36*
X140257160Y-69470960D02*
G01*
X140092820Y-69470960D01*
X140068434Y-69473362D01*
X140044985Y-69480475D01*
X140023374Y-69492026D01*
X140004432Y-69507571D01*
X139988887Y-69526513D01*
X139977336Y-69548124D01*
X139970223Y-69571573D01*
X139967821Y-69595959D01*
X139970223Y-69620345D01*
X139977336Y-69643794D01*
X139988887Y-69665405D01*
X140004432Y-69684347D01*
X140013505Y-69692569D01*
X140090424Y-69755696D01*
X140162404Y-69843403D01*
X140196589Y-69907359D01*
X140215888Y-69943465D01*
X140215889Y-69943468D01*
X140248826Y-70052044D01*
X140259947Y-70164960D01*
X140248826Y-70277876D01*
X140215946Y-70386264D01*
X140215888Y-70386455D01*
X140196589Y-70422561D01*
X140162404Y-70486517D01*
X140090424Y-70574224D01*
X140002717Y-70646204D01*
X139940734Y-70679334D01*
X139921301Y-70689721D01*
X139900926Y-70703335D01*
X139883599Y-70720662D01*
X139869986Y-70741036D01*
X139860608Y-70763675D01*
X139855828Y-70787708D01*
X139855828Y-70812212D01*
X139860608Y-70836245D01*
X139869986Y-70858884D01*
X139883600Y-70879259D01*
X139900927Y-70896586D01*
X139921301Y-70910199D01*
X140002717Y-70953716D01*
X140090424Y-71025696D01*
X140162404Y-71113403D01*
X140196589Y-71177359D01*
X140215888Y-71213465D01*
X140215889Y-71213468D01*
X140248826Y-71322044D01*
X140259947Y-71434960D01*
X140248826Y-71547876D01*
X140215946Y-71656264D01*
X140215888Y-71656455D01*
X140196589Y-71692561D01*
X140162404Y-71756517D01*
X140090424Y-71844224D01*
X140002717Y-71916204D01*
X139938761Y-71950389D01*
X139902655Y-71969688D01*
X139902652Y-71969689D01*
X139794076Y-72002626D01*
X139709458Y-72010960D01*
X139202862Y-72010960D01*
X139118244Y-72002626D01*
X139009668Y-71969689D01*
X139009665Y-71969688D01*
X138973559Y-71950389D01*
X138909603Y-71916204D01*
X138821896Y-71844224D01*
X138749916Y-71756517D01*
X138715731Y-71692561D01*
X138696432Y-71656455D01*
X138696374Y-71656264D01*
X138663494Y-71547876D01*
X138652373Y-71434960D01*
X138663494Y-71322044D01*
X138696431Y-71213468D01*
X138696432Y-71213465D01*
X138715731Y-71177359D01*
X138749916Y-71113403D01*
X138821896Y-71025696D01*
X138909603Y-70953716D01*
X138991019Y-70910199D01*
X139011394Y-70896585D01*
X139028721Y-70879258D01*
X139042334Y-70858884D01*
X139051712Y-70836245D01*
X139056492Y-70812212D01*
X139056492Y-70787708D01*
X139051712Y-70763675D01*
X139042334Y-70741036D01*
X139028720Y-70720661D01*
X139011393Y-70703334D01*
X138991019Y-70689721D01*
X138971586Y-70679334D01*
X138909603Y-70646204D01*
X138821896Y-70574224D01*
X138749916Y-70486517D01*
X138715731Y-70422561D01*
X138696432Y-70386455D01*
X138696374Y-70386264D01*
X138663494Y-70277876D01*
X138652373Y-70164960D01*
X138663494Y-70052044D01*
X138696431Y-69943468D01*
X138696432Y-69943465D01*
X138715731Y-69907359D01*
X138749916Y-69843403D01*
X138821896Y-69755696D01*
X138898806Y-69692577D01*
X138916125Y-69675258D01*
X138929739Y-69654883D01*
X138939117Y-69632244D01*
X138943897Y-69608211D01*
X138943897Y-69583707D01*
X138939117Y-69559674D01*
X138929739Y-69537035D01*
X138916126Y-69516661D01*
X138898799Y-69499334D01*
X138878424Y-69485720D01*
X138855785Y-69476342D01*
X138831752Y-69471562D01*
X138819500Y-69470960D01*
X138655160Y-69470960D01*
X138655160Y-68318960D01*
X140257160Y-68318960D01*
X140257160Y-69470960D01*
X140257160Y-69470960D01*
G37*
G36*
X181522000Y-69283000D02*
G01*
X181357660Y-69283000D01*
X181333274Y-69285402D01*
X181309825Y-69292515D01*
X181288214Y-69304066D01*
X181269272Y-69319611D01*
X181253727Y-69338553D01*
X181242176Y-69360164D01*
X181235063Y-69383613D01*
X181232661Y-69407999D01*
X181235063Y-69432385D01*
X181242176Y-69455834D01*
X181253727Y-69477445D01*
X181269272Y-69496387D01*
X181278345Y-69504609D01*
X181355264Y-69567736D01*
X181427244Y-69655443D01*
X181442693Y-69684347D01*
X181480728Y-69755505D01*
X181480729Y-69755508D01*
X181513666Y-69864084D01*
X181524787Y-69977000D01*
X181513666Y-70089916D01*
X181490901Y-70164960D01*
X181480728Y-70198495D01*
X181461429Y-70234601D01*
X181427244Y-70298557D01*
X181355264Y-70386264D01*
X181267557Y-70458244D01*
X181186141Y-70501761D01*
X181165766Y-70515375D01*
X181148439Y-70532702D01*
X181134826Y-70553076D01*
X181125448Y-70575715D01*
X181120668Y-70599748D01*
X181120668Y-70624252D01*
X181125448Y-70648285D01*
X181134826Y-70670924D01*
X181148440Y-70691299D01*
X181165767Y-70708626D01*
X181186141Y-70722239D01*
X181267557Y-70765756D01*
X181355264Y-70837736D01*
X181427244Y-70925443D01*
X181461429Y-70989399D01*
X181480728Y-71025505D01*
X181480729Y-71025508D01*
X181513666Y-71134084D01*
X181524787Y-71247000D01*
X181513666Y-71359916D01*
X181490901Y-71434960D01*
X181480728Y-71468495D01*
X181461429Y-71504601D01*
X181427244Y-71568557D01*
X181355264Y-71656264D01*
X181267557Y-71728244D01*
X181214661Y-71756517D01*
X181167495Y-71781728D01*
X181167492Y-71781729D01*
X181058916Y-71814666D01*
X180974298Y-71823000D01*
X180467702Y-71823000D01*
X180383084Y-71814666D01*
X180274508Y-71781729D01*
X180274505Y-71781728D01*
X180227339Y-71756517D01*
X180174443Y-71728244D01*
X180086736Y-71656264D01*
X180014756Y-71568557D01*
X179980571Y-71504601D01*
X179961272Y-71468495D01*
X179951099Y-71434960D01*
X179928334Y-71359916D01*
X179917213Y-71247000D01*
X179928334Y-71134084D01*
X179961271Y-71025508D01*
X179961272Y-71025505D01*
X179980571Y-70989399D01*
X180014756Y-70925443D01*
X180086736Y-70837736D01*
X180174443Y-70765756D01*
X180255859Y-70722239D01*
X180276234Y-70708625D01*
X180293561Y-70691298D01*
X180307174Y-70670924D01*
X180316552Y-70648285D01*
X180321332Y-70624252D01*
X180321332Y-70599748D01*
X180316552Y-70575715D01*
X180307174Y-70553076D01*
X180293560Y-70532701D01*
X180276233Y-70515374D01*
X180255859Y-70501761D01*
X180174443Y-70458244D01*
X180086736Y-70386264D01*
X180014756Y-70298557D01*
X179980571Y-70234601D01*
X179961272Y-70198495D01*
X179951099Y-70164960D01*
X179928334Y-70089916D01*
X179917213Y-69977000D01*
X179928334Y-69864084D01*
X179961271Y-69755508D01*
X179961272Y-69755505D01*
X179999307Y-69684347D01*
X180014756Y-69655443D01*
X180086736Y-69567736D01*
X180163646Y-69504617D01*
X180180965Y-69487298D01*
X180194579Y-69466923D01*
X180203957Y-69444284D01*
X180208737Y-69420251D01*
X180208737Y-69395747D01*
X180203957Y-69371714D01*
X180194579Y-69349075D01*
X180180966Y-69328701D01*
X180163639Y-69311374D01*
X180143264Y-69297760D01*
X180120625Y-69288382D01*
X180096592Y-69283602D01*
X180084340Y-69283000D01*
X179920000Y-69283000D01*
X179920000Y-68131000D01*
X181522000Y-68131000D01*
X181522000Y-69283000D01*
X181522000Y-69283000D01*
G37*
G36*
X162779059Y-66079860D02*
G01*
X162915732Y-66136472D01*
X163038735Y-66218660D01*
X163143340Y-66323265D01*
X163225528Y-66446268D01*
X163282140Y-66582941D01*
X163311000Y-66728033D01*
X163311000Y-66875967D01*
X163282140Y-67021059D01*
X163225528Y-67157732D01*
X163143340Y-67280735D01*
X163038735Y-67385340D01*
X162915732Y-67467528D01*
X162915731Y-67467529D01*
X162915730Y-67467529D01*
X162779059Y-67524140D01*
X162633968Y-67553000D01*
X162486032Y-67553000D01*
X162340941Y-67524140D01*
X162204270Y-67467529D01*
X162204269Y-67467529D01*
X162204268Y-67467528D01*
X162081265Y-67385340D01*
X161976660Y-67280735D01*
X161894472Y-67157732D01*
X161837860Y-67021059D01*
X161809000Y-66875967D01*
X161809000Y-66728033D01*
X161837860Y-66582941D01*
X161894472Y-66446268D01*
X161976660Y-66323265D01*
X162081265Y-66218660D01*
X162204268Y-66136472D01*
X162340941Y-66079860D01*
X162486032Y-66051000D01*
X162633968Y-66051000D01*
X162779059Y-66079860D01*
X162779059Y-66079860D01*
G37*
G36*
X160239059Y-66079860D02*
G01*
X160375732Y-66136472D01*
X160498735Y-66218660D01*
X160603340Y-66323265D01*
X160685528Y-66446268D01*
X160742140Y-66582941D01*
X160771000Y-66728033D01*
X160771000Y-66875967D01*
X160742140Y-67021059D01*
X160685528Y-67157732D01*
X160603340Y-67280735D01*
X160498735Y-67385340D01*
X160375732Y-67467528D01*
X160375731Y-67467529D01*
X160375730Y-67467529D01*
X160239059Y-67524140D01*
X160093968Y-67553000D01*
X159946032Y-67553000D01*
X159800941Y-67524140D01*
X159664270Y-67467529D01*
X159664269Y-67467529D01*
X159664268Y-67467528D01*
X159541265Y-67385340D01*
X159436660Y-67280735D01*
X159354472Y-67157732D01*
X159297860Y-67021059D01*
X159269000Y-66875967D01*
X159269000Y-66728033D01*
X159297860Y-66582941D01*
X159354472Y-66446268D01*
X159436660Y-66323265D01*
X159541265Y-66218660D01*
X159664268Y-66136472D01*
X159800941Y-66079860D01*
X159946032Y-66051000D01*
X160093968Y-66051000D01*
X160239059Y-66079860D01*
X160239059Y-66079860D01*
G37*
G36*
X157699059Y-66079860D02*
G01*
X157835732Y-66136472D01*
X157958735Y-66218660D01*
X158063340Y-66323265D01*
X158145528Y-66446268D01*
X158202140Y-66582941D01*
X158231000Y-66728033D01*
X158231000Y-66875967D01*
X158202140Y-67021059D01*
X158145528Y-67157732D01*
X158063340Y-67280735D01*
X157958735Y-67385340D01*
X157835732Y-67467528D01*
X157835731Y-67467529D01*
X157835730Y-67467529D01*
X157699059Y-67524140D01*
X157553968Y-67553000D01*
X157406032Y-67553000D01*
X157260941Y-67524140D01*
X157124270Y-67467529D01*
X157124269Y-67467529D01*
X157124268Y-67467528D01*
X157001265Y-67385340D01*
X156896660Y-67280735D01*
X156814472Y-67157732D01*
X156757860Y-67021059D01*
X156729000Y-66875967D01*
X156729000Y-66728033D01*
X156757860Y-66582941D01*
X156814472Y-66446268D01*
X156896660Y-66323265D01*
X157001265Y-66218660D01*
X157124268Y-66136472D01*
X157260941Y-66079860D01*
X157406032Y-66051000D01*
X157553968Y-66051000D01*
X157699059Y-66079860D01*
X157699059Y-66079860D01*
G37*
G36*
X157699059Y-63539860D02*
G01*
X157835732Y-63596472D01*
X157958735Y-63678660D01*
X158063340Y-63783265D01*
X158145528Y-63906268D01*
X158202140Y-64042941D01*
X158231000Y-64188033D01*
X158231000Y-64335967D01*
X158202140Y-64481059D01*
X158145528Y-64617732D01*
X158063340Y-64740735D01*
X157958735Y-64845340D01*
X157835732Y-64927528D01*
X157835731Y-64927529D01*
X157835730Y-64927529D01*
X157699059Y-64984140D01*
X157553968Y-65013000D01*
X157406032Y-65013000D01*
X157260941Y-64984140D01*
X157124270Y-64927529D01*
X157124269Y-64927529D01*
X157124268Y-64927528D01*
X157001265Y-64845340D01*
X156896660Y-64740735D01*
X156814472Y-64617732D01*
X156757860Y-64481059D01*
X156729000Y-64335967D01*
X156729000Y-64188033D01*
X156757860Y-64042941D01*
X156814472Y-63906268D01*
X156896660Y-63783265D01*
X157001265Y-63678660D01*
X157124268Y-63596472D01*
X157260941Y-63539860D01*
X157406032Y-63511000D01*
X157553968Y-63511000D01*
X157699059Y-63539860D01*
X157699059Y-63539860D01*
G37*
G36*
X163311000Y-65013000D02*
G01*
X161809000Y-65013000D01*
X161809000Y-63511000D01*
X163311000Y-63511000D01*
X163311000Y-65013000D01*
X163311000Y-65013000D01*
G37*
G36*
X160239059Y-63539860D02*
G01*
X160375732Y-63596472D01*
X160498735Y-63678660D01*
X160603340Y-63783265D01*
X160685528Y-63906268D01*
X160742140Y-64042941D01*
X160771000Y-64188033D01*
X160771000Y-64335967D01*
X160742140Y-64481059D01*
X160685528Y-64617732D01*
X160603340Y-64740735D01*
X160498735Y-64845340D01*
X160375732Y-64927528D01*
X160375731Y-64927529D01*
X160375730Y-64927529D01*
X160239059Y-64984140D01*
X160093968Y-65013000D01*
X159946032Y-65013000D01*
X159800941Y-64984140D01*
X159664270Y-64927529D01*
X159664269Y-64927529D01*
X159664268Y-64927528D01*
X159541265Y-64845340D01*
X159436660Y-64740735D01*
X159354472Y-64617732D01*
X159297860Y-64481059D01*
X159269000Y-64335967D01*
X159269000Y-64188033D01*
X159297860Y-64042941D01*
X159354472Y-63906268D01*
X159436660Y-63783265D01*
X159541265Y-63678660D01*
X159664268Y-63596472D01*
X159800941Y-63539860D01*
X159946032Y-63511000D01*
X160093968Y-63511000D01*
X160239059Y-63539860D01*
X160239059Y-63539860D01*
G37*
G36*
X133038065Y-52102720D02*
G01*
X133038068Y-52102721D01*
X133038069Y-52102721D01*
X133217333Y-52157100D01*
X133217336Y-52157102D01*
X133217337Y-52157102D01*
X133382543Y-52245406D01*
X133527352Y-52364248D01*
X133646194Y-52509057D01*
X133702419Y-52614248D01*
X133734500Y-52674267D01*
X133788879Y-52853531D01*
X133788880Y-52853535D01*
X133802640Y-52993242D01*
X133802640Y-55586678D01*
X133788880Y-55726385D01*
X133788879Y-55726388D01*
X133788879Y-55726389D01*
X133734500Y-55905653D01*
X133734498Y-55905656D01*
X133734498Y-55905657D01*
X133646194Y-56070863D01*
X133527352Y-56215672D01*
X133382543Y-56334514D01*
X133217336Y-56422818D01*
X133217332Y-56422820D01*
X133038068Y-56477199D01*
X133038067Y-56477199D01*
X133038064Y-56477200D01*
X132851640Y-56495561D01*
X132665215Y-56477200D01*
X132665212Y-56477199D01*
X132665211Y-56477199D01*
X132485947Y-56422820D01*
X132485943Y-56422818D01*
X132320737Y-56334514D01*
X132175928Y-56215672D01*
X132057086Y-56070863D01*
X131968782Y-55905656D01*
X131968781Y-55905653D01*
X131968780Y-55905652D01*
X131914401Y-55726388D01*
X131914401Y-55726387D01*
X131914400Y-55726384D01*
X131900640Y-55586677D01*
X131900641Y-52993242D01*
X131914401Y-52853535D01*
X131914402Y-52853531D01*
X131968781Y-52674267D01*
X132000862Y-52614248D01*
X132057087Y-52509057D01*
X132175929Y-52364248D01*
X132320738Y-52245406D01*
X132485944Y-52157102D01*
X132485945Y-52157102D01*
X132485948Y-52157100D01*
X132665212Y-52102721D01*
X132665213Y-52102721D01*
X132665216Y-52102720D01*
X132851640Y-52084359D01*
X133038065Y-52102720D01*
X133038065Y-52102720D01*
G37*
G36*
X139038065Y-52352720D02*
G01*
X139038068Y-52352721D01*
X139038069Y-52352721D01*
X139217333Y-52407100D01*
X139217336Y-52407102D01*
X139217337Y-52407102D01*
X139382543Y-52495406D01*
X139527352Y-52614248D01*
X139646194Y-52759057D01*
X139696691Y-52853531D01*
X139734500Y-52924267D01*
X139755423Y-52993242D01*
X139788880Y-53103535D01*
X139802640Y-53243242D01*
X139802640Y-55336678D01*
X139788880Y-55476385D01*
X139788879Y-55476388D01*
X139788879Y-55476389D01*
X139734500Y-55655653D01*
X139734498Y-55655656D01*
X139734498Y-55655657D01*
X139646194Y-55820863D01*
X139527352Y-55965672D01*
X139382543Y-56084514D01*
X139217336Y-56172818D01*
X139217332Y-56172820D01*
X139038068Y-56227199D01*
X139038067Y-56227199D01*
X139038064Y-56227200D01*
X138851640Y-56245561D01*
X138665215Y-56227200D01*
X138665212Y-56227199D01*
X138665211Y-56227199D01*
X138485947Y-56172820D01*
X138485943Y-56172818D01*
X138320737Y-56084514D01*
X138175928Y-55965672D01*
X138057086Y-55820863D01*
X137968782Y-55655656D01*
X137968781Y-55655653D01*
X137968780Y-55655652D01*
X137914401Y-55476388D01*
X137914401Y-55476387D01*
X137914400Y-55476384D01*
X137900640Y-55336677D01*
X137900641Y-53243242D01*
X137914401Y-53103535D01*
X137947858Y-52993242D01*
X137968781Y-52924267D01*
X138006590Y-52853531D01*
X138057087Y-52759057D01*
X138175929Y-52614248D01*
X138320738Y-52495406D01*
X138485944Y-52407102D01*
X138485945Y-52407102D01*
X138485948Y-52407100D01*
X138665212Y-52352721D01*
X138665213Y-52352721D01*
X138665216Y-52352720D01*
X138851640Y-52334359D01*
X139038065Y-52352720D01*
X139038065Y-52352720D01*
G37*
M02*
