G04 #@! TF.GenerationSoftware,KiCad,Pcbnew,(5.1.4)-1*
G04 #@! TF.CreationDate,2021-01-18T10:38:23+05:30*
G04 #@! TF.ProjectId,power,706f7765-722e-46b6-9963-61645f706362,rev?*
G04 #@! TF.SameCoordinates,Original*
G04 #@! TF.FileFunction,Copper,L2,Bot*
G04 #@! TF.FilePolarity,Positive*
%FSLAX46Y46*%
G04 Gerber Fmt 4.6, Leading zero omitted, Abs format (unit mm)*
G04 Created by KiCad (PCBNEW (5.1.4)-1) date 2021-01-18 10:38:23*
%MOMM*%
%LPD*%
G04 APERTURE LIST*
%ADD10O,1.700000X1.700000*%
%ADD11R,1.700000X1.700000*%
%ADD12C,1.400000*%
%ADD13R,1.400000X1.400000*%
%ADD14R,1.500000X1.050000*%
%ADD15O,1.500000X1.050000*%
%ADD16C,1.524000*%
%ADD17O,1.800000X3.800000*%
%ADD18O,1.800000X4.300000*%
%ADD19C,1.800000*%
%ADD20C,1.300000*%
%ADD21R,1.650000X2.400000*%
%ADD22C,0.600000*%
%ADD23R,0.850000X0.280000*%
%ADD24C,0.800000*%
%ADD25C,0.250000*%
%ADD26C,0.500000*%
%ADD27C,0.254000*%
G04 APERTURE END LIST*
D10*
X179899509Y-119690274D03*
X179899509Y-117150274D03*
D11*
X179899509Y-114610274D03*
D12*
X157480000Y-66802000D03*
X157480000Y-64262000D03*
X160020000Y-66802000D03*
X160020000Y-64262000D03*
X162560000Y-66802000D03*
D13*
X162560000Y-64262000D03*
D14*
X180975000Y-81407000D03*
D15*
X180975000Y-83947000D03*
X180975000Y-82677000D03*
D14*
X180721000Y-68707000D03*
D15*
X180721000Y-71247000D03*
X180721000Y-69977000D03*
D16*
X157353000Y-102666800D03*
X164973000Y-106121200D03*
D17*
X138851640Y-54289960D03*
D18*
X132851640Y-54289960D03*
D14*
X140070840Y-92760800D03*
D15*
X140070840Y-95300800D03*
X140070840Y-94030800D03*
D14*
X139613640Y-80467200D03*
D15*
X139613640Y-83007200D03*
X139613640Y-81737200D03*
D14*
X139456160Y-68894960D03*
D15*
X139456160Y-71434960D03*
X139456160Y-70164960D03*
D14*
X180975000Y-93726000D03*
D15*
X180975000Y-96266000D03*
X180975000Y-94996000D03*
D19*
X191675252Y-104479217D03*
X181675252Y-104479217D03*
X186675252Y-104479217D03*
X162226000Y-125095000D03*
X152226000Y-125095000D03*
X157226000Y-125095000D03*
D20*
X133477000Y-114427000D03*
X133477000Y-111887000D03*
X133477000Y-109347000D03*
X133477000Y-116967000D03*
X136017000Y-110617000D03*
X136017000Y-113157000D03*
X136017000Y-115697000D03*
X136017000Y-118237000D03*
D21*
X189103000Y-59690000D03*
D22*
X189103000Y-59690000D03*
X189583000Y-60550000D03*
X189583000Y-58830000D03*
X188623000Y-60550000D03*
X188623000Y-58830000D03*
D23*
X190578000Y-59190000D03*
D24*
X173609000Y-72680000D03*
X173609000Y-50673000D03*
X183134000Y-62103000D03*
X187833000Y-56134000D03*
X161036000Y-95885000D03*
X146558000Y-72263000D03*
X156972000Y-51435000D03*
X150680862Y-111409539D03*
X190246000Y-80518000D03*
X172974000Y-130683000D03*
X175895000Y-84455000D03*
X193167000Y-53975000D03*
X148082000Y-61214000D03*
X150876000Y-92075000D03*
X147808507Y-84970704D03*
X190881000Y-92329000D03*
X134747000Y-90551000D03*
X167259000Y-65405000D03*
X167767000Y-82296004D03*
X148218434Y-83564246D03*
X151765000Y-93726000D03*
X169672000Y-85725000D03*
X152146000Y-85090000D03*
X153416000Y-86360000D03*
D25*
X189103000Y-59690000D02*
X189103000Y-57404000D01*
X189103000Y-57404000D02*
X187833000Y-56134000D01*
D26*
X166693315Y-65405000D02*
X167259000Y-65405000D01*
X166446316Y-65651999D02*
X166693315Y-65405000D01*
X158630001Y-65651999D02*
X166446316Y-65651999D01*
X157480000Y-66802000D02*
X158630001Y-65651999D01*
X148618433Y-83964245D02*
X148218434Y-83564246D01*
X152030188Y-87376000D02*
X148618433Y-83964245D01*
X151765000Y-87641188D02*
X152030188Y-87376000D01*
X151765000Y-93726000D02*
X151765000Y-87641188D01*
X168021000Y-87376000D02*
X169272001Y-86124999D01*
X169272001Y-86124999D02*
X169672000Y-85725000D01*
X152030188Y-87376000D02*
X168021000Y-87376000D01*
D25*
X139430000Y-68868800D02*
X139456160Y-68894960D01*
X139681160Y-71434960D02*
X139456160Y-71434960D01*
X139613640Y-80467200D02*
X140613640Y-80467200D01*
X140613640Y-80467200D02*
X142214600Y-78866240D01*
X142214600Y-78866240D02*
X142214600Y-73968400D01*
X142214600Y-73968400D02*
X139681160Y-71434960D01*
X139613640Y-83888280D02*
X139613640Y-83007200D01*
X141401800Y-92760800D02*
X143103600Y-91059000D01*
X140070840Y-92760800D02*
X141401800Y-92760800D01*
X143103600Y-91059000D02*
X143103600Y-87378240D01*
X143103600Y-87378240D02*
X139613640Y-83888280D01*
D26*
X180975000Y-84972000D02*
X178054000Y-87893000D01*
X180975000Y-83947000D02*
X180975000Y-84972000D01*
X178054000Y-91030000D02*
X180750000Y-93726000D01*
X180750000Y-93726000D02*
X180975000Y-93726000D01*
X178054000Y-87893000D02*
X178054000Y-91030000D01*
D25*
X152146000Y-65532000D02*
X152146000Y-85090000D01*
X156464000Y-61214000D02*
X152146000Y-65532000D01*
X160462000Y-61214000D02*
X156464000Y-61214000D01*
X162560000Y-64262000D02*
X162560000Y-63312000D01*
X162560000Y-63312000D02*
X160462000Y-61214000D01*
X153416000Y-73406000D02*
X153416000Y-86360000D01*
X160020000Y-66802000D02*
X153416000Y-73406000D01*
D26*
X180340000Y-81407000D02*
X180975000Y-81407000D01*
X178181000Y-79248000D02*
X180340000Y-81407000D01*
X178181000Y-76708000D02*
X178181000Y-79248000D01*
X180721000Y-71247000D02*
X180721000Y-74168000D01*
X180721000Y-74168000D02*
X178181000Y-76708000D01*
D27*
G36*
X196877001Y-132803000D02*
G01*
X132235000Y-132803000D01*
X132235000Y-126159080D01*
X151341525Y-126159080D01*
X151425208Y-126413261D01*
X151697775Y-126544158D01*
X151990642Y-126619365D01*
X152292553Y-126635991D01*
X152591907Y-126593397D01*
X152877199Y-126493222D01*
X153026792Y-126413261D01*
X153110475Y-126159080D01*
X156341525Y-126159080D01*
X156425208Y-126413261D01*
X156697775Y-126544158D01*
X156990642Y-126619365D01*
X157292553Y-126635991D01*
X157591907Y-126593397D01*
X157877199Y-126493222D01*
X158026792Y-126413261D01*
X158110475Y-126159080D01*
X157226000Y-125274605D01*
X156341525Y-126159080D01*
X153110475Y-126159080D01*
X152226000Y-125274605D01*
X151341525Y-126159080D01*
X132235000Y-126159080D01*
X132235000Y-125161553D01*
X150685009Y-125161553D01*
X150727603Y-125460907D01*
X150827778Y-125746199D01*
X150907739Y-125895792D01*
X151161920Y-125979475D01*
X152046395Y-125095000D01*
X152405605Y-125095000D01*
X153290080Y-125979475D01*
X153544261Y-125895792D01*
X153675158Y-125623225D01*
X153750365Y-125330358D01*
X153759660Y-125161553D01*
X155685009Y-125161553D01*
X155727603Y-125460907D01*
X155827778Y-125746199D01*
X155907739Y-125895792D01*
X156161920Y-125979475D01*
X157046395Y-125095000D01*
X157405605Y-125095000D01*
X158290080Y-125979475D01*
X158544261Y-125895792D01*
X158675158Y-125623225D01*
X158750365Y-125330358D01*
X158766991Y-125028447D01*
X158754950Y-124943816D01*
X160691000Y-124943816D01*
X160691000Y-125246184D01*
X160749989Y-125542743D01*
X160865701Y-125822095D01*
X161033688Y-126073505D01*
X161247495Y-126287312D01*
X161498905Y-126455299D01*
X161778257Y-126571011D01*
X162074816Y-126630000D01*
X162377184Y-126630000D01*
X162673743Y-126571011D01*
X162953095Y-126455299D01*
X163204505Y-126287312D01*
X163418312Y-126073505D01*
X163586299Y-125822095D01*
X163702011Y-125542743D01*
X163761000Y-125246184D01*
X163761000Y-124943816D01*
X163702011Y-124647257D01*
X163586299Y-124367905D01*
X163418312Y-124116495D01*
X163204505Y-123902688D01*
X162953095Y-123734701D01*
X162673743Y-123618989D01*
X162377184Y-123560000D01*
X162074816Y-123560000D01*
X161778257Y-123618989D01*
X161498905Y-123734701D01*
X161247495Y-123902688D01*
X161033688Y-124116495D01*
X160865701Y-124367905D01*
X160749989Y-124647257D01*
X160691000Y-124943816D01*
X158754950Y-124943816D01*
X158724397Y-124729093D01*
X158624222Y-124443801D01*
X158544261Y-124294208D01*
X158290080Y-124210525D01*
X157405605Y-125095000D01*
X157046395Y-125095000D01*
X156161920Y-124210525D01*
X155907739Y-124294208D01*
X155776842Y-124566775D01*
X155701635Y-124859642D01*
X155685009Y-125161553D01*
X153759660Y-125161553D01*
X153766991Y-125028447D01*
X153724397Y-124729093D01*
X153624222Y-124443801D01*
X153544261Y-124294208D01*
X153290080Y-124210525D01*
X152405605Y-125095000D01*
X152046395Y-125095000D01*
X151161920Y-124210525D01*
X150907739Y-124294208D01*
X150776842Y-124566775D01*
X150701635Y-124859642D01*
X150685009Y-125161553D01*
X132235000Y-125161553D01*
X132235000Y-124030920D01*
X151341525Y-124030920D01*
X152226000Y-124915395D01*
X153110475Y-124030920D01*
X156341525Y-124030920D01*
X157226000Y-124915395D01*
X158110475Y-124030920D01*
X158026792Y-123776739D01*
X157754225Y-123645842D01*
X157461358Y-123570635D01*
X157159447Y-123554009D01*
X156860093Y-123596603D01*
X156574801Y-123696778D01*
X156425208Y-123776739D01*
X156341525Y-124030920D01*
X153110475Y-124030920D01*
X153026792Y-123776739D01*
X152754225Y-123645842D01*
X152461358Y-123570635D01*
X152159447Y-123554009D01*
X151860093Y-123596603D01*
X151574801Y-123696778D01*
X151425208Y-123776739D01*
X151341525Y-124030920D01*
X132235000Y-124030920D01*
X132235000Y-120047164D01*
X178458033Y-120047164D01*
X178502684Y-120194373D01*
X178627868Y-120457194D01*
X178801921Y-120690543D01*
X179018154Y-120885452D01*
X179268257Y-121034431D01*
X179542618Y-121131755D01*
X179772509Y-121011088D01*
X179772509Y-119817274D01*
X180026509Y-119817274D01*
X180026509Y-121011088D01*
X180256400Y-121131755D01*
X180530761Y-121034431D01*
X180780864Y-120885452D01*
X180997097Y-120690543D01*
X181171150Y-120457194D01*
X181296334Y-120194373D01*
X181340985Y-120047164D01*
X181219664Y-119817274D01*
X180026509Y-119817274D01*
X179772509Y-119817274D01*
X178579354Y-119817274D01*
X178458033Y-120047164D01*
X132235000Y-120047164D01*
X132235000Y-119122527D01*
X135311078Y-119122527D01*
X135364466Y-119351201D01*
X135594374Y-119457095D01*
X135840524Y-119516102D01*
X136093455Y-119525952D01*
X136343449Y-119486270D01*
X136580896Y-119398578D01*
X136669534Y-119351201D01*
X136722922Y-119122527D01*
X136017000Y-118416605D01*
X135311078Y-119122527D01*
X132235000Y-119122527D01*
X132235000Y-118313455D01*
X134728048Y-118313455D01*
X134767730Y-118563449D01*
X134855422Y-118800896D01*
X134902799Y-118889534D01*
X135131473Y-118942922D01*
X135837395Y-118237000D01*
X136196605Y-118237000D01*
X136902527Y-118942922D01*
X137131201Y-118889534D01*
X137237095Y-118659626D01*
X137296102Y-118413476D01*
X137305952Y-118160545D01*
X137266270Y-117910551D01*
X137178578Y-117673104D01*
X137131201Y-117584466D01*
X136902527Y-117531078D01*
X136196605Y-118237000D01*
X135837395Y-118237000D01*
X135131473Y-117531078D01*
X134902799Y-117584466D01*
X134796905Y-117814374D01*
X134737898Y-118060524D01*
X134728048Y-118313455D01*
X132235000Y-118313455D01*
X132235000Y-117309741D01*
X132241381Y-117341821D01*
X132338247Y-117575676D01*
X132478875Y-117786140D01*
X132657860Y-117965125D01*
X132868324Y-118105753D01*
X133102179Y-118202619D01*
X133350439Y-118252000D01*
X133603561Y-118252000D01*
X133851821Y-118202619D01*
X134085676Y-118105753D01*
X134296140Y-117965125D01*
X134475125Y-117786140D01*
X134615753Y-117575676D01*
X134712619Y-117341821D01*
X134762000Y-117093561D01*
X134762000Y-116840439D01*
X134712619Y-116592179D01*
X134615753Y-116358324D01*
X134475125Y-116147860D01*
X134296140Y-115968875D01*
X134085676Y-115828247D01*
X133851821Y-115731381D01*
X133678973Y-115697000D01*
X133851821Y-115662619D01*
X134085676Y-115565753D01*
X134296140Y-115425125D01*
X134475125Y-115246140D01*
X134615753Y-115035676D01*
X134712619Y-114801821D01*
X134762000Y-114553561D01*
X134762000Y-114300439D01*
X134712619Y-114052179D01*
X134615753Y-113818324D01*
X134475125Y-113607860D01*
X134296140Y-113428875D01*
X134085676Y-113288247D01*
X133851821Y-113191381D01*
X133678973Y-113157000D01*
X133851821Y-113122619D01*
X134085676Y-113025753D01*
X134296140Y-112885125D01*
X134475125Y-112706140D01*
X134615753Y-112495676D01*
X134712619Y-112261821D01*
X134762000Y-112013561D01*
X134762000Y-111760439D01*
X134712619Y-111512179D01*
X134615753Y-111278324D01*
X134475125Y-111067860D01*
X134296140Y-110888875D01*
X134085676Y-110748247D01*
X133851821Y-110651381D01*
X133678973Y-110617000D01*
X133851821Y-110582619D01*
X134074363Y-110490439D01*
X134732000Y-110490439D01*
X134732000Y-110743561D01*
X134781381Y-110991821D01*
X134878247Y-111225676D01*
X135018875Y-111436140D01*
X135197860Y-111615125D01*
X135408324Y-111755753D01*
X135642179Y-111852619D01*
X135815027Y-111887000D01*
X135642179Y-111921381D01*
X135408324Y-112018247D01*
X135197860Y-112158875D01*
X135018875Y-112337860D01*
X134878247Y-112548324D01*
X134781381Y-112782179D01*
X134732000Y-113030439D01*
X134732000Y-113283561D01*
X134781381Y-113531821D01*
X134878247Y-113765676D01*
X135018875Y-113976140D01*
X135197860Y-114155125D01*
X135408324Y-114295753D01*
X135642179Y-114392619D01*
X135815027Y-114427000D01*
X135642179Y-114461381D01*
X135408324Y-114558247D01*
X135197860Y-114698875D01*
X135018875Y-114877860D01*
X134878247Y-115088324D01*
X134781381Y-115322179D01*
X134732000Y-115570439D01*
X134732000Y-115823561D01*
X134781381Y-116071821D01*
X134878247Y-116305676D01*
X135018875Y-116516140D01*
X135197860Y-116695125D01*
X135408324Y-116835753D01*
X135642179Y-116932619D01*
X135817744Y-116967540D01*
X135690551Y-116987730D01*
X135453104Y-117075422D01*
X135364466Y-117122799D01*
X135311078Y-117351473D01*
X136017000Y-118057395D01*
X136722922Y-117351473D01*
X136675949Y-117150274D01*
X178407324Y-117150274D01*
X178435996Y-117441385D01*
X178520910Y-117721308D01*
X178658803Y-117979288D01*
X178844375Y-118205408D01*
X179070495Y-118390980D01*
X179135032Y-118425475D01*
X179018154Y-118495096D01*
X178801921Y-118690005D01*
X178627868Y-118923354D01*
X178502684Y-119186175D01*
X178458033Y-119333384D01*
X178579354Y-119563274D01*
X179772509Y-119563274D01*
X179772509Y-119543274D01*
X180026509Y-119543274D01*
X180026509Y-119563274D01*
X181219664Y-119563274D01*
X181340985Y-119333384D01*
X181296334Y-119186175D01*
X181171150Y-118923354D01*
X180997097Y-118690005D01*
X180780864Y-118495096D01*
X180663986Y-118425475D01*
X180728523Y-118390980D01*
X180954643Y-118205408D01*
X181140215Y-117979288D01*
X181278108Y-117721308D01*
X181363022Y-117441385D01*
X181391694Y-117150274D01*
X181363022Y-116859163D01*
X181278108Y-116579240D01*
X181140215Y-116321260D01*
X180954643Y-116095140D01*
X180924822Y-116070667D01*
X180993689Y-116049776D01*
X181104003Y-115990811D01*
X181200694Y-115911459D01*
X181280046Y-115814768D01*
X181339011Y-115704454D01*
X181375321Y-115584756D01*
X181387581Y-115460274D01*
X181387581Y-113760274D01*
X181375321Y-113635792D01*
X181339011Y-113516094D01*
X181280046Y-113405780D01*
X181200694Y-113309089D01*
X181104003Y-113229737D01*
X180993689Y-113170772D01*
X180873991Y-113134462D01*
X180749509Y-113122202D01*
X179049509Y-113122202D01*
X178925027Y-113134462D01*
X178805329Y-113170772D01*
X178695015Y-113229737D01*
X178598324Y-113309089D01*
X178518972Y-113405780D01*
X178460007Y-113516094D01*
X178423697Y-113635792D01*
X178411437Y-113760274D01*
X178411437Y-115460274D01*
X178423697Y-115584756D01*
X178460007Y-115704454D01*
X178518972Y-115814768D01*
X178598324Y-115911459D01*
X178695015Y-115990811D01*
X178805329Y-116049776D01*
X178874196Y-116070667D01*
X178844375Y-116095140D01*
X178658803Y-116321260D01*
X178520910Y-116579240D01*
X178435996Y-116859163D01*
X178407324Y-117150274D01*
X136675949Y-117150274D01*
X136669534Y-117122799D01*
X136439626Y-117016905D01*
X136225789Y-116965644D01*
X136391821Y-116932619D01*
X136625676Y-116835753D01*
X136836140Y-116695125D01*
X137015125Y-116516140D01*
X137155753Y-116305676D01*
X137252619Y-116071821D01*
X137302000Y-115823561D01*
X137302000Y-115570439D01*
X137252619Y-115322179D01*
X137155753Y-115088324D01*
X137015125Y-114877860D01*
X136836140Y-114698875D01*
X136625676Y-114558247D01*
X136391821Y-114461381D01*
X136218973Y-114427000D01*
X136391821Y-114392619D01*
X136625676Y-114295753D01*
X136836140Y-114155125D01*
X137015125Y-113976140D01*
X137155753Y-113765676D01*
X137252619Y-113531821D01*
X137302000Y-113283561D01*
X137302000Y-113030439D01*
X137252619Y-112782179D01*
X137155753Y-112548324D01*
X137015125Y-112337860D01*
X136836140Y-112158875D01*
X136625676Y-112018247D01*
X136391821Y-111921381D01*
X136218973Y-111887000D01*
X136391821Y-111852619D01*
X136625676Y-111755753D01*
X136836140Y-111615125D01*
X137015125Y-111436140D01*
X137155753Y-111225676D01*
X137252619Y-110991821D01*
X137302000Y-110743561D01*
X137302000Y-110490439D01*
X137252619Y-110242179D01*
X137155753Y-110008324D01*
X137015125Y-109797860D01*
X136836140Y-109618875D01*
X136625676Y-109478247D01*
X136391821Y-109381381D01*
X136143561Y-109332000D01*
X135890439Y-109332000D01*
X135642179Y-109381381D01*
X135408324Y-109478247D01*
X135197860Y-109618875D01*
X135018875Y-109797860D01*
X134878247Y-110008324D01*
X134781381Y-110242179D01*
X134732000Y-110490439D01*
X134074363Y-110490439D01*
X134085676Y-110485753D01*
X134296140Y-110345125D01*
X134475125Y-110166140D01*
X134615753Y-109955676D01*
X134712619Y-109721821D01*
X134762000Y-109473561D01*
X134762000Y-109220439D01*
X134712619Y-108972179D01*
X134615753Y-108738324D01*
X134475125Y-108527860D01*
X134296140Y-108348875D01*
X134085676Y-108208247D01*
X133851821Y-108111381D01*
X133603561Y-108062000D01*
X133350439Y-108062000D01*
X133102179Y-108111381D01*
X132868324Y-108208247D01*
X132657860Y-108348875D01*
X132478875Y-108527860D01*
X132338247Y-108738324D01*
X132241381Y-108972179D01*
X132235000Y-109004259D01*
X132235000Y-105983608D01*
X163576000Y-105983608D01*
X163576000Y-106258792D01*
X163629686Y-106528690D01*
X163734995Y-106782927D01*
X163887880Y-107011735D01*
X164082465Y-107206320D01*
X164311273Y-107359205D01*
X164565510Y-107464514D01*
X164835408Y-107518200D01*
X165110592Y-107518200D01*
X165380490Y-107464514D01*
X165634727Y-107359205D01*
X165863535Y-107206320D01*
X166058120Y-107011735D01*
X166211005Y-106782927D01*
X166316314Y-106528690D01*
X166370000Y-106258792D01*
X166370000Y-105983608D01*
X166316314Y-105713710D01*
X166245727Y-105543297D01*
X180790777Y-105543297D01*
X180874460Y-105797478D01*
X181147027Y-105928375D01*
X181439894Y-106003582D01*
X181741805Y-106020208D01*
X182041159Y-105977614D01*
X182326451Y-105877439D01*
X182476044Y-105797478D01*
X182559727Y-105543297D01*
X185790777Y-105543297D01*
X185874460Y-105797478D01*
X186147027Y-105928375D01*
X186439894Y-106003582D01*
X186741805Y-106020208D01*
X187041159Y-105977614D01*
X187326451Y-105877439D01*
X187476044Y-105797478D01*
X187559727Y-105543297D01*
X186675252Y-104658822D01*
X185790777Y-105543297D01*
X182559727Y-105543297D01*
X181675252Y-104658822D01*
X180790777Y-105543297D01*
X166245727Y-105543297D01*
X166211005Y-105459473D01*
X166058120Y-105230665D01*
X165863535Y-105036080D01*
X165634727Y-104883195D01*
X165380490Y-104777886D01*
X165110592Y-104724200D01*
X164835408Y-104724200D01*
X164565510Y-104777886D01*
X164311273Y-104883195D01*
X164082465Y-105036080D01*
X163887880Y-105230665D01*
X163734995Y-105459473D01*
X163629686Y-105713710D01*
X163576000Y-105983608D01*
X132235000Y-105983608D01*
X132235000Y-104545770D01*
X180134261Y-104545770D01*
X180176855Y-104845124D01*
X180277030Y-105130416D01*
X180356991Y-105280009D01*
X180611172Y-105363692D01*
X181495647Y-104479217D01*
X181854857Y-104479217D01*
X182739332Y-105363692D01*
X182993513Y-105280009D01*
X183124410Y-105007442D01*
X183199617Y-104714575D01*
X183208912Y-104545770D01*
X185134261Y-104545770D01*
X185176855Y-104845124D01*
X185277030Y-105130416D01*
X185356991Y-105280009D01*
X185611172Y-105363692D01*
X186495647Y-104479217D01*
X186854857Y-104479217D01*
X187739332Y-105363692D01*
X187993513Y-105280009D01*
X188124410Y-105007442D01*
X188199617Y-104714575D01*
X188216243Y-104412664D01*
X188204202Y-104328033D01*
X190140252Y-104328033D01*
X190140252Y-104630401D01*
X190199241Y-104926960D01*
X190314953Y-105206312D01*
X190482940Y-105457722D01*
X190696747Y-105671529D01*
X190948157Y-105839516D01*
X191227509Y-105955228D01*
X191524068Y-106014217D01*
X191826436Y-106014217D01*
X192122995Y-105955228D01*
X192402347Y-105839516D01*
X192653757Y-105671529D01*
X192867564Y-105457722D01*
X193035551Y-105206312D01*
X193151263Y-104926960D01*
X193210252Y-104630401D01*
X193210252Y-104328033D01*
X193151263Y-104031474D01*
X193035551Y-103752122D01*
X192867564Y-103500712D01*
X192653757Y-103286905D01*
X192402347Y-103118918D01*
X192122995Y-103003206D01*
X191826436Y-102944217D01*
X191524068Y-102944217D01*
X191227509Y-103003206D01*
X190948157Y-103118918D01*
X190696747Y-103286905D01*
X190482940Y-103500712D01*
X190314953Y-103752122D01*
X190199241Y-104031474D01*
X190140252Y-104328033D01*
X188204202Y-104328033D01*
X188173649Y-104113310D01*
X188073474Y-103828018D01*
X187993513Y-103678425D01*
X187739332Y-103594742D01*
X186854857Y-104479217D01*
X186495647Y-104479217D01*
X185611172Y-103594742D01*
X185356991Y-103678425D01*
X185226094Y-103950992D01*
X185150887Y-104243859D01*
X185134261Y-104545770D01*
X183208912Y-104545770D01*
X183216243Y-104412664D01*
X183173649Y-104113310D01*
X183073474Y-103828018D01*
X182993513Y-103678425D01*
X182739332Y-103594742D01*
X181854857Y-104479217D01*
X181495647Y-104479217D01*
X180611172Y-103594742D01*
X180356991Y-103678425D01*
X180226094Y-103950992D01*
X180150887Y-104243859D01*
X180134261Y-104545770D01*
X132235000Y-104545770D01*
X132235000Y-102529208D01*
X155956000Y-102529208D01*
X155956000Y-102804392D01*
X156009686Y-103074290D01*
X156114995Y-103328527D01*
X156267880Y-103557335D01*
X156462465Y-103751920D01*
X156691273Y-103904805D01*
X156945510Y-104010114D01*
X157215408Y-104063800D01*
X157490592Y-104063800D01*
X157760490Y-104010114D01*
X158014727Y-103904805D01*
X158243535Y-103751920D01*
X158438120Y-103557335D01*
X158533133Y-103415137D01*
X180790777Y-103415137D01*
X181675252Y-104299612D01*
X182559727Y-103415137D01*
X185790777Y-103415137D01*
X186675252Y-104299612D01*
X187559727Y-103415137D01*
X187476044Y-103160956D01*
X187203477Y-103030059D01*
X186910610Y-102954852D01*
X186608699Y-102938226D01*
X186309345Y-102980820D01*
X186024053Y-103080995D01*
X185874460Y-103160956D01*
X185790777Y-103415137D01*
X182559727Y-103415137D01*
X182476044Y-103160956D01*
X182203477Y-103030059D01*
X181910610Y-102954852D01*
X181608699Y-102938226D01*
X181309345Y-102980820D01*
X181024053Y-103080995D01*
X180874460Y-103160956D01*
X180790777Y-103415137D01*
X158533133Y-103415137D01*
X158591005Y-103328527D01*
X158696314Y-103074290D01*
X158750000Y-102804392D01*
X158750000Y-102529208D01*
X158696314Y-102259310D01*
X158591005Y-102005073D01*
X158438120Y-101776265D01*
X158243535Y-101581680D01*
X158014727Y-101428795D01*
X157760490Y-101323486D01*
X157490592Y-101269800D01*
X157215408Y-101269800D01*
X156945510Y-101323486D01*
X156691273Y-101428795D01*
X156462465Y-101581680D01*
X156267880Y-101776265D01*
X156114995Y-102005073D01*
X156009686Y-102259310D01*
X155956000Y-102529208D01*
X132235000Y-102529208D01*
X132235000Y-70164960D01*
X138065548Y-70164960D01*
X138087945Y-70392360D01*
X138154275Y-70611020D01*
X138255265Y-70799960D01*
X138154275Y-70988900D01*
X138087945Y-71207560D01*
X138065548Y-71434960D01*
X138087945Y-71662360D01*
X138154275Y-71881020D01*
X138261989Y-72082539D01*
X138406948Y-72259172D01*
X138583581Y-72404131D01*
X138785100Y-72511845D01*
X139003760Y-72578175D01*
X139174181Y-72594960D01*
X139738139Y-72594960D01*
X139763829Y-72592430D01*
X141454601Y-74283203D01*
X141454600Y-78551438D01*
X140637484Y-79368554D01*
X140607820Y-79352698D01*
X140488122Y-79316388D01*
X140363640Y-79304128D01*
X138863640Y-79304128D01*
X138739158Y-79316388D01*
X138619460Y-79352698D01*
X138509146Y-79411663D01*
X138412455Y-79491015D01*
X138333103Y-79587706D01*
X138274138Y-79698020D01*
X138237828Y-79817718D01*
X138225568Y-79942200D01*
X138225568Y-80992200D01*
X138237828Y-81116682D01*
X138274138Y-81236380D01*
X138308733Y-81301102D01*
X138245425Y-81509800D01*
X138223028Y-81737200D01*
X138245425Y-81964600D01*
X138311755Y-82183260D01*
X138412745Y-82372200D01*
X138311755Y-82561140D01*
X138245425Y-82779800D01*
X138223028Y-83007200D01*
X138245425Y-83234600D01*
X138311755Y-83453260D01*
X138419469Y-83654779D01*
X138564428Y-83831412D01*
X138741061Y-83976371D01*
X138866505Y-84043422D01*
X138895114Y-84137735D01*
X138908094Y-84180526D01*
X138978666Y-84312556D01*
X139018511Y-84361106D01*
X139073639Y-84428281D01*
X139102643Y-84452084D01*
X142343601Y-87693043D01*
X142343600Y-90744198D01*
X141286070Y-91801729D01*
X141272025Y-91784615D01*
X141175334Y-91705263D01*
X141065020Y-91646298D01*
X140945322Y-91609988D01*
X140820840Y-91597728D01*
X139320840Y-91597728D01*
X139196358Y-91609988D01*
X139076660Y-91646298D01*
X138966346Y-91705263D01*
X138869655Y-91784615D01*
X138790303Y-91881306D01*
X138731338Y-91991620D01*
X138695028Y-92111318D01*
X138682768Y-92235800D01*
X138682768Y-93285800D01*
X138695028Y-93410282D01*
X138731338Y-93529980D01*
X138765933Y-93594702D01*
X138702625Y-93803400D01*
X138680228Y-94030800D01*
X138702625Y-94258200D01*
X138768955Y-94476860D01*
X138869945Y-94665800D01*
X138768955Y-94854740D01*
X138702625Y-95073400D01*
X138680228Y-95300800D01*
X138702625Y-95528200D01*
X138768955Y-95746860D01*
X138876669Y-95948379D01*
X139021628Y-96125012D01*
X139198261Y-96269971D01*
X139399780Y-96377685D01*
X139618440Y-96444015D01*
X139788861Y-96460800D01*
X140352819Y-96460800D01*
X140523240Y-96444015D01*
X140741900Y-96377685D01*
X140943419Y-96269971D01*
X141120052Y-96125012D01*
X141265011Y-95948379D01*
X141372725Y-95746860D01*
X141439055Y-95528200D01*
X141461452Y-95300800D01*
X141439055Y-95073400D01*
X141372725Y-94854740D01*
X141271735Y-94665800D01*
X141372725Y-94476860D01*
X141439055Y-94258200D01*
X141461452Y-94030800D01*
X141439055Y-93803400D01*
X141375747Y-93594702D01*
X141410342Y-93529980D01*
X141412326Y-93523439D01*
X141439122Y-93520800D01*
X141439133Y-93520800D01*
X141550786Y-93509803D01*
X141694047Y-93466346D01*
X141826076Y-93395774D01*
X141941801Y-93300801D01*
X141965604Y-93271797D01*
X143614604Y-91622798D01*
X143643601Y-91599001D01*
X143738574Y-91483276D01*
X143809146Y-91351247D01*
X143852603Y-91207986D01*
X143863600Y-91096333D01*
X143863600Y-91096325D01*
X143867276Y-91059000D01*
X143863600Y-91021675D01*
X143863600Y-87415565D01*
X143867276Y-87378240D01*
X143863600Y-87340915D01*
X143863600Y-87340907D01*
X143852603Y-87229254D01*
X143809146Y-87085993D01*
X143738574Y-86953964D01*
X143643601Y-86838239D01*
X143614603Y-86814441D01*
X140645672Y-83845511D01*
X140662852Y-83831412D01*
X140807811Y-83654779D01*
X140910689Y-83462307D01*
X147183434Y-83462307D01*
X147183434Y-83666185D01*
X147223208Y-83866144D01*
X147301229Y-84054502D01*
X147414497Y-84224020D01*
X147558660Y-84368183D01*
X147728178Y-84481451D01*
X147916536Y-84559472D01*
X147973391Y-84570781D01*
X150890788Y-87488179D01*
X150875719Y-87641188D01*
X150880001Y-87684667D01*
X150880000Y-93187546D01*
X150847795Y-93235744D01*
X150769774Y-93424102D01*
X150730000Y-93624061D01*
X150730000Y-93827939D01*
X150769774Y-94027898D01*
X150847795Y-94216256D01*
X150961063Y-94385774D01*
X151105226Y-94529937D01*
X151274744Y-94643205D01*
X151463102Y-94721226D01*
X151663061Y-94761000D01*
X151866939Y-94761000D01*
X152066898Y-94721226D01*
X152255256Y-94643205D01*
X152424774Y-94529937D01*
X152568937Y-94385774D01*
X152682205Y-94216256D01*
X152760226Y-94027898D01*
X152800000Y-93827939D01*
X152800000Y-93624061D01*
X152760226Y-93424102D01*
X152682205Y-93235744D01*
X152650000Y-93187546D01*
X152650000Y-88261000D01*
X167977531Y-88261000D01*
X168021000Y-88265281D01*
X168064469Y-88261000D01*
X168064477Y-88261000D01*
X168194490Y-88248195D01*
X168361313Y-88197589D01*
X168515059Y-88115411D01*
X168649817Y-88004817D01*
X168677534Y-87971044D01*
X168755578Y-87893000D01*
X177164719Y-87893000D01*
X177169000Y-87936469D01*
X177169001Y-90986521D01*
X177164719Y-91030000D01*
X177181805Y-91203490D01*
X177232412Y-91370313D01*
X177314590Y-91524059D01*
X177397468Y-91625046D01*
X177397471Y-91625049D01*
X177425184Y-91658817D01*
X177458951Y-91686529D01*
X179586928Y-93814507D01*
X179586928Y-94251000D01*
X179599188Y-94375482D01*
X179635498Y-94495180D01*
X179670093Y-94559902D01*
X179606785Y-94768600D01*
X179584388Y-94996000D01*
X179606785Y-95223400D01*
X179673115Y-95442060D01*
X179774105Y-95631000D01*
X179673115Y-95819940D01*
X179606785Y-96038600D01*
X179584388Y-96266000D01*
X179606785Y-96493400D01*
X179673115Y-96712060D01*
X179780829Y-96913579D01*
X179925788Y-97090212D01*
X180102421Y-97235171D01*
X180303940Y-97342885D01*
X180522600Y-97409215D01*
X180693021Y-97426000D01*
X181256979Y-97426000D01*
X181427400Y-97409215D01*
X181646060Y-97342885D01*
X181847579Y-97235171D01*
X182024212Y-97090212D01*
X182169171Y-96913579D01*
X182276885Y-96712060D01*
X182343215Y-96493400D01*
X182365612Y-96266000D01*
X182343215Y-96038600D01*
X182276885Y-95819940D01*
X182175895Y-95631000D01*
X182276885Y-95442060D01*
X182343215Y-95223400D01*
X182365612Y-94996000D01*
X182343215Y-94768600D01*
X182279907Y-94559902D01*
X182314502Y-94495180D01*
X182350812Y-94375482D01*
X182363072Y-94251000D01*
X182363072Y-93201000D01*
X182350812Y-93076518D01*
X182314502Y-92956820D01*
X182255537Y-92846506D01*
X182176185Y-92749815D01*
X182079494Y-92670463D01*
X181969180Y-92611498D01*
X181849482Y-92575188D01*
X181725000Y-92562928D01*
X180838507Y-92562928D01*
X178939000Y-90663422D01*
X178939000Y-88259578D01*
X181570049Y-85628530D01*
X181603817Y-85600817D01*
X181689690Y-85496182D01*
X181714411Y-85466059D01*
X181757423Y-85385588D01*
X181796589Y-85312313D01*
X181847195Y-85145490D01*
X181860000Y-85015477D01*
X181860000Y-85015469D01*
X181864281Y-84972000D01*
X181860000Y-84928531D01*
X181860000Y-84905977D01*
X182024212Y-84771212D01*
X182169171Y-84594579D01*
X182276885Y-84393060D01*
X182343215Y-84174400D01*
X182365612Y-83947000D01*
X182343215Y-83719600D01*
X182276885Y-83500940D01*
X182175895Y-83312000D01*
X182276885Y-83123060D01*
X182343215Y-82904400D01*
X182365612Y-82677000D01*
X182343215Y-82449600D01*
X182279907Y-82240902D01*
X182314502Y-82176180D01*
X182350812Y-82056482D01*
X182363072Y-81932000D01*
X182363072Y-80882000D01*
X182350812Y-80757518D01*
X182314502Y-80637820D01*
X182255537Y-80527506D01*
X182176185Y-80430815D01*
X182079494Y-80351463D01*
X181969180Y-80292498D01*
X181849482Y-80256188D01*
X181725000Y-80243928D01*
X180428507Y-80243928D01*
X179066000Y-78881422D01*
X179066000Y-77074578D01*
X181316049Y-74824530D01*
X181349817Y-74796817D01*
X181460411Y-74662059D01*
X181542589Y-74508313D01*
X181593195Y-74341490D01*
X181606000Y-74211477D01*
X181606000Y-74211467D01*
X181610281Y-74168001D01*
X181606000Y-74124535D01*
X181606000Y-72205977D01*
X181770212Y-72071212D01*
X181915171Y-71894579D01*
X182022885Y-71693060D01*
X182089215Y-71474400D01*
X182111612Y-71247000D01*
X182089215Y-71019600D01*
X182022885Y-70800940D01*
X181921895Y-70612000D01*
X182022885Y-70423060D01*
X182089215Y-70204400D01*
X182111612Y-69977000D01*
X182089215Y-69749600D01*
X182025907Y-69540902D01*
X182060502Y-69476180D01*
X182096812Y-69356482D01*
X182109072Y-69232000D01*
X182109072Y-68182000D01*
X182096812Y-68057518D01*
X182060502Y-67937820D01*
X182001537Y-67827506D01*
X181922185Y-67730815D01*
X181825494Y-67651463D01*
X181715180Y-67592498D01*
X181595482Y-67556188D01*
X181471000Y-67543928D01*
X179971000Y-67543928D01*
X179846518Y-67556188D01*
X179726820Y-67592498D01*
X179616506Y-67651463D01*
X179519815Y-67730815D01*
X179440463Y-67827506D01*
X179381498Y-67937820D01*
X179345188Y-68057518D01*
X179332928Y-68182000D01*
X179332928Y-69232000D01*
X179345188Y-69356482D01*
X179381498Y-69476180D01*
X179416093Y-69540902D01*
X179352785Y-69749600D01*
X179330388Y-69977000D01*
X179352785Y-70204400D01*
X179419115Y-70423060D01*
X179520105Y-70612000D01*
X179419115Y-70800940D01*
X179352785Y-71019600D01*
X179330388Y-71247000D01*
X179352785Y-71474400D01*
X179419115Y-71693060D01*
X179526829Y-71894579D01*
X179671788Y-72071212D01*
X179836000Y-72205978D01*
X179836001Y-73801420D01*
X177585956Y-76051466D01*
X177552183Y-76079183D01*
X177441589Y-76213942D01*
X177359411Y-76367688D01*
X177308805Y-76534511D01*
X177296000Y-76664524D01*
X177296000Y-76664531D01*
X177291719Y-76708000D01*
X177296000Y-76751469D01*
X177296001Y-79204521D01*
X177291719Y-79248000D01*
X177308805Y-79421490D01*
X177359412Y-79588313D01*
X177441590Y-79742059D01*
X177524468Y-79843046D01*
X177524471Y-79843049D01*
X177552184Y-79876817D01*
X177585951Y-79904529D01*
X179586928Y-81905507D01*
X179586928Y-81932000D01*
X179599188Y-82056482D01*
X179635498Y-82176180D01*
X179670093Y-82240902D01*
X179606785Y-82449600D01*
X179584388Y-82677000D01*
X179606785Y-82904400D01*
X179673115Y-83123060D01*
X179774105Y-83312000D01*
X179673115Y-83500940D01*
X179606785Y-83719600D01*
X179584388Y-83947000D01*
X179606785Y-84174400D01*
X179673115Y-84393060D01*
X179780829Y-84594579D01*
X179925076Y-84770345D01*
X177458956Y-87236466D01*
X177425183Y-87264183D01*
X177314589Y-87398942D01*
X177232411Y-87552688D01*
X177181805Y-87719511D01*
X177169000Y-87849524D01*
X177169000Y-87849531D01*
X177164719Y-87893000D01*
X168755578Y-87893000D01*
X169917044Y-86731535D01*
X169973898Y-86720226D01*
X170162256Y-86642205D01*
X170331774Y-86528937D01*
X170475937Y-86384774D01*
X170589205Y-86215256D01*
X170667226Y-86026898D01*
X170707000Y-85826939D01*
X170707000Y-85623061D01*
X170667226Y-85423102D01*
X170589205Y-85234744D01*
X170475937Y-85065226D01*
X170331774Y-84921063D01*
X170162256Y-84807795D01*
X169973898Y-84729774D01*
X169773939Y-84690000D01*
X169570061Y-84690000D01*
X169370102Y-84729774D01*
X169181744Y-84807795D01*
X169012226Y-84921063D01*
X168868063Y-85065226D01*
X168754795Y-85234744D01*
X168676774Y-85423102D01*
X168665465Y-85479956D01*
X167654422Y-86491000D01*
X154445219Y-86491000D01*
X154451000Y-86461939D01*
X154451000Y-86258061D01*
X154411226Y-86058102D01*
X154333205Y-85869744D01*
X154219937Y-85700226D01*
X154176000Y-85656289D01*
X154176000Y-73720801D01*
X159781157Y-68115645D01*
X159888514Y-68137000D01*
X160151486Y-68137000D01*
X160409405Y-68085696D01*
X160652359Y-67985061D01*
X160871013Y-67838962D01*
X161056962Y-67653013D01*
X161203061Y-67434359D01*
X161290000Y-67224470D01*
X161376939Y-67434359D01*
X161523038Y-67653013D01*
X161708987Y-67838962D01*
X161927641Y-67985061D01*
X162170595Y-68085696D01*
X162428514Y-68137000D01*
X162691486Y-68137000D01*
X162949405Y-68085696D01*
X163192359Y-67985061D01*
X163411013Y-67838962D01*
X163596962Y-67653013D01*
X163743061Y-67434359D01*
X163843696Y-67191405D01*
X163895000Y-66933486D01*
X163895000Y-66670514D01*
X163843696Y-66412595D01*
X163743061Y-66169641D01*
X163596962Y-65950987D01*
X163411013Y-65765038D01*
X163192359Y-65618939D01*
X163146810Y-65600072D01*
X163260000Y-65600072D01*
X163384482Y-65587812D01*
X163504180Y-65551502D01*
X163614494Y-65492537D01*
X163711185Y-65413185D01*
X163790537Y-65316494D01*
X163849502Y-65206180D01*
X163885812Y-65086482D01*
X163898072Y-64962000D01*
X163898072Y-63562000D01*
X163885812Y-63437518D01*
X163849502Y-63317820D01*
X163790537Y-63207506D01*
X163711185Y-63110815D01*
X163614494Y-63031463D01*
X163504180Y-62972498D01*
X163384482Y-62936188D01*
X163260000Y-62923928D01*
X163214326Y-62923928D01*
X163194974Y-62887723D01*
X163123799Y-62800997D01*
X163100001Y-62771999D01*
X163071003Y-62748201D01*
X161025804Y-60703003D01*
X161002001Y-60673999D01*
X160886276Y-60579026D01*
X160754247Y-60508454D01*
X160610986Y-60464997D01*
X160499333Y-60454000D01*
X160499322Y-60454000D01*
X160462000Y-60450324D01*
X160424678Y-60454000D01*
X156501322Y-60454000D01*
X156463999Y-60450324D01*
X156426676Y-60454000D01*
X156426667Y-60454000D01*
X156315014Y-60464997D01*
X156171753Y-60508454D01*
X156039724Y-60579026D01*
X155923999Y-60673999D01*
X155900201Y-60702997D01*
X151635003Y-64968196D01*
X151605999Y-64991999D01*
X151550871Y-65059174D01*
X151511026Y-65107724D01*
X151508199Y-65113013D01*
X151440454Y-65239754D01*
X151396997Y-65383015D01*
X151386000Y-65494668D01*
X151386000Y-65494678D01*
X151382324Y-65532000D01*
X151386000Y-65569322D01*
X151386001Y-84386288D01*
X151342063Y-84430226D01*
X151228795Y-84599744D01*
X151150774Y-84788102D01*
X151111000Y-84988061D01*
X151111000Y-85191939D01*
X151114301Y-85208534D01*
X149224969Y-83319203D01*
X149213660Y-83262348D01*
X149135639Y-83073990D01*
X149022371Y-82904472D01*
X148878208Y-82760309D01*
X148708690Y-82647041D01*
X148520332Y-82569020D01*
X148320373Y-82529246D01*
X148116495Y-82529246D01*
X147916536Y-82569020D01*
X147728178Y-82647041D01*
X147558660Y-82760309D01*
X147414497Y-82904472D01*
X147301229Y-83073990D01*
X147223208Y-83262348D01*
X147183434Y-83462307D01*
X140910689Y-83462307D01*
X140915525Y-83453260D01*
X140981855Y-83234600D01*
X141004252Y-83007200D01*
X140981855Y-82779800D01*
X140915525Y-82561140D01*
X140814535Y-82372200D01*
X140915525Y-82183260D01*
X140981855Y-81964600D01*
X141004252Y-81737200D01*
X140981855Y-81509800D01*
X140918547Y-81301102D01*
X140953142Y-81236380D01*
X140985326Y-81130284D01*
X141037916Y-81102174D01*
X141153641Y-81007201D01*
X141177444Y-80978197D01*
X142725604Y-79430038D01*
X142754601Y-79406241D01*
X142849574Y-79290516D01*
X142920146Y-79158487D01*
X142963603Y-79015226D01*
X142974600Y-78903573D01*
X142974600Y-78903564D01*
X142978276Y-78866241D01*
X142974600Y-78828918D01*
X142974600Y-74005722D01*
X142978276Y-73968399D01*
X142974600Y-73931076D01*
X142974600Y-73931067D01*
X142963603Y-73819414D01*
X142920146Y-73676153D01*
X142849574Y-73544124D01*
X142754601Y-73428399D01*
X142725603Y-73404601D01*
X140838630Y-71517629D01*
X140846772Y-71434960D01*
X140824375Y-71207560D01*
X140758045Y-70988900D01*
X140657055Y-70799960D01*
X140758045Y-70611020D01*
X140824375Y-70392360D01*
X140846772Y-70164960D01*
X140824375Y-69937560D01*
X140761067Y-69728862D01*
X140795662Y-69664140D01*
X140831972Y-69544442D01*
X140844232Y-69419960D01*
X140844232Y-68369960D01*
X140831972Y-68245478D01*
X140795662Y-68125780D01*
X140736697Y-68015466D01*
X140657345Y-67918775D01*
X140560654Y-67839423D01*
X140450340Y-67780458D01*
X140330642Y-67744148D01*
X140206160Y-67731888D01*
X138706160Y-67731888D01*
X138581678Y-67744148D01*
X138461980Y-67780458D01*
X138351666Y-67839423D01*
X138254975Y-67918775D01*
X138175623Y-68015466D01*
X138116658Y-68125780D01*
X138080348Y-68245478D01*
X138068088Y-68369960D01*
X138068088Y-69419960D01*
X138080348Y-69544442D01*
X138116658Y-69664140D01*
X138151253Y-69728862D01*
X138087945Y-69937560D01*
X138065548Y-70164960D01*
X132235000Y-70164960D01*
X132235000Y-58490000D01*
X187639928Y-58490000D01*
X187643000Y-59404250D01*
X187801750Y-59563000D01*
X188028180Y-59563000D01*
X188048894Y-59583714D01*
X188069608Y-59563000D01*
X188173420Y-59563000D01*
X188173722Y-59568544D01*
X188168172Y-59596176D01*
X188167829Y-59780355D01*
X188173772Y-59810525D01*
X188173420Y-59817000D01*
X188069608Y-59817000D01*
X188048894Y-59796286D01*
X188028180Y-59817000D01*
X187801750Y-59817000D01*
X187643000Y-59975750D01*
X187639928Y-60890000D01*
X187652188Y-61014482D01*
X187688498Y-61134180D01*
X187747463Y-61244494D01*
X187826815Y-61341185D01*
X187923506Y-61420537D01*
X188033820Y-61479502D01*
X188153518Y-61515812D01*
X188278000Y-61528072D01*
X188817250Y-61525000D01*
X188892336Y-61449914D01*
X188894061Y-61449574D01*
X189064351Y-61379408D01*
X189067425Y-61377763D01*
X189075052Y-61237556D01*
X189103000Y-61209608D01*
X189130948Y-61237556D01*
X189138575Y-61377763D01*
X189308603Y-61448562D01*
X189313244Y-61449494D01*
X189388750Y-61525000D01*
X189928000Y-61528072D01*
X190052482Y-61515812D01*
X190172180Y-61479502D01*
X190282494Y-61420537D01*
X190379185Y-61341185D01*
X190458537Y-61244494D01*
X190517502Y-61134180D01*
X190553812Y-61014482D01*
X190566072Y-60890000D01*
X190563000Y-59975750D01*
X190555322Y-59968072D01*
X191003000Y-59968072D01*
X191127482Y-59955812D01*
X191247180Y-59919502D01*
X191357494Y-59860537D01*
X191454185Y-59781185D01*
X191533537Y-59684494D01*
X191592502Y-59574180D01*
X191628812Y-59454482D01*
X191641072Y-59330000D01*
X191641072Y-59050000D01*
X191628812Y-58925518D01*
X191592502Y-58805820D01*
X191533537Y-58695506D01*
X191454185Y-58598815D01*
X191357494Y-58519463D01*
X191247180Y-58460498D01*
X191127482Y-58424188D01*
X191003000Y-58411928D01*
X190558383Y-58411928D01*
X190553812Y-58365518D01*
X190517502Y-58245820D01*
X190458537Y-58135506D01*
X190379185Y-58038815D01*
X190282494Y-57959463D01*
X190172180Y-57900498D01*
X190052482Y-57864188D01*
X189928000Y-57851928D01*
X189388750Y-57855000D01*
X189313664Y-57930086D01*
X189311939Y-57930426D01*
X189141649Y-58000592D01*
X189138575Y-58002237D01*
X189130948Y-58142444D01*
X189103000Y-58170392D01*
X189075052Y-58142444D01*
X189067425Y-58002237D01*
X188897397Y-57931438D01*
X188892756Y-57930506D01*
X188817250Y-57855000D01*
X188278000Y-57851928D01*
X188153518Y-57864188D01*
X188033820Y-57900498D01*
X187923506Y-57959463D01*
X187826815Y-58038815D01*
X187747463Y-58135506D01*
X187688498Y-58245820D01*
X187652188Y-58365518D01*
X187639928Y-58490000D01*
X132235000Y-58490000D01*
X132235000Y-56950877D01*
X132261379Y-56964977D01*
X132550727Y-57052750D01*
X132851640Y-57082387D01*
X133152552Y-57052750D01*
X133441900Y-56964977D01*
X133708566Y-56822441D01*
X133942301Y-56630621D01*
X134134121Y-56396887D01*
X134276657Y-56130221D01*
X134364430Y-55840873D01*
X134386640Y-55615368D01*
X134386640Y-54416960D01*
X137316640Y-54416960D01*
X137316640Y-55416960D01*
X137370911Y-55713983D01*
X137482086Y-55994711D01*
X137645892Y-56248356D01*
X137856034Y-56465170D01*
X138104436Y-56636822D01*
X138381553Y-56756715D01*
X138486900Y-56780996D01*
X138724640Y-56660338D01*
X138724640Y-54416960D01*
X138978640Y-54416960D01*
X138978640Y-56660338D01*
X139216380Y-56780996D01*
X139321727Y-56756715D01*
X139598844Y-56636822D01*
X139847246Y-56465170D01*
X140057388Y-56248356D01*
X140221194Y-55994711D01*
X140332369Y-55713983D01*
X140386640Y-55416960D01*
X140386640Y-54416960D01*
X138978640Y-54416960D01*
X138724640Y-54416960D01*
X137316640Y-54416960D01*
X134386640Y-54416960D01*
X134386640Y-53162960D01*
X137316640Y-53162960D01*
X137316640Y-54162960D01*
X138724640Y-54162960D01*
X138724640Y-51919582D01*
X138978640Y-51919582D01*
X138978640Y-54162960D01*
X140386640Y-54162960D01*
X140386640Y-53162960D01*
X140332369Y-52865937D01*
X140221194Y-52585209D01*
X140057388Y-52331564D01*
X139847246Y-52114750D01*
X139598844Y-51943098D01*
X139321727Y-51823205D01*
X139216380Y-51798924D01*
X138978640Y-51919582D01*
X138724640Y-51919582D01*
X138486900Y-51798924D01*
X138381553Y-51823205D01*
X138104436Y-51943098D01*
X137856034Y-52114750D01*
X137645892Y-52331564D01*
X137482086Y-52585209D01*
X137370911Y-52865937D01*
X137316640Y-53162960D01*
X134386640Y-53162960D01*
X134386640Y-52964552D01*
X134364430Y-52739047D01*
X134276657Y-52449699D01*
X134134121Y-52183033D01*
X133942301Y-51949299D01*
X133708567Y-51757479D01*
X133441901Y-51614943D01*
X133152553Y-51527170D01*
X132851640Y-51497533D01*
X132550728Y-51527170D01*
X132261380Y-51614943D01*
X132235000Y-51629043D01*
X132235000Y-49757000D01*
X196877000Y-49757000D01*
X196877001Y-132803000D01*
X196877001Y-132803000D01*
G37*
X196877001Y-132803000D02*
X132235000Y-132803000D01*
X132235000Y-126159080D01*
X151341525Y-126159080D01*
X151425208Y-126413261D01*
X151697775Y-126544158D01*
X151990642Y-126619365D01*
X152292553Y-126635991D01*
X152591907Y-126593397D01*
X152877199Y-126493222D01*
X153026792Y-126413261D01*
X153110475Y-126159080D01*
X156341525Y-126159080D01*
X156425208Y-126413261D01*
X156697775Y-126544158D01*
X156990642Y-126619365D01*
X157292553Y-126635991D01*
X157591907Y-126593397D01*
X157877199Y-126493222D01*
X158026792Y-126413261D01*
X158110475Y-126159080D01*
X157226000Y-125274605D01*
X156341525Y-126159080D01*
X153110475Y-126159080D01*
X152226000Y-125274605D01*
X151341525Y-126159080D01*
X132235000Y-126159080D01*
X132235000Y-125161553D01*
X150685009Y-125161553D01*
X150727603Y-125460907D01*
X150827778Y-125746199D01*
X150907739Y-125895792D01*
X151161920Y-125979475D01*
X152046395Y-125095000D01*
X152405605Y-125095000D01*
X153290080Y-125979475D01*
X153544261Y-125895792D01*
X153675158Y-125623225D01*
X153750365Y-125330358D01*
X153759660Y-125161553D01*
X155685009Y-125161553D01*
X155727603Y-125460907D01*
X155827778Y-125746199D01*
X155907739Y-125895792D01*
X156161920Y-125979475D01*
X157046395Y-125095000D01*
X157405605Y-125095000D01*
X158290080Y-125979475D01*
X158544261Y-125895792D01*
X158675158Y-125623225D01*
X158750365Y-125330358D01*
X158766991Y-125028447D01*
X158754950Y-124943816D01*
X160691000Y-124943816D01*
X160691000Y-125246184D01*
X160749989Y-125542743D01*
X160865701Y-125822095D01*
X161033688Y-126073505D01*
X161247495Y-126287312D01*
X161498905Y-126455299D01*
X161778257Y-126571011D01*
X162074816Y-126630000D01*
X162377184Y-126630000D01*
X162673743Y-126571011D01*
X162953095Y-126455299D01*
X163204505Y-126287312D01*
X163418312Y-126073505D01*
X163586299Y-125822095D01*
X163702011Y-125542743D01*
X163761000Y-125246184D01*
X163761000Y-124943816D01*
X163702011Y-124647257D01*
X163586299Y-124367905D01*
X163418312Y-124116495D01*
X163204505Y-123902688D01*
X162953095Y-123734701D01*
X162673743Y-123618989D01*
X162377184Y-123560000D01*
X162074816Y-123560000D01*
X161778257Y-123618989D01*
X161498905Y-123734701D01*
X161247495Y-123902688D01*
X161033688Y-124116495D01*
X160865701Y-124367905D01*
X160749989Y-124647257D01*
X160691000Y-124943816D01*
X158754950Y-124943816D01*
X158724397Y-124729093D01*
X158624222Y-124443801D01*
X158544261Y-124294208D01*
X158290080Y-124210525D01*
X157405605Y-125095000D01*
X157046395Y-125095000D01*
X156161920Y-124210525D01*
X155907739Y-124294208D01*
X155776842Y-124566775D01*
X155701635Y-124859642D01*
X155685009Y-125161553D01*
X153759660Y-125161553D01*
X153766991Y-125028447D01*
X153724397Y-124729093D01*
X153624222Y-124443801D01*
X153544261Y-124294208D01*
X153290080Y-124210525D01*
X152405605Y-125095000D01*
X152046395Y-125095000D01*
X151161920Y-124210525D01*
X150907739Y-124294208D01*
X150776842Y-124566775D01*
X150701635Y-124859642D01*
X150685009Y-125161553D01*
X132235000Y-125161553D01*
X132235000Y-124030920D01*
X151341525Y-124030920D01*
X152226000Y-124915395D01*
X153110475Y-124030920D01*
X156341525Y-124030920D01*
X157226000Y-124915395D01*
X158110475Y-124030920D01*
X158026792Y-123776739D01*
X157754225Y-123645842D01*
X157461358Y-123570635D01*
X157159447Y-123554009D01*
X156860093Y-123596603D01*
X156574801Y-123696778D01*
X156425208Y-123776739D01*
X156341525Y-124030920D01*
X153110475Y-124030920D01*
X153026792Y-123776739D01*
X152754225Y-123645842D01*
X152461358Y-123570635D01*
X152159447Y-123554009D01*
X151860093Y-123596603D01*
X151574801Y-123696778D01*
X151425208Y-123776739D01*
X151341525Y-124030920D01*
X132235000Y-124030920D01*
X132235000Y-120047164D01*
X178458033Y-120047164D01*
X178502684Y-120194373D01*
X178627868Y-120457194D01*
X178801921Y-120690543D01*
X179018154Y-120885452D01*
X179268257Y-121034431D01*
X179542618Y-121131755D01*
X179772509Y-121011088D01*
X179772509Y-119817274D01*
X180026509Y-119817274D01*
X180026509Y-121011088D01*
X180256400Y-121131755D01*
X180530761Y-121034431D01*
X180780864Y-120885452D01*
X180997097Y-120690543D01*
X181171150Y-120457194D01*
X181296334Y-120194373D01*
X181340985Y-120047164D01*
X181219664Y-119817274D01*
X180026509Y-119817274D01*
X179772509Y-119817274D01*
X178579354Y-119817274D01*
X178458033Y-120047164D01*
X132235000Y-120047164D01*
X132235000Y-119122527D01*
X135311078Y-119122527D01*
X135364466Y-119351201D01*
X135594374Y-119457095D01*
X135840524Y-119516102D01*
X136093455Y-119525952D01*
X136343449Y-119486270D01*
X136580896Y-119398578D01*
X136669534Y-119351201D01*
X136722922Y-119122527D01*
X136017000Y-118416605D01*
X135311078Y-119122527D01*
X132235000Y-119122527D01*
X132235000Y-118313455D01*
X134728048Y-118313455D01*
X134767730Y-118563449D01*
X134855422Y-118800896D01*
X134902799Y-118889534D01*
X135131473Y-118942922D01*
X135837395Y-118237000D01*
X136196605Y-118237000D01*
X136902527Y-118942922D01*
X137131201Y-118889534D01*
X137237095Y-118659626D01*
X137296102Y-118413476D01*
X137305952Y-118160545D01*
X137266270Y-117910551D01*
X137178578Y-117673104D01*
X137131201Y-117584466D01*
X136902527Y-117531078D01*
X136196605Y-118237000D01*
X135837395Y-118237000D01*
X135131473Y-117531078D01*
X134902799Y-117584466D01*
X134796905Y-117814374D01*
X134737898Y-118060524D01*
X134728048Y-118313455D01*
X132235000Y-118313455D01*
X132235000Y-117309741D01*
X132241381Y-117341821D01*
X132338247Y-117575676D01*
X132478875Y-117786140D01*
X132657860Y-117965125D01*
X132868324Y-118105753D01*
X133102179Y-118202619D01*
X133350439Y-118252000D01*
X133603561Y-118252000D01*
X133851821Y-118202619D01*
X134085676Y-118105753D01*
X134296140Y-117965125D01*
X134475125Y-117786140D01*
X134615753Y-117575676D01*
X134712619Y-117341821D01*
X134762000Y-117093561D01*
X134762000Y-116840439D01*
X134712619Y-116592179D01*
X134615753Y-116358324D01*
X134475125Y-116147860D01*
X134296140Y-115968875D01*
X134085676Y-115828247D01*
X133851821Y-115731381D01*
X133678973Y-115697000D01*
X133851821Y-115662619D01*
X134085676Y-115565753D01*
X134296140Y-115425125D01*
X134475125Y-115246140D01*
X134615753Y-115035676D01*
X134712619Y-114801821D01*
X134762000Y-114553561D01*
X134762000Y-114300439D01*
X134712619Y-114052179D01*
X134615753Y-113818324D01*
X134475125Y-113607860D01*
X134296140Y-113428875D01*
X134085676Y-113288247D01*
X133851821Y-113191381D01*
X133678973Y-113157000D01*
X133851821Y-113122619D01*
X134085676Y-113025753D01*
X134296140Y-112885125D01*
X134475125Y-112706140D01*
X134615753Y-112495676D01*
X134712619Y-112261821D01*
X134762000Y-112013561D01*
X134762000Y-111760439D01*
X134712619Y-111512179D01*
X134615753Y-111278324D01*
X134475125Y-111067860D01*
X134296140Y-110888875D01*
X134085676Y-110748247D01*
X133851821Y-110651381D01*
X133678973Y-110617000D01*
X133851821Y-110582619D01*
X134074363Y-110490439D01*
X134732000Y-110490439D01*
X134732000Y-110743561D01*
X134781381Y-110991821D01*
X134878247Y-111225676D01*
X135018875Y-111436140D01*
X135197860Y-111615125D01*
X135408324Y-111755753D01*
X135642179Y-111852619D01*
X135815027Y-111887000D01*
X135642179Y-111921381D01*
X135408324Y-112018247D01*
X135197860Y-112158875D01*
X135018875Y-112337860D01*
X134878247Y-112548324D01*
X134781381Y-112782179D01*
X134732000Y-113030439D01*
X134732000Y-113283561D01*
X134781381Y-113531821D01*
X134878247Y-113765676D01*
X135018875Y-113976140D01*
X135197860Y-114155125D01*
X135408324Y-114295753D01*
X135642179Y-114392619D01*
X135815027Y-114427000D01*
X135642179Y-114461381D01*
X135408324Y-114558247D01*
X135197860Y-114698875D01*
X135018875Y-114877860D01*
X134878247Y-115088324D01*
X134781381Y-115322179D01*
X134732000Y-115570439D01*
X134732000Y-115823561D01*
X134781381Y-116071821D01*
X134878247Y-116305676D01*
X135018875Y-116516140D01*
X135197860Y-116695125D01*
X135408324Y-116835753D01*
X135642179Y-116932619D01*
X135817744Y-116967540D01*
X135690551Y-116987730D01*
X135453104Y-117075422D01*
X135364466Y-117122799D01*
X135311078Y-117351473D01*
X136017000Y-118057395D01*
X136722922Y-117351473D01*
X136675949Y-117150274D01*
X178407324Y-117150274D01*
X178435996Y-117441385D01*
X178520910Y-117721308D01*
X178658803Y-117979288D01*
X178844375Y-118205408D01*
X179070495Y-118390980D01*
X179135032Y-118425475D01*
X179018154Y-118495096D01*
X178801921Y-118690005D01*
X178627868Y-118923354D01*
X178502684Y-119186175D01*
X178458033Y-119333384D01*
X178579354Y-119563274D01*
X179772509Y-119563274D01*
X179772509Y-119543274D01*
X180026509Y-119543274D01*
X180026509Y-119563274D01*
X181219664Y-119563274D01*
X181340985Y-119333384D01*
X181296334Y-119186175D01*
X181171150Y-118923354D01*
X180997097Y-118690005D01*
X180780864Y-118495096D01*
X180663986Y-118425475D01*
X180728523Y-118390980D01*
X180954643Y-118205408D01*
X181140215Y-117979288D01*
X181278108Y-117721308D01*
X181363022Y-117441385D01*
X181391694Y-117150274D01*
X181363022Y-116859163D01*
X181278108Y-116579240D01*
X181140215Y-116321260D01*
X180954643Y-116095140D01*
X180924822Y-116070667D01*
X180993689Y-116049776D01*
X181104003Y-115990811D01*
X181200694Y-115911459D01*
X181280046Y-115814768D01*
X181339011Y-115704454D01*
X181375321Y-115584756D01*
X181387581Y-115460274D01*
X181387581Y-113760274D01*
X181375321Y-113635792D01*
X181339011Y-113516094D01*
X181280046Y-113405780D01*
X181200694Y-113309089D01*
X181104003Y-113229737D01*
X180993689Y-113170772D01*
X180873991Y-113134462D01*
X180749509Y-113122202D01*
X179049509Y-113122202D01*
X178925027Y-113134462D01*
X178805329Y-113170772D01*
X178695015Y-113229737D01*
X178598324Y-113309089D01*
X178518972Y-113405780D01*
X178460007Y-113516094D01*
X178423697Y-113635792D01*
X178411437Y-113760274D01*
X178411437Y-115460274D01*
X178423697Y-115584756D01*
X178460007Y-115704454D01*
X178518972Y-115814768D01*
X178598324Y-115911459D01*
X178695015Y-115990811D01*
X178805329Y-116049776D01*
X178874196Y-116070667D01*
X178844375Y-116095140D01*
X178658803Y-116321260D01*
X178520910Y-116579240D01*
X178435996Y-116859163D01*
X178407324Y-117150274D01*
X136675949Y-117150274D01*
X136669534Y-117122799D01*
X136439626Y-117016905D01*
X136225789Y-116965644D01*
X136391821Y-116932619D01*
X136625676Y-116835753D01*
X136836140Y-116695125D01*
X137015125Y-116516140D01*
X137155753Y-116305676D01*
X137252619Y-116071821D01*
X137302000Y-115823561D01*
X137302000Y-115570439D01*
X137252619Y-115322179D01*
X137155753Y-115088324D01*
X137015125Y-114877860D01*
X136836140Y-114698875D01*
X136625676Y-114558247D01*
X136391821Y-114461381D01*
X136218973Y-114427000D01*
X136391821Y-114392619D01*
X136625676Y-114295753D01*
X136836140Y-114155125D01*
X137015125Y-113976140D01*
X137155753Y-113765676D01*
X137252619Y-113531821D01*
X137302000Y-113283561D01*
X137302000Y-113030439D01*
X137252619Y-112782179D01*
X137155753Y-112548324D01*
X137015125Y-112337860D01*
X136836140Y-112158875D01*
X136625676Y-112018247D01*
X136391821Y-111921381D01*
X136218973Y-111887000D01*
X136391821Y-111852619D01*
X136625676Y-111755753D01*
X136836140Y-111615125D01*
X137015125Y-111436140D01*
X137155753Y-111225676D01*
X137252619Y-110991821D01*
X137302000Y-110743561D01*
X137302000Y-110490439D01*
X137252619Y-110242179D01*
X137155753Y-110008324D01*
X137015125Y-109797860D01*
X136836140Y-109618875D01*
X136625676Y-109478247D01*
X136391821Y-109381381D01*
X136143561Y-109332000D01*
X135890439Y-109332000D01*
X135642179Y-109381381D01*
X135408324Y-109478247D01*
X135197860Y-109618875D01*
X135018875Y-109797860D01*
X134878247Y-110008324D01*
X134781381Y-110242179D01*
X134732000Y-110490439D01*
X134074363Y-110490439D01*
X134085676Y-110485753D01*
X134296140Y-110345125D01*
X134475125Y-110166140D01*
X134615753Y-109955676D01*
X134712619Y-109721821D01*
X134762000Y-109473561D01*
X134762000Y-109220439D01*
X134712619Y-108972179D01*
X134615753Y-108738324D01*
X134475125Y-108527860D01*
X134296140Y-108348875D01*
X134085676Y-108208247D01*
X133851821Y-108111381D01*
X133603561Y-108062000D01*
X133350439Y-108062000D01*
X133102179Y-108111381D01*
X132868324Y-108208247D01*
X132657860Y-108348875D01*
X132478875Y-108527860D01*
X132338247Y-108738324D01*
X132241381Y-108972179D01*
X132235000Y-109004259D01*
X132235000Y-105983608D01*
X163576000Y-105983608D01*
X163576000Y-106258792D01*
X163629686Y-106528690D01*
X163734995Y-106782927D01*
X163887880Y-107011735D01*
X164082465Y-107206320D01*
X164311273Y-107359205D01*
X164565510Y-107464514D01*
X164835408Y-107518200D01*
X165110592Y-107518200D01*
X165380490Y-107464514D01*
X165634727Y-107359205D01*
X165863535Y-107206320D01*
X166058120Y-107011735D01*
X166211005Y-106782927D01*
X166316314Y-106528690D01*
X166370000Y-106258792D01*
X166370000Y-105983608D01*
X166316314Y-105713710D01*
X166245727Y-105543297D01*
X180790777Y-105543297D01*
X180874460Y-105797478D01*
X181147027Y-105928375D01*
X181439894Y-106003582D01*
X181741805Y-106020208D01*
X182041159Y-105977614D01*
X182326451Y-105877439D01*
X182476044Y-105797478D01*
X182559727Y-105543297D01*
X185790777Y-105543297D01*
X185874460Y-105797478D01*
X186147027Y-105928375D01*
X186439894Y-106003582D01*
X186741805Y-106020208D01*
X187041159Y-105977614D01*
X187326451Y-105877439D01*
X187476044Y-105797478D01*
X187559727Y-105543297D01*
X186675252Y-104658822D01*
X185790777Y-105543297D01*
X182559727Y-105543297D01*
X181675252Y-104658822D01*
X180790777Y-105543297D01*
X166245727Y-105543297D01*
X166211005Y-105459473D01*
X166058120Y-105230665D01*
X165863535Y-105036080D01*
X165634727Y-104883195D01*
X165380490Y-104777886D01*
X165110592Y-104724200D01*
X164835408Y-104724200D01*
X164565510Y-104777886D01*
X164311273Y-104883195D01*
X164082465Y-105036080D01*
X163887880Y-105230665D01*
X163734995Y-105459473D01*
X163629686Y-105713710D01*
X163576000Y-105983608D01*
X132235000Y-105983608D01*
X132235000Y-104545770D01*
X180134261Y-104545770D01*
X180176855Y-104845124D01*
X180277030Y-105130416D01*
X180356991Y-105280009D01*
X180611172Y-105363692D01*
X181495647Y-104479217D01*
X181854857Y-104479217D01*
X182739332Y-105363692D01*
X182993513Y-105280009D01*
X183124410Y-105007442D01*
X183199617Y-104714575D01*
X183208912Y-104545770D01*
X185134261Y-104545770D01*
X185176855Y-104845124D01*
X185277030Y-105130416D01*
X185356991Y-105280009D01*
X185611172Y-105363692D01*
X186495647Y-104479217D01*
X186854857Y-104479217D01*
X187739332Y-105363692D01*
X187993513Y-105280009D01*
X188124410Y-105007442D01*
X188199617Y-104714575D01*
X188216243Y-104412664D01*
X188204202Y-104328033D01*
X190140252Y-104328033D01*
X190140252Y-104630401D01*
X190199241Y-104926960D01*
X190314953Y-105206312D01*
X190482940Y-105457722D01*
X190696747Y-105671529D01*
X190948157Y-105839516D01*
X191227509Y-105955228D01*
X191524068Y-106014217D01*
X191826436Y-106014217D01*
X192122995Y-105955228D01*
X192402347Y-105839516D01*
X192653757Y-105671529D01*
X192867564Y-105457722D01*
X193035551Y-105206312D01*
X193151263Y-104926960D01*
X193210252Y-104630401D01*
X193210252Y-104328033D01*
X193151263Y-104031474D01*
X193035551Y-103752122D01*
X192867564Y-103500712D01*
X192653757Y-103286905D01*
X192402347Y-103118918D01*
X192122995Y-103003206D01*
X191826436Y-102944217D01*
X191524068Y-102944217D01*
X191227509Y-103003206D01*
X190948157Y-103118918D01*
X190696747Y-103286905D01*
X190482940Y-103500712D01*
X190314953Y-103752122D01*
X190199241Y-104031474D01*
X190140252Y-104328033D01*
X188204202Y-104328033D01*
X188173649Y-104113310D01*
X188073474Y-103828018D01*
X187993513Y-103678425D01*
X187739332Y-103594742D01*
X186854857Y-104479217D01*
X186495647Y-104479217D01*
X185611172Y-103594742D01*
X185356991Y-103678425D01*
X185226094Y-103950992D01*
X185150887Y-104243859D01*
X185134261Y-104545770D01*
X183208912Y-104545770D01*
X183216243Y-104412664D01*
X183173649Y-104113310D01*
X183073474Y-103828018D01*
X182993513Y-103678425D01*
X182739332Y-103594742D01*
X181854857Y-104479217D01*
X181495647Y-104479217D01*
X180611172Y-103594742D01*
X180356991Y-103678425D01*
X180226094Y-103950992D01*
X180150887Y-104243859D01*
X180134261Y-104545770D01*
X132235000Y-104545770D01*
X132235000Y-102529208D01*
X155956000Y-102529208D01*
X155956000Y-102804392D01*
X156009686Y-103074290D01*
X156114995Y-103328527D01*
X156267880Y-103557335D01*
X156462465Y-103751920D01*
X156691273Y-103904805D01*
X156945510Y-104010114D01*
X157215408Y-104063800D01*
X157490592Y-104063800D01*
X157760490Y-104010114D01*
X158014727Y-103904805D01*
X158243535Y-103751920D01*
X158438120Y-103557335D01*
X158533133Y-103415137D01*
X180790777Y-103415137D01*
X181675252Y-104299612D01*
X182559727Y-103415137D01*
X185790777Y-103415137D01*
X186675252Y-104299612D01*
X187559727Y-103415137D01*
X187476044Y-103160956D01*
X187203477Y-103030059D01*
X186910610Y-102954852D01*
X186608699Y-102938226D01*
X186309345Y-102980820D01*
X186024053Y-103080995D01*
X185874460Y-103160956D01*
X185790777Y-103415137D01*
X182559727Y-103415137D01*
X182476044Y-103160956D01*
X182203477Y-103030059D01*
X181910610Y-102954852D01*
X181608699Y-102938226D01*
X181309345Y-102980820D01*
X181024053Y-103080995D01*
X180874460Y-103160956D01*
X180790777Y-103415137D01*
X158533133Y-103415137D01*
X158591005Y-103328527D01*
X158696314Y-103074290D01*
X158750000Y-102804392D01*
X158750000Y-102529208D01*
X158696314Y-102259310D01*
X158591005Y-102005073D01*
X158438120Y-101776265D01*
X158243535Y-101581680D01*
X158014727Y-101428795D01*
X157760490Y-101323486D01*
X157490592Y-101269800D01*
X157215408Y-101269800D01*
X156945510Y-101323486D01*
X156691273Y-101428795D01*
X156462465Y-101581680D01*
X156267880Y-101776265D01*
X156114995Y-102005073D01*
X156009686Y-102259310D01*
X155956000Y-102529208D01*
X132235000Y-102529208D01*
X132235000Y-70164960D01*
X138065548Y-70164960D01*
X138087945Y-70392360D01*
X138154275Y-70611020D01*
X138255265Y-70799960D01*
X138154275Y-70988900D01*
X138087945Y-71207560D01*
X138065548Y-71434960D01*
X138087945Y-71662360D01*
X138154275Y-71881020D01*
X138261989Y-72082539D01*
X138406948Y-72259172D01*
X138583581Y-72404131D01*
X138785100Y-72511845D01*
X139003760Y-72578175D01*
X139174181Y-72594960D01*
X139738139Y-72594960D01*
X139763829Y-72592430D01*
X141454601Y-74283203D01*
X141454600Y-78551438D01*
X140637484Y-79368554D01*
X140607820Y-79352698D01*
X140488122Y-79316388D01*
X140363640Y-79304128D01*
X138863640Y-79304128D01*
X138739158Y-79316388D01*
X138619460Y-79352698D01*
X138509146Y-79411663D01*
X138412455Y-79491015D01*
X138333103Y-79587706D01*
X138274138Y-79698020D01*
X138237828Y-79817718D01*
X138225568Y-79942200D01*
X138225568Y-80992200D01*
X138237828Y-81116682D01*
X138274138Y-81236380D01*
X138308733Y-81301102D01*
X138245425Y-81509800D01*
X138223028Y-81737200D01*
X138245425Y-81964600D01*
X138311755Y-82183260D01*
X138412745Y-82372200D01*
X138311755Y-82561140D01*
X138245425Y-82779800D01*
X138223028Y-83007200D01*
X138245425Y-83234600D01*
X138311755Y-83453260D01*
X138419469Y-83654779D01*
X138564428Y-83831412D01*
X138741061Y-83976371D01*
X138866505Y-84043422D01*
X138895114Y-84137735D01*
X138908094Y-84180526D01*
X138978666Y-84312556D01*
X139018511Y-84361106D01*
X139073639Y-84428281D01*
X139102643Y-84452084D01*
X142343601Y-87693043D01*
X142343600Y-90744198D01*
X141286070Y-91801729D01*
X141272025Y-91784615D01*
X141175334Y-91705263D01*
X141065020Y-91646298D01*
X140945322Y-91609988D01*
X140820840Y-91597728D01*
X139320840Y-91597728D01*
X139196358Y-91609988D01*
X139076660Y-91646298D01*
X138966346Y-91705263D01*
X138869655Y-91784615D01*
X138790303Y-91881306D01*
X138731338Y-91991620D01*
X138695028Y-92111318D01*
X138682768Y-92235800D01*
X138682768Y-93285800D01*
X138695028Y-93410282D01*
X138731338Y-93529980D01*
X138765933Y-93594702D01*
X138702625Y-93803400D01*
X138680228Y-94030800D01*
X138702625Y-94258200D01*
X138768955Y-94476860D01*
X138869945Y-94665800D01*
X138768955Y-94854740D01*
X138702625Y-95073400D01*
X138680228Y-95300800D01*
X138702625Y-95528200D01*
X138768955Y-95746860D01*
X138876669Y-95948379D01*
X139021628Y-96125012D01*
X139198261Y-96269971D01*
X139399780Y-96377685D01*
X139618440Y-96444015D01*
X139788861Y-96460800D01*
X140352819Y-96460800D01*
X140523240Y-96444015D01*
X140741900Y-96377685D01*
X140943419Y-96269971D01*
X141120052Y-96125012D01*
X141265011Y-95948379D01*
X141372725Y-95746860D01*
X141439055Y-95528200D01*
X141461452Y-95300800D01*
X141439055Y-95073400D01*
X141372725Y-94854740D01*
X141271735Y-94665800D01*
X141372725Y-94476860D01*
X141439055Y-94258200D01*
X141461452Y-94030800D01*
X141439055Y-93803400D01*
X141375747Y-93594702D01*
X141410342Y-93529980D01*
X141412326Y-93523439D01*
X141439122Y-93520800D01*
X141439133Y-93520800D01*
X141550786Y-93509803D01*
X141694047Y-93466346D01*
X141826076Y-93395774D01*
X141941801Y-93300801D01*
X141965604Y-93271797D01*
X143614604Y-91622798D01*
X143643601Y-91599001D01*
X143738574Y-91483276D01*
X143809146Y-91351247D01*
X143852603Y-91207986D01*
X143863600Y-91096333D01*
X143863600Y-91096325D01*
X143867276Y-91059000D01*
X143863600Y-91021675D01*
X143863600Y-87415565D01*
X143867276Y-87378240D01*
X143863600Y-87340915D01*
X143863600Y-87340907D01*
X143852603Y-87229254D01*
X143809146Y-87085993D01*
X143738574Y-86953964D01*
X143643601Y-86838239D01*
X143614603Y-86814441D01*
X140645672Y-83845511D01*
X140662852Y-83831412D01*
X140807811Y-83654779D01*
X140910689Y-83462307D01*
X147183434Y-83462307D01*
X147183434Y-83666185D01*
X147223208Y-83866144D01*
X147301229Y-84054502D01*
X147414497Y-84224020D01*
X147558660Y-84368183D01*
X147728178Y-84481451D01*
X147916536Y-84559472D01*
X147973391Y-84570781D01*
X150890788Y-87488179D01*
X150875719Y-87641188D01*
X150880001Y-87684667D01*
X150880000Y-93187546D01*
X150847795Y-93235744D01*
X150769774Y-93424102D01*
X150730000Y-93624061D01*
X150730000Y-93827939D01*
X150769774Y-94027898D01*
X150847795Y-94216256D01*
X150961063Y-94385774D01*
X151105226Y-94529937D01*
X151274744Y-94643205D01*
X151463102Y-94721226D01*
X151663061Y-94761000D01*
X151866939Y-94761000D01*
X152066898Y-94721226D01*
X152255256Y-94643205D01*
X152424774Y-94529937D01*
X152568937Y-94385774D01*
X152682205Y-94216256D01*
X152760226Y-94027898D01*
X152800000Y-93827939D01*
X152800000Y-93624061D01*
X152760226Y-93424102D01*
X152682205Y-93235744D01*
X152650000Y-93187546D01*
X152650000Y-88261000D01*
X167977531Y-88261000D01*
X168021000Y-88265281D01*
X168064469Y-88261000D01*
X168064477Y-88261000D01*
X168194490Y-88248195D01*
X168361313Y-88197589D01*
X168515059Y-88115411D01*
X168649817Y-88004817D01*
X168677534Y-87971044D01*
X168755578Y-87893000D01*
X177164719Y-87893000D01*
X177169000Y-87936469D01*
X177169001Y-90986521D01*
X177164719Y-91030000D01*
X177181805Y-91203490D01*
X177232412Y-91370313D01*
X177314590Y-91524059D01*
X177397468Y-91625046D01*
X177397471Y-91625049D01*
X177425184Y-91658817D01*
X177458951Y-91686529D01*
X179586928Y-93814507D01*
X179586928Y-94251000D01*
X179599188Y-94375482D01*
X179635498Y-94495180D01*
X179670093Y-94559902D01*
X179606785Y-94768600D01*
X179584388Y-94996000D01*
X179606785Y-95223400D01*
X179673115Y-95442060D01*
X179774105Y-95631000D01*
X179673115Y-95819940D01*
X179606785Y-96038600D01*
X179584388Y-96266000D01*
X179606785Y-96493400D01*
X179673115Y-96712060D01*
X179780829Y-96913579D01*
X179925788Y-97090212D01*
X180102421Y-97235171D01*
X180303940Y-97342885D01*
X180522600Y-97409215D01*
X180693021Y-97426000D01*
X181256979Y-97426000D01*
X181427400Y-97409215D01*
X181646060Y-97342885D01*
X181847579Y-97235171D01*
X182024212Y-97090212D01*
X182169171Y-96913579D01*
X182276885Y-96712060D01*
X182343215Y-96493400D01*
X182365612Y-96266000D01*
X182343215Y-96038600D01*
X182276885Y-95819940D01*
X182175895Y-95631000D01*
X182276885Y-95442060D01*
X182343215Y-95223400D01*
X182365612Y-94996000D01*
X182343215Y-94768600D01*
X182279907Y-94559902D01*
X182314502Y-94495180D01*
X182350812Y-94375482D01*
X182363072Y-94251000D01*
X182363072Y-93201000D01*
X182350812Y-93076518D01*
X182314502Y-92956820D01*
X182255537Y-92846506D01*
X182176185Y-92749815D01*
X182079494Y-92670463D01*
X181969180Y-92611498D01*
X181849482Y-92575188D01*
X181725000Y-92562928D01*
X180838507Y-92562928D01*
X178939000Y-90663422D01*
X178939000Y-88259578D01*
X181570049Y-85628530D01*
X181603817Y-85600817D01*
X181689690Y-85496182D01*
X181714411Y-85466059D01*
X181757423Y-85385588D01*
X181796589Y-85312313D01*
X181847195Y-85145490D01*
X181860000Y-85015477D01*
X181860000Y-85015469D01*
X181864281Y-84972000D01*
X181860000Y-84928531D01*
X181860000Y-84905977D01*
X182024212Y-84771212D01*
X182169171Y-84594579D01*
X182276885Y-84393060D01*
X182343215Y-84174400D01*
X182365612Y-83947000D01*
X182343215Y-83719600D01*
X182276885Y-83500940D01*
X182175895Y-83312000D01*
X182276885Y-83123060D01*
X182343215Y-82904400D01*
X182365612Y-82677000D01*
X182343215Y-82449600D01*
X182279907Y-82240902D01*
X182314502Y-82176180D01*
X182350812Y-82056482D01*
X182363072Y-81932000D01*
X182363072Y-80882000D01*
X182350812Y-80757518D01*
X182314502Y-80637820D01*
X182255537Y-80527506D01*
X182176185Y-80430815D01*
X182079494Y-80351463D01*
X181969180Y-80292498D01*
X181849482Y-80256188D01*
X181725000Y-80243928D01*
X180428507Y-80243928D01*
X179066000Y-78881422D01*
X179066000Y-77074578D01*
X181316049Y-74824530D01*
X181349817Y-74796817D01*
X181460411Y-74662059D01*
X181542589Y-74508313D01*
X181593195Y-74341490D01*
X181606000Y-74211477D01*
X181606000Y-74211467D01*
X181610281Y-74168001D01*
X181606000Y-74124535D01*
X181606000Y-72205977D01*
X181770212Y-72071212D01*
X181915171Y-71894579D01*
X182022885Y-71693060D01*
X182089215Y-71474400D01*
X182111612Y-71247000D01*
X182089215Y-71019600D01*
X182022885Y-70800940D01*
X181921895Y-70612000D01*
X182022885Y-70423060D01*
X182089215Y-70204400D01*
X182111612Y-69977000D01*
X182089215Y-69749600D01*
X182025907Y-69540902D01*
X182060502Y-69476180D01*
X182096812Y-69356482D01*
X182109072Y-69232000D01*
X182109072Y-68182000D01*
X182096812Y-68057518D01*
X182060502Y-67937820D01*
X182001537Y-67827506D01*
X181922185Y-67730815D01*
X181825494Y-67651463D01*
X181715180Y-67592498D01*
X181595482Y-67556188D01*
X181471000Y-67543928D01*
X179971000Y-67543928D01*
X179846518Y-67556188D01*
X179726820Y-67592498D01*
X179616506Y-67651463D01*
X179519815Y-67730815D01*
X179440463Y-67827506D01*
X179381498Y-67937820D01*
X179345188Y-68057518D01*
X179332928Y-68182000D01*
X179332928Y-69232000D01*
X179345188Y-69356482D01*
X179381498Y-69476180D01*
X179416093Y-69540902D01*
X179352785Y-69749600D01*
X179330388Y-69977000D01*
X179352785Y-70204400D01*
X179419115Y-70423060D01*
X179520105Y-70612000D01*
X179419115Y-70800940D01*
X179352785Y-71019600D01*
X179330388Y-71247000D01*
X179352785Y-71474400D01*
X179419115Y-71693060D01*
X179526829Y-71894579D01*
X179671788Y-72071212D01*
X179836000Y-72205978D01*
X179836001Y-73801420D01*
X177585956Y-76051466D01*
X177552183Y-76079183D01*
X177441589Y-76213942D01*
X177359411Y-76367688D01*
X177308805Y-76534511D01*
X177296000Y-76664524D01*
X177296000Y-76664531D01*
X177291719Y-76708000D01*
X177296000Y-76751469D01*
X177296001Y-79204521D01*
X177291719Y-79248000D01*
X177308805Y-79421490D01*
X177359412Y-79588313D01*
X177441590Y-79742059D01*
X177524468Y-79843046D01*
X177524471Y-79843049D01*
X177552184Y-79876817D01*
X177585951Y-79904529D01*
X179586928Y-81905507D01*
X179586928Y-81932000D01*
X179599188Y-82056482D01*
X179635498Y-82176180D01*
X179670093Y-82240902D01*
X179606785Y-82449600D01*
X179584388Y-82677000D01*
X179606785Y-82904400D01*
X179673115Y-83123060D01*
X179774105Y-83312000D01*
X179673115Y-83500940D01*
X179606785Y-83719600D01*
X179584388Y-83947000D01*
X179606785Y-84174400D01*
X179673115Y-84393060D01*
X179780829Y-84594579D01*
X179925076Y-84770345D01*
X177458956Y-87236466D01*
X177425183Y-87264183D01*
X177314589Y-87398942D01*
X177232411Y-87552688D01*
X177181805Y-87719511D01*
X177169000Y-87849524D01*
X177169000Y-87849531D01*
X177164719Y-87893000D01*
X168755578Y-87893000D01*
X169917044Y-86731535D01*
X169973898Y-86720226D01*
X170162256Y-86642205D01*
X170331774Y-86528937D01*
X170475937Y-86384774D01*
X170589205Y-86215256D01*
X170667226Y-86026898D01*
X170707000Y-85826939D01*
X170707000Y-85623061D01*
X170667226Y-85423102D01*
X170589205Y-85234744D01*
X170475937Y-85065226D01*
X170331774Y-84921063D01*
X170162256Y-84807795D01*
X169973898Y-84729774D01*
X169773939Y-84690000D01*
X169570061Y-84690000D01*
X169370102Y-84729774D01*
X169181744Y-84807795D01*
X169012226Y-84921063D01*
X168868063Y-85065226D01*
X168754795Y-85234744D01*
X168676774Y-85423102D01*
X168665465Y-85479956D01*
X167654422Y-86491000D01*
X154445219Y-86491000D01*
X154451000Y-86461939D01*
X154451000Y-86258061D01*
X154411226Y-86058102D01*
X154333205Y-85869744D01*
X154219937Y-85700226D01*
X154176000Y-85656289D01*
X154176000Y-73720801D01*
X159781157Y-68115645D01*
X159888514Y-68137000D01*
X160151486Y-68137000D01*
X160409405Y-68085696D01*
X160652359Y-67985061D01*
X160871013Y-67838962D01*
X161056962Y-67653013D01*
X161203061Y-67434359D01*
X161290000Y-67224470D01*
X161376939Y-67434359D01*
X161523038Y-67653013D01*
X161708987Y-67838962D01*
X161927641Y-67985061D01*
X162170595Y-68085696D01*
X162428514Y-68137000D01*
X162691486Y-68137000D01*
X162949405Y-68085696D01*
X163192359Y-67985061D01*
X163411013Y-67838962D01*
X163596962Y-67653013D01*
X163743061Y-67434359D01*
X163843696Y-67191405D01*
X163895000Y-66933486D01*
X163895000Y-66670514D01*
X163843696Y-66412595D01*
X163743061Y-66169641D01*
X163596962Y-65950987D01*
X163411013Y-65765038D01*
X163192359Y-65618939D01*
X163146810Y-65600072D01*
X163260000Y-65600072D01*
X163384482Y-65587812D01*
X163504180Y-65551502D01*
X163614494Y-65492537D01*
X163711185Y-65413185D01*
X163790537Y-65316494D01*
X163849502Y-65206180D01*
X163885812Y-65086482D01*
X163898072Y-64962000D01*
X163898072Y-63562000D01*
X163885812Y-63437518D01*
X163849502Y-63317820D01*
X163790537Y-63207506D01*
X163711185Y-63110815D01*
X163614494Y-63031463D01*
X163504180Y-62972498D01*
X163384482Y-62936188D01*
X163260000Y-62923928D01*
X163214326Y-62923928D01*
X163194974Y-62887723D01*
X163123799Y-62800997D01*
X163100001Y-62771999D01*
X163071003Y-62748201D01*
X161025804Y-60703003D01*
X161002001Y-60673999D01*
X160886276Y-60579026D01*
X160754247Y-60508454D01*
X160610986Y-60464997D01*
X160499333Y-60454000D01*
X160499322Y-60454000D01*
X160462000Y-60450324D01*
X160424678Y-60454000D01*
X156501322Y-60454000D01*
X156463999Y-60450324D01*
X156426676Y-60454000D01*
X156426667Y-60454000D01*
X156315014Y-60464997D01*
X156171753Y-60508454D01*
X156039724Y-60579026D01*
X155923999Y-60673999D01*
X155900201Y-60702997D01*
X151635003Y-64968196D01*
X151605999Y-64991999D01*
X151550871Y-65059174D01*
X151511026Y-65107724D01*
X151508199Y-65113013D01*
X151440454Y-65239754D01*
X151396997Y-65383015D01*
X151386000Y-65494668D01*
X151386000Y-65494678D01*
X151382324Y-65532000D01*
X151386000Y-65569322D01*
X151386001Y-84386288D01*
X151342063Y-84430226D01*
X151228795Y-84599744D01*
X151150774Y-84788102D01*
X151111000Y-84988061D01*
X151111000Y-85191939D01*
X151114301Y-85208534D01*
X149224969Y-83319203D01*
X149213660Y-83262348D01*
X149135639Y-83073990D01*
X149022371Y-82904472D01*
X148878208Y-82760309D01*
X148708690Y-82647041D01*
X148520332Y-82569020D01*
X148320373Y-82529246D01*
X148116495Y-82529246D01*
X147916536Y-82569020D01*
X147728178Y-82647041D01*
X147558660Y-82760309D01*
X147414497Y-82904472D01*
X147301229Y-83073990D01*
X147223208Y-83262348D01*
X147183434Y-83462307D01*
X140910689Y-83462307D01*
X140915525Y-83453260D01*
X140981855Y-83234600D01*
X141004252Y-83007200D01*
X140981855Y-82779800D01*
X140915525Y-82561140D01*
X140814535Y-82372200D01*
X140915525Y-82183260D01*
X140981855Y-81964600D01*
X141004252Y-81737200D01*
X140981855Y-81509800D01*
X140918547Y-81301102D01*
X140953142Y-81236380D01*
X140985326Y-81130284D01*
X141037916Y-81102174D01*
X141153641Y-81007201D01*
X141177444Y-80978197D01*
X142725604Y-79430038D01*
X142754601Y-79406241D01*
X142849574Y-79290516D01*
X142920146Y-79158487D01*
X142963603Y-79015226D01*
X142974600Y-78903573D01*
X142974600Y-78903564D01*
X142978276Y-78866241D01*
X142974600Y-78828918D01*
X142974600Y-74005722D01*
X142978276Y-73968399D01*
X142974600Y-73931076D01*
X142974600Y-73931067D01*
X142963603Y-73819414D01*
X142920146Y-73676153D01*
X142849574Y-73544124D01*
X142754601Y-73428399D01*
X142725603Y-73404601D01*
X140838630Y-71517629D01*
X140846772Y-71434960D01*
X140824375Y-71207560D01*
X140758045Y-70988900D01*
X140657055Y-70799960D01*
X140758045Y-70611020D01*
X140824375Y-70392360D01*
X140846772Y-70164960D01*
X140824375Y-69937560D01*
X140761067Y-69728862D01*
X140795662Y-69664140D01*
X140831972Y-69544442D01*
X140844232Y-69419960D01*
X140844232Y-68369960D01*
X140831972Y-68245478D01*
X140795662Y-68125780D01*
X140736697Y-68015466D01*
X140657345Y-67918775D01*
X140560654Y-67839423D01*
X140450340Y-67780458D01*
X140330642Y-67744148D01*
X140206160Y-67731888D01*
X138706160Y-67731888D01*
X138581678Y-67744148D01*
X138461980Y-67780458D01*
X138351666Y-67839423D01*
X138254975Y-67918775D01*
X138175623Y-68015466D01*
X138116658Y-68125780D01*
X138080348Y-68245478D01*
X138068088Y-68369960D01*
X138068088Y-69419960D01*
X138080348Y-69544442D01*
X138116658Y-69664140D01*
X138151253Y-69728862D01*
X138087945Y-69937560D01*
X138065548Y-70164960D01*
X132235000Y-70164960D01*
X132235000Y-58490000D01*
X187639928Y-58490000D01*
X187643000Y-59404250D01*
X187801750Y-59563000D01*
X188028180Y-59563000D01*
X188048894Y-59583714D01*
X188069608Y-59563000D01*
X188173420Y-59563000D01*
X188173722Y-59568544D01*
X188168172Y-59596176D01*
X188167829Y-59780355D01*
X188173772Y-59810525D01*
X188173420Y-59817000D01*
X188069608Y-59817000D01*
X188048894Y-59796286D01*
X188028180Y-59817000D01*
X187801750Y-59817000D01*
X187643000Y-59975750D01*
X187639928Y-60890000D01*
X187652188Y-61014482D01*
X187688498Y-61134180D01*
X187747463Y-61244494D01*
X187826815Y-61341185D01*
X187923506Y-61420537D01*
X188033820Y-61479502D01*
X188153518Y-61515812D01*
X188278000Y-61528072D01*
X188817250Y-61525000D01*
X188892336Y-61449914D01*
X188894061Y-61449574D01*
X189064351Y-61379408D01*
X189067425Y-61377763D01*
X189075052Y-61237556D01*
X189103000Y-61209608D01*
X189130948Y-61237556D01*
X189138575Y-61377763D01*
X189308603Y-61448562D01*
X189313244Y-61449494D01*
X189388750Y-61525000D01*
X189928000Y-61528072D01*
X190052482Y-61515812D01*
X190172180Y-61479502D01*
X190282494Y-61420537D01*
X190379185Y-61341185D01*
X190458537Y-61244494D01*
X190517502Y-61134180D01*
X190553812Y-61014482D01*
X190566072Y-60890000D01*
X190563000Y-59975750D01*
X190555322Y-59968072D01*
X191003000Y-59968072D01*
X191127482Y-59955812D01*
X191247180Y-59919502D01*
X191357494Y-59860537D01*
X191454185Y-59781185D01*
X191533537Y-59684494D01*
X191592502Y-59574180D01*
X191628812Y-59454482D01*
X191641072Y-59330000D01*
X191641072Y-59050000D01*
X191628812Y-58925518D01*
X191592502Y-58805820D01*
X191533537Y-58695506D01*
X191454185Y-58598815D01*
X191357494Y-58519463D01*
X191247180Y-58460498D01*
X191127482Y-58424188D01*
X191003000Y-58411928D01*
X190558383Y-58411928D01*
X190553812Y-58365518D01*
X190517502Y-58245820D01*
X190458537Y-58135506D01*
X190379185Y-58038815D01*
X190282494Y-57959463D01*
X190172180Y-57900498D01*
X190052482Y-57864188D01*
X189928000Y-57851928D01*
X189388750Y-57855000D01*
X189313664Y-57930086D01*
X189311939Y-57930426D01*
X189141649Y-58000592D01*
X189138575Y-58002237D01*
X189130948Y-58142444D01*
X189103000Y-58170392D01*
X189075052Y-58142444D01*
X189067425Y-58002237D01*
X188897397Y-57931438D01*
X188892756Y-57930506D01*
X188817250Y-57855000D01*
X188278000Y-57851928D01*
X188153518Y-57864188D01*
X188033820Y-57900498D01*
X187923506Y-57959463D01*
X187826815Y-58038815D01*
X187747463Y-58135506D01*
X187688498Y-58245820D01*
X187652188Y-58365518D01*
X187639928Y-58490000D01*
X132235000Y-58490000D01*
X132235000Y-56950877D01*
X132261379Y-56964977D01*
X132550727Y-57052750D01*
X132851640Y-57082387D01*
X133152552Y-57052750D01*
X133441900Y-56964977D01*
X133708566Y-56822441D01*
X133942301Y-56630621D01*
X134134121Y-56396887D01*
X134276657Y-56130221D01*
X134364430Y-55840873D01*
X134386640Y-55615368D01*
X134386640Y-54416960D01*
X137316640Y-54416960D01*
X137316640Y-55416960D01*
X137370911Y-55713983D01*
X137482086Y-55994711D01*
X137645892Y-56248356D01*
X137856034Y-56465170D01*
X138104436Y-56636822D01*
X138381553Y-56756715D01*
X138486900Y-56780996D01*
X138724640Y-56660338D01*
X138724640Y-54416960D01*
X138978640Y-54416960D01*
X138978640Y-56660338D01*
X139216380Y-56780996D01*
X139321727Y-56756715D01*
X139598844Y-56636822D01*
X139847246Y-56465170D01*
X140057388Y-56248356D01*
X140221194Y-55994711D01*
X140332369Y-55713983D01*
X140386640Y-55416960D01*
X140386640Y-54416960D01*
X138978640Y-54416960D01*
X138724640Y-54416960D01*
X137316640Y-54416960D01*
X134386640Y-54416960D01*
X134386640Y-53162960D01*
X137316640Y-53162960D01*
X137316640Y-54162960D01*
X138724640Y-54162960D01*
X138724640Y-51919582D01*
X138978640Y-51919582D01*
X138978640Y-54162960D01*
X140386640Y-54162960D01*
X140386640Y-53162960D01*
X140332369Y-52865937D01*
X140221194Y-52585209D01*
X140057388Y-52331564D01*
X139847246Y-52114750D01*
X139598844Y-51943098D01*
X139321727Y-51823205D01*
X139216380Y-51798924D01*
X138978640Y-51919582D01*
X138724640Y-51919582D01*
X138486900Y-51798924D01*
X138381553Y-51823205D01*
X138104436Y-51943098D01*
X137856034Y-52114750D01*
X137645892Y-52331564D01*
X137482086Y-52585209D01*
X137370911Y-52865937D01*
X137316640Y-53162960D01*
X134386640Y-53162960D01*
X134386640Y-52964552D01*
X134364430Y-52739047D01*
X134276657Y-52449699D01*
X134134121Y-52183033D01*
X133942301Y-51949299D01*
X133708567Y-51757479D01*
X133441901Y-51614943D01*
X133152553Y-51527170D01*
X132851640Y-51497533D01*
X132550728Y-51527170D01*
X132261380Y-51614943D01*
X132235000Y-51629043D01*
X132235000Y-49757000D01*
X196877000Y-49757000D01*
X196877001Y-132803000D01*
G36*
X161352560Y-63179362D02*
G01*
X161329463Y-63207506D01*
X161270498Y-63317820D01*
X161234188Y-63437518D01*
X161221928Y-63562000D01*
X161221928Y-63675190D01*
X161203061Y-63629641D01*
X161056962Y-63410987D01*
X160871013Y-63225038D01*
X160652359Y-63078939D01*
X160409405Y-62978304D01*
X160151486Y-62927000D01*
X159888514Y-62927000D01*
X159630595Y-62978304D01*
X159387641Y-63078939D01*
X159168987Y-63225038D01*
X158983038Y-63410987D01*
X158836939Y-63629641D01*
X158750000Y-63839530D01*
X158663061Y-63629641D01*
X158516962Y-63410987D01*
X158331013Y-63225038D01*
X158112359Y-63078939D01*
X157869405Y-62978304D01*
X157611486Y-62927000D01*
X157348514Y-62927000D01*
X157090595Y-62978304D01*
X156847641Y-63078939D01*
X156628987Y-63225038D01*
X156443038Y-63410987D01*
X156296939Y-63629641D01*
X156196304Y-63872595D01*
X156145000Y-64130514D01*
X156145000Y-64393486D01*
X156196304Y-64651405D01*
X156296939Y-64894359D01*
X156443038Y-65113013D01*
X156628987Y-65298962D01*
X156847641Y-65445061D01*
X157061444Y-65533621D01*
X156898634Y-65593065D01*
X156797797Y-65646963D01*
X156738336Y-65880731D01*
X157480000Y-66622395D01*
X158221664Y-65880731D01*
X158162203Y-65646963D01*
X157923758Y-65536066D01*
X157904173Y-65531294D01*
X158112359Y-65445061D01*
X158331013Y-65298962D01*
X158516962Y-65113013D01*
X158663061Y-64894359D01*
X158750000Y-64684470D01*
X158836939Y-64894359D01*
X158983038Y-65113013D01*
X159168987Y-65298962D01*
X159387641Y-65445061D01*
X159597530Y-65532000D01*
X159387641Y-65618939D01*
X159168987Y-65765038D01*
X158983038Y-65950987D01*
X158836939Y-66169641D01*
X158748379Y-66383444D01*
X158688935Y-66220634D01*
X158635037Y-66119797D01*
X158401269Y-66060336D01*
X157659605Y-66802000D01*
X157673748Y-66816143D01*
X157494143Y-66995748D01*
X157480000Y-66981605D01*
X156738336Y-67723269D01*
X156797797Y-67957037D01*
X157036242Y-68067934D01*
X157291740Y-68130183D01*
X157554473Y-68141390D01*
X157615221Y-68131978D01*
X152906000Y-72841199D01*
X152906000Y-66876473D01*
X156140610Y-66876473D01*
X156180875Y-67136344D01*
X156271065Y-67383366D01*
X156324963Y-67484203D01*
X156558731Y-67543664D01*
X157300395Y-66802000D01*
X156558731Y-66060336D01*
X156324963Y-66119797D01*
X156214066Y-66358242D01*
X156151817Y-66613740D01*
X156140610Y-66876473D01*
X152906000Y-66876473D01*
X152906000Y-65846801D01*
X156778802Y-61974000D01*
X160147199Y-61974000D01*
X161352560Y-63179362D01*
X161352560Y-63179362D01*
G37*
X161352560Y-63179362D02*
X161329463Y-63207506D01*
X161270498Y-63317820D01*
X161234188Y-63437518D01*
X161221928Y-63562000D01*
X161221928Y-63675190D01*
X161203061Y-63629641D01*
X161056962Y-63410987D01*
X160871013Y-63225038D01*
X160652359Y-63078939D01*
X160409405Y-62978304D01*
X160151486Y-62927000D01*
X159888514Y-62927000D01*
X159630595Y-62978304D01*
X159387641Y-63078939D01*
X159168987Y-63225038D01*
X158983038Y-63410987D01*
X158836939Y-63629641D01*
X158750000Y-63839530D01*
X158663061Y-63629641D01*
X158516962Y-63410987D01*
X158331013Y-63225038D01*
X158112359Y-63078939D01*
X157869405Y-62978304D01*
X157611486Y-62927000D01*
X157348514Y-62927000D01*
X157090595Y-62978304D01*
X156847641Y-63078939D01*
X156628987Y-63225038D01*
X156443038Y-63410987D01*
X156296939Y-63629641D01*
X156196304Y-63872595D01*
X156145000Y-64130514D01*
X156145000Y-64393486D01*
X156196304Y-64651405D01*
X156296939Y-64894359D01*
X156443038Y-65113013D01*
X156628987Y-65298962D01*
X156847641Y-65445061D01*
X157061444Y-65533621D01*
X156898634Y-65593065D01*
X156797797Y-65646963D01*
X156738336Y-65880731D01*
X157480000Y-66622395D01*
X158221664Y-65880731D01*
X158162203Y-65646963D01*
X157923758Y-65536066D01*
X157904173Y-65531294D01*
X158112359Y-65445061D01*
X158331013Y-65298962D01*
X158516962Y-65113013D01*
X158663061Y-64894359D01*
X158750000Y-64684470D01*
X158836939Y-64894359D01*
X158983038Y-65113013D01*
X159168987Y-65298962D01*
X159387641Y-65445061D01*
X159597530Y-65532000D01*
X159387641Y-65618939D01*
X159168987Y-65765038D01*
X158983038Y-65950987D01*
X158836939Y-66169641D01*
X158748379Y-66383444D01*
X158688935Y-66220634D01*
X158635037Y-66119797D01*
X158401269Y-66060336D01*
X157659605Y-66802000D01*
X157673748Y-66816143D01*
X157494143Y-66995748D01*
X157480000Y-66981605D01*
X156738336Y-67723269D01*
X156797797Y-67957037D01*
X157036242Y-68067934D01*
X157291740Y-68130183D01*
X157554473Y-68141390D01*
X157615221Y-68131978D01*
X152906000Y-72841199D01*
X152906000Y-66876473D01*
X156140610Y-66876473D01*
X156180875Y-67136344D01*
X156271065Y-67383366D01*
X156324963Y-67484203D01*
X156558731Y-67543664D01*
X157300395Y-66802000D01*
X156558731Y-66060336D01*
X156324963Y-66119797D01*
X156214066Y-66358242D01*
X156151817Y-66613740D01*
X156140610Y-66876473D01*
X152906000Y-66876473D01*
X152906000Y-65846801D01*
X156778802Y-61974000D01*
X160147199Y-61974000D01*
X161352560Y-63179362D01*
G36*
X189130948Y-59517556D02*
G01*
X189138575Y-59657763D01*
X189215945Y-59689979D01*
X189141649Y-59720592D01*
X189138575Y-59722237D01*
X189130948Y-59862444D01*
X189113394Y-59879999D01*
X189103000Y-59869605D01*
X189092607Y-59879999D01*
X189075052Y-59862444D01*
X189067425Y-59722237D01*
X188990055Y-59690021D01*
X189064351Y-59659408D01*
X189067425Y-59657763D01*
X189075052Y-59517556D01*
X189092607Y-59500002D01*
X189103000Y-59510395D01*
X189113394Y-59500002D01*
X189130948Y-59517556D01*
X189130948Y-59517556D01*
G37*
X189130948Y-59517556D02*
X189138575Y-59657763D01*
X189215945Y-59689979D01*
X189141649Y-59720592D01*
X189138575Y-59722237D01*
X189130948Y-59862444D01*
X189113394Y-59879999D01*
X189103000Y-59869605D01*
X189092607Y-59879999D01*
X189075052Y-59862444D01*
X189067425Y-59722237D01*
X188990055Y-59690021D01*
X189064351Y-59659408D01*
X189067425Y-59657763D01*
X189075052Y-59517556D01*
X189092607Y-59500002D01*
X189103000Y-59510395D01*
X189113394Y-59500002D01*
X189130948Y-59517556D01*
M02*
