M48
INCH,TZ
T1C0.0118
T2C0.0157
T3C0.0197
T4C0.0295
T5C0.0394
T6C0.0400
%
G90
G05
T1
X65864Y-41278
X65864Y-41955
X66053Y-41617
X66242Y-41278
X66242Y-41955
T2
X53030Y-38210
X53159Y-44216
X54903Y-44030
X56435Y-44144
X57390Y-32870
X57875Y-44034
X57970Y-33750
X58810Y-29680
X58870Y-24960
X59400Y-34710
X59501Y-44022
X60160Y-33910
X60830Y-34160
X61199Y-44110
X62779Y-43896
X62900Y-38800
X65440Y-31560
X66140Y-36000
X66650Y-40190
X66720Y-43320
X66770Y-32320
X66800Y-27950
X69220Y-43020
X69240Y-38410
X69340Y-29820
X70310Y-33720
X76140Y-37430
X76950Y-24780
T3
X54500Y-25970
X54894Y-25970
X59851Y-42780
X59851Y-43173
X72260Y-26950
X72654Y-26950
X54566Y-30550
X54960Y-30550
X61559Y-42768
X61559Y-43161
X72290Y-31400
X72684Y-31400
X63089Y-42700
X63089Y-43093
X56761Y-42934
X56761Y-43327
X55191Y-42832
X55191Y-43225
X53461Y-42958
X53461Y-43351
X54746Y-35420
X55140Y-35420
X72280Y-36260
X72674Y-36260
X58203Y-42784
X58203Y-43177
T4
X54904Y-27124
X54904Y-27624
X54904Y-28124
X72238Y-32568
X72238Y-33068
X72238Y-33568
X54966Y-31680
X54966Y-32180
X54966Y-32680
X72262Y-37392
X72262Y-37892
X72262Y-38392
X55146Y-36520
X55146Y-37020
X55146Y-37520
X72232Y-28118
X72232Y-28618
X72232Y-29118
T6
X62230Y-24400
X62230Y-25400
X62230Y-26400
X63230Y-24400
X63230Y-25400
X63230Y-26400
T5
X52304Y-21866G85X52304Y-20882
G05
X54666Y-21768G85X54666Y-20980
G05
T0
M30
