%FSLAX45Y45*%
G04 Gerber Fmt 4.5, Leading zero omitted, Abs format (unit mm)*
G04 Created by KiCad (PCBNEW 5.0.2-bee76a0~70~ubuntu18.04.1) date Tue 05 Jan 2021 01:43:09 PM CST*
%MOMM*%
%LPD*%
G01*
G04 APERTURE LIST*
%ADD10C,0.200000*%
%ADD11C,0.300000*%
G04 APERTURE END LIST*
D10*
X19761200Y-11150600D02*
G75*
G02X19761200Y-11150600I-203200J0D01*
G01*
X19761200Y-4902200D02*
X19761200Y-11353800D01*
X13150000Y-4902200D02*
X13150000Y-11353800D01*
X13150000Y-4902200D02*
X19761200Y-4902200D01*
X13150000Y-11353800D02*
X19761200Y-11353800D01*
D10*
X16714401Y-10469628D02*
X16744401Y-10499628D01*
X16744401Y-10469628D02*
X16714401Y-10499628D01*
X16714401Y-10641628D02*
X16744401Y-10671628D01*
X16744401Y-10641628D02*
X16714401Y-10671628D01*
X16762401Y-10555628D02*
X16792402Y-10585628D01*
X16792402Y-10555628D02*
X16762401Y-10585628D01*
X16810402Y-10469628D02*
X16840402Y-10499628D01*
X16840402Y-10469628D02*
X16810402Y-10499628D01*
X16810402Y-10641628D02*
X16840402Y-10671628D01*
X16840402Y-10641628D02*
X16810402Y-10671628D01*
X13489620Y-9705340D02*
G75*
G03X13489620Y-9705340I-20000J0D01*
G01*
X13522410Y-11230762D02*
G75*
G03X13522410Y-11230762I-20000J0D01*
G01*
X13965386Y-11183518D02*
G75*
G03X13965386Y-11183518I-20000J0D01*
G01*
X14354514Y-11212474D02*
G75*
G03X14354514Y-11212474I-20000J0D01*
G01*
X14597060Y-8348980D02*
G75*
G03X14597060Y-8348980I-20000J0D01*
G01*
X14720274Y-11184534D02*
G75*
G03X14720274Y-11184534I-20000J0D01*
G01*
X14744380Y-8572500D02*
G75*
G03X14744380Y-8572500I-20000J0D01*
G01*
X14957740Y-7538720D02*
G75*
G03X14957740Y-7538720I-20000J0D01*
G01*
X14972980Y-6339840D02*
G75*
G03X14972980Y-6339840I-20000J0D01*
G01*
X15107600Y-8816340D02*
G75*
G03X15107600Y-8816340I-20000J0D01*
G01*
X15133278Y-11181486D02*
G75*
G03X15133278Y-11181486I-20000J0D01*
G01*
X15300640Y-8613140D02*
G75*
G03X15300640Y-8613140I-20000J0D01*
G01*
X15470820Y-8676640D02*
G75*
G03X15470820Y-8676640I-20000J0D01*
G01*
X15564570Y-11203838D02*
G75*
G03X15564570Y-11203838I-20000J0D01*
G01*
X15965890Y-11149482D02*
G75*
G03X15965890Y-11149482I-20000J0D01*
G01*
X15996600Y-9855200D02*
G75*
G03X15996600Y-9855200I-20000J0D01*
G01*
X16641760Y-8016240D02*
G75*
G03X16641760Y-8016240I-20000J0D01*
G01*
X16819560Y-9144000D02*
G75*
G03X16819560Y-9144000I-20000J0D01*
G01*
X16949100Y-10208260D02*
G75*
G03X16949100Y-10208260I-20000J0D01*
G01*
X16966880Y-11003280D02*
G75*
G03X16966880Y-11003280I-20000J0D01*
G01*
X16979580Y-8209280D02*
G75*
G03X16979580Y-8209280I-20000J0D01*
G01*
X16987200Y-7099300D02*
G75*
G03X16987200Y-7099300I-20000J0D01*
G01*
X17601880Y-10927080D02*
G75*
G03X17601880Y-10927080I-20000J0D01*
G01*
X17606960Y-9756140D02*
G75*
G03X17606960Y-9756140I-20000J0D01*
G01*
X17632360Y-7574280D02*
G75*
G03X17632360Y-7574280I-20000J0D01*
G01*
X17878740Y-8564880D02*
G75*
G03X17878740Y-8564880I-20000J0D01*
G01*
X19359560Y-9507220D02*
G75*
G03X19359560Y-9507220I-20000J0D01*
G01*
X19565300Y-6294120D02*
G75*
G03X19565300Y-6294120I-20000J0D01*
G01*
X13843000Y-6571380D02*
X13843000Y-6621380D01*
X13818000Y-6596380D02*
X13868000Y-6596380D01*
X13943000Y-6571380D02*
X13943000Y-6621380D01*
X13918000Y-6596380D02*
X13968000Y-6596380D01*
X15202178Y-10841018D02*
X15202178Y-10891018D01*
X15177178Y-10866018D02*
X15227178Y-10866018D01*
X15202178Y-10941018D02*
X15202178Y-10991018D01*
X15177178Y-10966018D02*
X15227178Y-10966018D01*
X18354040Y-6820300D02*
X18354040Y-6870300D01*
X18329040Y-6845300D02*
X18379040Y-6845300D01*
X18454040Y-6820300D02*
X18454040Y-6870300D01*
X18429040Y-6845300D02*
X18479040Y-6845300D01*
X13859840Y-7734700D02*
X13859840Y-7784700D01*
X13834840Y-7759700D02*
X13884840Y-7759700D01*
X13959840Y-7734700D02*
X13959840Y-7784700D01*
X13934840Y-7759700D02*
X13984840Y-7759700D01*
X15636010Y-10837970D02*
X15636010Y-10887970D01*
X15611010Y-10862970D02*
X15661010Y-10862970D01*
X15636010Y-10937970D02*
X15636010Y-10987970D01*
X15611010Y-10962970D02*
X15661010Y-10962970D01*
X18361660Y-7950600D02*
X18361660Y-8000600D01*
X18336660Y-7975600D02*
X18386660Y-7975600D01*
X18461660Y-7950600D02*
X18461660Y-8000600D01*
X18436660Y-7975600D02*
X18486660Y-7975600D01*
X16024630Y-10820698D02*
X16024630Y-10870698D01*
X15999630Y-10845698D02*
X16049630Y-10845698D01*
X16024630Y-10920698D02*
X16024630Y-10970698D01*
X15999630Y-10945698D02*
X16049630Y-10945698D01*
X14417318Y-10880134D02*
X14417318Y-10930134D01*
X14392318Y-10905134D02*
X14442318Y-10905134D01*
X14417318Y-10980134D02*
X14417318Y-11030134D01*
X14392318Y-11005134D02*
X14442318Y-11005134D01*
X14018538Y-10854226D02*
X14018538Y-10904226D01*
X13993538Y-10879226D02*
X14043538Y-10879226D01*
X14018538Y-10954226D02*
X14018538Y-11004226D01*
X13993538Y-10979226D02*
X14043538Y-10979226D01*
X13579118Y-10886230D02*
X13579118Y-10936230D01*
X13554118Y-10911230D02*
X13604118Y-10911230D01*
X13579118Y-10986230D02*
X13579118Y-11036230D01*
X13554118Y-11011230D02*
X13604118Y-11011230D01*
X13905560Y-8971680D02*
X13905560Y-9021680D01*
X13880560Y-8996680D02*
X13930560Y-8996680D01*
X14005560Y-8971680D02*
X14005560Y-9021680D01*
X13980560Y-8996680D02*
X14030560Y-8996680D01*
X18359120Y-9185040D02*
X18359120Y-9235040D01*
X18334120Y-9210040D02*
X18384120Y-9210040D01*
X18459120Y-9185040D02*
X18459120Y-9235040D01*
X18434120Y-9210040D02*
X18484120Y-9210040D01*
X14783586Y-10842034D02*
X14783586Y-10892034D01*
X14758586Y-10867034D02*
X14808586Y-10867034D01*
X14783586Y-10942034D02*
X14783586Y-10992034D01*
X14758586Y-10967034D02*
X14808586Y-10967034D01*
X13972133Y-6916013D02*
X13972133Y-6862979D01*
X13919099Y-6862979D01*
X13919099Y-6916013D01*
X13972133Y-6916013D01*
X13972133Y-7043013D02*
X13972133Y-6989979D01*
X13919099Y-6989979D01*
X13919099Y-7043013D01*
X13972133Y-7043013D01*
X13972133Y-7170013D02*
X13972133Y-7116979D01*
X13919099Y-7116979D01*
X13919099Y-7170013D01*
X13972133Y-7170013D01*
X18374969Y-8298789D02*
X18374969Y-8245755D01*
X18321935Y-8245755D01*
X18321935Y-8298789D01*
X18374969Y-8298789D01*
X18374969Y-8425789D02*
X18374969Y-8372755D01*
X18321935Y-8372755D01*
X18321935Y-8425789D01*
X18374969Y-8425789D01*
X18374969Y-8552789D02*
X18374969Y-8499755D01*
X18321935Y-8499755D01*
X18321935Y-8552789D01*
X18374969Y-8552789D01*
X13987881Y-8073237D02*
X13987881Y-8020203D01*
X13934847Y-8020203D01*
X13934847Y-8073237D01*
X13987881Y-8073237D01*
X13987881Y-8200237D02*
X13987881Y-8147203D01*
X13934847Y-8147203D01*
X13934847Y-8200237D01*
X13987881Y-8200237D01*
X13987881Y-8327237D02*
X13987881Y-8274203D01*
X13934847Y-8274203D01*
X13934847Y-8327237D01*
X13987881Y-8327237D01*
X18381065Y-9524085D02*
X18381065Y-9471051D01*
X18328031Y-9471051D01*
X18328031Y-9524085D01*
X18381065Y-9524085D01*
X18381065Y-9651085D02*
X18381065Y-9598051D01*
X18328031Y-9598051D01*
X18328031Y-9651085D01*
X18381065Y-9651085D01*
X18381065Y-9778085D02*
X18381065Y-9725051D01*
X18328031Y-9725051D01*
X18328031Y-9778085D01*
X18381065Y-9778085D01*
X14033601Y-9302597D02*
X14033601Y-9249563D01*
X13980567Y-9249563D01*
X13980567Y-9302597D01*
X14033601Y-9302597D01*
X14033601Y-9429597D02*
X14033601Y-9376563D01*
X13980567Y-9376563D01*
X13980567Y-9429597D01*
X14033601Y-9429597D01*
X14033601Y-9556597D02*
X14033601Y-9503563D01*
X13980567Y-9503563D01*
X13980567Y-9556597D01*
X14033601Y-9556597D01*
X18373445Y-7168489D02*
X18373445Y-7115455D01*
X18320411Y-7115455D01*
X18320411Y-7168489D01*
X18373445Y-7168489D01*
X18373445Y-7295489D02*
X18373445Y-7242455D01*
X18320411Y-7242455D01*
X18320411Y-7295489D01*
X18373445Y-7295489D01*
X18373445Y-7422489D02*
X18373445Y-7369455D01*
X18320411Y-7369455D01*
X18320411Y-7422489D01*
X18373445Y-7422489D01*
X13285164Y-5478996D02*
X13335164Y-5428996D01*
X13285164Y-5378996D01*
X13235164Y-5428996D01*
X13285164Y-5478996D01*
X13325164Y-5553996D02*
X13325164Y-5303996D01*
X13245164Y-5553996D02*
X13245164Y-5303996D01*
X13325164Y-5303996D02*
G75*
G03X13245164Y-5303996I-40000J0D01*
G01*
X13245164Y-5553996D02*
G75*
G03X13325164Y-5553996I40000J0D01*
G01*
X13885164Y-5478996D02*
X13935164Y-5428996D01*
X13885164Y-5378996D01*
X13835164Y-5428996D01*
X13885164Y-5478996D01*
X13925164Y-5528996D02*
X13925164Y-5328996D01*
X13845164Y-5528996D02*
X13845164Y-5328996D01*
X13925164Y-5328996D02*
G75*
G03X13845164Y-5328996I-40000J0D01*
G01*
X13845164Y-5528996D02*
G75*
G03X13925164Y-5528996I40000J0D01*
G01*
X15755620Y-6146800D02*
X15857220Y-6248400D01*
X15857220Y-6146800D02*
X15755620Y-6248400D01*
X15857220Y-6197600D02*
G75*
G03X15857220Y-6197600I-50800J0D01*
G01*
X15755620Y-6400800D02*
X15857220Y-6502400D01*
X15857220Y-6400800D02*
X15755620Y-6502400D01*
X15857220Y-6451600D02*
G75*
G03X15857220Y-6451600I-50800J0D01*
G01*
X15755620Y-6654800D02*
X15857220Y-6756400D01*
X15857220Y-6654800D02*
X15755620Y-6756400D01*
X15857220Y-6705600D02*
G75*
G03X15857220Y-6705600I-50800J0D01*
G01*
X16009620Y-6146800D02*
X16111220Y-6248400D01*
X16111220Y-6146800D02*
X16009620Y-6248400D01*
X16111220Y-6197600D02*
G75*
G03X16111220Y-6197600I-50800J0D01*
G01*
X16009620Y-6400800D02*
X16111220Y-6502400D01*
X16111220Y-6400800D02*
X16009620Y-6502400D01*
X16111220Y-6451600D02*
G75*
G03X16111220Y-6451600I-50800J0D01*
G01*
X16009620Y-6654800D02*
X16111220Y-6756400D01*
X16111220Y-6654800D02*
X16009620Y-6756400D01*
X16111220Y-6705600D02*
G75*
G03X16111220Y-6705600I-50800J0D01*
G01*
D11*
X13426428Y-11829514D02*
X13426428Y-11529514D01*
X13497857Y-11529514D01*
X13540714Y-11543800D01*
X13569286Y-11572371D01*
X13583571Y-11600943D01*
X13597857Y-11658086D01*
X13597857Y-11700943D01*
X13583571Y-11758086D01*
X13569286Y-11786657D01*
X13540714Y-11815229D01*
X13497857Y-11829514D01*
X13426428Y-11829514D01*
X13726428Y-11829514D02*
X13726428Y-11629514D01*
X13726428Y-11686657D02*
X13740714Y-11658086D01*
X13755000Y-11643800D01*
X13783571Y-11629514D01*
X13812143Y-11629514D01*
X13912143Y-11829514D02*
X13912143Y-11629514D01*
X13912143Y-11529514D02*
X13897857Y-11543800D01*
X13912143Y-11558086D01*
X13926428Y-11543800D01*
X13912143Y-11529514D01*
X13912143Y-11558086D01*
X14097857Y-11829514D02*
X14069286Y-11815229D01*
X14055000Y-11786657D01*
X14055000Y-11529514D01*
X14255000Y-11829514D02*
X14226428Y-11815229D01*
X14212143Y-11786657D01*
X14212143Y-11529514D01*
X14597857Y-11829514D02*
X14597857Y-11529514D01*
X14697857Y-11743800D01*
X14797857Y-11529514D01*
X14797857Y-11829514D01*
X15069286Y-11829514D02*
X15069286Y-11672371D01*
X15055000Y-11643800D01*
X15026428Y-11629514D01*
X14969286Y-11629514D01*
X14940714Y-11643800D01*
X15069286Y-11815229D02*
X15040714Y-11829514D01*
X14969286Y-11829514D01*
X14940714Y-11815229D01*
X14926428Y-11786657D01*
X14926428Y-11758086D01*
X14940714Y-11729514D01*
X14969286Y-11715229D01*
X15040714Y-11715229D01*
X15069286Y-11700943D01*
X15212143Y-11629514D02*
X15212143Y-11929514D01*
X15212143Y-11643800D02*
X15240714Y-11629514D01*
X15297857Y-11629514D01*
X15326428Y-11643800D01*
X15340714Y-11658086D01*
X15355000Y-11686657D01*
X15355000Y-11772371D01*
X15340714Y-11800943D01*
X15326428Y-11815229D01*
X15297857Y-11829514D01*
X15240714Y-11829514D01*
X15212143Y-11815229D01*
X15483571Y-11800943D02*
X15497857Y-11815229D01*
X15483571Y-11829514D01*
X15469286Y-11815229D01*
X15483571Y-11800943D01*
X15483571Y-11829514D01*
X15483571Y-11643800D02*
X15497857Y-11658086D01*
X15483571Y-11672371D01*
X15469286Y-11658086D01*
X15483571Y-11643800D01*
X15483571Y-11672371D01*
X13110000Y-12308800D02*
X13140000Y-12338800D01*
X13140000Y-12308800D02*
X13110000Y-12338800D01*
X13483571Y-12159514D02*
X13512143Y-12159514D01*
X13540714Y-12173800D01*
X13555000Y-12188086D01*
X13569286Y-12216657D01*
X13583571Y-12273800D01*
X13583571Y-12345229D01*
X13569286Y-12402371D01*
X13555000Y-12430943D01*
X13540714Y-12445229D01*
X13512143Y-12459514D01*
X13483571Y-12459514D01*
X13455000Y-12445229D01*
X13440714Y-12430943D01*
X13426428Y-12402371D01*
X13412143Y-12345229D01*
X13412143Y-12273800D01*
X13426428Y-12216657D01*
X13440714Y-12188086D01*
X13455000Y-12173800D01*
X13483571Y-12159514D01*
X13712143Y-12430943D02*
X13726428Y-12445229D01*
X13712143Y-12459514D01*
X13697857Y-12445229D01*
X13712143Y-12430943D01*
X13712143Y-12459514D01*
X13826428Y-12159514D02*
X14012143Y-12159514D01*
X13912143Y-12273800D01*
X13955000Y-12273800D01*
X13983571Y-12288086D01*
X13997857Y-12302371D01*
X14012143Y-12330943D01*
X14012143Y-12402371D01*
X13997857Y-12430943D01*
X13983571Y-12445229D01*
X13955000Y-12459514D01*
X13869286Y-12459514D01*
X13840714Y-12445229D01*
X13826428Y-12430943D01*
X14197857Y-12159514D02*
X14226428Y-12159514D01*
X14255000Y-12173800D01*
X14269286Y-12188086D01*
X14283571Y-12216657D01*
X14297857Y-12273800D01*
X14297857Y-12345229D01*
X14283571Y-12402371D01*
X14269286Y-12430943D01*
X14255000Y-12445229D01*
X14226428Y-12459514D01*
X14197857Y-12459514D01*
X14169286Y-12445229D01*
X14155000Y-12430943D01*
X14140714Y-12402371D01*
X14126428Y-12345229D01*
X14126428Y-12273800D01*
X14140714Y-12216657D01*
X14155000Y-12188086D01*
X14169286Y-12173800D01*
X14197857Y-12159514D01*
X14426428Y-12459514D02*
X14426428Y-12259514D01*
X14426428Y-12288086D02*
X14440714Y-12273800D01*
X14469286Y-12259514D01*
X14512143Y-12259514D01*
X14540714Y-12273800D01*
X14555000Y-12302371D01*
X14555000Y-12459514D01*
X14555000Y-12302371D02*
X14569286Y-12273800D01*
X14597857Y-12259514D01*
X14640714Y-12259514D01*
X14669286Y-12273800D01*
X14683571Y-12302371D01*
X14683571Y-12459514D01*
X14826428Y-12459514D02*
X14826428Y-12259514D01*
X14826428Y-12288086D02*
X14840714Y-12273800D01*
X14869286Y-12259514D01*
X14912143Y-12259514D01*
X14940714Y-12273800D01*
X14955000Y-12302371D01*
X14955000Y-12459514D01*
X14955000Y-12302371D02*
X14969286Y-12273800D01*
X14997857Y-12259514D01*
X15040714Y-12259514D01*
X15069286Y-12273800D01*
X15083571Y-12302371D01*
X15083571Y-12459514D01*
X15669286Y-12145229D02*
X15412143Y-12530943D01*
X16055000Y-12159514D02*
X16083571Y-12159514D01*
X16112143Y-12173800D01*
X16126428Y-12188086D01*
X16140714Y-12216657D01*
X16155000Y-12273800D01*
X16155000Y-12345229D01*
X16140714Y-12402371D01*
X16126428Y-12430943D01*
X16112143Y-12445229D01*
X16083571Y-12459514D01*
X16055000Y-12459514D01*
X16026428Y-12445229D01*
X16012143Y-12430943D01*
X15997857Y-12402371D01*
X15983571Y-12345229D01*
X15983571Y-12273800D01*
X15997857Y-12216657D01*
X16012143Y-12188086D01*
X16026428Y-12173800D01*
X16055000Y-12159514D01*
X16283571Y-12430943D02*
X16297857Y-12445229D01*
X16283571Y-12459514D01*
X16269286Y-12445229D01*
X16283571Y-12430943D01*
X16283571Y-12459514D01*
X16483571Y-12159514D02*
X16512143Y-12159514D01*
X16540714Y-12173800D01*
X16555000Y-12188086D01*
X16569286Y-12216657D01*
X16583571Y-12273800D01*
X16583571Y-12345229D01*
X16569286Y-12402371D01*
X16555000Y-12430943D01*
X16540714Y-12445229D01*
X16512143Y-12459514D01*
X16483571Y-12459514D01*
X16455000Y-12445229D01*
X16440714Y-12430943D01*
X16426428Y-12402371D01*
X16412143Y-12345229D01*
X16412143Y-12273800D01*
X16426428Y-12216657D01*
X16440714Y-12188086D01*
X16455000Y-12173800D01*
X16483571Y-12159514D01*
X16869286Y-12459514D02*
X16697857Y-12459514D01*
X16783571Y-12459514D02*
X16783571Y-12159514D01*
X16755000Y-12202371D01*
X16726428Y-12230943D01*
X16697857Y-12245229D01*
X16983571Y-12188086D02*
X16997857Y-12173800D01*
X17026428Y-12159514D01*
X17097857Y-12159514D01*
X17126428Y-12173800D01*
X17140714Y-12188086D01*
X17155000Y-12216657D01*
X17155000Y-12245229D01*
X17140714Y-12288086D01*
X16969286Y-12459514D01*
X17155000Y-12459514D01*
X17269286Y-12159514D02*
X17269286Y-12216657D01*
X17383571Y-12159514D02*
X17383571Y-12216657D01*
X17826428Y-12573800D02*
X17812143Y-12559514D01*
X17783571Y-12516657D01*
X17769286Y-12488086D01*
X17755000Y-12445229D01*
X17740714Y-12373800D01*
X17740714Y-12316657D01*
X17755000Y-12245229D01*
X17769286Y-12202371D01*
X17783571Y-12173800D01*
X17812143Y-12130943D01*
X17826428Y-12116657D01*
X18083571Y-12159514D02*
X17940714Y-12159514D01*
X17926428Y-12302371D01*
X17940714Y-12288086D01*
X17969286Y-12273800D01*
X18040714Y-12273800D01*
X18069286Y-12288086D01*
X18083571Y-12302371D01*
X18097857Y-12330943D01*
X18097857Y-12402371D01*
X18083571Y-12430943D01*
X18069286Y-12445229D01*
X18040714Y-12459514D01*
X17969286Y-12459514D01*
X17940714Y-12445229D01*
X17926428Y-12430943D01*
X18455000Y-12459514D02*
X18455000Y-12159514D01*
X18583571Y-12459514D02*
X18583571Y-12302371D01*
X18569286Y-12273800D01*
X18540714Y-12259514D01*
X18497857Y-12259514D01*
X18469286Y-12273800D01*
X18455000Y-12288086D01*
X18769286Y-12459514D02*
X18740714Y-12445229D01*
X18726428Y-12430943D01*
X18712143Y-12402371D01*
X18712143Y-12316657D01*
X18726428Y-12288086D01*
X18740714Y-12273800D01*
X18769286Y-12259514D01*
X18812143Y-12259514D01*
X18840714Y-12273800D01*
X18855000Y-12288086D01*
X18869286Y-12316657D01*
X18869286Y-12402371D01*
X18855000Y-12430943D01*
X18840714Y-12445229D01*
X18812143Y-12459514D01*
X18769286Y-12459514D01*
X19040714Y-12459514D02*
X19012143Y-12445229D01*
X18997857Y-12416657D01*
X18997857Y-12159514D01*
X19269286Y-12445229D02*
X19240714Y-12459514D01*
X19183571Y-12459514D01*
X19155000Y-12445229D01*
X19140714Y-12416657D01*
X19140714Y-12302371D01*
X19155000Y-12273800D01*
X19183571Y-12259514D01*
X19240714Y-12259514D01*
X19269286Y-12273800D01*
X19283571Y-12302371D01*
X19283571Y-12330943D01*
X19140714Y-12359514D01*
X19397857Y-12445229D02*
X19426428Y-12459514D01*
X19483571Y-12459514D01*
X19512143Y-12445229D01*
X19526428Y-12416657D01*
X19526428Y-12402371D01*
X19512143Y-12373800D01*
X19483571Y-12359514D01*
X19440714Y-12359514D01*
X19412143Y-12345229D01*
X19397857Y-12316657D01*
X19397857Y-12302371D01*
X19412143Y-12273800D01*
X19440714Y-12259514D01*
X19483571Y-12259514D01*
X19512143Y-12273800D01*
X19626428Y-12573800D02*
X19640714Y-12559514D01*
X19669286Y-12516657D01*
X19683571Y-12488086D01*
X19697857Y-12445229D01*
X19712143Y-12373800D01*
X19712143Y-12316657D01*
X19697857Y-12245229D01*
X19683571Y-12202371D01*
X19669286Y-12173800D01*
X19640714Y-12130943D01*
X19626428Y-12116657D01*
X13140000Y-12719800D02*
G75*
G03X13140000Y-12719800I-20000J0D01*
G01*
X13483571Y-12555514D02*
X13512143Y-12555514D01*
X13540714Y-12569800D01*
X13555000Y-12584086D01*
X13569286Y-12612657D01*
X13583571Y-12669800D01*
X13583571Y-12741229D01*
X13569286Y-12798371D01*
X13555000Y-12826943D01*
X13540714Y-12841229D01*
X13512143Y-12855514D01*
X13483571Y-12855514D01*
X13455000Y-12841229D01*
X13440714Y-12826943D01*
X13426428Y-12798371D01*
X13412143Y-12741229D01*
X13412143Y-12669800D01*
X13426428Y-12612657D01*
X13440714Y-12584086D01*
X13455000Y-12569800D01*
X13483571Y-12555514D01*
X13712143Y-12826943D02*
X13726428Y-12841229D01*
X13712143Y-12855514D01*
X13697857Y-12841229D01*
X13712143Y-12826943D01*
X13712143Y-12855514D01*
X13983571Y-12655514D02*
X13983571Y-12855514D01*
X13912143Y-12541229D02*
X13840714Y-12755514D01*
X14026428Y-12755514D01*
X14197857Y-12555514D02*
X14226428Y-12555514D01*
X14255000Y-12569800D01*
X14269286Y-12584086D01*
X14283571Y-12612657D01*
X14297857Y-12669800D01*
X14297857Y-12741229D01*
X14283571Y-12798371D01*
X14269286Y-12826943D01*
X14255000Y-12841229D01*
X14226428Y-12855514D01*
X14197857Y-12855514D01*
X14169286Y-12841229D01*
X14155000Y-12826943D01*
X14140714Y-12798371D01*
X14126428Y-12741229D01*
X14126428Y-12669800D01*
X14140714Y-12612657D01*
X14155000Y-12584086D01*
X14169286Y-12569800D01*
X14197857Y-12555514D01*
X14426428Y-12855514D02*
X14426428Y-12655514D01*
X14426428Y-12684086D02*
X14440714Y-12669800D01*
X14469286Y-12655514D01*
X14512143Y-12655514D01*
X14540714Y-12669800D01*
X14555000Y-12698371D01*
X14555000Y-12855514D01*
X14555000Y-12698371D02*
X14569286Y-12669800D01*
X14597857Y-12655514D01*
X14640714Y-12655514D01*
X14669286Y-12669800D01*
X14683571Y-12698371D01*
X14683571Y-12855514D01*
X14826428Y-12855514D02*
X14826428Y-12655514D01*
X14826428Y-12684086D02*
X14840714Y-12669800D01*
X14869286Y-12655514D01*
X14912143Y-12655514D01*
X14940714Y-12669800D01*
X14955000Y-12698371D01*
X14955000Y-12855514D01*
X14955000Y-12698371D02*
X14969286Y-12669800D01*
X14997857Y-12655514D01*
X15040714Y-12655514D01*
X15069286Y-12669800D01*
X15083571Y-12698371D01*
X15083571Y-12855514D01*
X15669286Y-12541229D02*
X15412143Y-12926943D01*
X16055000Y-12555514D02*
X16083571Y-12555514D01*
X16112143Y-12569800D01*
X16126428Y-12584086D01*
X16140714Y-12612657D01*
X16155000Y-12669800D01*
X16155000Y-12741229D01*
X16140714Y-12798371D01*
X16126428Y-12826943D01*
X16112143Y-12841229D01*
X16083571Y-12855514D01*
X16055000Y-12855514D01*
X16026428Y-12841229D01*
X16012143Y-12826943D01*
X15997857Y-12798371D01*
X15983571Y-12741229D01*
X15983571Y-12669800D01*
X15997857Y-12612657D01*
X16012143Y-12584086D01*
X16026428Y-12569800D01*
X16055000Y-12555514D01*
X16283571Y-12826943D02*
X16297857Y-12841229D01*
X16283571Y-12855514D01*
X16269286Y-12841229D01*
X16283571Y-12826943D01*
X16283571Y-12855514D01*
X16483571Y-12555514D02*
X16512143Y-12555514D01*
X16540714Y-12569800D01*
X16555000Y-12584086D01*
X16569286Y-12612657D01*
X16583571Y-12669800D01*
X16583571Y-12741229D01*
X16569286Y-12798371D01*
X16555000Y-12826943D01*
X16540714Y-12841229D01*
X16512143Y-12855514D01*
X16483571Y-12855514D01*
X16455000Y-12841229D01*
X16440714Y-12826943D01*
X16426428Y-12798371D01*
X16412143Y-12741229D01*
X16412143Y-12669800D01*
X16426428Y-12612657D01*
X16440714Y-12584086D01*
X16455000Y-12569800D01*
X16483571Y-12555514D01*
X16869286Y-12855514D02*
X16697857Y-12855514D01*
X16783571Y-12855514D02*
X16783571Y-12555514D01*
X16755000Y-12598371D01*
X16726428Y-12626943D01*
X16697857Y-12641229D01*
X17126428Y-12555514D02*
X17069286Y-12555514D01*
X17040714Y-12569800D01*
X17026428Y-12584086D01*
X16997857Y-12626943D01*
X16983571Y-12684086D01*
X16983571Y-12798371D01*
X16997857Y-12826943D01*
X17012143Y-12841229D01*
X17040714Y-12855514D01*
X17097857Y-12855514D01*
X17126428Y-12841229D01*
X17140714Y-12826943D01*
X17155000Y-12798371D01*
X17155000Y-12726943D01*
X17140714Y-12698371D01*
X17126428Y-12684086D01*
X17097857Y-12669800D01*
X17040714Y-12669800D01*
X17012143Y-12684086D01*
X16997857Y-12698371D01*
X16983571Y-12726943D01*
X17269286Y-12555514D02*
X17269286Y-12612657D01*
X17383571Y-12555514D02*
X17383571Y-12612657D01*
X17826428Y-12969800D02*
X17812143Y-12955514D01*
X17783571Y-12912657D01*
X17769286Y-12884086D01*
X17755000Y-12841229D01*
X17740714Y-12769800D01*
X17740714Y-12712657D01*
X17755000Y-12641229D01*
X17769286Y-12598371D01*
X17783571Y-12569800D01*
X17812143Y-12526943D01*
X17826428Y-12512657D01*
X17926428Y-12584086D02*
X17940714Y-12569800D01*
X17969286Y-12555514D01*
X18040714Y-12555514D01*
X18069286Y-12569800D01*
X18083571Y-12584086D01*
X18097857Y-12612657D01*
X18097857Y-12641229D01*
X18083571Y-12684086D01*
X17912143Y-12855514D01*
X18097857Y-12855514D01*
X18269286Y-12684086D02*
X18240714Y-12669800D01*
X18226428Y-12655514D01*
X18212143Y-12626943D01*
X18212143Y-12612657D01*
X18226428Y-12584086D01*
X18240714Y-12569800D01*
X18269286Y-12555514D01*
X18326428Y-12555514D01*
X18355000Y-12569800D01*
X18369286Y-12584086D01*
X18383571Y-12612657D01*
X18383571Y-12626943D01*
X18369286Y-12655514D01*
X18355000Y-12669800D01*
X18326428Y-12684086D01*
X18269286Y-12684086D01*
X18240714Y-12698371D01*
X18226428Y-12712657D01*
X18212143Y-12741229D01*
X18212143Y-12798371D01*
X18226428Y-12826943D01*
X18240714Y-12841229D01*
X18269286Y-12855514D01*
X18326428Y-12855514D01*
X18355000Y-12841229D01*
X18369286Y-12826943D01*
X18383571Y-12798371D01*
X18383571Y-12741229D01*
X18369286Y-12712657D01*
X18355000Y-12698371D01*
X18326428Y-12684086D01*
X18740714Y-12855514D02*
X18740714Y-12555514D01*
X18869286Y-12855514D02*
X18869286Y-12698371D01*
X18855000Y-12669800D01*
X18826428Y-12655514D01*
X18783571Y-12655514D01*
X18755000Y-12669800D01*
X18740714Y-12684086D01*
X19055000Y-12855514D02*
X19026428Y-12841229D01*
X19012143Y-12826943D01*
X18997857Y-12798371D01*
X18997857Y-12712657D01*
X19012143Y-12684086D01*
X19026428Y-12669800D01*
X19055000Y-12655514D01*
X19097857Y-12655514D01*
X19126428Y-12669800D01*
X19140714Y-12684086D01*
X19155000Y-12712657D01*
X19155000Y-12798371D01*
X19140714Y-12826943D01*
X19126428Y-12841229D01*
X19097857Y-12855514D01*
X19055000Y-12855514D01*
X19326428Y-12855514D02*
X19297857Y-12841229D01*
X19283571Y-12812657D01*
X19283571Y-12555514D01*
X19555000Y-12841229D02*
X19526428Y-12855514D01*
X19469286Y-12855514D01*
X19440714Y-12841229D01*
X19426428Y-12812657D01*
X19426428Y-12698371D01*
X19440714Y-12669800D01*
X19469286Y-12655514D01*
X19526428Y-12655514D01*
X19555000Y-12669800D01*
X19569286Y-12698371D01*
X19569286Y-12726943D01*
X19426428Y-12755514D01*
X19683571Y-12841229D02*
X19712143Y-12855514D01*
X19769286Y-12855514D01*
X19797857Y-12841229D01*
X19812143Y-12812657D01*
X19812143Y-12798371D01*
X19797857Y-12769800D01*
X19769286Y-12755514D01*
X19726428Y-12755514D01*
X19697857Y-12741229D01*
X19683571Y-12712657D01*
X19683571Y-12698371D01*
X19697857Y-12669800D01*
X19726428Y-12655514D01*
X19769286Y-12655514D01*
X19797857Y-12669800D01*
X19912143Y-12969800D02*
X19926428Y-12955514D01*
X19955000Y-12912657D01*
X19969286Y-12884086D01*
X19983571Y-12841229D01*
X19997857Y-12769800D01*
X19997857Y-12712657D01*
X19983571Y-12641229D01*
X19969286Y-12598371D01*
X19955000Y-12569800D01*
X19926428Y-12526943D01*
X19912143Y-12512657D01*
X13115000Y-13090800D02*
X13115000Y-13140800D01*
X13090000Y-13115800D02*
X13140000Y-13115800D01*
X13483571Y-12951514D02*
X13512143Y-12951514D01*
X13540714Y-12965800D01*
X13555000Y-12980086D01*
X13569286Y-13008657D01*
X13583571Y-13065800D01*
X13583571Y-13137229D01*
X13569286Y-13194371D01*
X13555000Y-13222943D01*
X13540714Y-13237229D01*
X13512143Y-13251514D01*
X13483571Y-13251514D01*
X13455000Y-13237229D01*
X13440714Y-13222943D01*
X13426428Y-13194371D01*
X13412143Y-13137229D01*
X13412143Y-13065800D01*
X13426428Y-13008657D01*
X13440714Y-12980086D01*
X13455000Y-12965800D01*
X13483571Y-12951514D01*
X13712143Y-13222943D02*
X13726428Y-13237229D01*
X13712143Y-13251514D01*
X13697857Y-13237229D01*
X13712143Y-13222943D01*
X13712143Y-13251514D01*
X13997857Y-12951514D02*
X13855000Y-12951514D01*
X13840714Y-13094371D01*
X13855000Y-13080086D01*
X13883571Y-13065800D01*
X13955000Y-13065800D01*
X13983571Y-13080086D01*
X13997857Y-13094371D01*
X14012143Y-13122943D01*
X14012143Y-13194371D01*
X13997857Y-13222943D01*
X13983571Y-13237229D01*
X13955000Y-13251514D01*
X13883571Y-13251514D01*
X13855000Y-13237229D01*
X13840714Y-13222943D01*
X14197857Y-12951514D02*
X14226428Y-12951514D01*
X14255000Y-12965800D01*
X14269286Y-12980086D01*
X14283571Y-13008657D01*
X14297857Y-13065800D01*
X14297857Y-13137229D01*
X14283571Y-13194371D01*
X14269286Y-13222943D01*
X14255000Y-13237229D01*
X14226428Y-13251514D01*
X14197857Y-13251514D01*
X14169286Y-13237229D01*
X14155000Y-13222943D01*
X14140714Y-13194371D01*
X14126428Y-13137229D01*
X14126428Y-13065800D01*
X14140714Y-13008657D01*
X14155000Y-12980086D01*
X14169286Y-12965800D01*
X14197857Y-12951514D01*
X14426428Y-13251514D02*
X14426428Y-13051514D01*
X14426428Y-13080086D02*
X14440714Y-13065800D01*
X14469286Y-13051514D01*
X14512143Y-13051514D01*
X14540714Y-13065800D01*
X14555000Y-13094371D01*
X14555000Y-13251514D01*
X14555000Y-13094371D02*
X14569286Y-13065800D01*
X14597857Y-13051514D01*
X14640714Y-13051514D01*
X14669286Y-13065800D01*
X14683571Y-13094371D01*
X14683571Y-13251514D01*
X14826428Y-13251514D02*
X14826428Y-13051514D01*
X14826428Y-13080086D02*
X14840714Y-13065800D01*
X14869286Y-13051514D01*
X14912143Y-13051514D01*
X14940714Y-13065800D01*
X14955000Y-13094371D01*
X14955000Y-13251514D01*
X14955000Y-13094371D02*
X14969286Y-13065800D01*
X14997857Y-13051514D01*
X15040714Y-13051514D01*
X15069286Y-13065800D01*
X15083571Y-13094371D01*
X15083571Y-13251514D01*
X15669286Y-12937229D02*
X15412143Y-13322943D01*
X16055000Y-12951514D02*
X16083571Y-12951514D01*
X16112143Y-12965800D01*
X16126428Y-12980086D01*
X16140714Y-13008657D01*
X16155000Y-13065800D01*
X16155000Y-13137229D01*
X16140714Y-13194371D01*
X16126428Y-13222943D01*
X16112143Y-13237229D01*
X16083571Y-13251514D01*
X16055000Y-13251514D01*
X16026428Y-13237229D01*
X16012143Y-13222943D01*
X15997857Y-13194371D01*
X15983571Y-13137229D01*
X15983571Y-13065800D01*
X15997857Y-13008657D01*
X16012143Y-12980086D01*
X16026428Y-12965800D01*
X16055000Y-12951514D01*
X16283571Y-13222943D02*
X16297857Y-13237229D01*
X16283571Y-13251514D01*
X16269286Y-13237229D01*
X16283571Y-13222943D01*
X16283571Y-13251514D01*
X16483571Y-12951514D02*
X16512143Y-12951514D01*
X16540714Y-12965800D01*
X16555000Y-12980086D01*
X16569286Y-13008657D01*
X16583571Y-13065800D01*
X16583571Y-13137229D01*
X16569286Y-13194371D01*
X16555000Y-13222943D01*
X16540714Y-13237229D01*
X16512143Y-13251514D01*
X16483571Y-13251514D01*
X16455000Y-13237229D01*
X16440714Y-13222943D01*
X16426428Y-13194371D01*
X16412143Y-13137229D01*
X16412143Y-13065800D01*
X16426428Y-13008657D01*
X16440714Y-12980086D01*
X16455000Y-12965800D01*
X16483571Y-12951514D01*
X16697857Y-12980086D02*
X16712143Y-12965800D01*
X16740714Y-12951514D01*
X16812143Y-12951514D01*
X16840714Y-12965800D01*
X16855000Y-12980086D01*
X16869286Y-13008657D01*
X16869286Y-13037229D01*
X16855000Y-13080086D01*
X16683571Y-13251514D01*
X16869286Y-13251514D01*
X17055000Y-12951514D02*
X17083571Y-12951514D01*
X17112143Y-12965800D01*
X17126428Y-12980086D01*
X17140714Y-13008657D01*
X17155000Y-13065800D01*
X17155000Y-13137229D01*
X17140714Y-13194371D01*
X17126428Y-13222943D01*
X17112143Y-13237229D01*
X17083571Y-13251514D01*
X17055000Y-13251514D01*
X17026428Y-13237229D01*
X17012143Y-13222943D01*
X16997857Y-13194371D01*
X16983571Y-13137229D01*
X16983571Y-13065800D01*
X16997857Y-13008657D01*
X17012143Y-12980086D01*
X17026428Y-12965800D01*
X17055000Y-12951514D01*
X17269286Y-12951514D02*
X17269286Y-13008657D01*
X17383571Y-12951514D02*
X17383571Y-13008657D01*
X17826428Y-13365800D02*
X17812143Y-13351514D01*
X17783571Y-13308657D01*
X17769286Y-13280086D01*
X17755000Y-13237229D01*
X17740714Y-13165800D01*
X17740714Y-13108657D01*
X17755000Y-13037229D01*
X17769286Y-12994371D01*
X17783571Y-12965800D01*
X17812143Y-12922943D01*
X17826428Y-12908657D01*
X17926428Y-12980086D02*
X17940714Y-12965800D01*
X17969286Y-12951514D01*
X18040714Y-12951514D01*
X18069286Y-12965800D01*
X18083571Y-12980086D01*
X18097857Y-13008657D01*
X18097857Y-13037229D01*
X18083571Y-13080086D01*
X17912143Y-13251514D01*
X18097857Y-13251514D01*
X18355000Y-12951514D02*
X18297857Y-12951514D01*
X18269286Y-12965800D01*
X18255000Y-12980086D01*
X18226428Y-13022943D01*
X18212143Y-13080086D01*
X18212143Y-13194371D01*
X18226428Y-13222943D01*
X18240714Y-13237229D01*
X18269286Y-13251514D01*
X18326428Y-13251514D01*
X18355000Y-13237229D01*
X18369286Y-13222943D01*
X18383571Y-13194371D01*
X18383571Y-13122943D01*
X18369286Y-13094371D01*
X18355000Y-13080086D01*
X18326428Y-13065800D01*
X18269286Y-13065800D01*
X18240714Y-13080086D01*
X18226428Y-13094371D01*
X18212143Y-13122943D01*
X18740714Y-13251514D02*
X18740714Y-12951514D01*
X18869286Y-13251514D02*
X18869286Y-13094371D01*
X18855000Y-13065800D01*
X18826428Y-13051514D01*
X18783571Y-13051514D01*
X18755000Y-13065800D01*
X18740714Y-13080086D01*
X19055000Y-13251514D02*
X19026428Y-13237229D01*
X19012143Y-13222943D01*
X18997857Y-13194371D01*
X18997857Y-13108657D01*
X19012143Y-13080086D01*
X19026428Y-13065800D01*
X19055000Y-13051514D01*
X19097857Y-13051514D01*
X19126428Y-13065800D01*
X19140714Y-13080086D01*
X19155000Y-13108657D01*
X19155000Y-13194371D01*
X19140714Y-13222943D01*
X19126428Y-13237229D01*
X19097857Y-13251514D01*
X19055000Y-13251514D01*
X19326428Y-13251514D02*
X19297857Y-13237229D01*
X19283571Y-13208657D01*
X19283571Y-12951514D01*
X19555000Y-13237229D02*
X19526428Y-13251514D01*
X19469286Y-13251514D01*
X19440714Y-13237229D01*
X19426428Y-13208657D01*
X19426428Y-13094371D01*
X19440714Y-13065800D01*
X19469286Y-13051514D01*
X19526428Y-13051514D01*
X19555000Y-13065800D01*
X19569286Y-13094371D01*
X19569286Y-13122943D01*
X19426428Y-13151514D01*
X19683571Y-13237229D02*
X19712143Y-13251514D01*
X19769286Y-13251514D01*
X19797857Y-13237229D01*
X19812143Y-13208657D01*
X19812143Y-13194371D01*
X19797857Y-13165800D01*
X19769286Y-13151514D01*
X19726428Y-13151514D01*
X19697857Y-13137229D01*
X19683571Y-13108657D01*
X19683571Y-13094371D01*
X19697857Y-13065800D01*
X19726428Y-13051514D01*
X19769286Y-13051514D01*
X19797857Y-13065800D01*
X19912143Y-13365800D02*
X19926428Y-13351514D01*
X19955000Y-13308657D01*
X19969286Y-13280086D01*
X19983571Y-13237229D01*
X19997857Y-13165800D01*
X19997857Y-13108657D01*
X19983571Y-13037229D01*
X19969286Y-12994371D01*
X19955000Y-12965800D01*
X19926428Y-12922943D01*
X19912143Y-12908657D01*
X13129017Y-13538317D02*
X13129017Y-13485283D01*
X13075983Y-13485283D01*
X13075983Y-13538317D01*
X13129017Y-13538317D01*
X13483571Y-13347514D02*
X13512143Y-13347514D01*
X13540714Y-13361800D01*
X13555000Y-13376086D01*
X13569286Y-13404657D01*
X13583571Y-13461800D01*
X13583571Y-13533229D01*
X13569286Y-13590371D01*
X13555000Y-13618943D01*
X13540714Y-13633229D01*
X13512143Y-13647514D01*
X13483571Y-13647514D01*
X13455000Y-13633229D01*
X13440714Y-13618943D01*
X13426428Y-13590371D01*
X13412143Y-13533229D01*
X13412143Y-13461800D01*
X13426428Y-13404657D01*
X13440714Y-13376086D01*
X13455000Y-13361800D01*
X13483571Y-13347514D01*
X13712143Y-13618943D02*
X13726428Y-13633229D01*
X13712143Y-13647514D01*
X13697857Y-13633229D01*
X13712143Y-13618943D01*
X13712143Y-13647514D01*
X13826428Y-13347514D02*
X14026428Y-13347514D01*
X13897857Y-13647514D01*
X14283571Y-13347514D02*
X14140714Y-13347514D01*
X14126428Y-13490371D01*
X14140714Y-13476086D01*
X14169286Y-13461800D01*
X14240714Y-13461800D01*
X14269286Y-13476086D01*
X14283571Y-13490371D01*
X14297857Y-13518943D01*
X14297857Y-13590371D01*
X14283571Y-13618943D01*
X14269286Y-13633229D01*
X14240714Y-13647514D01*
X14169286Y-13647514D01*
X14140714Y-13633229D01*
X14126428Y-13618943D01*
X14426428Y-13647514D02*
X14426428Y-13447514D01*
X14426428Y-13476086D02*
X14440714Y-13461800D01*
X14469286Y-13447514D01*
X14512143Y-13447514D01*
X14540714Y-13461800D01*
X14555000Y-13490371D01*
X14555000Y-13647514D01*
X14555000Y-13490371D02*
X14569286Y-13461800D01*
X14597857Y-13447514D01*
X14640714Y-13447514D01*
X14669286Y-13461800D01*
X14683571Y-13490371D01*
X14683571Y-13647514D01*
X14826428Y-13647514D02*
X14826428Y-13447514D01*
X14826428Y-13476086D02*
X14840714Y-13461800D01*
X14869286Y-13447514D01*
X14912143Y-13447514D01*
X14940714Y-13461800D01*
X14955000Y-13490371D01*
X14955000Y-13647514D01*
X14955000Y-13490371D02*
X14969286Y-13461800D01*
X14997857Y-13447514D01*
X15040714Y-13447514D01*
X15069286Y-13461800D01*
X15083571Y-13490371D01*
X15083571Y-13647514D01*
X15669286Y-13333229D02*
X15412143Y-13718943D01*
X16055000Y-13347514D02*
X16083571Y-13347514D01*
X16112143Y-13361800D01*
X16126428Y-13376086D01*
X16140714Y-13404657D01*
X16155000Y-13461800D01*
X16155000Y-13533229D01*
X16140714Y-13590371D01*
X16126428Y-13618943D01*
X16112143Y-13633229D01*
X16083571Y-13647514D01*
X16055000Y-13647514D01*
X16026428Y-13633229D01*
X16012143Y-13618943D01*
X15997857Y-13590371D01*
X15983571Y-13533229D01*
X15983571Y-13461800D01*
X15997857Y-13404657D01*
X16012143Y-13376086D01*
X16026428Y-13361800D01*
X16055000Y-13347514D01*
X16283571Y-13618943D02*
X16297857Y-13633229D01*
X16283571Y-13647514D01*
X16269286Y-13633229D01*
X16283571Y-13618943D01*
X16283571Y-13647514D01*
X16483571Y-13347514D02*
X16512143Y-13347514D01*
X16540714Y-13361800D01*
X16555000Y-13376086D01*
X16569286Y-13404657D01*
X16583571Y-13461800D01*
X16583571Y-13533229D01*
X16569286Y-13590371D01*
X16555000Y-13618943D01*
X16540714Y-13633229D01*
X16512143Y-13647514D01*
X16483571Y-13647514D01*
X16455000Y-13633229D01*
X16440714Y-13618943D01*
X16426428Y-13590371D01*
X16412143Y-13533229D01*
X16412143Y-13461800D01*
X16426428Y-13404657D01*
X16440714Y-13376086D01*
X16455000Y-13361800D01*
X16483571Y-13347514D01*
X16683571Y-13347514D02*
X16869286Y-13347514D01*
X16769286Y-13461800D01*
X16812143Y-13461800D01*
X16840714Y-13476086D01*
X16855000Y-13490371D01*
X16869286Y-13518943D01*
X16869286Y-13590371D01*
X16855000Y-13618943D01*
X16840714Y-13633229D01*
X16812143Y-13647514D01*
X16726428Y-13647514D01*
X16697857Y-13633229D01*
X16683571Y-13618943D01*
X17055000Y-13347514D02*
X17083571Y-13347514D01*
X17112143Y-13361800D01*
X17126428Y-13376086D01*
X17140714Y-13404657D01*
X17155000Y-13461800D01*
X17155000Y-13533229D01*
X17140714Y-13590371D01*
X17126428Y-13618943D01*
X17112143Y-13633229D01*
X17083571Y-13647514D01*
X17055000Y-13647514D01*
X17026428Y-13633229D01*
X17012143Y-13618943D01*
X16997857Y-13590371D01*
X16983571Y-13533229D01*
X16983571Y-13461800D01*
X16997857Y-13404657D01*
X17012143Y-13376086D01*
X17026428Y-13361800D01*
X17055000Y-13347514D01*
X17269286Y-13347514D02*
X17269286Y-13404657D01*
X17383571Y-13347514D02*
X17383571Y-13404657D01*
X17826428Y-13761800D02*
X17812143Y-13747514D01*
X17783571Y-13704657D01*
X17769286Y-13676086D01*
X17755000Y-13633229D01*
X17740714Y-13561800D01*
X17740714Y-13504657D01*
X17755000Y-13433229D01*
X17769286Y-13390371D01*
X17783571Y-13361800D01*
X17812143Y-13318943D01*
X17826428Y-13304657D01*
X18097857Y-13647514D02*
X17926428Y-13647514D01*
X18012143Y-13647514D02*
X18012143Y-13347514D01*
X17983571Y-13390371D01*
X17955000Y-13418943D01*
X17926428Y-13433229D01*
X18269286Y-13476086D02*
X18240714Y-13461800D01*
X18226428Y-13447514D01*
X18212143Y-13418943D01*
X18212143Y-13404657D01*
X18226428Y-13376086D01*
X18240714Y-13361800D01*
X18269286Y-13347514D01*
X18326428Y-13347514D01*
X18355000Y-13361800D01*
X18369286Y-13376086D01*
X18383571Y-13404657D01*
X18383571Y-13418943D01*
X18369286Y-13447514D01*
X18355000Y-13461800D01*
X18326428Y-13476086D01*
X18269286Y-13476086D01*
X18240714Y-13490371D01*
X18226428Y-13504657D01*
X18212143Y-13533229D01*
X18212143Y-13590371D01*
X18226428Y-13618943D01*
X18240714Y-13633229D01*
X18269286Y-13647514D01*
X18326428Y-13647514D01*
X18355000Y-13633229D01*
X18369286Y-13618943D01*
X18383571Y-13590371D01*
X18383571Y-13533229D01*
X18369286Y-13504657D01*
X18355000Y-13490371D01*
X18326428Y-13476086D01*
X18740714Y-13647514D02*
X18740714Y-13347514D01*
X18869286Y-13647514D02*
X18869286Y-13490371D01*
X18855000Y-13461800D01*
X18826428Y-13447514D01*
X18783571Y-13447514D01*
X18755000Y-13461800D01*
X18740714Y-13476086D01*
X19055000Y-13647514D02*
X19026428Y-13633229D01*
X19012143Y-13618943D01*
X18997857Y-13590371D01*
X18997857Y-13504657D01*
X19012143Y-13476086D01*
X19026428Y-13461800D01*
X19055000Y-13447514D01*
X19097857Y-13447514D01*
X19126428Y-13461800D01*
X19140714Y-13476086D01*
X19155000Y-13504657D01*
X19155000Y-13590371D01*
X19140714Y-13618943D01*
X19126428Y-13633229D01*
X19097857Y-13647514D01*
X19055000Y-13647514D01*
X19326428Y-13647514D02*
X19297857Y-13633229D01*
X19283571Y-13604657D01*
X19283571Y-13347514D01*
X19555000Y-13633229D02*
X19526428Y-13647514D01*
X19469286Y-13647514D01*
X19440714Y-13633229D01*
X19426428Y-13604657D01*
X19426428Y-13490371D01*
X19440714Y-13461800D01*
X19469286Y-13447514D01*
X19526428Y-13447514D01*
X19555000Y-13461800D01*
X19569286Y-13490371D01*
X19569286Y-13518943D01*
X19426428Y-13547514D01*
X19683571Y-13633229D02*
X19712143Y-13647514D01*
X19769286Y-13647514D01*
X19797857Y-13633229D01*
X19812143Y-13604657D01*
X19812143Y-13590371D01*
X19797857Y-13561800D01*
X19769286Y-13547514D01*
X19726428Y-13547514D01*
X19697857Y-13533229D01*
X19683571Y-13504657D01*
X19683571Y-13490371D01*
X19697857Y-13461800D01*
X19726428Y-13447514D01*
X19769286Y-13447514D01*
X19797857Y-13461800D01*
X19912143Y-13761800D02*
X19926428Y-13747514D01*
X19955000Y-13704657D01*
X19969286Y-13676086D01*
X19983571Y-13633229D01*
X19997857Y-13561800D01*
X19997857Y-13504657D01*
X19983571Y-13433229D01*
X19969286Y-13390371D01*
X19955000Y-13361800D01*
X19926428Y-13318943D01*
X19912143Y-13304657D01*
X13090000Y-13957800D02*
X13140000Y-13907800D01*
X13090000Y-13857800D01*
X13040000Y-13907800D01*
X13090000Y-13957800D01*
X13583571Y-14043514D02*
X13412143Y-14043514D01*
X13497857Y-14043514D02*
X13497857Y-13743514D01*
X13469286Y-13786371D01*
X13440714Y-13814943D01*
X13412143Y-13829229D01*
X13712143Y-14014943D02*
X13726428Y-14029229D01*
X13712143Y-14043514D01*
X13697857Y-14029229D01*
X13712143Y-14014943D01*
X13712143Y-14043514D01*
X13912143Y-13743514D02*
X13940714Y-13743514D01*
X13969286Y-13757800D01*
X13983571Y-13772086D01*
X13997857Y-13800657D01*
X14012143Y-13857800D01*
X14012143Y-13929229D01*
X13997857Y-13986371D01*
X13983571Y-14014943D01*
X13969286Y-14029229D01*
X13940714Y-14043514D01*
X13912143Y-14043514D01*
X13883571Y-14029229D01*
X13869286Y-14014943D01*
X13855000Y-13986371D01*
X13840714Y-13929229D01*
X13840714Y-13857800D01*
X13855000Y-13800657D01*
X13869286Y-13772086D01*
X13883571Y-13757800D01*
X13912143Y-13743514D01*
X14197857Y-13743514D02*
X14226428Y-13743514D01*
X14255000Y-13757800D01*
X14269286Y-13772086D01*
X14283571Y-13800657D01*
X14297857Y-13857800D01*
X14297857Y-13929229D01*
X14283571Y-13986371D01*
X14269286Y-14014943D01*
X14255000Y-14029229D01*
X14226428Y-14043514D01*
X14197857Y-14043514D01*
X14169286Y-14029229D01*
X14155000Y-14014943D01*
X14140714Y-13986371D01*
X14126428Y-13929229D01*
X14126428Y-13857800D01*
X14140714Y-13800657D01*
X14155000Y-13772086D01*
X14169286Y-13757800D01*
X14197857Y-13743514D01*
X14426428Y-14043514D02*
X14426428Y-13843514D01*
X14426428Y-13872086D02*
X14440714Y-13857800D01*
X14469286Y-13843514D01*
X14512143Y-13843514D01*
X14540714Y-13857800D01*
X14555000Y-13886371D01*
X14555000Y-14043514D01*
X14555000Y-13886371D02*
X14569286Y-13857800D01*
X14597857Y-13843514D01*
X14640714Y-13843514D01*
X14669286Y-13857800D01*
X14683571Y-13886371D01*
X14683571Y-14043514D01*
X14826428Y-14043514D02*
X14826428Y-13843514D01*
X14826428Y-13872086D02*
X14840714Y-13857800D01*
X14869286Y-13843514D01*
X14912143Y-13843514D01*
X14940714Y-13857800D01*
X14955000Y-13886371D01*
X14955000Y-14043514D01*
X14955000Y-13886371D02*
X14969286Y-13857800D01*
X14997857Y-13843514D01*
X15040714Y-13843514D01*
X15069286Y-13857800D01*
X15083571Y-13886371D01*
X15083571Y-14043514D01*
X15669286Y-13729229D02*
X15412143Y-14114943D01*
X16055000Y-13743514D02*
X16083571Y-13743514D01*
X16112143Y-13757800D01*
X16126428Y-13772086D01*
X16140714Y-13800657D01*
X16155000Y-13857800D01*
X16155000Y-13929229D01*
X16140714Y-13986371D01*
X16126428Y-14014943D01*
X16112143Y-14029229D01*
X16083571Y-14043514D01*
X16055000Y-14043514D01*
X16026428Y-14029229D01*
X16012143Y-14014943D01*
X15997857Y-13986371D01*
X15983571Y-13929229D01*
X15983571Y-13857800D01*
X15997857Y-13800657D01*
X16012143Y-13772086D01*
X16026428Y-13757800D01*
X16055000Y-13743514D01*
X16283571Y-14014943D02*
X16297857Y-14029229D01*
X16283571Y-14043514D01*
X16269286Y-14029229D01*
X16283571Y-14014943D01*
X16283571Y-14043514D01*
X16483571Y-13743514D02*
X16512143Y-13743514D01*
X16540714Y-13757800D01*
X16555000Y-13772086D01*
X16569286Y-13800657D01*
X16583571Y-13857800D01*
X16583571Y-13929229D01*
X16569286Y-13986371D01*
X16555000Y-14014943D01*
X16540714Y-14029229D01*
X16512143Y-14043514D01*
X16483571Y-14043514D01*
X16455000Y-14029229D01*
X16440714Y-14014943D01*
X16426428Y-13986371D01*
X16412143Y-13929229D01*
X16412143Y-13857800D01*
X16426428Y-13800657D01*
X16440714Y-13772086D01*
X16455000Y-13757800D01*
X16483571Y-13743514D01*
X16683571Y-13743514D02*
X16869286Y-13743514D01*
X16769286Y-13857800D01*
X16812143Y-13857800D01*
X16840714Y-13872086D01*
X16855000Y-13886371D01*
X16869286Y-13914943D01*
X16869286Y-13986371D01*
X16855000Y-14014943D01*
X16840714Y-14029229D01*
X16812143Y-14043514D01*
X16726428Y-14043514D01*
X16697857Y-14029229D01*
X16683571Y-14014943D01*
X17012143Y-14043514D02*
X17069286Y-14043514D01*
X17097857Y-14029229D01*
X17112143Y-14014943D01*
X17140714Y-13972086D01*
X17155000Y-13914943D01*
X17155000Y-13800657D01*
X17140714Y-13772086D01*
X17126428Y-13757800D01*
X17097857Y-13743514D01*
X17040714Y-13743514D01*
X17012143Y-13757800D01*
X16997857Y-13772086D01*
X16983571Y-13800657D01*
X16983571Y-13872086D01*
X16997857Y-13900657D01*
X17012143Y-13914943D01*
X17040714Y-13929229D01*
X17097857Y-13929229D01*
X17126428Y-13914943D01*
X17140714Y-13900657D01*
X17155000Y-13872086D01*
X17269286Y-13743514D02*
X17269286Y-13800657D01*
X17383571Y-13743514D02*
X17383571Y-13800657D01*
X17826428Y-14157800D02*
X17812143Y-14143514D01*
X17783571Y-14100657D01*
X17769286Y-14072086D01*
X17755000Y-14029229D01*
X17740714Y-13957800D01*
X17740714Y-13900657D01*
X17755000Y-13829229D01*
X17769286Y-13786371D01*
X17783571Y-13757800D01*
X17812143Y-13714943D01*
X17826428Y-13700657D01*
X17997857Y-13743514D02*
X18026428Y-13743514D01*
X18055000Y-13757800D01*
X18069286Y-13772086D01*
X18083571Y-13800657D01*
X18097857Y-13857800D01*
X18097857Y-13929229D01*
X18083571Y-13986371D01*
X18069286Y-14014943D01*
X18055000Y-14029229D01*
X18026428Y-14043514D01*
X17997857Y-14043514D01*
X17969286Y-14029229D01*
X17955000Y-14014943D01*
X17940714Y-13986371D01*
X17926428Y-13929229D01*
X17926428Y-13857800D01*
X17940714Y-13800657D01*
X17955000Y-13772086D01*
X17969286Y-13757800D01*
X17997857Y-13743514D01*
X18455000Y-14043514D02*
X18455000Y-13743514D01*
X18583571Y-14043514D02*
X18583571Y-13886371D01*
X18569286Y-13857800D01*
X18540714Y-13843514D01*
X18497857Y-13843514D01*
X18469286Y-13857800D01*
X18455000Y-13872086D01*
X18769286Y-14043514D02*
X18740714Y-14029229D01*
X18726428Y-14014943D01*
X18712143Y-13986371D01*
X18712143Y-13900657D01*
X18726428Y-13872086D01*
X18740714Y-13857800D01*
X18769286Y-13843514D01*
X18812143Y-13843514D01*
X18840714Y-13857800D01*
X18855000Y-13872086D01*
X18869286Y-13900657D01*
X18869286Y-13986371D01*
X18855000Y-14014943D01*
X18840714Y-14029229D01*
X18812143Y-14043514D01*
X18769286Y-14043514D01*
X19040714Y-14043514D02*
X19012143Y-14029229D01*
X18997857Y-14000657D01*
X18997857Y-13743514D01*
X19269286Y-14029229D02*
X19240714Y-14043514D01*
X19183571Y-14043514D01*
X19155000Y-14029229D01*
X19140714Y-14000657D01*
X19140714Y-13886371D01*
X19155000Y-13857800D01*
X19183571Y-13843514D01*
X19240714Y-13843514D01*
X19269286Y-13857800D01*
X19283571Y-13886371D01*
X19283571Y-13914943D01*
X19140714Y-13943514D01*
X19397857Y-14029229D02*
X19426428Y-14043514D01*
X19483571Y-14043514D01*
X19512143Y-14029229D01*
X19526428Y-14000657D01*
X19526428Y-13986371D01*
X19512143Y-13957800D01*
X19483571Y-13943514D01*
X19440714Y-13943514D01*
X19412143Y-13929229D01*
X19397857Y-13900657D01*
X19397857Y-13886371D01*
X19412143Y-13857800D01*
X19440714Y-13843514D01*
X19483571Y-13843514D01*
X19512143Y-13857800D01*
X19883571Y-13929229D02*
X20112143Y-13929229D01*
X19997857Y-14043514D02*
X19997857Y-13814943D01*
X20469286Y-13772086D02*
X20483571Y-13757800D01*
X20512143Y-13743514D01*
X20583571Y-13743514D01*
X20612143Y-13757800D01*
X20626428Y-13772086D01*
X20640714Y-13800657D01*
X20640714Y-13829229D01*
X20626428Y-13872086D01*
X20455000Y-14043514D01*
X20640714Y-14043514D01*
X20983571Y-14029229D02*
X21012143Y-14043514D01*
X21069286Y-14043514D01*
X21097857Y-14029229D01*
X21112143Y-14000657D01*
X21112143Y-13986371D01*
X21097857Y-13957800D01*
X21069286Y-13943514D01*
X21026428Y-13943514D01*
X20997857Y-13929229D01*
X20983571Y-13900657D01*
X20983571Y-13886371D01*
X20997857Y-13857800D01*
X21026428Y-13843514D01*
X21069286Y-13843514D01*
X21097857Y-13857800D01*
X21283571Y-14043514D02*
X21255000Y-14029229D01*
X21240714Y-14000657D01*
X21240714Y-13743514D01*
X21440714Y-14043514D02*
X21412143Y-14029229D01*
X21397857Y-14014943D01*
X21383571Y-13986371D01*
X21383571Y-13900657D01*
X21397857Y-13872086D01*
X21412143Y-13857800D01*
X21440714Y-13843514D01*
X21483571Y-13843514D01*
X21512143Y-13857800D01*
X21526428Y-13872086D01*
X21540714Y-13900657D01*
X21540714Y-13986371D01*
X21526428Y-14014943D01*
X21512143Y-14029229D01*
X21483571Y-14043514D01*
X21440714Y-14043514D01*
X21626428Y-13843514D02*
X21740714Y-13843514D01*
X21669286Y-13743514D02*
X21669286Y-14000657D01*
X21683571Y-14029229D01*
X21712143Y-14043514D01*
X21740714Y-14043514D01*
X21826428Y-14029229D02*
X21855000Y-14043514D01*
X21912143Y-14043514D01*
X21940714Y-14029229D01*
X21955000Y-14000657D01*
X21955000Y-13986371D01*
X21940714Y-13957800D01*
X21912143Y-13943514D01*
X21869286Y-13943514D01*
X21840714Y-13929229D01*
X21826428Y-13900657D01*
X21826428Y-13886371D01*
X21840714Y-13857800D01*
X21869286Y-13843514D01*
X21912143Y-13843514D01*
X21940714Y-13857800D01*
X22055000Y-14157800D02*
X22069286Y-14143514D01*
X22097857Y-14100657D01*
X22112143Y-14072086D01*
X22126428Y-14029229D01*
X22140714Y-13957800D01*
X22140714Y-13900657D01*
X22126428Y-13829229D01*
X22112143Y-13786371D01*
X22097857Y-13757800D01*
X22069286Y-13714943D01*
X22055000Y-13700657D01*
X13038400Y-14253000D02*
X13140000Y-14354600D01*
X13140000Y-14253000D02*
X13038400Y-14354600D01*
X13140000Y-14303800D02*
G75*
G03X13140000Y-14303800I-50800J0D01*
G01*
X13583571Y-14439514D02*
X13412143Y-14439514D01*
X13497857Y-14439514D02*
X13497857Y-14139514D01*
X13469286Y-14182371D01*
X13440714Y-14210943D01*
X13412143Y-14225229D01*
X13712143Y-14410943D02*
X13726428Y-14425229D01*
X13712143Y-14439514D01*
X13697857Y-14425229D01*
X13712143Y-14410943D01*
X13712143Y-14439514D01*
X13912143Y-14139514D02*
X13940714Y-14139514D01*
X13969286Y-14153800D01*
X13983571Y-14168086D01*
X13997857Y-14196657D01*
X14012143Y-14253800D01*
X14012143Y-14325229D01*
X13997857Y-14382371D01*
X13983571Y-14410943D01*
X13969286Y-14425229D01*
X13940714Y-14439514D01*
X13912143Y-14439514D01*
X13883571Y-14425229D01*
X13869286Y-14410943D01*
X13855000Y-14382371D01*
X13840714Y-14325229D01*
X13840714Y-14253800D01*
X13855000Y-14196657D01*
X13869286Y-14168086D01*
X13883571Y-14153800D01*
X13912143Y-14139514D01*
X14126428Y-14168086D02*
X14140714Y-14153800D01*
X14169286Y-14139514D01*
X14240714Y-14139514D01*
X14269286Y-14153800D01*
X14283571Y-14168086D01*
X14297857Y-14196657D01*
X14297857Y-14225229D01*
X14283571Y-14268086D01*
X14112143Y-14439514D01*
X14297857Y-14439514D01*
X14426428Y-14439514D02*
X14426428Y-14239514D01*
X14426428Y-14268086D02*
X14440714Y-14253800D01*
X14469286Y-14239514D01*
X14512143Y-14239514D01*
X14540714Y-14253800D01*
X14555000Y-14282371D01*
X14555000Y-14439514D01*
X14555000Y-14282371D02*
X14569286Y-14253800D01*
X14597857Y-14239514D01*
X14640714Y-14239514D01*
X14669286Y-14253800D01*
X14683571Y-14282371D01*
X14683571Y-14439514D01*
X14826428Y-14439514D02*
X14826428Y-14239514D01*
X14826428Y-14268086D02*
X14840714Y-14253800D01*
X14869286Y-14239514D01*
X14912143Y-14239514D01*
X14940714Y-14253800D01*
X14955000Y-14282371D01*
X14955000Y-14439514D01*
X14955000Y-14282371D02*
X14969286Y-14253800D01*
X14997857Y-14239514D01*
X15040714Y-14239514D01*
X15069286Y-14253800D01*
X15083571Y-14282371D01*
X15083571Y-14439514D01*
X15669286Y-14125229D02*
X15412143Y-14510943D01*
X16055000Y-14139514D02*
X16083571Y-14139514D01*
X16112143Y-14153800D01*
X16126428Y-14168086D01*
X16140714Y-14196657D01*
X16155000Y-14253800D01*
X16155000Y-14325229D01*
X16140714Y-14382371D01*
X16126428Y-14410943D01*
X16112143Y-14425229D01*
X16083571Y-14439514D01*
X16055000Y-14439514D01*
X16026428Y-14425229D01*
X16012143Y-14410943D01*
X15997857Y-14382371D01*
X15983571Y-14325229D01*
X15983571Y-14253800D01*
X15997857Y-14196657D01*
X16012143Y-14168086D01*
X16026428Y-14153800D01*
X16055000Y-14139514D01*
X16283571Y-14410943D02*
X16297857Y-14425229D01*
X16283571Y-14439514D01*
X16269286Y-14425229D01*
X16283571Y-14410943D01*
X16283571Y-14439514D01*
X16483571Y-14139514D02*
X16512143Y-14139514D01*
X16540714Y-14153800D01*
X16555000Y-14168086D01*
X16569286Y-14196657D01*
X16583571Y-14253800D01*
X16583571Y-14325229D01*
X16569286Y-14382371D01*
X16555000Y-14410943D01*
X16540714Y-14425229D01*
X16512143Y-14439514D01*
X16483571Y-14439514D01*
X16455000Y-14425229D01*
X16440714Y-14410943D01*
X16426428Y-14382371D01*
X16412143Y-14325229D01*
X16412143Y-14253800D01*
X16426428Y-14196657D01*
X16440714Y-14168086D01*
X16455000Y-14153800D01*
X16483571Y-14139514D01*
X16840714Y-14239514D02*
X16840714Y-14439514D01*
X16769286Y-14125229D02*
X16697857Y-14339514D01*
X16883571Y-14339514D01*
X17055000Y-14139514D02*
X17083571Y-14139514D01*
X17112143Y-14153800D01*
X17126428Y-14168086D01*
X17140714Y-14196657D01*
X17155000Y-14253800D01*
X17155000Y-14325229D01*
X17140714Y-14382371D01*
X17126428Y-14410943D01*
X17112143Y-14425229D01*
X17083571Y-14439514D01*
X17055000Y-14439514D01*
X17026428Y-14425229D01*
X17012143Y-14410943D01*
X16997857Y-14382371D01*
X16983571Y-14325229D01*
X16983571Y-14253800D01*
X16997857Y-14196657D01*
X17012143Y-14168086D01*
X17026428Y-14153800D01*
X17055000Y-14139514D01*
X17269286Y-14139514D02*
X17269286Y-14196657D01*
X17383571Y-14139514D02*
X17383571Y-14196657D01*
X17826428Y-14553800D02*
X17812143Y-14539514D01*
X17783571Y-14496657D01*
X17769286Y-14468086D01*
X17755000Y-14425229D01*
X17740714Y-14353800D01*
X17740714Y-14296657D01*
X17755000Y-14225229D01*
X17769286Y-14182371D01*
X17783571Y-14153800D01*
X17812143Y-14110943D01*
X17826428Y-14096657D01*
X18069286Y-14139514D02*
X18012143Y-14139514D01*
X17983571Y-14153800D01*
X17969286Y-14168086D01*
X17940714Y-14210943D01*
X17926428Y-14268086D01*
X17926428Y-14382371D01*
X17940714Y-14410943D01*
X17955000Y-14425229D01*
X17983571Y-14439514D01*
X18040714Y-14439514D01*
X18069286Y-14425229D01*
X18083571Y-14410943D01*
X18097857Y-14382371D01*
X18097857Y-14310943D01*
X18083571Y-14282371D01*
X18069286Y-14268086D01*
X18040714Y-14253800D01*
X17983571Y-14253800D01*
X17955000Y-14268086D01*
X17940714Y-14282371D01*
X17926428Y-14310943D01*
X18455000Y-14439514D02*
X18455000Y-14139514D01*
X18583571Y-14439514D02*
X18583571Y-14282371D01*
X18569286Y-14253800D01*
X18540714Y-14239514D01*
X18497857Y-14239514D01*
X18469286Y-14253800D01*
X18455000Y-14268086D01*
X18769286Y-14439514D02*
X18740714Y-14425229D01*
X18726428Y-14410943D01*
X18712143Y-14382371D01*
X18712143Y-14296657D01*
X18726428Y-14268086D01*
X18740714Y-14253800D01*
X18769286Y-14239514D01*
X18812143Y-14239514D01*
X18840714Y-14253800D01*
X18855000Y-14268086D01*
X18869286Y-14296657D01*
X18869286Y-14382371D01*
X18855000Y-14410943D01*
X18840714Y-14425229D01*
X18812143Y-14439514D01*
X18769286Y-14439514D01*
X19040714Y-14439514D02*
X19012143Y-14425229D01*
X18997857Y-14396657D01*
X18997857Y-14139514D01*
X19269286Y-14425229D02*
X19240714Y-14439514D01*
X19183571Y-14439514D01*
X19155000Y-14425229D01*
X19140714Y-14396657D01*
X19140714Y-14282371D01*
X19155000Y-14253800D01*
X19183571Y-14239514D01*
X19240714Y-14239514D01*
X19269286Y-14253800D01*
X19283571Y-14282371D01*
X19283571Y-14310943D01*
X19140714Y-14339514D01*
X19397857Y-14425229D02*
X19426428Y-14439514D01*
X19483571Y-14439514D01*
X19512143Y-14425229D01*
X19526428Y-14396657D01*
X19526428Y-14382371D01*
X19512143Y-14353800D01*
X19483571Y-14339514D01*
X19440714Y-14339514D01*
X19412143Y-14325229D01*
X19397857Y-14296657D01*
X19397857Y-14282371D01*
X19412143Y-14253800D01*
X19440714Y-14239514D01*
X19483571Y-14239514D01*
X19512143Y-14253800D01*
X19626428Y-14553800D02*
X19640714Y-14539514D01*
X19669286Y-14496657D01*
X19683571Y-14468086D01*
X19697857Y-14425229D01*
X19712143Y-14353800D01*
X19712143Y-14296657D01*
X19697857Y-14225229D01*
X19683571Y-14182371D01*
X19669286Y-14153800D01*
X19640714Y-14110943D01*
X19626428Y-14096657D01*
M02*
