M48
INCH,TZ
T1C0.0118
T2C0.0157
T3C0.0197
T4C0.0295
T5C0.0394
T6C0.0400
T7C0.0500
T8C0.0512
%
G90
G05
T1
X74261Y-23161
X74261Y-23839
X74450Y-23500
X74639Y-23161
X74639Y-23839
T2
X53050Y-35650
X57700Y-28450
X58192Y-33453
X58300Y-24100
X58354Y-32899
X59323Y-43862
X59400Y-36250
X59750Y-36900
X59900Y-33500
X60400Y-34000
X61800Y-20250
X63400Y-37750
X65440Y-31560
X65850Y-25750
X66709Y-32381
X68100Y-51450
X68350Y-19950
X68350Y-28614
X69250Y-33250
X72100Y-24450
X73950Y-22100
X74900Y-31700
X75150Y-36350
X76050Y-21250
T3
X57250Y-40200
X57250Y-40594
X52950Y-40200
X52950Y-40594
X55050Y-40206
X55050Y-40600
X55100Y-43006
X55100Y-43400
X57150Y-43006
X57150Y-43400
X53000Y-43000
X53000Y-43394
T4
X54904Y-27124
X54904Y-27624
X54904Y-28124
X55146Y-36520
X55146Y-37020
X55146Y-37520
X54966Y-31680
X54966Y-32180
X54966Y-32680
X71250Y-36900
X71250Y-37400
X71250Y-37900
X71150Y-27050
X71150Y-27550
X71150Y-28050
X71250Y-32050
X71250Y-32550
X71250Y-33050
T5
X70827Y-45122
X70827Y-46122
X70827Y-47122
T6
X62000Y-25300
X62000Y-26300
X63000Y-25300
X63000Y-26300
X64000Y-25300
X64000Y-26300
T7
X61950Y-40420
X64950Y-41780
T8
X59931Y-49250
X61900Y-49250
X63869Y-49250
X71526Y-41134
X73494Y-41134
X75463Y-41134
T5
X52304Y-21866G85X52304Y-20882
G05
X54666Y-21768G85X54666Y-20980
G05
T0
M30
