M48
; DRILL file {KiCad (5.1.4)-1} date 1/18/2021 10:38:20 AM
; FORMAT={-:-/ absolute / inch / decimal}
; #@! TF.CreationDate,2021-01-18T10:38:20+05:30
; #@! TF.GenerationSoftware,Kicad,Pcbnew,(5.1.4)-1
; #@! TF.FileFunction,Plated,1,2,PTH
FMAT,2
INCH
T1C0.0118
T2C0.0157
T3C0.0295
T4C0.0315
T5C0.0394
T6C0.0400
T7C0.0500
T8C0.0512
%
G90
G05
T1
X7.4261Y-2.3161
X7.4261Y-2.3839
X7.445Y-2.35
X7.4639Y-2.3161
X7.4639Y-2.3839
T2
X5.305Y-3.565
X5.77Y-2.845
X5.8192Y-3.3453
X5.83Y-2.41
X5.8354Y-3.2899
X5.9323Y-4.3862
X5.94Y-3.625
X5.975Y-3.69
X5.99Y-3.35
X6.04Y-3.4
X6.18Y-2.025
X6.34Y-3.775
X6.585Y-2.575
X6.605Y-3.24
X6.68Y-3.375
X6.81Y-5.145
X6.835Y-1.995
X6.835Y-2.8614
X6.925Y-3.325
X7.21Y-2.445
X7.395Y-2.21
X7.49Y-3.17
X7.515Y-3.635
X7.605Y-2.125
T3
X7.125Y-3.205
X7.125Y-3.255
X7.125Y-3.305
X5.4966Y-3.168
X5.4966Y-3.218
X5.4966Y-3.268
X7.125Y-3.69
X7.125Y-3.74
X7.125Y-3.79
X5.4904Y-2.7124
X5.4904Y-2.7624
X5.4904Y-2.8124
X7.115Y-2.705
X7.115Y-2.755
X7.115Y-2.805
X5.5146Y-3.652
X5.5146Y-3.702
X5.5146Y-3.752
T4
X5.255Y-4.305
X5.255Y-4.405
X5.255Y-4.505
X5.255Y-4.605
X5.355Y-4.355
X5.355Y-4.455
X5.355Y-4.555
X5.355Y-4.655
T5
X7.0827Y-4.5122
X7.0827Y-4.6122
X7.0827Y-4.7122
T6
X6.2Y-2.53
X6.2Y-2.63
X6.3Y-2.53
X6.3Y-2.63
X6.4Y-2.53
X6.4Y-2.63
T7
X6.195Y-4.042
X6.495Y-4.178
T8
X5.9931Y-4.925
X6.19Y-4.925
X6.3869Y-4.925
X7.1526Y-4.1134
X7.3494Y-4.1134
X7.5463Y-4.1134
T5
G00X5.2304Y-2.1866
M15
G01X5.2304Y-2.0882
M16
G05
G00X5.4666Y-2.1768
M15
G01X5.4666Y-2.098
M16
G05
T0
M30
