G04 #@! TF.GenerationSoftware,KiCad,Pcbnew,(5.1.4)-1*
G04 #@! TF.CreationDate,2021-01-18T10:38:23+05:30*
G04 #@! TF.ProjectId,power,706f7765-722e-46b6-9963-61645f706362,rev?*
G04 #@! TF.SameCoordinates,Original*
G04 #@! TF.FileFunction,Paste,Top*
G04 #@! TF.FilePolarity,Positive*
%FSLAX46Y46*%
G04 Gerber Fmt 4.6, Leading zero omitted, Abs format (unit mm)*
G04 Created by KiCad (PCBNEW (5.1.4)-1) date 2021-01-18 10:38:23*
%MOMM*%
%LPD*%
G04 APERTURE LIST*
%ADD10C,0.010000*%
%ADD11R,1.000000X1.000000*%
%ADD12C,0.100000*%
%ADD13C,1.150000*%
%ADD14R,0.700000X1.300000*%
%ADD15R,1.300000X0.700000*%
%ADD16R,1.050000X0.600000*%
%ADD17R,0.550000X1.600000*%
%ADD18R,1.600000X0.550000*%
%ADD19R,1.200000X1.200000*%
%ADD20R,2.743000X2.159000*%
%ADD21R,1.111200X0.600800*%
%ADD22R,0.675000X0.750000*%
%ADD23R,0.750000X0.675000*%
%ADD24R,0.640000X0.640000*%
%ADD25R,0.280000X0.700000*%
%ADD26R,0.850000X0.280000*%
G04 APERTURE END LIST*
D10*
G36*
X191253078Y-125624854D02*
G01*
X191253078Y-127124854D01*
X189643078Y-127124854D01*
X189643078Y-125624854D01*
X191253078Y-125624854D01*
G37*
X191253078Y-125624854D02*
X191253078Y-127124854D01*
X189643078Y-127124854D01*
X189643078Y-125624854D01*
X191253078Y-125624854D01*
G36*
X189003078Y-123484854D02*
G01*
X189003078Y-124984854D01*
X187393078Y-124984854D01*
X187393078Y-123484854D01*
X189003078Y-123484854D01*
G37*
X189003078Y-123484854D02*
X189003078Y-124984854D01*
X187393078Y-124984854D01*
X187393078Y-123484854D01*
X189003078Y-123484854D01*
G36*
X189003078Y-125624854D02*
G01*
X189003078Y-127124854D01*
X187393078Y-127124854D01*
X187393078Y-125624854D01*
X189003078Y-125624854D01*
G37*
X189003078Y-125624854D02*
X189003078Y-127124854D01*
X187393078Y-127124854D01*
X187393078Y-125624854D01*
X189003078Y-125624854D01*
G36*
X187743078Y-127457354D02*
G01*
X187743078Y-128107354D01*
X187068078Y-128107354D01*
X187068078Y-127457354D01*
X187743078Y-127457354D01*
G37*
X187743078Y-127457354D02*
X187743078Y-128107354D01*
X187068078Y-128107354D01*
X187068078Y-127457354D01*
X187743078Y-127457354D01*
G36*
X189000578Y-127457354D02*
G01*
X189000578Y-128107354D01*
X188325578Y-128107354D01*
X188325578Y-127457354D01*
X189000578Y-127457354D01*
G37*
X189000578Y-127457354D02*
X189000578Y-128107354D01*
X188325578Y-128107354D01*
X188325578Y-127457354D01*
X189000578Y-127457354D01*
G36*
X190320578Y-127457354D02*
G01*
X190320578Y-128107354D01*
X189645578Y-128107354D01*
X189645578Y-127457354D01*
X190320578Y-127457354D01*
G37*
X190320578Y-127457354D02*
X190320578Y-128107354D01*
X189645578Y-128107354D01*
X189645578Y-127457354D01*
X190320578Y-127457354D01*
G36*
X191578078Y-127457354D02*
G01*
X191578078Y-128107354D01*
X190903078Y-128107354D01*
X190903078Y-127457354D01*
X191578078Y-127457354D01*
G37*
X191578078Y-127457354D02*
X191578078Y-128107354D01*
X190903078Y-128107354D01*
X190903078Y-127457354D01*
X191578078Y-127457354D01*
G36*
X191253078Y-123484854D02*
G01*
X191253078Y-124984854D01*
X189643078Y-124984854D01*
X189643078Y-123484854D01*
X191253078Y-123484854D01*
G37*
X191253078Y-123484854D02*
X191253078Y-124984854D01*
X189643078Y-124984854D01*
X189643078Y-123484854D01*
X191253078Y-123484854D01*
G36*
X164582000Y-118389000D02*
G01*
X163082000Y-118389000D01*
X163082000Y-116779000D01*
X164582000Y-116779000D01*
X164582000Y-118389000D01*
G37*
X164582000Y-118389000D02*
X163082000Y-118389000D01*
X163082000Y-116779000D01*
X164582000Y-116779000D01*
X164582000Y-118389000D01*
G36*
X166722000Y-116139000D02*
G01*
X165222000Y-116139000D01*
X165222000Y-114529000D01*
X166722000Y-114529000D01*
X166722000Y-116139000D01*
G37*
X166722000Y-116139000D02*
X165222000Y-116139000D01*
X165222000Y-114529000D01*
X166722000Y-114529000D01*
X166722000Y-116139000D01*
G36*
X164582000Y-116139000D02*
G01*
X163082000Y-116139000D01*
X163082000Y-114529000D01*
X164582000Y-114529000D01*
X164582000Y-116139000D01*
G37*
X164582000Y-116139000D02*
X163082000Y-116139000D01*
X163082000Y-114529000D01*
X164582000Y-114529000D01*
X164582000Y-116139000D01*
G36*
X162749500Y-114879000D02*
G01*
X162099500Y-114879000D01*
X162099500Y-114204000D01*
X162749500Y-114204000D01*
X162749500Y-114879000D01*
G37*
X162749500Y-114879000D02*
X162099500Y-114879000D01*
X162099500Y-114204000D01*
X162749500Y-114204000D01*
X162749500Y-114879000D01*
G36*
X162749500Y-116136500D02*
G01*
X162099500Y-116136500D01*
X162099500Y-115461500D01*
X162749500Y-115461500D01*
X162749500Y-116136500D01*
G37*
X162749500Y-116136500D02*
X162099500Y-116136500D01*
X162099500Y-115461500D01*
X162749500Y-115461500D01*
X162749500Y-116136500D01*
G36*
X162749500Y-117456500D02*
G01*
X162099500Y-117456500D01*
X162099500Y-116781500D01*
X162749500Y-116781500D01*
X162749500Y-117456500D01*
G37*
X162749500Y-117456500D02*
X162099500Y-117456500D01*
X162099500Y-116781500D01*
X162749500Y-116781500D01*
X162749500Y-117456500D01*
G36*
X162749500Y-118714000D02*
G01*
X162099500Y-118714000D01*
X162099500Y-118039000D01*
X162749500Y-118039000D01*
X162749500Y-118714000D01*
G37*
X162749500Y-118714000D02*
X162099500Y-118714000D01*
X162099500Y-118039000D01*
X162749500Y-118039000D01*
X162749500Y-118714000D01*
G36*
X166722000Y-118389000D02*
G01*
X165222000Y-118389000D01*
X165222000Y-116779000D01*
X166722000Y-116779000D01*
X166722000Y-118389000D01*
G37*
X166722000Y-118389000D02*
X165222000Y-118389000D01*
X165222000Y-116779000D01*
X166722000Y-116779000D01*
X166722000Y-118389000D01*
D11*
X179705000Y-65786000D03*
X180975000Y-65786000D03*
D12*
G36*
X148175505Y-74220204D02*
G01*
X148199773Y-74223804D01*
X148223572Y-74229765D01*
X148246671Y-74238030D01*
X148268850Y-74248520D01*
X148289893Y-74261132D01*
X148309599Y-74275747D01*
X148327777Y-74292223D01*
X148344253Y-74310401D01*
X148358868Y-74330107D01*
X148371480Y-74351150D01*
X148381970Y-74373329D01*
X148390235Y-74396428D01*
X148396196Y-74420227D01*
X148399796Y-74444495D01*
X148401000Y-74468999D01*
X148401000Y-75119001D01*
X148399796Y-75143505D01*
X148396196Y-75167773D01*
X148390235Y-75191572D01*
X148381970Y-75214671D01*
X148371480Y-75236850D01*
X148358868Y-75257893D01*
X148344253Y-75277599D01*
X148327777Y-75295777D01*
X148309599Y-75312253D01*
X148289893Y-75326868D01*
X148268850Y-75339480D01*
X148246671Y-75349970D01*
X148223572Y-75358235D01*
X148199773Y-75364196D01*
X148175505Y-75367796D01*
X148151001Y-75369000D01*
X147250999Y-75369000D01*
X147226495Y-75367796D01*
X147202227Y-75364196D01*
X147178428Y-75358235D01*
X147155329Y-75349970D01*
X147133150Y-75339480D01*
X147112107Y-75326868D01*
X147092401Y-75312253D01*
X147074223Y-75295777D01*
X147057747Y-75277599D01*
X147043132Y-75257893D01*
X147030520Y-75236850D01*
X147020030Y-75214671D01*
X147011765Y-75191572D01*
X147005804Y-75167773D01*
X147002204Y-75143505D01*
X147001000Y-75119001D01*
X147001000Y-74468999D01*
X147002204Y-74444495D01*
X147005804Y-74420227D01*
X147011765Y-74396428D01*
X147020030Y-74373329D01*
X147030520Y-74351150D01*
X147043132Y-74330107D01*
X147057747Y-74310401D01*
X147074223Y-74292223D01*
X147092401Y-74275747D01*
X147112107Y-74261132D01*
X147133150Y-74248520D01*
X147155329Y-74238030D01*
X147178428Y-74229765D01*
X147202227Y-74223804D01*
X147226495Y-74220204D01*
X147250999Y-74219000D01*
X148151001Y-74219000D01*
X148175505Y-74220204D01*
X148175505Y-74220204D01*
G37*
D13*
X147701000Y-74794000D03*
D12*
G36*
X148175505Y-76270204D02*
G01*
X148199773Y-76273804D01*
X148223572Y-76279765D01*
X148246671Y-76288030D01*
X148268850Y-76298520D01*
X148289893Y-76311132D01*
X148309599Y-76325747D01*
X148327777Y-76342223D01*
X148344253Y-76360401D01*
X148358868Y-76380107D01*
X148371480Y-76401150D01*
X148381970Y-76423329D01*
X148390235Y-76446428D01*
X148396196Y-76470227D01*
X148399796Y-76494495D01*
X148401000Y-76518999D01*
X148401000Y-77169001D01*
X148399796Y-77193505D01*
X148396196Y-77217773D01*
X148390235Y-77241572D01*
X148381970Y-77264671D01*
X148371480Y-77286850D01*
X148358868Y-77307893D01*
X148344253Y-77327599D01*
X148327777Y-77345777D01*
X148309599Y-77362253D01*
X148289893Y-77376868D01*
X148268850Y-77389480D01*
X148246671Y-77399970D01*
X148223572Y-77408235D01*
X148199773Y-77414196D01*
X148175505Y-77417796D01*
X148151001Y-77419000D01*
X147250999Y-77419000D01*
X147226495Y-77417796D01*
X147202227Y-77414196D01*
X147178428Y-77408235D01*
X147155329Y-77399970D01*
X147133150Y-77389480D01*
X147112107Y-77376868D01*
X147092401Y-77362253D01*
X147074223Y-77345777D01*
X147057747Y-77327599D01*
X147043132Y-77307893D01*
X147030520Y-77286850D01*
X147020030Y-77264671D01*
X147011765Y-77241572D01*
X147005804Y-77217773D01*
X147002204Y-77193505D01*
X147001000Y-77169001D01*
X147001000Y-76518999D01*
X147002204Y-76494495D01*
X147005804Y-76470227D01*
X147011765Y-76446428D01*
X147020030Y-76423329D01*
X147030520Y-76401150D01*
X147043132Y-76380107D01*
X147057747Y-76360401D01*
X147074223Y-76342223D01*
X147092401Y-76325747D01*
X147112107Y-76311132D01*
X147133150Y-76298520D01*
X147155329Y-76288030D01*
X147178428Y-76279765D01*
X147202227Y-76273804D01*
X147226495Y-76270204D01*
X147250999Y-76269000D01*
X148151001Y-76269000D01*
X148175505Y-76270204D01*
X148175505Y-76270204D01*
G37*
D13*
X147701000Y-76844000D03*
D14*
X149806966Y-50638542D03*
X147906966Y-50638542D03*
D15*
X176657000Y-120899000D03*
X176657000Y-118999000D03*
X183261000Y-120838000D03*
X183261000Y-118938000D03*
D14*
X158366862Y-110012539D03*
X160266862Y-110012539D03*
D15*
X191521076Y-73356738D03*
X191521076Y-71456738D03*
D16*
X162325000Y-92216000D03*
X162325000Y-91266000D03*
X162325000Y-90316000D03*
X159625000Y-90316000D03*
X159625000Y-92216000D03*
D17*
X156390000Y-74268000D03*
X157190000Y-74268000D03*
X157990000Y-74268000D03*
X158790000Y-74268000D03*
X159590000Y-74268000D03*
X160390000Y-74268000D03*
X161190000Y-74268000D03*
X161990000Y-74268000D03*
D18*
X163440000Y-75718000D03*
X163440000Y-76518000D03*
X163440000Y-77318000D03*
X163440000Y-78118000D03*
X163440000Y-78918000D03*
X163440000Y-79718000D03*
X163440000Y-80518000D03*
X163440000Y-81318000D03*
D17*
X161990000Y-82768000D03*
X161190000Y-82768000D03*
X160390000Y-82768000D03*
X159590000Y-82768000D03*
X158790000Y-82768000D03*
X157990000Y-82768000D03*
X157190000Y-82768000D03*
X156390000Y-82768000D03*
D18*
X154940000Y-81318000D03*
X154940000Y-80518000D03*
X154940000Y-79718000D03*
X154940000Y-78918000D03*
X154940000Y-78118000D03*
X154940000Y-77318000D03*
X154940000Y-76518000D03*
X154940000Y-75718000D03*
D14*
X173548000Y-68707000D03*
X175448000Y-68707000D03*
D15*
X151786530Y-97259362D03*
X151786530Y-95359362D03*
D12*
G36*
X194911505Y-56059204D02*
G01*
X194935773Y-56062804D01*
X194959572Y-56068765D01*
X194982671Y-56077030D01*
X195004850Y-56087520D01*
X195025893Y-56100132D01*
X195045599Y-56114747D01*
X195063777Y-56131223D01*
X195080253Y-56149401D01*
X195094868Y-56169107D01*
X195107480Y-56190150D01*
X195117970Y-56212329D01*
X195126235Y-56235428D01*
X195132196Y-56259227D01*
X195135796Y-56283495D01*
X195137000Y-56307999D01*
X195137000Y-56958001D01*
X195135796Y-56982505D01*
X195132196Y-57006773D01*
X195126235Y-57030572D01*
X195117970Y-57053671D01*
X195107480Y-57075850D01*
X195094868Y-57096893D01*
X195080253Y-57116599D01*
X195063777Y-57134777D01*
X195045599Y-57151253D01*
X195025893Y-57165868D01*
X195004850Y-57178480D01*
X194982671Y-57188970D01*
X194959572Y-57197235D01*
X194935773Y-57203196D01*
X194911505Y-57206796D01*
X194887001Y-57208000D01*
X193986999Y-57208000D01*
X193962495Y-57206796D01*
X193938227Y-57203196D01*
X193914428Y-57197235D01*
X193891329Y-57188970D01*
X193869150Y-57178480D01*
X193848107Y-57165868D01*
X193828401Y-57151253D01*
X193810223Y-57134777D01*
X193793747Y-57116599D01*
X193779132Y-57096893D01*
X193766520Y-57075850D01*
X193756030Y-57053671D01*
X193747765Y-57030572D01*
X193741804Y-57006773D01*
X193738204Y-56982505D01*
X193737000Y-56958001D01*
X193737000Y-56307999D01*
X193738204Y-56283495D01*
X193741804Y-56259227D01*
X193747765Y-56235428D01*
X193756030Y-56212329D01*
X193766520Y-56190150D01*
X193779132Y-56169107D01*
X193793747Y-56149401D01*
X193810223Y-56131223D01*
X193828401Y-56114747D01*
X193848107Y-56100132D01*
X193869150Y-56087520D01*
X193891329Y-56077030D01*
X193914428Y-56068765D01*
X193938227Y-56062804D01*
X193962495Y-56059204D01*
X193986999Y-56058000D01*
X194887001Y-56058000D01*
X194911505Y-56059204D01*
X194911505Y-56059204D01*
G37*
D13*
X194437000Y-56633000D03*
D12*
G36*
X194911505Y-58109204D02*
G01*
X194935773Y-58112804D01*
X194959572Y-58118765D01*
X194982671Y-58127030D01*
X195004850Y-58137520D01*
X195025893Y-58150132D01*
X195045599Y-58164747D01*
X195063777Y-58181223D01*
X195080253Y-58199401D01*
X195094868Y-58219107D01*
X195107480Y-58240150D01*
X195117970Y-58262329D01*
X195126235Y-58285428D01*
X195132196Y-58309227D01*
X195135796Y-58333495D01*
X195137000Y-58357999D01*
X195137000Y-59008001D01*
X195135796Y-59032505D01*
X195132196Y-59056773D01*
X195126235Y-59080572D01*
X195117970Y-59103671D01*
X195107480Y-59125850D01*
X195094868Y-59146893D01*
X195080253Y-59166599D01*
X195063777Y-59184777D01*
X195045599Y-59201253D01*
X195025893Y-59215868D01*
X195004850Y-59228480D01*
X194982671Y-59238970D01*
X194959572Y-59247235D01*
X194935773Y-59253196D01*
X194911505Y-59256796D01*
X194887001Y-59258000D01*
X193986999Y-59258000D01*
X193962495Y-59256796D01*
X193938227Y-59253196D01*
X193914428Y-59247235D01*
X193891329Y-59238970D01*
X193869150Y-59228480D01*
X193848107Y-59215868D01*
X193828401Y-59201253D01*
X193810223Y-59184777D01*
X193793747Y-59166599D01*
X193779132Y-59146893D01*
X193766520Y-59125850D01*
X193756030Y-59103671D01*
X193747765Y-59080572D01*
X193741804Y-59056773D01*
X193738204Y-59032505D01*
X193737000Y-59008001D01*
X193737000Y-58357999D01*
X193738204Y-58333495D01*
X193741804Y-58309227D01*
X193747765Y-58285428D01*
X193756030Y-58262329D01*
X193766520Y-58240150D01*
X193779132Y-58219107D01*
X193793747Y-58199401D01*
X193810223Y-58181223D01*
X193828401Y-58164747D01*
X193848107Y-58150132D01*
X193869150Y-58137520D01*
X193891329Y-58127030D01*
X193914428Y-58118765D01*
X193938227Y-58112804D01*
X193962495Y-58109204D01*
X193986999Y-58108000D01*
X194887001Y-58108000D01*
X194911505Y-58109204D01*
X194911505Y-58109204D01*
G37*
D13*
X194437000Y-58683000D03*
D12*
G36*
X177186811Y-54023714D02*
G01*
X177211079Y-54027314D01*
X177234878Y-54033275D01*
X177257977Y-54041540D01*
X177280156Y-54052030D01*
X177301199Y-54064642D01*
X177320905Y-54079257D01*
X177339083Y-54095733D01*
X177355559Y-54113911D01*
X177370174Y-54133617D01*
X177382786Y-54154660D01*
X177393276Y-54176839D01*
X177401541Y-54199938D01*
X177407502Y-54223737D01*
X177411102Y-54248005D01*
X177412306Y-54272509D01*
X177412306Y-54922511D01*
X177411102Y-54947015D01*
X177407502Y-54971283D01*
X177401541Y-54995082D01*
X177393276Y-55018181D01*
X177382786Y-55040360D01*
X177370174Y-55061403D01*
X177355559Y-55081109D01*
X177339083Y-55099287D01*
X177320905Y-55115763D01*
X177301199Y-55130378D01*
X177280156Y-55142990D01*
X177257977Y-55153480D01*
X177234878Y-55161745D01*
X177211079Y-55167706D01*
X177186811Y-55171306D01*
X177162307Y-55172510D01*
X176262305Y-55172510D01*
X176237801Y-55171306D01*
X176213533Y-55167706D01*
X176189734Y-55161745D01*
X176166635Y-55153480D01*
X176144456Y-55142990D01*
X176123413Y-55130378D01*
X176103707Y-55115763D01*
X176085529Y-55099287D01*
X176069053Y-55081109D01*
X176054438Y-55061403D01*
X176041826Y-55040360D01*
X176031336Y-55018181D01*
X176023071Y-54995082D01*
X176017110Y-54971283D01*
X176013510Y-54947015D01*
X176012306Y-54922511D01*
X176012306Y-54272509D01*
X176013510Y-54248005D01*
X176017110Y-54223737D01*
X176023071Y-54199938D01*
X176031336Y-54176839D01*
X176041826Y-54154660D01*
X176054438Y-54133617D01*
X176069053Y-54113911D01*
X176085529Y-54095733D01*
X176103707Y-54079257D01*
X176123413Y-54064642D01*
X176144456Y-54052030D01*
X176166635Y-54041540D01*
X176189734Y-54033275D01*
X176213533Y-54027314D01*
X176237801Y-54023714D01*
X176262305Y-54022510D01*
X177162307Y-54022510D01*
X177186811Y-54023714D01*
X177186811Y-54023714D01*
G37*
D13*
X176712306Y-54597510D03*
D12*
G36*
X177186811Y-56073714D02*
G01*
X177211079Y-56077314D01*
X177234878Y-56083275D01*
X177257977Y-56091540D01*
X177280156Y-56102030D01*
X177301199Y-56114642D01*
X177320905Y-56129257D01*
X177339083Y-56145733D01*
X177355559Y-56163911D01*
X177370174Y-56183617D01*
X177382786Y-56204660D01*
X177393276Y-56226839D01*
X177401541Y-56249938D01*
X177407502Y-56273737D01*
X177411102Y-56298005D01*
X177412306Y-56322509D01*
X177412306Y-56972511D01*
X177411102Y-56997015D01*
X177407502Y-57021283D01*
X177401541Y-57045082D01*
X177393276Y-57068181D01*
X177382786Y-57090360D01*
X177370174Y-57111403D01*
X177355559Y-57131109D01*
X177339083Y-57149287D01*
X177320905Y-57165763D01*
X177301199Y-57180378D01*
X177280156Y-57192990D01*
X177257977Y-57203480D01*
X177234878Y-57211745D01*
X177211079Y-57217706D01*
X177186811Y-57221306D01*
X177162307Y-57222510D01*
X176262305Y-57222510D01*
X176237801Y-57221306D01*
X176213533Y-57217706D01*
X176189734Y-57211745D01*
X176166635Y-57203480D01*
X176144456Y-57192990D01*
X176123413Y-57180378D01*
X176103707Y-57165763D01*
X176085529Y-57149287D01*
X176069053Y-57131109D01*
X176054438Y-57111403D01*
X176041826Y-57090360D01*
X176031336Y-57068181D01*
X176023071Y-57045082D01*
X176017110Y-57021283D01*
X176013510Y-56997015D01*
X176012306Y-56972511D01*
X176012306Y-56322509D01*
X176013510Y-56298005D01*
X176017110Y-56273737D01*
X176023071Y-56249938D01*
X176031336Y-56226839D01*
X176041826Y-56204660D01*
X176054438Y-56183617D01*
X176069053Y-56163911D01*
X176085529Y-56145733D01*
X176103707Y-56129257D01*
X176123413Y-56114642D01*
X176144456Y-56102030D01*
X176166635Y-56091540D01*
X176189734Y-56083275D01*
X176213533Y-56077314D01*
X176237801Y-56073714D01*
X176262305Y-56072510D01*
X177162307Y-56072510D01*
X177186811Y-56073714D01*
X177186811Y-56073714D01*
G37*
D13*
X176712306Y-56647510D03*
D12*
G36*
X147032505Y-87056204D02*
G01*
X147056773Y-87059804D01*
X147080572Y-87065765D01*
X147103671Y-87074030D01*
X147125850Y-87084520D01*
X147146893Y-87097132D01*
X147166599Y-87111747D01*
X147184777Y-87128223D01*
X147201253Y-87146401D01*
X147215868Y-87166107D01*
X147228480Y-87187150D01*
X147238970Y-87209329D01*
X147247235Y-87232428D01*
X147253196Y-87256227D01*
X147256796Y-87280495D01*
X147258000Y-87304999D01*
X147258000Y-87955001D01*
X147256796Y-87979505D01*
X147253196Y-88003773D01*
X147247235Y-88027572D01*
X147238970Y-88050671D01*
X147228480Y-88072850D01*
X147215868Y-88093893D01*
X147201253Y-88113599D01*
X147184777Y-88131777D01*
X147166599Y-88148253D01*
X147146893Y-88162868D01*
X147125850Y-88175480D01*
X147103671Y-88185970D01*
X147080572Y-88194235D01*
X147056773Y-88200196D01*
X147032505Y-88203796D01*
X147008001Y-88205000D01*
X146107999Y-88205000D01*
X146083495Y-88203796D01*
X146059227Y-88200196D01*
X146035428Y-88194235D01*
X146012329Y-88185970D01*
X145990150Y-88175480D01*
X145969107Y-88162868D01*
X145949401Y-88148253D01*
X145931223Y-88131777D01*
X145914747Y-88113599D01*
X145900132Y-88093893D01*
X145887520Y-88072850D01*
X145877030Y-88050671D01*
X145868765Y-88027572D01*
X145862804Y-88003773D01*
X145859204Y-87979505D01*
X145858000Y-87955001D01*
X145858000Y-87304999D01*
X145859204Y-87280495D01*
X145862804Y-87256227D01*
X145868765Y-87232428D01*
X145877030Y-87209329D01*
X145887520Y-87187150D01*
X145900132Y-87166107D01*
X145914747Y-87146401D01*
X145931223Y-87128223D01*
X145949401Y-87111747D01*
X145969107Y-87097132D01*
X145990150Y-87084520D01*
X146012329Y-87074030D01*
X146035428Y-87065765D01*
X146059227Y-87059804D01*
X146083495Y-87056204D01*
X146107999Y-87055000D01*
X147008001Y-87055000D01*
X147032505Y-87056204D01*
X147032505Y-87056204D01*
G37*
D13*
X146558000Y-87630000D03*
D12*
G36*
X147032505Y-89106204D02*
G01*
X147056773Y-89109804D01*
X147080572Y-89115765D01*
X147103671Y-89124030D01*
X147125850Y-89134520D01*
X147146893Y-89147132D01*
X147166599Y-89161747D01*
X147184777Y-89178223D01*
X147201253Y-89196401D01*
X147215868Y-89216107D01*
X147228480Y-89237150D01*
X147238970Y-89259329D01*
X147247235Y-89282428D01*
X147253196Y-89306227D01*
X147256796Y-89330495D01*
X147258000Y-89354999D01*
X147258000Y-90005001D01*
X147256796Y-90029505D01*
X147253196Y-90053773D01*
X147247235Y-90077572D01*
X147238970Y-90100671D01*
X147228480Y-90122850D01*
X147215868Y-90143893D01*
X147201253Y-90163599D01*
X147184777Y-90181777D01*
X147166599Y-90198253D01*
X147146893Y-90212868D01*
X147125850Y-90225480D01*
X147103671Y-90235970D01*
X147080572Y-90244235D01*
X147056773Y-90250196D01*
X147032505Y-90253796D01*
X147008001Y-90255000D01*
X146107999Y-90255000D01*
X146083495Y-90253796D01*
X146059227Y-90250196D01*
X146035428Y-90244235D01*
X146012329Y-90235970D01*
X145990150Y-90225480D01*
X145969107Y-90212868D01*
X145949401Y-90198253D01*
X145931223Y-90181777D01*
X145914747Y-90163599D01*
X145900132Y-90143893D01*
X145887520Y-90122850D01*
X145877030Y-90100671D01*
X145868765Y-90077572D01*
X145862804Y-90053773D01*
X145859204Y-90029505D01*
X145858000Y-90005001D01*
X145858000Y-89354999D01*
X145859204Y-89330495D01*
X145862804Y-89306227D01*
X145868765Y-89282428D01*
X145877030Y-89259329D01*
X145887520Y-89237150D01*
X145900132Y-89216107D01*
X145914747Y-89196401D01*
X145931223Y-89178223D01*
X145949401Y-89161747D01*
X145969107Y-89147132D01*
X145990150Y-89134520D01*
X146012329Y-89124030D01*
X146035428Y-89115765D01*
X146059227Y-89109804D01*
X146083495Y-89106204D01*
X146107999Y-89105000D01*
X147008001Y-89105000D01*
X147032505Y-89106204D01*
X147032505Y-89106204D01*
G37*
D13*
X146558000Y-89680000D03*
D12*
G36*
X149826505Y-63434204D02*
G01*
X149850773Y-63437804D01*
X149874572Y-63443765D01*
X149897671Y-63452030D01*
X149919850Y-63462520D01*
X149940893Y-63475132D01*
X149960599Y-63489747D01*
X149978777Y-63506223D01*
X149995253Y-63524401D01*
X150009868Y-63544107D01*
X150022480Y-63565150D01*
X150032970Y-63587329D01*
X150041235Y-63610428D01*
X150047196Y-63634227D01*
X150050796Y-63658495D01*
X150052000Y-63682999D01*
X150052000Y-64333001D01*
X150050796Y-64357505D01*
X150047196Y-64381773D01*
X150041235Y-64405572D01*
X150032970Y-64428671D01*
X150022480Y-64450850D01*
X150009868Y-64471893D01*
X149995253Y-64491599D01*
X149978777Y-64509777D01*
X149960599Y-64526253D01*
X149940893Y-64540868D01*
X149919850Y-64553480D01*
X149897671Y-64563970D01*
X149874572Y-64572235D01*
X149850773Y-64578196D01*
X149826505Y-64581796D01*
X149802001Y-64583000D01*
X148901999Y-64583000D01*
X148877495Y-64581796D01*
X148853227Y-64578196D01*
X148829428Y-64572235D01*
X148806329Y-64563970D01*
X148784150Y-64553480D01*
X148763107Y-64540868D01*
X148743401Y-64526253D01*
X148725223Y-64509777D01*
X148708747Y-64491599D01*
X148694132Y-64471893D01*
X148681520Y-64450850D01*
X148671030Y-64428671D01*
X148662765Y-64405572D01*
X148656804Y-64381773D01*
X148653204Y-64357505D01*
X148652000Y-64333001D01*
X148652000Y-63682999D01*
X148653204Y-63658495D01*
X148656804Y-63634227D01*
X148662765Y-63610428D01*
X148671030Y-63587329D01*
X148681520Y-63565150D01*
X148694132Y-63544107D01*
X148708747Y-63524401D01*
X148725223Y-63506223D01*
X148743401Y-63489747D01*
X148763107Y-63475132D01*
X148784150Y-63462520D01*
X148806329Y-63452030D01*
X148829428Y-63443765D01*
X148853227Y-63437804D01*
X148877495Y-63434204D01*
X148901999Y-63433000D01*
X149802001Y-63433000D01*
X149826505Y-63434204D01*
X149826505Y-63434204D01*
G37*
D13*
X149352000Y-64008000D03*
D12*
G36*
X149826505Y-65484204D02*
G01*
X149850773Y-65487804D01*
X149874572Y-65493765D01*
X149897671Y-65502030D01*
X149919850Y-65512520D01*
X149940893Y-65525132D01*
X149960599Y-65539747D01*
X149978777Y-65556223D01*
X149995253Y-65574401D01*
X150009868Y-65594107D01*
X150022480Y-65615150D01*
X150032970Y-65637329D01*
X150041235Y-65660428D01*
X150047196Y-65684227D01*
X150050796Y-65708495D01*
X150052000Y-65732999D01*
X150052000Y-66383001D01*
X150050796Y-66407505D01*
X150047196Y-66431773D01*
X150041235Y-66455572D01*
X150032970Y-66478671D01*
X150022480Y-66500850D01*
X150009868Y-66521893D01*
X149995253Y-66541599D01*
X149978777Y-66559777D01*
X149960599Y-66576253D01*
X149940893Y-66590868D01*
X149919850Y-66603480D01*
X149897671Y-66613970D01*
X149874572Y-66622235D01*
X149850773Y-66628196D01*
X149826505Y-66631796D01*
X149802001Y-66633000D01*
X148901999Y-66633000D01*
X148877495Y-66631796D01*
X148853227Y-66628196D01*
X148829428Y-66622235D01*
X148806329Y-66613970D01*
X148784150Y-66603480D01*
X148763107Y-66590868D01*
X148743401Y-66576253D01*
X148725223Y-66559777D01*
X148708747Y-66541599D01*
X148694132Y-66521893D01*
X148681520Y-66500850D01*
X148671030Y-66478671D01*
X148662765Y-66455572D01*
X148656804Y-66431773D01*
X148653204Y-66407505D01*
X148652000Y-66383001D01*
X148652000Y-65732999D01*
X148653204Y-65708495D01*
X148656804Y-65684227D01*
X148662765Y-65660428D01*
X148671030Y-65637329D01*
X148681520Y-65615150D01*
X148694132Y-65594107D01*
X148708747Y-65574401D01*
X148725223Y-65556223D01*
X148743401Y-65539747D01*
X148763107Y-65525132D01*
X148784150Y-65512520D01*
X148806329Y-65502030D01*
X148829428Y-65493765D01*
X148853227Y-65487804D01*
X148877495Y-65484204D01*
X148901999Y-65483000D01*
X149802001Y-65483000D01*
X149826505Y-65484204D01*
X149826505Y-65484204D01*
G37*
D13*
X149352000Y-66058000D03*
D12*
G36*
X136110505Y-92390204D02*
G01*
X136134773Y-92393804D01*
X136158572Y-92399765D01*
X136181671Y-92408030D01*
X136203850Y-92418520D01*
X136224893Y-92431132D01*
X136244599Y-92445747D01*
X136262777Y-92462223D01*
X136279253Y-92480401D01*
X136293868Y-92500107D01*
X136306480Y-92521150D01*
X136316970Y-92543329D01*
X136325235Y-92566428D01*
X136331196Y-92590227D01*
X136334796Y-92614495D01*
X136336000Y-92638999D01*
X136336000Y-93289001D01*
X136334796Y-93313505D01*
X136331196Y-93337773D01*
X136325235Y-93361572D01*
X136316970Y-93384671D01*
X136306480Y-93406850D01*
X136293868Y-93427893D01*
X136279253Y-93447599D01*
X136262777Y-93465777D01*
X136244599Y-93482253D01*
X136224893Y-93496868D01*
X136203850Y-93509480D01*
X136181671Y-93519970D01*
X136158572Y-93528235D01*
X136134773Y-93534196D01*
X136110505Y-93537796D01*
X136086001Y-93539000D01*
X135185999Y-93539000D01*
X135161495Y-93537796D01*
X135137227Y-93534196D01*
X135113428Y-93528235D01*
X135090329Y-93519970D01*
X135068150Y-93509480D01*
X135047107Y-93496868D01*
X135027401Y-93482253D01*
X135009223Y-93465777D01*
X134992747Y-93447599D01*
X134978132Y-93427893D01*
X134965520Y-93406850D01*
X134955030Y-93384671D01*
X134946765Y-93361572D01*
X134940804Y-93337773D01*
X134937204Y-93313505D01*
X134936000Y-93289001D01*
X134936000Y-92638999D01*
X134937204Y-92614495D01*
X134940804Y-92590227D01*
X134946765Y-92566428D01*
X134955030Y-92543329D01*
X134965520Y-92521150D01*
X134978132Y-92500107D01*
X134992747Y-92480401D01*
X135009223Y-92462223D01*
X135027401Y-92445747D01*
X135047107Y-92431132D01*
X135068150Y-92418520D01*
X135090329Y-92408030D01*
X135113428Y-92399765D01*
X135137227Y-92393804D01*
X135161495Y-92390204D01*
X135185999Y-92389000D01*
X136086001Y-92389000D01*
X136110505Y-92390204D01*
X136110505Y-92390204D01*
G37*
D13*
X135636000Y-92964000D03*
D12*
G36*
X136110505Y-94440204D02*
G01*
X136134773Y-94443804D01*
X136158572Y-94449765D01*
X136181671Y-94458030D01*
X136203850Y-94468520D01*
X136224893Y-94481132D01*
X136244599Y-94495747D01*
X136262777Y-94512223D01*
X136279253Y-94530401D01*
X136293868Y-94550107D01*
X136306480Y-94571150D01*
X136316970Y-94593329D01*
X136325235Y-94616428D01*
X136331196Y-94640227D01*
X136334796Y-94664495D01*
X136336000Y-94688999D01*
X136336000Y-95339001D01*
X136334796Y-95363505D01*
X136331196Y-95387773D01*
X136325235Y-95411572D01*
X136316970Y-95434671D01*
X136306480Y-95456850D01*
X136293868Y-95477893D01*
X136279253Y-95497599D01*
X136262777Y-95515777D01*
X136244599Y-95532253D01*
X136224893Y-95546868D01*
X136203850Y-95559480D01*
X136181671Y-95569970D01*
X136158572Y-95578235D01*
X136134773Y-95584196D01*
X136110505Y-95587796D01*
X136086001Y-95589000D01*
X135185999Y-95589000D01*
X135161495Y-95587796D01*
X135137227Y-95584196D01*
X135113428Y-95578235D01*
X135090329Y-95569970D01*
X135068150Y-95559480D01*
X135047107Y-95546868D01*
X135027401Y-95532253D01*
X135009223Y-95515777D01*
X134992747Y-95497599D01*
X134978132Y-95477893D01*
X134965520Y-95456850D01*
X134955030Y-95434671D01*
X134946765Y-95411572D01*
X134940804Y-95387773D01*
X134937204Y-95363505D01*
X134936000Y-95339001D01*
X134936000Y-94688999D01*
X134937204Y-94664495D01*
X134940804Y-94640227D01*
X134946765Y-94616428D01*
X134955030Y-94593329D01*
X134965520Y-94571150D01*
X134978132Y-94550107D01*
X134992747Y-94530401D01*
X135009223Y-94512223D01*
X135027401Y-94495747D01*
X135047107Y-94481132D01*
X135068150Y-94468520D01*
X135090329Y-94458030D01*
X135113428Y-94449765D01*
X135137227Y-94443804D01*
X135161495Y-94440204D01*
X135185999Y-94439000D01*
X136086001Y-94439000D01*
X136110505Y-94440204D01*
X136110505Y-94440204D01*
G37*
D13*
X135636000Y-95014000D03*
D12*
G36*
X134452505Y-80835204D02*
G01*
X134476773Y-80838804D01*
X134500572Y-80844765D01*
X134523671Y-80853030D01*
X134545850Y-80863520D01*
X134566893Y-80876132D01*
X134586599Y-80890747D01*
X134604777Y-80907223D01*
X134621253Y-80925401D01*
X134635868Y-80945107D01*
X134648480Y-80966150D01*
X134658970Y-80988329D01*
X134667235Y-81011428D01*
X134673196Y-81035227D01*
X134676796Y-81059495D01*
X134678000Y-81083999D01*
X134678000Y-81984001D01*
X134676796Y-82008505D01*
X134673196Y-82032773D01*
X134667235Y-82056572D01*
X134658970Y-82079671D01*
X134648480Y-82101850D01*
X134635868Y-82122893D01*
X134621253Y-82142599D01*
X134604777Y-82160777D01*
X134586599Y-82177253D01*
X134566893Y-82191868D01*
X134545850Y-82204480D01*
X134523671Y-82214970D01*
X134500572Y-82223235D01*
X134476773Y-82229196D01*
X134452505Y-82232796D01*
X134428001Y-82234000D01*
X133777999Y-82234000D01*
X133753495Y-82232796D01*
X133729227Y-82229196D01*
X133705428Y-82223235D01*
X133682329Y-82214970D01*
X133660150Y-82204480D01*
X133639107Y-82191868D01*
X133619401Y-82177253D01*
X133601223Y-82160777D01*
X133584747Y-82142599D01*
X133570132Y-82122893D01*
X133557520Y-82101850D01*
X133547030Y-82079671D01*
X133538765Y-82056572D01*
X133532804Y-82032773D01*
X133529204Y-82008505D01*
X133528000Y-81984001D01*
X133528000Y-81083999D01*
X133529204Y-81059495D01*
X133532804Y-81035227D01*
X133538765Y-81011428D01*
X133547030Y-80988329D01*
X133557520Y-80966150D01*
X133570132Y-80945107D01*
X133584747Y-80925401D01*
X133601223Y-80907223D01*
X133619401Y-80890747D01*
X133639107Y-80876132D01*
X133660150Y-80863520D01*
X133682329Y-80853030D01*
X133705428Y-80844765D01*
X133729227Y-80838804D01*
X133753495Y-80835204D01*
X133777999Y-80834000D01*
X134428001Y-80834000D01*
X134452505Y-80835204D01*
X134452505Y-80835204D01*
G37*
D13*
X134103000Y-81534000D03*
D12*
G36*
X136502505Y-80835204D02*
G01*
X136526773Y-80838804D01*
X136550572Y-80844765D01*
X136573671Y-80853030D01*
X136595850Y-80863520D01*
X136616893Y-80876132D01*
X136636599Y-80890747D01*
X136654777Y-80907223D01*
X136671253Y-80925401D01*
X136685868Y-80945107D01*
X136698480Y-80966150D01*
X136708970Y-80988329D01*
X136717235Y-81011428D01*
X136723196Y-81035227D01*
X136726796Y-81059495D01*
X136728000Y-81083999D01*
X136728000Y-81984001D01*
X136726796Y-82008505D01*
X136723196Y-82032773D01*
X136717235Y-82056572D01*
X136708970Y-82079671D01*
X136698480Y-82101850D01*
X136685868Y-82122893D01*
X136671253Y-82142599D01*
X136654777Y-82160777D01*
X136636599Y-82177253D01*
X136616893Y-82191868D01*
X136595850Y-82204480D01*
X136573671Y-82214970D01*
X136550572Y-82223235D01*
X136526773Y-82229196D01*
X136502505Y-82232796D01*
X136478001Y-82234000D01*
X135827999Y-82234000D01*
X135803495Y-82232796D01*
X135779227Y-82229196D01*
X135755428Y-82223235D01*
X135732329Y-82214970D01*
X135710150Y-82204480D01*
X135689107Y-82191868D01*
X135669401Y-82177253D01*
X135651223Y-82160777D01*
X135634747Y-82142599D01*
X135620132Y-82122893D01*
X135607520Y-82101850D01*
X135597030Y-82079671D01*
X135588765Y-82056572D01*
X135582804Y-82032773D01*
X135579204Y-82008505D01*
X135578000Y-81984001D01*
X135578000Y-81083999D01*
X135579204Y-81059495D01*
X135582804Y-81035227D01*
X135588765Y-81011428D01*
X135597030Y-80988329D01*
X135607520Y-80966150D01*
X135620132Y-80945107D01*
X135634747Y-80925401D01*
X135651223Y-80907223D01*
X135669401Y-80890747D01*
X135689107Y-80876132D01*
X135710150Y-80863520D01*
X135732329Y-80853030D01*
X135755428Y-80844765D01*
X135779227Y-80838804D01*
X135803495Y-80835204D01*
X135827999Y-80834000D01*
X136478001Y-80834000D01*
X136502505Y-80835204D01*
X136502505Y-80835204D01*
G37*
D13*
X136153000Y-81534000D03*
D12*
G36*
X134189505Y-69405204D02*
G01*
X134213773Y-69408804D01*
X134237572Y-69414765D01*
X134260671Y-69423030D01*
X134282850Y-69433520D01*
X134303893Y-69446132D01*
X134323599Y-69460747D01*
X134341777Y-69477223D01*
X134358253Y-69495401D01*
X134372868Y-69515107D01*
X134385480Y-69536150D01*
X134395970Y-69558329D01*
X134404235Y-69581428D01*
X134410196Y-69605227D01*
X134413796Y-69629495D01*
X134415000Y-69653999D01*
X134415000Y-70554001D01*
X134413796Y-70578505D01*
X134410196Y-70602773D01*
X134404235Y-70626572D01*
X134395970Y-70649671D01*
X134385480Y-70671850D01*
X134372868Y-70692893D01*
X134358253Y-70712599D01*
X134341777Y-70730777D01*
X134323599Y-70747253D01*
X134303893Y-70761868D01*
X134282850Y-70774480D01*
X134260671Y-70784970D01*
X134237572Y-70793235D01*
X134213773Y-70799196D01*
X134189505Y-70802796D01*
X134165001Y-70804000D01*
X133514999Y-70804000D01*
X133490495Y-70802796D01*
X133466227Y-70799196D01*
X133442428Y-70793235D01*
X133419329Y-70784970D01*
X133397150Y-70774480D01*
X133376107Y-70761868D01*
X133356401Y-70747253D01*
X133338223Y-70730777D01*
X133321747Y-70712599D01*
X133307132Y-70692893D01*
X133294520Y-70671850D01*
X133284030Y-70649671D01*
X133275765Y-70626572D01*
X133269804Y-70602773D01*
X133266204Y-70578505D01*
X133265000Y-70554001D01*
X133265000Y-69653999D01*
X133266204Y-69629495D01*
X133269804Y-69605227D01*
X133275765Y-69581428D01*
X133284030Y-69558329D01*
X133294520Y-69536150D01*
X133307132Y-69515107D01*
X133321747Y-69495401D01*
X133338223Y-69477223D01*
X133356401Y-69460747D01*
X133376107Y-69446132D01*
X133397150Y-69433520D01*
X133419329Y-69423030D01*
X133442428Y-69414765D01*
X133466227Y-69408804D01*
X133490495Y-69405204D01*
X133514999Y-69404000D01*
X134165001Y-69404000D01*
X134189505Y-69405204D01*
X134189505Y-69405204D01*
G37*
D13*
X133840000Y-70104000D03*
D12*
G36*
X136239505Y-69405204D02*
G01*
X136263773Y-69408804D01*
X136287572Y-69414765D01*
X136310671Y-69423030D01*
X136332850Y-69433520D01*
X136353893Y-69446132D01*
X136373599Y-69460747D01*
X136391777Y-69477223D01*
X136408253Y-69495401D01*
X136422868Y-69515107D01*
X136435480Y-69536150D01*
X136445970Y-69558329D01*
X136454235Y-69581428D01*
X136460196Y-69605227D01*
X136463796Y-69629495D01*
X136465000Y-69653999D01*
X136465000Y-70554001D01*
X136463796Y-70578505D01*
X136460196Y-70602773D01*
X136454235Y-70626572D01*
X136445970Y-70649671D01*
X136435480Y-70671850D01*
X136422868Y-70692893D01*
X136408253Y-70712599D01*
X136391777Y-70730777D01*
X136373599Y-70747253D01*
X136353893Y-70761868D01*
X136332850Y-70774480D01*
X136310671Y-70784970D01*
X136287572Y-70793235D01*
X136263773Y-70799196D01*
X136239505Y-70802796D01*
X136215001Y-70804000D01*
X135564999Y-70804000D01*
X135540495Y-70802796D01*
X135516227Y-70799196D01*
X135492428Y-70793235D01*
X135469329Y-70784970D01*
X135447150Y-70774480D01*
X135426107Y-70761868D01*
X135406401Y-70747253D01*
X135388223Y-70730777D01*
X135371747Y-70712599D01*
X135357132Y-70692893D01*
X135344520Y-70671850D01*
X135334030Y-70649671D01*
X135325765Y-70626572D01*
X135319804Y-70602773D01*
X135316204Y-70578505D01*
X135315000Y-70554001D01*
X135315000Y-69653999D01*
X135316204Y-69629495D01*
X135319804Y-69605227D01*
X135325765Y-69581428D01*
X135334030Y-69558329D01*
X135344520Y-69536150D01*
X135357132Y-69515107D01*
X135371747Y-69495401D01*
X135388223Y-69477223D01*
X135406401Y-69460747D01*
X135426107Y-69446132D01*
X135447150Y-69433520D01*
X135469329Y-69423030D01*
X135492428Y-69414765D01*
X135516227Y-69408804D01*
X135540495Y-69405204D01*
X135564999Y-69404000D01*
X136215001Y-69404000D01*
X136239505Y-69405204D01*
X136239505Y-69405204D01*
G37*
D13*
X135890000Y-70104000D03*
D19*
X153728862Y-110012539D03*
X155928862Y-110012539D03*
X172212000Y-128019000D03*
X172212000Y-125219000D03*
X186690000Y-110487000D03*
X186690000Y-113287000D03*
X148717000Y-95039000D03*
X148717000Y-97239000D03*
X154401966Y-50638542D03*
X152201966Y-50638542D03*
D12*
G36*
X156557505Y-92263204D02*
G01*
X156581773Y-92266804D01*
X156605572Y-92272765D01*
X156628671Y-92281030D01*
X156650850Y-92291520D01*
X156671893Y-92304132D01*
X156691599Y-92318747D01*
X156709777Y-92335223D01*
X156726253Y-92353401D01*
X156740868Y-92373107D01*
X156753480Y-92394150D01*
X156763970Y-92416329D01*
X156772235Y-92439428D01*
X156778196Y-92463227D01*
X156781796Y-92487495D01*
X156783000Y-92511999D01*
X156783000Y-93162001D01*
X156781796Y-93186505D01*
X156778196Y-93210773D01*
X156772235Y-93234572D01*
X156763970Y-93257671D01*
X156753480Y-93279850D01*
X156740868Y-93300893D01*
X156726253Y-93320599D01*
X156709777Y-93338777D01*
X156691599Y-93355253D01*
X156671893Y-93369868D01*
X156650850Y-93382480D01*
X156628671Y-93392970D01*
X156605572Y-93401235D01*
X156581773Y-93407196D01*
X156557505Y-93410796D01*
X156533001Y-93412000D01*
X155632999Y-93412000D01*
X155608495Y-93410796D01*
X155584227Y-93407196D01*
X155560428Y-93401235D01*
X155537329Y-93392970D01*
X155515150Y-93382480D01*
X155494107Y-93369868D01*
X155474401Y-93355253D01*
X155456223Y-93338777D01*
X155439747Y-93320599D01*
X155425132Y-93300893D01*
X155412520Y-93279850D01*
X155402030Y-93257671D01*
X155393765Y-93234572D01*
X155387804Y-93210773D01*
X155384204Y-93186505D01*
X155383000Y-93162001D01*
X155383000Y-92511999D01*
X155384204Y-92487495D01*
X155387804Y-92463227D01*
X155393765Y-92439428D01*
X155402030Y-92416329D01*
X155412520Y-92394150D01*
X155425132Y-92373107D01*
X155439747Y-92353401D01*
X155456223Y-92335223D01*
X155474401Y-92318747D01*
X155494107Y-92304132D01*
X155515150Y-92291520D01*
X155537329Y-92281030D01*
X155560428Y-92272765D01*
X155584227Y-92266804D01*
X155608495Y-92263204D01*
X155632999Y-92262000D01*
X156533001Y-92262000D01*
X156557505Y-92263204D01*
X156557505Y-92263204D01*
G37*
D13*
X156083000Y-92837000D03*
D12*
G36*
X156557505Y-94313204D02*
G01*
X156581773Y-94316804D01*
X156605572Y-94322765D01*
X156628671Y-94331030D01*
X156650850Y-94341520D01*
X156671893Y-94354132D01*
X156691599Y-94368747D01*
X156709777Y-94385223D01*
X156726253Y-94403401D01*
X156740868Y-94423107D01*
X156753480Y-94444150D01*
X156763970Y-94466329D01*
X156772235Y-94489428D01*
X156778196Y-94513227D01*
X156781796Y-94537495D01*
X156783000Y-94561999D01*
X156783000Y-95212001D01*
X156781796Y-95236505D01*
X156778196Y-95260773D01*
X156772235Y-95284572D01*
X156763970Y-95307671D01*
X156753480Y-95329850D01*
X156740868Y-95350893D01*
X156726253Y-95370599D01*
X156709777Y-95388777D01*
X156691599Y-95405253D01*
X156671893Y-95419868D01*
X156650850Y-95432480D01*
X156628671Y-95442970D01*
X156605572Y-95451235D01*
X156581773Y-95457196D01*
X156557505Y-95460796D01*
X156533001Y-95462000D01*
X155632999Y-95462000D01*
X155608495Y-95460796D01*
X155584227Y-95457196D01*
X155560428Y-95451235D01*
X155537329Y-95442970D01*
X155515150Y-95432480D01*
X155494107Y-95419868D01*
X155474401Y-95405253D01*
X155456223Y-95388777D01*
X155439747Y-95370599D01*
X155425132Y-95350893D01*
X155412520Y-95329850D01*
X155402030Y-95307671D01*
X155393765Y-95284572D01*
X155387804Y-95260773D01*
X155384204Y-95236505D01*
X155383000Y-95212001D01*
X155383000Y-94561999D01*
X155384204Y-94537495D01*
X155387804Y-94513227D01*
X155393765Y-94489428D01*
X155402030Y-94466329D01*
X155412520Y-94444150D01*
X155425132Y-94423107D01*
X155439747Y-94403401D01*
X155456223Y-94385223D01*
X155474401Y-94368747D01*
X155494107Y-94354132D01*
X155515150Y-94341520D01*
X155537329Y-94331030D01*
X155560428Y-94322765D01*
X155584227Y-94316804D01*
X155608495Y-94313204D01*
X155632999Y-94312000D01*
X156533001Y-94312000D01*
X156557505Y-94313204D01*
X156557505Y-94313204D01*
G37*
D13*
X156083000Y-94887000D03*
D12*
G36*
X167372505Y-95186204D02*
G01*
X167396773Y-95189804D01*
X167420572Y-95195765D01*
X167443671Y-95204030D01*
X167465850Y-95214520D01*
X167486893Y-95227132D01*
X167506599Y-95241747D01*
X167524777Y-95258223D01*
X167541253Y-95276401D01*
X167555868Y-95296107D01*
X167568480Y-95317150D01*
X167578970Y-95339329D01*
X167587235Y-95362428D01*
X167593196Y-95386227D01*
X167596796Y-95410495D01*
X167598000Y-95434999D01*
X167598000Y-96335001D01*
X167596796Y-96359505D01*
X167593196Y-96383773D01*
X167587235Y-96407572D01*
X167578970Y-96430671D01*
X167568480Y-96452850D01*
X167555868Y-96473893D01*
X167541253Y-96493599D01*
X167524777Y-96511777D01*
X167506599Y-96528253D01*
X167486893Y-96542868D01*
X167465850Y-96555480D01*
X167443671Y-96565970D01*
X167420572Y-96574235D01*
X167396773Y-96580196D01*
X167372505Y-96583796D01*
X167348001Y-96585000D01*
X166697999Y-96585000D01*
X166673495Y-96583796D01*
X166649227Y-96580196D01*
X166625428Y-96574235D01*
X166602329Y-96565970D01*
X166580150Y-96555480D01*
X166559107Y-96542868D01*
X166539401Y-96528253D01*
X166521223Y-96511777D01*
X166504747Y-96493599D01*
X166490132Y-96473893D01*
X166477520Y-96452850D01*
X166467030Y-96430671D01*
X166458765Y-96407572D01*
X166452804Y-96383773D01*
X166449204Y-96359505D01*
X166448000Y-96335001D01*
X166448000Y-95434999D01*
X166449204Y-95410495D01*
X166452804Y-95386227D01*
X166458765Y-95362428D01*
X166467030Y-95339329D01*
X166477520Y-95317150D01*
X166490132Y-95296107D01*
X166504747Y-95276401D01*
X166521223Y-95258223D01*
X166539401Y-95241747D01*
X166559107Y-95227132D01*
X166580150Y-95214520D01*
X166602329Y-95204030D01*
X166625428Y-95195765D01*
X166649227Y-95189804D01*
X166673495Y-95186204D01*
X166697999Y-95185000D01*
X167348001Y-95185000D01*
X167372505Y-95186204D01*
X167372505Y-95186204D01*
G37*
D13*
X167023000Y-95885000D03*
D12*
G36*
X165322505Y-95186204D02*
G01*
X165346773Y-95189804D01*
X165370572Y-95195765D01*
X165393671Y-95204030D01*
X165415850Y-95214520D01*
X165436893Y-95227132D01*
X165456599Y-95241747D01*
X165474777Y-95258223D01*
X165491253Y-95276401D01*
X165505868Y-95296107D01*
X165518480Y-95317150D01*
X165528970Y-95339329D01*
X165537235Y-95362428D01*
X165543196Y-95386227D01*
X165546796Y-95410495D01*
X165548000Y-95434999D01*
X165548000Y-96335001D01*
X165546796Y-96359505D01*
X165543196Y-96383773D01*
X165537235Y-96407572D01*
X165528970Y-96430671D01*
X165518480Y-96452850D01*
X165505868Y-96473893D01*
X165491253Y-96493599D01*
X165474777Y-96511777D01*
X165456599Y-96528253D01*
X165436893Y-96542868D01*
X165415850Y-96555480D01*
X165393671Y-96565970D01*
X165370572Y-96574235D01*
X165346773Y-96580196D01*
X165322505Y-96583796D01*
X165298001Y-96585000D01*
X164647999Y-96585000D01*
X164623495Y-96583796D01*
X164599227Y-96580196D01*
X164575428Y-96574235D01*
X164552329Y-96565970D01*
X164530150Y-96555480D01*
X164509107Y-96542868D01*
X164489401Y-96528253D01*
X164471223Y-96511777D01*
X164454747Y-96493599D01*
X164440132Y-96473893D01*
X164427520Y-96452850D01*
X164417030Y-96430671D01*
X164408765Y-96407572D01*
X164402804Y-96383773D01*
X164399204Y-96359505D01*
X164398000Y-96335001D01*
X164398000Y-95434999D01*
X164399204Y-95410495D01*
X164402804Y-95386227D01*
X164408765Y-95362428D01*
X164417030Y-95339329D01*
X164427520Y-95317150D01*
X164440132Y-95296107D01*
X164454747Y-95276401D01*
X164471223Y-95258223D01*
X164489401Y-95241747D01*
X164509107Y-95227132D01*
X164530150Y-95214520D01*
X164552329Y-95204030D01*
X164575428Y-95195765D01*
X164599227Y-95189804D01*
X164623495Y-95186204D01*
X164647999Y-95185000D01*
X165298001Y-95185000D01*
X165322505Y-95186204D01*
X165322505Y-95186204D01*
G37*
D13*
X164973000Y-95885000D03*
D12*
G36*
X194911505Y-63942204D02*
G01*
X194935773Y-63945804D01*
X194959572Y-63951765D01*
X194982671Y-63960030D01*
X195004850Y-63970520D01*
X195025893Y-63983132D01*
X195045599Y-63997747D01*
X195063777Y-64014223D01*
X195080253Y-64032401D01*
X195094868Y-64052107D01*
X195107480Y-64073150D01*
X195117970Y-64095329D01*
X195126235Y-64118428D01*
X195132196Y-64142227D01*
X195135796Y-64166495D01*
X195137000Y-64190999D01*
X195137000Y-64841001D01*
X195135796Y-64865505D01*
X195132196Y-64889773D01*
X195126235Y-64913572D01*
X195117970Y-64936671D01*
X195107480Y-64958850D01*
X195094868Y-64979893D01*
X195080253Y-64999599D01*
X195063777Y-65017777D01*
X195045599Y-65034253D01*
X195025893Y-65048868D01*
X195004850Y-65061480D01*
X194982671Y-65071970D01*
X194959572Y-65080235D01*
X194935773Y-65086196D01*
X194911505Y-65089796D01*
X194887001Y-65091000D01*
X193986999Y-65091000D01*
X193962495Y-65089796D01*
X193938227Y-65086196D01*
X193914428Y-65080235D01*
X193891329Y-65071970D01*
X193869150Y-65061480D01*
X193848107Y-65048868D01*
X193828401Y-65034253D01*
X193810223Y-65017777D01*
X193793747Y-64999599D01*
X193779132Y-64979893D01*
X193766520Y-64958850D01*
X193756030Y-64936671D01*
X193747765Y-64913572D01*
X193741804Y-64889773D01*
X193738204Y-64865505D01*
X193737000Y-64841001D01*
X193737000Y-64190999D01*
X193738204Y-64166495D01*
X193741804Y-64142227D01*
X193747765Y-64118428D01*
X193756030Y-64095329D01*
X193766520Y-64073150D01*
X193779132Y-64052107D01*
X193793747Y-64032401D01*
X193810223Y-64014223D01*
X193828401Y-63997747D01*
X193848107Y-63983132D01*
X193869150Y-63970520D01*
X193891329Y-63960030D01*
X193914428Y-63951765D01*
X193938227Y-63945804D01*
X193962495Y-63942204D01*
X193986999Y-63941000D01*
X194887001Y-63941000D01*
X194911505Y-63942204D01*
X194911505Y-63942204D01*
G37*
D13*
X194437000Y-64516000D03*
D12*
G36*
X194911505Y-65992204D02*
G01*
X194935773Y-65995804D01*
X194959572Y-66001765D01*
X194982671Y-66010030D01*
X195004850Y-66020520D01*
X195025893Y-66033132D01*
X195045599Y-66047747D01*
X195063777Y-66064223D01*
X195080253Y-66082401D01*
X195094868Y-66102107D01*
X195107480Y-66123150D01*
X195117970Y-66145329D01*
X195126235Y-66168428D01*
X195132196Y-66192227D01*
X195135796Y-66216495D01*
X195137000Y-66240999D01*
X195137000Y-66891001D01*
X195135796Y-66915505D01*
X195132196Y-66939773D01*
X195126235Y-66963572D01*
X195117970Y-66986671D01*
X195107480Y-67008850D01*
X195094868Y-67029893D01*
X195080253Y-67049599D01*
X195063777Y-67067777D01*
X195045599Y-67084253D01*
X195025893Y-67098868D01*
X195004850Y-67111480D01*
X194982671Y-67121970D01*
X194959572Y-67130235D01*
X194935773Y-67136196D01*
X194911505Y-67139796D01*
X194887001Y-67141000D01*
X193986999Y-67141000D01*
X193962495Y-67139796D01*
X193938227Y-67136196D01*
X193914428Y-67130235D01*
X193891329Y-67121970D01*
X193869150Y-67111480D01*
X193848107Y-67098868D01*
X193828401Y-67084253D01*
X193810223Y-67067777D01*
X193793747Y-67049599D01*
X193779132Y-67029893D01*
X193766520Y-67008850D01*
X193756030Y-66986671D01*
X193747765Y-66963572D01*
X193741804Y-66939773D01*
X193738204Y-66915505D01*
X193737000Y-66891001D01*
X193737000Y-66240999D01*
X193738204Y-66216495D01*
X193741804Y-66192227D01*
X193747765Y-66168428D01*
X193756030Y-66145329D01*
X193766520Y-66123150D01*
X193779132Y-66102107D01*
X193793747Y-66082401D01*
X193810223Y-66064223D01*
X193828401Y-66047747D01*
X193848107Y-66033132D01*
X193869150Y-66020520D01*
X193891329Y-66010030D01*
X193914428Y-66001765D01*
X193938227Y-65995804D01*
X193962495Y-65992204D01*
X193986999Y-65991000D01*
X194887001Y-65991000D01*
X194911505Y-65992204D01*
X194911505Y-65992204D01*
G37*
D13*
X194437000Y-66566000D03*
D19*
X191521076Y-77867738D03*
X191521076Y-75667738D03*
D20*
X169545000Y-55880000D03*
X169545000Y-51460000D03*
D14*
X174503000Y-90805000D03*
X176403000Y-90805000D03*
X174122000Y-79629000D03*
X176022000Y-79629000D03*
X146446280Y-91973400D03*
X144546280Y-91973400D03*
X146304000Y-79756000D03*
X144404000Y-79756000D03*
X146050000Y-65913000D03*
X144150000Y-65913000D03*
D21*
X158168000Y-56007000D03*
X161618000Y-56007000D03*
X133781800Y-61976000D03*
X137231800Y-61976000D03*
D12*
G36*
X177186811Y-49714714D02*
G01*
X177211079Y-49718314D01*
X177234878Y-49724275D01*
X177257977Y-49732540D01*
X177280156Y-49743030D01*
X177301199Y-49755642D01*
X177320905Y-49770257D01*
X177339083Y-49786733D01*
X177355559Y-49804911D01*
X177370174Y-49824617D01*
X177382786Y-49845660D01*
X177393276Y-49867839D01*
X177401541Y-49890938D01*
X177407502Y-49914737D01*
X177411102Y-49939005D01*
X177412306Y-49963509D01*
X177412306Y-50613511D01*
X177411102Y-50638015D01*
X177407502Y-50662283D01*
X177401541Y-50686082D01*
X177393276Y-50709181D01*
X177382786Y-50731360D01*
X177370174Y-50752403D01*
X177355559Y-50772109D01*
X177339083Y-50790287D01*
X177320905Y-50806763D01*
X177301199Y-50821378D01*
X177280156Y-50833990D01*
X177257977Y-50844480D01*
X177234878Y-50852745D01*
X177211079Y-50858706D01*
X177186811Y-50862306D01*
X177162307Y-50863510D01*
X176262305Y-50863510D01*
X176237801Y-50862306D01*
X176213533Y-50858706D01*
X176189734Y-50852745D01*
X176166635Y-50844480D01*
X176144456Y-50833990D01*
X176123413Y-50821378D01*
X176103707Y-50806763D01*
X176085529Y-50790287D01*
X176069053Y-50772109D01*
X176054438Y-50752403D01*
X176041826Y-50731360D01*
X176031336Y-50709181D01*
X176023071Y-50686082D01*
X176017110Y-50662283D01*
X176013510Y-50638015D01*
X176012306Y-50613511D01*
X176012306Y-49963509D01*
X176013510Y-49939005D01*
X176017110Y-49914737D01*
X176023071Y-49890938D01*
X176031336Y-49867839D01*
X176041826Y-49845660D01*
X176054438Y-49824617D01*
X176069053Y-49804911D01*
X176085529Y-49786733D01*
X176103707Y-49770257D01*
X176123413Y-49755642D01*
X176144456Y-49743030D01*
X176166635Y-49732540D01*
X176189734Y-49724275D01*
X176213533Y-49718314D01*
X176237801Y-49714714D01*
X176262305Y-49713510D01*
X177162307Y-49713510D01*
X177186811Y-49714714D01*
X177186811Y-49714714D01*
G37*
D13*
X176712306Y-50288510D03*
D12*
G36*
X177186811Y-51764714D02*
G01*
X177211079Y-51768314D01*
X177234878Y-51774275D01*
X177257977Y-51782540D01*
X177280156Y-51793030D01*
X177301199Y-51805642D01*
X177320905Y-51820257D01*
X177339083Y-51836733D01*
X177355559Y-51854911D01*
X177370174Y-51874617D01*
X177382786Y-51895660D01*
X177393276Y-51917839D01*
X177401541Y-51940938D01*
X177407502Y-51964737D01*
X177411102Y-51989005D01*
X177412306Y-52013509D01*
X177412306Y-52663511D01*
X177411102Y-52688015D01*
X177407502Y-52712283D01*
X177401541Y-52736082D01*
X177393276Y-52759181D01*
X177382786Y-52781360D01*
X177370174Y-52802403D01*
X177355559Y-52822109D01*
X177339083Y-52840287D01*
X177320905Y-52856763D01*
X177301199Y-52871378D01*
X177280156Y-52883990D01*
X177257977Y-52894480D01*
X177234878Y-52902745D01*
X177211079Y-52908706D01*
X177186811Y-52912306D01*
X177162307Y-52913510D01*
X176262305Y-52913510D01*
X176237801Y-52912306D01*
X176213533Y-52908706D01*
X176189734Y-52902745D01*
X176166635Y-52894480D01*
X176144456Y-52883990D01*
X176123413Y-52871378D01*
X176103707Y-52856763D01*
X176085529Y-52840287D01*
X176069053Y-52822109D01*
X176054438Y-52802403D01*
X176041826Y-52781360D01*
X176031336Y-52759181D01*
X176023071Y-52736082D01*
X176017110Y-52712283D01*
X176013510Y-52688015D01*
X176012306Y-52663511D01*
X176012306Y-52013509D01*
X176013510Y-51989005D01*
X176017110Y-51964737D01*
X176023071Y-51940938D01*
X176031336Y-51917839D01*
X176041826Y-51895660D01*
X176054438Y-51874617D01*
X176069053Y-51854911D01*
X176085529Y-51836733D01*
X176103707Y-51820257D01*
X176123413Y-51805642D01*
X176144456Y-51793030D01*
X176166635Y-51782540D01*
X176189734Y-51774275D01*
X176213533Y-51768314D01*
X176237801Y-51764714D01*
X176262305Y-51763510D01*
X177162307Y-51763510D01*
X177186811Y-51764714D01*
X177186811Y-51764714D01*
G37*
D13*
X176712306Y-52338510D03*
D12*
G36*
X175226505Y-86031204D02*
G01*
X175250773Y-86034804D01*
X175274572Y-86040765D01*
X175297671Y-86049030D01*
X175319850Y-86059520D01*
X175340893Y-86072132D01*
X175360599Y-86086747D01*
X175378777Y-86103223D01*
X175395253Y-86121401D01*
X175409868Y-86141107D01*
X175422480Y-86162150D01*
X175432970Y-86184329D01*
X175441235Y-86207428D01*
X175447196Y-86231227D01*
X175450796Y-86255495D01*
X175452000Y-86279999D01*
X175452000Y-86930001D01*
X175450796Y-86954505D01*
X175447196Y-86978773D01*
X175441235Y-87002572D01*
X175432970Y-87025671D01*
X175422480Y-87047850D01*
X175409868Y-87068893D01*
X175395253Y-87088599D01*
X175378777Y-87106777D01*
X175360599Y-87123253D01*
X175340893Y-87137868D01*
X175319850Y-87150480D01*
X175297671Y-87160970D01*
X175274572Y-87169235D01*
X175250773Y-87175196D01*
X175226505Y-87178796D01*
X175202001Y-87180000D01*
X174301999Y-87180000D01*
X174277495Y-87178796D01*
X174253227Y-87175196D01*
X174229428Y-87169235D01*
X174206329Y-87160970D01*
X174184150Y-87150480D01*
X174163107Y-87137868D01*
X174143401Y-87123253D01*
X174125223Y-87106777D01*
X174108747Y-87088599D01*
X174094132Y-87068893D01*
X174081520Y-87047850D01*
X174071030Y-87025671D01*
X174062765Y-87002572D01*
X174056804Y-86978773D01*
X174053204Y-86954505D01*
X174052000Y-86930001D01*
X174052000Y-86279999D01*
X174053204Y-86255495D01*
X174056804Y-86231227D01*
X174062765Y-86207428D01*
X174071030Y-86184329D01*
X174081520Y-86162150D01*
X174094132Y-86141107D01*
X174108747Y-86121401D01*
X174125223Y-86103223D01*
X174143401Y-86086747D01*
X174163107Y-86072132D01*
X174184150Y-86059520D01*
X174206329Y-86049030D01*
X174229428Y-86040765D01*
X174253227Y-86034804D01*
X174277495Y-86031204D01*
X174301999Y-86030000D01*
X175202001Y-86030000D01*
X175226505Y-86031204D01*
X175226505Y-86031204D01*
G37*
D13*
X174752000Y-86605000D03*
D12*
G36*
X175226505Y-88081204D02*
G01*
X175250773Y-88084804D01*
X175274572Y-88090765D01*
X175297671Y-88099030D01*
X175319850Y-88109520D01*
X175340893Y-88122132D01*
X175360599Y-88136747D01*
X175378777Y-88153223D01*
X175395253Y-88171401D01*
X175409868Y-88191107D01*
X175422480Y-88212150D01*
X175432970Y-88234329D01*
X175441235Y-88257428D01*
X175447196Y-88281227D01*
X175450796Y-88305495D01*
X175452000Y-88329999D01*
X175452000Y-88980001D01*
X175450796Y-89004505D01*
X175447196Y-89028773D01*
X175441235Y-89052572D01*
X175432970Y-89075671D01*
X175422480Y-89097850D01*
X175409868Y-89118893D01*
X175395253Y-89138599D01*
X175378777Y-89156777D01*
X175360599Y-89173253D01*
X175340893Y-89187868D01*
X175319850Y-89200480D01*
X175297671Y-89210970D01*
X175274572Y-89219235D01*
X175250773Y-89225196D01*
X175226505Y-89228796D01*
X175202001Y-89230000D01*
X174301999Y-89230000D01*
X174277495Y-89228796D01*
X174253227Y-89225196D01*
X174229428Y-89219235D01*
X174206329Y-89210970D01*
X174184150Y-89200480D01*
X174163107Y-89187868D01*
X174143401Y-89173253D01*
X174125223Y-89156777D01*
X174108747Y-89138599D01*
X174094132Y-89118893D01*
X174081520Y-89097850D01*
X174071030Y-89075671D01*
X174062765Y-89052572D01*
X174056804Y-89028773D01*
X174053204Y-89004505D01*
X174052000Y-88980001D01*
X174052000Y-88329999D01*
X174053204Y-88305495D01*
X174056804Y-88281227D01*
X174062765Y-88257428D01*
X174071030Y-88234329D01*
X174081520Y-88212150D01*
X174094132Y-88191107D01*
X174108747Y-88171401D01*
X174125223Y-88153223D01*
X174143401Y-88136747D01*
X174163107Y-88122132D01*
X174184150Y-88109520D01*
X174206329Y-88099030D01*
X174229428Y-88090765D01*
X174253227Y-88084804D01*
X174277495Y-88081204D01*
X174301999Y-88080000D01*
X175202001Y-88080000D01*
X175226505Y-88081204D01*
X175226505Y-88081204D01*
G37*
D13*
X174752000Y-88655000D03*
D12*
G36*
X172940505Y-74383204D02*
G01*
X172964773Y-74386804D01*
X172988572Y-74392765D01*
X173011671Y-74401030D01*
X173033850Y-74411520D01*
X173054893Y-74424132D01*
X173074599Y-74438747D01*
X173092777Y-74455223D01*
X173109253Y-74473401D01*
X173123868Y-74493107D01*
X173136480Y-74514150D01*
X173146970Y-74536329D01*
X173155235Y-74559428D01*
X173161196Y-74583227D01*
X173164796Y-74607495D01*
X173166000Y-74631999D01*
X173166000Y-75282001D01*
X173164796Y-75306505D01*
X173161196Y-75330773D01*
X173155235Y-75354572D01*
X173146970Y-75377671D01*
X173136480Y-75399850D01*
X173123868Y-75420893D01*
X173109253Y-75440599D01*
X173092777Y-75458777D01*
X173074599Y-75475253D01*
X173054893Y-75489868D01*
X173033850Y-75502480D01*
X173011671Y-75512970D01*
X172988572Y-75521235D01*
X172964773Y-75527196D01*
X172940505Y-75530796D01*
X172916001Y-75532000D01*
X172015999Y-75532000D01*
X171991495Y-75530796D01*
X171967227Y-75527196D01*
X171943428Y-75521235D01*
X171920329Y-75512970D01*
X171898150Y-75502480D01*
X171877107Y-75489868D01*
X171857401Y-75475253D01*
X171839223Y-75458777D01*
X171822747Y-75440599D01*
X171808132Y-75420893D01*
X171795520Y-75399850D01*
X171785030Y-75377671D01*
X171776765Y-75354572D01*
X171770804Y-75330773D01*
X171767204Y-75306505D01*
X171766000Y-75282001D01*
X171766000Y-74631999D01*
X171767204Y-74607495D01*
X171770804Y-74583227D01*
X171776765Y-74559428D01*
X171785030Y-74536329D01*
X171795520Y-74514150D01*
X171808132Y-74493107D01*
X171822747Y-74473401D01*
X171839223Y-74455223D01*
X171857401Y-74438747D01*
X171877107Y-74424132D01*
X171898150Y-74411520D01*
X171920329Y-74401030D01*
X171943428Y-74392765D01*
X171967227Y-74386804D01*
X171991495Y-74383204D01*
X172015999Y-74382000D01*
X172916001Y-74382000D01*
X172940505Y-74383204D01*
X172940505Y-74383204D01*
G37*
D13*
X172466000Y-74957000D03*
D12*
G36*
X172940505Y-76433204D02*
G01*
X172964773Y-76436804D01*
X172988572Y-76442765D01*
X173011671Y-76451030D01*
X173033850Y-76461520D01*
X173054893Y-76474132D01*
X173074599Y-76488747D01*
X173092777Y-76505223D01*
X173109253Y-76523401D01*
X173123868Y-76543107D01*
X173136480Y-76564150D01*
X173146970Y-76586329D01*
X173155235Y-76609428D01*
X173161196Y-76633227D01*
X173164796Y-76657495D01*
X173166000Y-76681999D01*
X173166000Y-77332001D01*
X173164796Y-77356505D01*
X173161196Y-77380773D01*
X173155235Y-77404572D01*
X173146970Y-77427671D01*
X173136480Y-77449850D01*
X173123868Y-77470893D01*
X173109253Y-77490599D01*
X173092777Y-77508777D01*
X173074599Y-77525253D01*
X173054893Y-77539868D01*
X173033850Y-77552480D01*
X173011671Y-77562970D01*
X172988572Y-77571235D01*
X172964773Y-77577196D01*
X172940505Y-77580796D01*
X172916001Y-77582000D01*
X172015999Y-77582000D01*
X171991495Y-77580796D01*
X171967227Y-77577196D01*
X171943428Y-77571235D01*
X171920329Y-77562970D01*
X171898150Y-77552480D01*
X171877107Y-77539868D01*
X171857401Y-77525253D01*
X171839223Y-77508777D01*
X171822747Y-77490599D01*
X171808132Y-77470893D01*
X171795520Y-77449850D01*
X171785030Y-77427671D01*
X171776765Y-77404572D01*
X171770804Y-77380773D01*
X171767204Y-77356505D01*
X171766000Y-77332001D01*
X171766000Y-76681999D01*
X171767204Y-76657495D01*
X171770804Y-76633227D01*
X171776765Y-76609428D01*
X171785030Y-76586329D01*
X171795520Y-76564150D01*
X171808132Y-76543107D01*
X171822747Y-76523401D01*
X171839223Y-76505223D01*
X171857401Y-76488747D01*
X171877107Y-76474132D01*
X171898150Y-76461520D01*
X171920329Y-76451030D01*
X171943428Y-76442765D01*
X171967227Y-76436804D01*
X171991495Y-76433204D01*
X172015999Y-76432000D01*
X172916001Y-76432000D01*
X172940505Y-76433204D01*
X172940505Y-76433204D01*
G37*
D13*
X172466000Y-77007000D03*
D12*
G36*
X170647505Y-65722204D02*
G01*
X170671773Y-65725804D01*
X170695572Y-65731765D01*
X170718671Y-65740030D01*
X170740850Y-65750520D01*
X170761893Y-65763132D01*
X170781599Y-65777747D01*
X170799777Y-65794223D01*
X170816253Y-65812401D01*
X170830868Y-65832107D01*
X170843480Y-65853150D01*
X170853970Y-65875329D01*
X170862235Y-65898428D01*
X170868196Y-65922227D01*
X170871796Y-65946495D01*
X170873000Y-65970999D01*
X170873000Y-66871001D01*
X170871796Y-66895505D01*
X170868196Y-66919773D01*
X170862235Y-66943572D01*
X170853970Y-66966671D01*
X170843480Y-66988850D01*
X170830868Y-67009893D01*
X170816253Y-67029599D01*
X170799777Y-67047777D01*
X170781599Y-67064253D01*
X170761893Y-67078868D01*
X170740850Y-67091480D01*
X170718671Y-67101970D01*
X170695572Y-67110235D01*
X170671773Y-67116196D01*
X170647505Y-67119796D01*
X170623001Y-67121000D01*
X169972999Y-67121000D01*
X169948495Y-67119796D01*
X169924227Y-67116196D01*
X169900428Y-67110235D01*
X169877329Y-67101970D01*
X169855150Y-67091480D01*
X169834107Y-67078868D01*
X169814401Y-67064253D01*
X169796223Y-67047777D01*
X169779747Y-67029599D01*
X169765132Y-67009893D01*
X169752520Y-66988850D01*
X169742030Y-66966671D01*
X169733765Y-66943572D01*
X169727804Y-66919773D01*
X169724204Y-66895505D01*
X169723000Y-66871001D01*
X169723000Y-65970999D01*
X169724204Y-65946495D01*
X169727804Y-65922227D01*
X169733765Y-65898428D01*
X169742030Y-65875329D01*
X169752520Y-65853150D01*
X169765132Y-65832107D01*
X169779747Y-65812401D01*
X169796223Y-65794223D01*
X169814401Y-65777747D01*
X169834107Y-65763132D01*
X169855150Y-65750520D01*
X169877329Y-65740030D01*
X169900428Y-65731765D01*
X169924227Y-65725804D01*
X169948495Y-65722204D01*
X169972999Y-65721000D01*
X170623001Y-65721000D01*
X170647505Y-65722204D01*
X170647505Y-65722204D01*
G37*
D13*
X170298000Y-66421000D03*
D12*
G36*
X172697505Y-65722204D02*
G01*
X172721773Y-65725804D01*
X172745572Y-65731765D01*
X172768671Y-65740030D01*
X172790850Y-65750520D01*
X172811893Y-65763132D01*
X172831599Y-65777747D01*
X172849777Y-65794223D01*
X172866253Y-65812401D01*
X172880868Y-65832107D01*
X172893480Y-65853150D01*
X172903970Y-65875329D01*
X172912235Y-65898428D01*
X172918196Y-65922227D01*
X172921796Y-65946495D01*
X172923000Y-65970999D01*
X172923000Y-66871001D01*
X172921796Y-66895505D01*
X172918196Y-66919773D01*
X172912235Y-66943572D01*
X172903970Y-66966671D01*
X172893480Y-66988850D01*
X172880868Y-67009893D01*
X172866253Y-67029599D01*
X172849777Y-67047777D01*
X172831599Y-67064253D01*
X172811893Y-67078868D01*
X172790850Y-67091480D01*
X172768671Y-67101970D01*
X172745572Y-67110235D01*
X172721773Y-67116196D01*
X172697505Y-67119796D01*
X172673001Y-67121000D01*
X172022999Y-67121000D01*
X171998495Y-67119796D01*
X171974227Y-67116196D01*
X171950428Y-67110235D01*
X171927329Y-67101970D01*
X171905150Y-67091480D01*
X171884107Y-67078868D01*
X171864401Y-67064253D01*
X171846223Y-67047777D01*
X171829747Y-67029599D01*
X171815132Y-67009893D01*
X171802520Y-66988850D01*
X171792030Y-66966671D01*
X171783765Y-66943572D01*
X171777804Y-66919773D01*
X171774204Y-66895505D01*
X171773000Y-66871001D01*
X171773000Y-65970999D01*
X171774204Y-65946495D01*
X171777804Y-65922227D01*
X171783765Y-65898428D01*
X171792030Y-65875329D01*
X171802520Y-65853150D01*
X171815132Y-65832107D01*
X171829747Y-65812401D01*
X171846223Y-65794223D01*
X171864401Y-65777747D01*
X171884107Y-65763132D01*
X171905150Y-65750520D01*
X171927329Y-65740030D01*
X171950428Y-65731765D01*
X171974227Y-65725804D01*
X171998495Y-65722204D01*
X172022999Y-65721000D01*
X172673001Y-65721000D01*
X172697505Y-65722204D01*
X172697505Y-65722204D01*
G37*
D13*
X172348000Y-66421000D03*
D12*
G36*
X187926505Y-93397204D02*
G01*
X187950773Y-93400804D01*
X187974572Y-93406765D01*
X187997671Y-93415030D01*
X188019850Y-93425520D01*
X188040893Y-93438132D01*
X188060599Y-93452747D01*
X188078777Y-93469223D01*
X188095253Y-93487401D01*
X188109868Y-93507107D01*
X188122480Y-93528150D01*
X188132970Y-93550329D01*
X188141235Y-93573428D01*
X188147196Y-93597227D01*
X188150796Y-93621495D01*
X188152000Y-93645999D01*
X188152000Y-94296001D01*
X188150796Y-94320505D01*
X188147196Y-94344773D01*
X188141235Y-94368572D01*
X188132970Y-94391671D01*
X188122480Y-94413850D01*
X188109868Y-94434893D01*
X188095253Y-94454599D01*
X188078777Y-94472777D01*
X188060599Y-94489253D01*
X188040893Y-94503868D01*
X188019850Y-94516480D01*
X187997671Y-94526970D01*
X187974572Y-94535235D01*
X187950773Y-94541196D01*
X187926505Y-94544796D01*
X187902001Y-94546000D01*
X187001999Y-94546000D01*
X186977495Y-94544796D01*
X186953227Y-94541196D01*
X186929428Y-94535235D01*
X186906329Y-94526970D01*
X186884150Y-94516480D01*
X186863107Y-94503868D01*
X186843401Y-94489253D01*
X186825223Y-94472777D01*
X186808747Y-94454599D01*
X186794132Y-94434893D01*
X186781520Y-94413850D01*
X186771030Y-94391671D01*
X186762765Y-94368572D01*
X186756804Y-94344773D01*
X186753204Y-94320505D01*
X186752000Y-94296001D01*
X186752000Y-93645999D01*
X186753204Y-93621495D01*
X186756804Y-93597227D01*
X186762765Y-93573428D01*
X186771030Y-93550329D01*
X186781520Y-93528150D01*
X186794132Y-93507107D01*
X186808747Y-93487401D01*
X186825223Y-93469223D01*
X186843401Y-93452747D01*
X186863107Y-93438132D01*
X186884150Y-93425520D01*
X186906329Y-93415030D01*
X186929428Y-93406765D01*
X186953227Y-93400804D01*
X186977495Y-93397204D01*
X187001999Y-93396000D01*
X187902001Y-93396000D01*
X187926505Y-93397204D01*
X187926505Y-93397204D01*
G37*
D13*
X187452000Y-93971000D03*
D12*
G36*
X187926505Y-95447204D02*
G01*
X187950773Y-95450804D01*
X187974572Y-95456765D01*
X187997671Y-95465030D01*
X188019850Y-95475520D01*
X188040893Y-95488132D01*
X188060599Y-95502747D01*
X188078777Y-95519223D01*
X188095253Y-95537401D01*
X188109868Y-95557107D01*
X188122480Y-95578150D01*
X188132970Y-95600329D01*
X188141235Y-95623428D01*
X188147196Y-95647227D01*
X188150796Y-95671495D01*
X188152000Y-95695999D01*
X188152000Y-96346001D01*
X188150796Y-96370505D01*
X188147196Y-96394773D01*
X188141235Y-96418572D01*
X188132970Y-96441671D01*
X188122480Y-96463850D01*
X188109868Y-96484893D01*
X188095253Y-96504599D01*
X188078777Y-96522777D01*
X188060599Y-96539253D01*
X188040893Y-96553868D01*
X188019850Y-96566480D01*
X187997671Y-96576970D01*
X187974572Y-96585235D01*
X187950773Y-96591196D01*
X187926505Y-96594796D01*
X187902001Y-96596000D01*
X187001999Y-96596000D01*
X186977495Y-96594796D01*
X186953227Y-96591196D01*
X186929428Y-96585235D01*
X186906329Y-96576970D01*
X186884150Y-96566480D01*
X186863107Y-96553868D01*
X186843401Y-96539253D01*
X186825223Y-96522777D01*
X186808747Y-96504599D01*
X186794132Y-96484893D01*
X186781520Y-96463850D01*
X186771030Y-96441671D01*
X186762765Y-96418572D01*
X186756804Y-96394773D01*
X186753204Y-96370505D01*
X186752000Y-96346001D01*
X186752000Y-95695999D01*
X186753204Y-95671495D01*
X186756804Y-95647227D01*
X186762765Y-95623428D01*
X186771030Y-95600329D01*
X186781520Y-95578150D01*
X186794132Y-95557107D01*
X186808747Y-95537401D01*
X186825223Y-95519223D01*
X186843401Y-95502747D01*
X186863107Y-95488132D01*
X186884150Y-95475520D01*
X186906329Y-95465030D01*
X186929428Y-95456765D01*
X186953227Y-95450804D01*
X186977495Y-95447204D01*
X187001999Y-95446000D01*
X187902001Y-95446000D01*
X187926505Y-95447204D01*
X187926505Y-95447204D01*
G37*
D13*
X187452000Y-96021000D03*
D12*
G36*
X185513505Y-81087204D02*
G01*
X185537773Y-81090804D01*
X185561572Y-81096765D01*
X185584671Y-81105030D01*
X185606850Y-81115520D01*
X185627893Y-81128132D01*
X185647599Y-81142747D01*
X185665777Y-81159223D01*
X185682253Y-81177401D01*
X185696868Y-81197107D01*
X185709480Y-81218150D01*
X185719970Y-81240329D01*
X185728235Y-81263428D01*
X185734196Y-81287227D01*
X185737796Y-81311495D01*
X185739000Y-81335999D01*
X185739000Y-81986001D01*
X185737796Y-82010505D01*
X185734196Y-82034773D01*
X185728235Y-82058572D01*
X185719970Y-82081671D01*
X185709480Y-82103850D01*
X185696868Y-82124893D01*
X185682253Y-82144599D01*
X185665777Y-82162777D01*
X185647599Y-82179253D01*
X185627893Y-82193868D01*
X185606850Y-82206480D01*
X185584671Y-82216970D01*
X185561572Y-82225235D01*
X185537773Y-82231196D01*
X185513505Y-82234796D01*
X185489001Y-82236000D01*
X184588999Y-82236000D01*
X184564495Y-82234796D01*
X184540227Y-82231196D01*
X184516428Y-82225235D01*
X184493329Y-82216970D01*
X184471150Y-82206480D01*
X184450107Y-82193868D01*
X184430401Y-82179253D01*
X184412223Y-82162777D01*
X184395747Y-82144599D01*
X184381132Y-82124893D01*
X184368520Y-82103850D01*
X184358030Y-82081671D01*
X184349765Y-82058572D01*
X184343804Y-82034773D01*
X184340204Y-82010505D01*
X184339000Y-81986001D01*
X184339000Y-81335999D01*
X184340204Y-81311495D01*
X184343804Y-81287227D01*
X184349765Y-81263428D01*
X184358030Y-81240329D01*
X184368520Y-81218150D01*
X184381132Y-81197107D01*
X184395747Y-81177401D01*
X184412223Y-81159223D01*
X184430401Y-81142747D01*
X184450107Y-81128132D01*
X184471150Y-81115520D01*
X184493329Y-81105030D01*
X184516428Y-81096765D01*
X184540227Y-81090804D01*
X184564495Y-81087204D01*
X184588999Y-81086000D01*
X185489001Y-81086000D01*
X185513505Y-81087204D01*
X185513505Y-81087204D01*
G37*
D13*
X185039000Y-81661000D03*
D12*
G36*
X185513505Y-83137204D02*
G01*
X185537773Y-83140804D01*
X185561572Y-83146765D01*
X185584671Y-83155030D01*
X185606850Y-83165520D01*
X185627893Y-83178132D01*
X185647599Y-83192747D01*
X185665777Y-83209223D01*
X185682253Y-83227401D01*
X185696868Y-83247107D01*
X185709480Y-83268150D01*
X185719970Y-83290329D01*
X185728235Y-83313428D01*
X185734196Y-83337227D01*
X185737796Y-83361495D01*
X185739000Y-83385999D01*
X185739000Y-84036001D01*
X185737796Y-84060505D01*
X185734196Y-84084773D01*
X185728235Y-84108572D01*
X185719970Y-84131671D01*
X185709480Y-84153850D01*
X185696868Y-84174893D01*
X185682253Y-84194599D01*
X185665777Y-84212777D01*
X185647599Y-84229253D01*
X185627893Y-84243868D01*
X185606850Y-84256480D01*
X185584671Y-84266970D01*
X185561572Y-84275235D01*
X185537773Y-84281196D01*
X185513505Y-84284796D01*
X185489001Y-84286000D01*
X184588999Y-84286000D01*
X184564495Y-84284796D01*
X184540227Y-84281196D01*
X184516428Y-84275235D01*
X184493329Y-84266970D01*
X184471150Y-84256480D01*
X184450107Y-84243868D01*
X184430401Y-84229253D01*
X184412223Y-84212777D01*
X184395747Y-84194599D01*
X184381132Y-84174893D01*
X184368520Y-84153850D01*
X184358030Y-84131671D01*
X184349765Y-84108572D01*
X184343804Y-84084773D01*
X184340204Y-84060505D01*
X184339000Y-84036001D01*
X184339000Y-83385999D01*
X184340204Y-83361495D01*
X184343804Y-83337227D01*
X184349765Y-83313428D01*
X184358030Y-83290329D01*
X184368520Y-83268150D01*
X184381132Y-83247107D01*
X184395747Y-83227401D01*
X184412223Y-83209223D01*
X184430401Y-83192747D01*
X184450107Y-83178132D01*
X184471150Y-83165520D01*
X184493329Y-83155030D01*
X184516428Y-83146765D01*
X184540227Y-83140804D01*
X184564495Y-83137204D01*
X184588999Y-83136000D01*
X185489001Y-83136000D01*
X185513505Y-83137204D01*
X185513505Y-83137204D01*
G37*
D13*
X185039000Y-83711000D03*
D12*
G36*
X185513505Y-68505204D02*
G01*
X185537773Y-68508804D01*
X185561572Y-68514765D01*
X185584671Y-68523030D01*
X185606850Y-68533520D01*
X185627893Y-68546132D01*
X185647599Y-68560747D01*
X185665777Y-68577223D01*
X185682253Y-68595401D01*
X185696868Y-68615107D01*
X185709480Y-68636150D01*
X185719970Y-68658329D01*
X185728235Y-68681428D01*
X185734196Y-68705227D01*
X185737796Y-68729495D01*
X185739000Y-68753999D01*
X185739000Y-69404001D01*
X185737796Y-69428505D01*
X185734196Y-69452773D01*
X185728235Y-69476572D01*
X185719970Y-69499671D01*
X185709480Y-69521850D01*
X185696868Y-69542893D01*
X185682253Y-69562599D01*
X185665777Y-69580777D01*
X185647599Y-69597253D01*
X185627893Y-69611868D01*
X185606850Y-69624480D01*
X185584671Y-69634970D01*
X185561572Y-69643235D01*
X185537773Y-69649196D01*
X185513505Y-69652796D01*
X185489001Y-69654000D01*
X184588999Y-69654000D01*
X184564495Y-69652796D01*
X184540227Y-69649196D01*
X184516428Y-69643235D01*
X184493329Y-69634970D01*
X184471150Y-69624480D01*
X184450107Y-69611868D01*
X184430401Y-69597253D01*
X184412223Y-69580777D01*
X184395747Y-69562599D01*
X184381132Y-69542893D01*
X184368520Y-69521850D01*
X184358030Y-69499671D01*
X184349765Y-69476572D01*
X184343804Y-69452773D01*
X184340204Y-69428505D01*
X184339000Y-69404001D01*
X184339000Y-68753999D01*
X184340204Y-68729495D01*
X184343804Y-68705227D01*
X184349765Y-68681428D01*
X184358030Y-68658329D01*
X184368520Y-68636150D01*
X184381132Y-68615107D01*
X184395747Y-68595401D01*
X184412223Y-68577223D01*
X184430401Y-68560747D01*
X184450107Y-68546132D01*
X184471150Y-68533520D01*
X184493329Y-68523030D01*
X184516428Y-68514765D01*
X184540227Y-68508804D01*
X184564495Y-68505204D01*
X184588999Y-68504000D01*
X185489001Y-68504000D01*
X185513505Y-68505204D01*
X185513505Y-68505204D01*
G37*
D13*
X185039000Y-69079000D03*
D12*
G36*
X185513505Y-70555204D02*
G01*
X185537773Y-70558804D01*
X185561572Y-70564765D01*
X185584671Y-70573030D01*
X185606850Y-70583520D01*
X185627893Y-70596132D01*
X185647599Y-70610747D01*
X185665777Y-70627223D01*
X185682253Y-70645401D01*
X185696868Y-70665107D01*
X185709480Y-70686150D01*
X185719970Y-70708329D01*
X185728235Y-70731428D01*
X185734196Y-70755227D01*
X185737796Y-70779495D01*
X185739000Y-70803999D01*
X185739000Y-71454001D01*
X185737796Y-71478505D01*
X185734196Y-71502773D01*
X185728235Y-71526572D01*
X185719970Y-71549671D01*
X185709480Y-71571850D01*
X185696868Y-71592893D01*
X185682253Y-71612599D01*
X185665777Y-71630777D01*
X185647599Y-71647253D01*
X185627893Y-71661868D01*
X185606850Y-71674480D01*
X185584671Y-71684970D01*
X185561572Y-71693235D01*
X185537773Y-71699196D01*
X185513505Y-71702796D01*
X185489001Y-71704000D01*
X184588999Y-71704000D01*
X184564495Y-71702796D01*
X184540227Y-71699196D01*
X184516428Y-71693235D01*
X184493329Y-71684970D01*
X184471150Y-71674480D01*
X184450107Y-71661868D01*
X184430401Y-71647253D01*
X184412223Y-71630777D01*
X184395747Y-71612599D01*
X184381132Y-71592893D01*
X184368520Y-71571850D01*
X184358030Y-71549671D01*
X184349765Y-71526572D01*
X184343804Y-71502773D01*
X184340204Y-71478505D01*
X184339000Y-71454001D01*
X184339000Y-70803999D01*
X184340204Y-70779495D01*
X184343804Y-70755227D01*
X184349765Y-70731428D01*
X184358030Y-70708329D01*
X184368520Y-70686150D01*
X184381132Y-70665107D01*
X184395747Y-70645401D01*
X184412223Y-70627223D01*
X184430401Y-70610747D01*
X184450107Y-70596132D01*
X184471150Y-70583520D01*
X184493329Y-70573030D01*
X184516428Y-70564765D01*
X184540227Y-70558804D01*
X184564495Y-70555204D01*
X184588999Y-70554000D01*
X185489001Y-70554000D01*
X185513505Y-70555204D01*
X185513505Y-70555204D01*
G37*
D13*
X185039000Y-71129000D03*
D12*
G36*
X180687505Y-60150204D02*
G01*
X180711773Y-60153804D01*
X180735572Y-60159765D01*
X180758671Y-60168030D01*
X180780850Y-60178520D01*
X180801893Y-60191132D01*
X180821599Y-60205747D01*
X180839777Y-60222223D01*
X180856253Y-60240401D01*
X180870868Y-60260107D01*
X180883480Y-60281150D01*
X180893970Y-60303329D01*
X180902235Y-60326428D01*
X180908196Y-60350227D01*
X180911796Y-60374495D01*
X180913000Y-60398999D01*
X180913000Y-61049001D01*
X180911796Y-61073505D01*
X180908196Y-61097773D01*
X180902235Y-61121572D01*
X180893970Y-61144671D01*
X180883480Y-61166850D01*
X180870868Y-61187893D01*
X180856253Y-61207599D01*
X180839777Y-61225777D01*
X180821599Y-61242253D01*
X180801893Y-61256868D01*
X180780850Y-61269480D01*
X180758671Y-61279970D01*
X180735572Y-61288235D01*
X180711773Y-61294196D01*
X180687505Y-61297796D01*
X180663001Y-61299000D01*
X179762999Y-61299000D01*
X179738495Y-61297796D01*
X179714227Y-61294196D01*
X179690428Y-61288235D01*
X179667329Y-61279970D01*
X179645150Y-61269480D01*
X179624107Y-61256868D01*
X179604401Y-61242253D01*
X179586223Y-61225777D01*
X179569747Y-61207599D01*
X179555132Y-61187893D01*
X179542520Y-61166850D01*
X179532030Y-61144671D01*
X179523765Y-61121572D01*
X179517804Y-61097773D01*
X179514204Y-61073505D01*
X179513000Y-61049001D01*
X179513000Y-60398999D01*
X179514204Y-60374495D01*
X179517804Y-60350227D01*
X179523765Y-60326428D01*
X179532030Y-60303329D01*
X179542520Y-60281150D01*
X179555132Y-60260107D01*
X179569747Y-60240401D01*
X179586223Y-60222223D01*
X179604401Y-60205747D01*
X179624107Y-60191132D01*
X179645150Y-60178520D01*
X179667329Y-60168030D01*
X179690428Y-60159765D01*
X179714227Y-60153804D01*
X179738495Y-60150204D01*
X179762999Y-60149000D01*
X180663001Y-60149000D01*
X180687505Y-60150204D01*
X180687505Y-60150204D01*
G37*
D13*
X180213000Y-60724000D03*
D12*
G36*
X180687505Y-58100204D02*
G01*
X180711773Y-58103804D01*
X180735572Y-58109765D01*
X180758671Y-58118030D01*
X180780850Y-58128520D01*
X180801893Y-58141132D01*
X180821599Y-58155747D01*
X180839777Y-58172223D01*
X180856253Y-58190401D01*
X180870868Y-58210107D01*
X180883480Y-58231150D01*
X180893970Y-58253329D01*
X180902235Y-58276428D01*
X180908196Y-58300227D01*
X180911796Y-58324495D01*
X180913000Y-58348999D01*
X180913000Y-58999001D01*
X180911796Y-59023505D01*
X180908196Y-59047773D01*
X180902235Y-59071572D01*
X180893970Y-59094671D01*
X180883480Y-59116850D01*
X180870868Y-59137893D01*
X180856253Y-59157599D01*
X180839777Y-59175777D01*
X180821599Y-59192253D01*
X180801893Y-59206868D01*
X180780850Y-59219480D01*
X180758671Y-59229970D01*
X180735572Y-59238235D01*
X180711773Y-59244196D01*
X180687505Y-59247796D01*
X180663001Y-59249000D01*
X179762999Y-59249000D01*
X179738495Y-59247796D01*
X179714227Y-59244196D01*
X179690428Y-59238235D01*
X179667329Y-59229970D01*
X179645150Y-59219480D01*
X179624107Y-59206868D01*
X179604401Y-59192253D01*
X179586223Y-59175777D01*
X179569747Y-59157599D01*
X179555132Y-59137893D01*
X179542520Y-59116850D01*
X179532030Y-59094671D01*
X179523765Y-59071572D01*
X179517804Y-59047773D01*
X179514204Y-59023505D01*
X179513000Y-58999001D01*
X179513000Y-58348999D01*
X179514204Y-58324495D01*
X179517804Y-58300227D01*
X179523765Y-58276428D01*
X179532030Y-58253329D01*
X179542520Y-58231150D01*
X179555132Y-58210107D01*
X179569747Y-58190401D01*
X179586223Y-58172223D01*
X179604401Y-58155747D01*
X179624107Y-58141132D01*
X179645150Y-58128520D01*
X179667329Y-58118030D01*
X179690428Y-58109765D01*
X179714227Y-58103804D01*
X179738495Y-58100204D01*
X179762999Y-58099000D01*
X180663001Y-58099000D01*
X180687505Y-58100204D01*
X180687505Y-58100204D01*
G37*
D13*
X180213000Y-58674000D03*
D22*
X187405578Y-122227354D03*
X188663078Y-122227354D03*
X189983078Y-122227354D03*
X191240578Y-122227354D03*
D23*
X167979500Y-114541500D03*
X167979500Y-115799000D03*
X167979500Y-117119000D03*
X167979500Y-118376500D03*
D11*
X138176000Y-66040000D03*
X139446000Y-66040000D03*
X139700000Y-77470000D03*
X138430000Y-77470000D03*
X138922000Y-89916000D03*
X140192000Y-89916000D03*
X179959000Y-78486000D03*
X181229000Y-78486000D03*
X181229000Y-90805000D03*
X179959000Y-90805000D03*
D24*
X189583000Y-58830000D03*
X188623000Y-58830000D03*
X189583000Y-59690000D03*
X188623000Y-59690000D03*
X188623000Y-60550000D03*
D25*
X189353000Y-61240000D03*
X189353000Y-58140000D03*
X188853000Y-61240000D03*
X188853000Y-58140000D03*
D24*
X189583000Y-60550000D03*
D26*
X190578000Y-58690000D03*
X190578000Y-59190000D03*
X190578000Y-59690000D03*
X190578000Y-60190000D03*
X190578000Y-60690000D03*
X187628000Y-60690000D03*
X187628000Y-60190000D03*
X187628000Y-59690000D03*
X187628000Y-59190000D03*
X187628000Y-58690000D03*
M02*
