G04 #@! TF.GenerationSoftware,KiCad,Pcbnew,(5.1.4)-1*
G04 #@! TF.CreationDate,2021-01-18T10:38:23+05:30*
G04 #@! TF.ProjectId,power,706f7765-722e-46b6-9963-61645f706362,rev?*
G04 #@! TF.SameCoordinates,Original*
G04 #@! TF.FileFunction,Legend,Top*
G04 #@! TF.FilePolarity,Positive*
%FSLAX46Y46*%
G04 Gerber Fmt 4.6, Leading zero omitted, Abs format (unit mm)*
G04 Created by KiCad (PCBNEW (5.1.4)-1) date 2021-01-18 10:38:23*
%MOMM*%
%LPD*%
G04 APERTURE LIST*
%ADD10C,0.120000*%
%ADD11C,0.150000*%
%ADD12C,0.100000*%
%ADD13C,0.500000*%
%ADD14C,0.152400*%
%ADD15C,0.127000*%
%ADD16C,0.200000*%
%ADD17C,0.015000*%
G04 APERTURE END LIST*
D10*
X181365000Y-66481000D02*
X181365000Y-66180493D01*
X181365000Y-65391507D02*
X181365000Y-65091000D01*
X180390000Y-66481000D02*
X181365000Y-66481000D01*
X180390000Y-65091000D02*
X181365000Y-65091000D01*
X180390000Y-66481000D02*
X180390000Y-66394276D01*
X180390000Y-65177724D02*
X180390000Y-65091000D01*
X179705000Y-66481000D02*
X179020000Y-66481000D01*
X179020000Y-66481000D02*
X179020000Y-65786000D01*
X148411000Y-76080252D02*
X148411000Y-75557748D01*
X146991000Y-76080252D02*
X146991000Y-75557748D01*
X148256966Y-49758542D02*
X149456966Y-49758542D01*
X149456966Y-51518542D02*
X148256966Y-51518542D01*
X177537000Y-119349000D02*
X177537000Y-120549000D01*
X175777000Y-120549000D02*
X175777000Y-119349000D01*
X184141000Y-119288000D02*
X184141000Y-120488000D01*
X182381000Y-120488000D02*
X182381000Y-119288000D01*
X159916862Y-110892539D02*
X158716862Y-110892539D01*
X158716862Y-109132539D02*
X159916862Y-109132539D01*
X192401076Y-71806738D02*
X192401076Y-73006738D01*
X190641076Y-73006738D02*
X190641076Y-71806738D01*
X178569509Y-113280274D02*
X179899509Y-113280274D01*
X178569509Y-114610274D02*
X178569509Y-113280274D01*
X178569509Y-115880274D02*
X181229509Y-115880274D01*
X181229509Y-115880274D02*
X181229509Y-121020274D01*
X178569509Y-115880274D02*
X178569509Y-121020274D01*
X178569509Y-121020274D02*
X181229509Y-121020274D01*
D11*
X161290000Y-68072000D02*
X163830000Y-68072000D01*
X163830000Y-68072000D02*
X163830000Y-65532000D01*
X164110000Y-62712000D02*
X162560000Y-62712000D01*
X156210000Y-68072000D02*
X161290000Y-68072000D01*
X156210000Y-62992000D02*
X156210000Y-68072000D01*
X161290000Y-65532000D02*
X161290000Y-62992000D01*
X163830000Y-65532000D02*
X161290000Y-65532000D01*
X164110000Y-62712000D02*
X164110000Y-64262000D01*
X161290000Y-62992000D02*
X156210000Y-62992000D01*
D12*
X161650000Y-92916000D02*
X161275000Y-92916000D01*
X161975000Y-92591000D02*
X162500000Y-92591000D01*
X161975000Y-92691000D02*
X161975000Y-92591000D01*
X161650000Y-92916000D02*
X161975000Y-92691000D01*
X159975000Y-89616000D02*
X160300000Y-89616000D01*
X159975000Y-89916000D02*
X159975000Y-89616000D01*
X161975000Y-89616000D02*
X161675000Y-89616000D01*
X161975000Y-89941000D02*
X161975000Y-89616000D01*
X159975000Y-92916000D02*
X160275000Y-92916000D01*
X159975000Y-92591000D02*
X159975000Y-92916000D01*
D10*
X179136522Y-84515478D02*
G75*
G03X183575000Y-82677000I1838478J1838478D01*
G01*
X179136522Y-80838522D02*
G75*
G02X183575000Y-82677000I1838478J-1838478D01*
G01*
X179125000Y-80877000D02*
X179125000Y-84477000D01*
D11*
X155565000Y-75118000D02*
X154140000Y-75118000D01*
X162815000Y-74893000D02*
X162490000Y-74893000D01*
X162815000Y-82143000D02*
X162490000Y-82143000D01*
X155565000Y-82143000D02*
X155890000Y-82143000D01*
X155565000Y-74893000D02*
X155890000Y-74893000D01*
X155565000Y-82143000D02*
X155565000Y-81818000D01*
X162815000Y-82143000D02*
X162815000Y-81818000D01*
X162815000Y-74893000D02*
X162815000Y-75218000D01*
X155565000Y-74893000D02*
X155565000Y-75118000D01*
D13*
X155024400Y-74123800D02*
G75*
G03X155024400Y-74123800I-50800J0D01*
G01*
X156573800Y-75876400D02*
G75*
G03X156573800Y-75876400I-50800J0D01*
G01*
D10*
X152666530Y-95709362D02*
X152666530Y-96909362D01*
X150906530Y-96909362D02*
X150906530Y-95709362D01*
X195147000Y-57919252D02*
X195147000Y-57396748D01*
X193727000Y-57919252D02*
X193727000Y-57396748D01*
X177422306Y-55883762D02*
X177422306Y-55361258D01*
X176002306Y-55883762D02*
X176002306Y-55361258D01*
X147268000Y-88916252D02*
X147268000Y-88393748D01*
X145848000Y-88916252D02*
X145848000Y-88393748D01*
X150062000Y-65294252D02*
X150062000Y-64771748D01*
X148642000Y-65294252D02*
X148642000Y-64771748D01*
X136346000Y-94250252D02*
X136346000Y-93727748D01*
X134926000Y-94250252D02*
X134926000Y-93727748D01*
X135389252Y-80824000D02*
X134866748Y-80824000D01*
X135389252Y-82244000D02*
X134866748Y-82244000D01*
X135126252Y-69394000D02*
X134603748Y-69394000D01*
X135126252Y-70814000D02*
X134603748Y-70814000D01*
X178882522Y-71815478D02*
G75*
G03X183321000Y-69977000I1838478J1838478D01*
G01*
X178882522Y-68138522D02*
G75*
G02X183321000Y-69977000I1838478J-1838478D01*
G01*
X178871000Y-68177000D02*
X178871000Y-71777000D01*
X163055300Y-104394000D02*
G75*
G03X163055300Y-104394000I-1892300J0D01*
G01*
X152527000Y-100584000D02*
X152527000Y-108204000D01*
X169799000Y-100584000D02*
X152527000Y-100584000D01*
X169799000Y-108204000D02*
X152527000Y-108204000D01*
X169799000Y-100584000D02*
X169799000Y-108204000D01*
X153028862Y-109312539D02*
X155828862Y-109312539D01*
X153028862Y-110712539D02*
X155828862Y-110712539D01*
X153028862Y-109312539D02*
X153028862Y-110712539D01*
D12*
X154628862Y-110012539D02*
X154928862Y-109712539D01*
X154928862Y-109712539D02*
X154978862Y-109662539D01*
X154978862Y-109662539D02*
X154978862Y-110312539D01*
X154978862Y-110362539D02*
X154978862Y-110312539D01*
X154978862Y-110312539D02*
X154978862Y-110362539D01*
X154978862Y-110362539D02*
X154628862Y-110012539D01*
X154628862Y-110012539D02*
X154628862Y-109662539D01*
X154628862Y-110362539D02*
X154628862Y-110012539D01*
D10*
X173212000Y-124419000D02*
X173212000Y-128269000D01*
X171212000Y-124419000D02*
X171212000Y-128269000D01*
X173212000Y-124419000D02*
X171212000Y-124419000D01*
D12*
X170962000Y-126419000D02*
X170462000Y-126419000D01*
X170712000Y-126419000D02*
X170962000Y-126419000D01*
X170712000Y-126019000D02*
X170712000Y-126419000D01*
X170512000Y-126719000D02*
X170712000Y-126419000D01*
X170912000Y-126719000D02*
X170512000Y-126719000D01*
X170712000Y-126419000D02*
X170912000Y-126719000D01*
X170712000Y-126719000D02*
X170712000Y-127119000D01*
D10*
X185690000Y-114087000D02*
X185690000Y-110237000D01*
X187690000Y-114087000D02*
X187690000Y-110237000D01*
X185690000Y-114087000D02*
X187690000Y-114087000D01*
D12*
X187940000Y-112087000D02*
X188440000Y-112087000D01*
X188190000Y-112087000D02*
X187940000Y-112087000D01*
X188190000Y-112487000D02*
X188190000Y-112087000D01*
X188390000Y-111787000D02*
X188190000Y-112087000D01*
X187990000Y-111787000D02*
X188390000Y-111787000D01*
X188190000Y-112087000D02*
X187990000Y-111787000D01*
X188190000Y-111787000D02*
X188190000Y-111387000D01*
D10*
X149417000Y-94339000D02*
X149417000Y-97139000D01*
X148017000Y-94339000D02*
X148017000Y-97139000D01*
X149417000Y-94339000D02*
X148017000Y-94339000D01*
D12*
X148717000Y-95939000D02*
X149017000Y-96239000D01*
X149017000Y-96239000D02*
X149067000Y-96289000D01*
X149067000Y-96289000D02*
X148417000Y-96289000D01*
X148367000Y-96289000D02*
X148417000Y-96289000D01*
X148417000Y-96289000D02*
X148367000Y-96289000D01*
X148367000Y-96289000D02*
X148717000Y-95939000D01*
X148717000Y-95939000D02*
X149067000Y-95939000D01*
X148367000Y-95939000D02*
X148717000Y-95939000D01*
D10*
X155101966Y-51338542D02*
X152301966Y-51338542D01*
X155101966Y-49938542D02*
X152301966Y-49938542D01*
X155101966Y-51338542D02*
X155101966Y-49938542D01*
D12*
X153501966Y-50638542D02*
X153201966Y-50938542D01*
X153201966Y-50938542D02*
X153151966Y-50988542D01*
X153151966Y-50988542D02*
X153151966Y-50338542D01*
X153151966Y-50288542D02*
X153151966Y-50338542D01*
X153151966Y-50338542D02*
X153151966Y-50288542D01*
X153151966Y-50288542D02*
X153501966Y-50638542D01*
X153501966Y-50638542D02*
X153501966Y-50988542D01*
X153501966Y-50288542D02*
X153501966Y-50638542D01*
D10*
X156793000Y-94123252D02*
X156793000Y-93600748D01*
X155373000Y-94123252D02*
X155373000Y-93600748D01*
X165736748Y-96595000D02*
X166259252Y-96595000D01*
X165736748Y-95175000D02*
X166259252Y-95175000D01*
X195147000Y-65802252D02*
X195147000Y-65279748D01*
X193727000Y-65802252D02*
X193727000Y-65279748D01*
X190821076Y-78567738D02*
X190821076Y-75767738D01*
X192221076Y-78567738D02*
X192221076Y-75767738D01*
X190821076Y-78567738D02*
X192221076Y-78567738D01*
D12*
X191521076Y-76967738D02*
X191221076Y-76667738D01*
X191221076Y-76667738D02*
X191171076Y-76617738D01*
X191171076Y-76617738D02*
X191821076Y-76617738D01*
X191871076Y-76617738D02*
X191821076Y-76617738D01*
X191821076Y-76617738D02*
X191871076Y-76617738D01*
X191871076Y-76617738D02*
X191521076Y-76967738D01*
X191521076Y-76967738D02*
X191171076Y-76967738D01*
X191871076Y-76967738D02*
X191521076Y-76967738D01*
D10*
X168045000Y-57170000D02*
X168045000Y-53670000D01*
X171045000Y-57170000D02*
X171045000Y-53670000D01*
D12*
X171695000Y-53840000D02*
X171295000Y-53840000D01*
X171495000Y-53840000D02*
X171495000Y-53990000D01*
X171495000Y-53840000D02*
X171695000Y-53540000D01*
X171695000Y-53540000D02*
X171295000Y-53540000D01*
X171295000Y-53540000D02*
X171495000Y-53840000D01*
X171495000Y-53540000D02*
X171495000Y-53390000D01*
D10*
X168045000Y-57170000D02*
X171045000Y-57170000D01*
D11*
X143051640Y-58789960D02*
X143051640Y-49789960D01*
X146551640Y-49789960D02*
X132051640Y-49789960D01*
X132051640Y-58789960D02*
X132051640Y-49789960D01*
X146551640Y-58789960D02*
X132051640Y-58789960D01*
X146551640Y-58789960D02*
X146551640Y-49789960D01*
D14*
X158341000Y-56809000D02*
X161445000Y-56809000D01*
X161445000Y-55205000D02*
X158341000Y-55205000D01*
X133954800Y-62778000D02*
X137058800Y-62778000D01*
X137058800Y-61174000D02*
X133954800Y-61174000D01*
D10*
X177422306Y-51574762D02*
X177422306Y-51052258D01*
X176002306Y-51574762D02*
X176002306Y-51052258D01*
X175462000Y-87891252D02*
X175462000Y-87368748D01*
X174042000Y-87891252D02*
X174042000Y-87368748D01*
X173176000Y-76243252D02*
X173176000Y-75720748D01*
X171756000Y-76243252D02*
X171756000Y-75720748D01*
X171584252Y-65711000D02*
X171061748Y-65711000D01*
X171584252Y-67131000D02*
X171061748Y-67131000D01*
X188162000Y-95257252D02*
X188162000Y-94734748D01*
X186742000Y-95257252D02*
X186742000Y-94734748D01*
X185749000Y-82947252D02*
X185749000Y-82424748D01*
X184329000Y-82947252D02*
X184329000Y-82424748D01*
X185749000Y-70365252D02*
X185749000Y-69842748D01*
X184329000Y-70365252D02*
X184329000Y-69842748D01*
X138232362Y-95869278D02*
G75*
G03X142670840Y-94030800I1838478J1838478D01*
G01*
X138232362Y-92192322D02*
G75*
G02X142670840Y-94030800I1838478J-1838478D01*
G01*
X138220840Y-92230800D02*
X138220840Y-95830800D01*
X137775162Y-83575678D02*
G75*
G03X142213640Y-81737200I1838478J1838478D01*
G01*
X137775162Y-79898722D02*
G75*
G02X142213640Y-81737200I1838478J-1838478D01*
G01*
X137763640Y-79937200D02*
X137763640Y-83537200D01*
X137617682Y-72003438D02*
G75*
G03X142056160Y-70164960I1838478J1838478D01*
G01*
X137617682Y-68326482D02*
G75*
G02X142056160Y-70164960I1838478J-1838478D01*
G01*
X137606160Y-68364960D02*
X137606160Y-71964960D01*
X179503000Y-59437748D02*
X179503000Y-59960252D01*
X180923000Y-59437748D02*
X180923000Y-59960252D01*
X179136522Y-96834478D02*
G75*
G03X183575000Y-94996000I1838478J1838478D01*
G01*
X179136522Y-93157522D02*
G75*
G02X183575000Y-94996000I1838478J-1838478D01*
G01*
X179125000Y-93196000D02*
X179125000Y-96796000D01*
X194775252Y-100729217D02*
X178575252Y-100729217D01*
X194775252Y-108229217D02*
X178575252Y-108229217D01*
X194775252Y-100729217D02*
X194775252Y-108229217D01*
X178575252Y-100729217D02*
X178575252Y-108229217D01*
X165326000Y-121345000D02*
X149126000Y-121345000D01*
X165326000Y-128845000D02*
X149126000Y-128845000D01*
X165326000Y-121345000D02*
X165326000Y-128845000D01*
X149126000Y-121345000D02*
X149126000Y-128845000D01*
D15*
X186748078Y-121979854D02*
X186748078Y-127979854D01*
X191898078Y-127979854D02*
X191898078Y-121979854D01*
D16*
X191423078Y-121229854D02*
G75*
G03X191423078Y-121229854I-100000J0D01*
G01*
D15*
X168227000Y-113884000D02*
X162227000Y-113884000D01*
X162227000Y-119034000D02*
X168227000Y-119034000D01*
D16*
X169077000Y-118459000D02*
G75*
G03X169077000Y-118459000I-100000J0D01*
G01*
D11*
X132097000Y-121177000D02*
X137397000Y-121177000D01*
X132097000Y-106407000D02*
X137397000Y-106407000D01*
X132097000Y-121177000D02*
X132097000Y-106407000D01*
X137397000Y-121177000D02*
X137397000Y-106407000D01*
D10*
X140131000Y-65345000D02*
X140131000Y-66040000D01*
X139446000Y-65345000D02*
X140131000Y-65345000D01*
X138761000Y-66648276D02*
X138761000Y-66735000D01*
X138761000Y-65345000D02*
X138761000Y-65431724D01*
X138761000Y-66735000D02*
X137786000Y-66735000D01*
X138761000Y-65345000D02*
X137786000Y-65345000D01*
X137786000Y-66434493D02*
X137786000Y-66735000D01*
X137786000Y-65345000D02*
X137786000Y-65645507D01*
X138040000Y-76775000D02*
X138040000Y-77075507D01*
X138040000Y-77864493D02*
X138040000Y-78165000D01*
X139015000Y-76775000D02*
X138040000Y-76775000D01*
X139015000Y-78165000D02*
X138040000Y-78165000D01*
X139015000Y-76775000D02*
X139015000Y-76861724D01*
X139015000Y-78078276D02*
X139015000Y-78165000D01*
X139700000Y-76775000D02*
X140385000Y-76775000D01*
X140385000Y-76775000D02*
X140385000Y-77470000D01*
X140877000Y-89221000D02*
X140877000Y-89916000D01*
X140192000Y-89221000D02*
X140877000Y-89221000D01*
X139507000Y-90524276D02*
X139507000Y-90611000D01*
X139507000Y-89221000D02*
X139507000Y-89307724D01*
X139507000Y-90611000D02*
X138532000Y-90611000D01*
X139507000Y-89221000D02*
X138532000Y-89221000D01*
X138532000Y-90310493D02*
X138532000Y-90611000D01*
X138532000Y-89221000D02*
X138532000Y-89521507D01*
X181619000Y-79181000D02*
X181619000Y-78880493D01*
X181619000Y-78091507D02*
X181619000Y-77791000D01*
X180644000Y-79181000D02*
X181619000Y-79181000D01*
X180644000Y-77791000D02*
X181619000Y-77791000D01*
X180644000Y-79181000D02*
X180644000Y-79094276D01*
X180644000Y-77877724D02*
X180644000Y-77791000D01*
X179959000Y-79181000D02*
X179274000Y-79181000D01*
X179274000Y-79181000D02*
X179274000Y-78486000D01*
X179274000Y-91500000D02*
X179274000Y-90805000D01*
X179959000Y-91500000D02*
X179274000Y-91500000D01*
X180644000Y-90196724D02*
X180644000Y-90110000D01*
X180644000Y-91500000D02*
X180644000Y-91413276D01*
X180644000Y-90110000D02*
X181619000Y-90110000D01*
X180644000Y-91500000D02*
X181619000Y-91500000D01*
X181619000Y-90410507D02*
X181619000Y-90110000D01*
X181619000Y-91500000D02*
X181619000Y-91199493D01*
X188303000Y-58090000D02*
X187503000Y-58090000D01*
X187503000Y-58090000D02*
X187503000Y-58190000D01*
X189903000Y-58090000D02*
X190703000Y-58090000D01*
X190703000Y-58090000D02*
X190703000Y-58190000D01*
X187503000Y-61190000D02*
X187503000Y-61290000D01*
X187503000Y-61290000D02*
X188303000Y-61290000D01*
X189903000Y-61290000D02*
X190703000Y-61290000D01*
X190703000Y-61290000D02*
X190703000Y-61190000D01*
X187503000Y-58190000D02*
X187103000Y-58190000D01*
D11*
X177379380Y-65865333D02*
X178093666Y-65865333D01*
X178236523Y-65912952D01*
X178331761Y-66008190D01*
X178379380Y-66151047D01*
X178379380Y-66246285D01*
X177379380Y-64960571D02*
X177379380Y-65151047D01*
X177427000Y-65246285D01*
X177474619Y-65293904D01*
X177617476Y-65389142D01*
X177807952Y-65436761D01*
X178188904Y-65436761D01*
X178284142Y-65389142D01*
X178331761Y-65341523D01*
X178379380Y-65246285D01*
X178379380Y-65055809D01*
X178331761Y-64960571D01*
X178284142Y-64912952D01*
X178188904Y-64865333D01*
X177950809Y-64865333D01*
X177855571Y-64912952D01*
X177807952Y-64960571D01*
X177760333Y-65055809D01*
X177760333Y-65246285D01*
X177807952Y-65341523D01*
X177855571Y-65389142D01*
X177950809Y-65436761D01*
X178731857Y-67030571D02*
X178731857Y-66573428D01*
X178960428Y-66802000D02*
X178503285Y-66802000D01*
X146503380Y-75985666D02*
X146027190Y-76319000D01*
X146503380Y-76557095D02*
X145503380Y-76557095D01*
X145503380Y-76176142D01*
X145551000Y-76080904D01*
X145598619Y-76033285D01*
X145693857Y-75985666D01*
X145836714Y-75985666D01*
X145931952Y-76033285D01*
X145979571Y-76080904D01*
X146027190Y-76176142D01*
X146027190Y-76557095D01*
X145503380Y-75080904D02*
X145503380Y-75557095D01*
X145979571Y-75604714D01*
X145931952Y-75557095D01*
X145884333Y-75461857D01*
X145884333Y-75223761D01*
X145931952Y-75128523D01*
X145979571Y-75080904D01*
X146074809Y-75033285D01*
X146312904Y-75033285D01*
X146408142Y-75080904D01*
X146455761Y-75128523D01*
X146503380Y-75223761D01*
X146503380Y-75461857D01*
X146455761Y-75557095D01*
X146408142Y-75604714D01*
X148214108Y-52649380D02*
X147880775Y-52173190D01*
X147642680Y-52649380D02*
X147642680Y-51649380D01*
X148023632Y-51649380D01*
X148118870Y-51697000D01*
X148166489Y-51744619D01*
X148214108Y-51839857D01*
X148214108Y-51982714D01*
X148166489Y-52077952D01*
X148118870Y-52125571D01*
X148023632Y-52173190D01*
X147642680Y-52173190D01*
X148595061Y-51744619D02*
X148642680Y-51697000D01*
X148737918Y-51649380D01*
X148976013Y-51649380D01*
X149071251Y-51697000D01*
X149118870Y-51744619D01*
X149166489Y-51839857D01*
X149166489Y-51935095D01*
X149118870Y-52077952D01*
X148547442Y-52649380D01*
X149166489Y-52649380D01*
X149785537Y-51649380D02*
X149880775Y-51649380D01*
X149976013Y-51697000D01*
X150023632Y-51744619D01*
X150071251Y-51839857D01*
X150118870Y-52030333D01*
X150118870Y-52268428D01*
X150071251Y-52458904D01*
X150023632Y-52554142D01*
X149976013Y-52601761D01*
X149880775Y-52649380D01*
X149785537Y-52649380D01*
X149690299Y-52601761D01*
X149642680Y-52554142D01*
X149595061Y-52458904D01*
X149547442Y-52268428D01*
X149547442Y-52030333D01*
X149595061Y-51839857D01*
X149642680Y-51744619D01*
X149690299Y-51697000D01*
X149785537Y-51649380D01*
X175458380Y-120591857D02*
X174982190Y-120925190D01*
X175458380Y-121163285D02*
X174458380Y-121163285D01*
X174458380Y-120782333D01*
X174506000Y-120687095D01*
X174553619Y-120639476D01*
X174648857Y-120591857D01*
X174791714Y-120591857D01*
X174886952Y-120639476D01*
X174934571Y-120687095D01*
X174982190Y-120782333D01*
X174982190Y-121163285D01*
X175458380Y-119639476D02*
X175458380Y-120210904D01*
X175458380Y-119925190D02*
X174458380Y-119925190D01*
X174601238Y-120020428D01*
X174696476Y-120115666D01*
X174744095Y-120210904D01*
X175458380Y-119163285D02*
X175458380Y-118972809D01*
X175410761Y-118877571D01*
X175363142Y-118829952D01*
X175220285Y-118734714D01*
X175029809Y-118687095D01*
X174648857Y-118687095D01*
X174553619Y-118734714D01*
X174506000Y-118782333D01*
X174458380Y-118877571D01*
X174458380Y-119068047D01*
X174506000Y-119163285D01*
X174553619Y-119210904D01*
X174648857Y-119258523D01*
X174886952Y-119258523D01*
X174982190Y-119210904D01*
X175029809Y-119163285D01*
X175077428Y-119068047D01*
X175077428Y-118877571D01*
X175029809Y-118782333D01*
X174982190Y-118734714D01*
X174886952Y-118687095D01*
X185363380Y-120530857D02*
X184887190Y-120864190D01*
X185363380Y-121102285D02*
X184363380Y-121102285D01*
X184363380Y-120721333D01*
X184411000Y-120626095D01*
X184458619Y-120578476D01*
X184553857Y-120530857D01*
X184696714Y-120530857D01*
X184791952Y-120578476D01*
X184839571Y-120626095D01*
X184887190Y-120721333D01*
X184887190Y-121102285D01*
X185363380Y-119578476D02*
X185363380Y-120149904D01*
X185363380Y-119864190D02*
X184363380Y-119864190D01*
X184506238Y-119959428D01*
X184601476Y-120054666D01*
X184649095Y-120149904D01*
X184791952Y-119007047D02*
X184744333Y-119102285D01*
X184696714Y-119149904D01*
X184601476Y-119197523D01*
X184553857Y-119197523D01*
X184458619Y-119149904D01*
X184411000Y-119102285D01*
X184363380Y-119007047D01*
X184363380Y-118816571D01*
X184411000Y-118721333D01*
X184458619Y-118673714D01*
X184553857Y-118626095D01*
X184601476Y-118626095D01*
X184696714Y-118673714D01*
X184744333Y-118721333D01*
X184791952Y-118816571D01*
X184791952Y-119007047D01*
X184839571Y-119102285D01*
X184887190Y-119149904D01*
X184982428Y-119197523D01*
X185172904Y-119197523D01*
X185268142Y-119149904D01*
X185315761Y-119102285D01*
X185363380Y-119007047D01*
X185363380Y-118816571D01*
X185315761Y-118721333D01*
X185268142Y-118673714D01*
X185172904Y-118626095D01*
X184982428Y-118626095D01*
X184887190Y-118673714D01*
X184839571Y-118721333D01*
X184791952Y-118816571D01*
X158674004Y-112114919D02*
X158340671Y-111638729D01*
X158102576Y-112114919D02*
X158102576Y-111114919D01*
X158483528Y-111114919D01*
X158578766Y-111162539D01*
X158626385Y-111210158D01*
X158674004Y-111305396D01*
X158674004Y-111448253D01*
X158626385Y-111543491D01*
X158578766Y-111591110D01*
X158483528Y-111638729D01*
X158102576Y-111638729D01*
X159626385Y-112114919D02*
X159054957Y-112114919D01*
X159340671Y-112114919D02*
X159340671Y-111114919D01*
X159245433Y-111257777D01*
X159150195Y-111353015D01*
X159054957Y-111400634D01*
X159959719Y-111114919D02*
X160626385Y-111114919D01*
X160197814Y-112114919D01*
X193623456Y-73049595D02*
X193147266Y-73382928D01*
X193623456Y-73621023D02*
X192623456Y-73621023D01*
X192623456Y-73240071D01*
X192671076Y-73144833D01*
X192718695Y-73097214D01*
X192813933Y-73049595D01*
X192956790Y-73049595D01*
X193052028Y-73097214D01*
X193099647Y-73144833D01*
X193147266Y-73240071D01*
X193147266Y-73621023D01*
X193623456Y-72097214D02*
X193623456Y-72668642D01*
X193623456Y-72382928D02*
X192623456Y-72382928D01*
X192766314Y-72478166D01*
X192861552Y-72573404D01*
X192909171Y-72668642D01*
X192623456Y-71240071D02*
X192623456Y-71430547D01*
X192671076Y-71525785D01*
X192718695Y-71573404D01*
X192861552Y-71668642D01*
X193052028Y-71716261D01*
X193432980Y-71716261D01*
X193528218Y-71668642D01*
X193575837Y-71621023D01*
X193623456Y-71525785D01*
X193623456Y-71335309D01*
X193575837Y-71240071D01*
X193528218Y-71192452D01*
X193432980Y-71144833D01*
X193194885Y-71144833D01*
X193099647Y-71192452D01*
X193052028Y-71240071D01*
X193004409Y-71335309D01*
X193004409Y-71525785D01*
X193052028Y-71621023D01*
X193099647Y-71668642D01*
X193194885Y-71716261D01*
X179089985Y-111732654D02*
X179089985Y-112446940D01*
X179042366Y-112589797D01*
X178947128Y-112685035D01*
X178804270Y-112732654D01*
X178709032Y-112732654D01*
X180089985Y-112732654D02*
X179518556Y-112732654D01*
X179804270Y-112732654D02*
X179804270Y-111732654D01*
X179709032Y-111875512D01*
X179613794Y-111970750D01*
X179518556Y-112018369D01*
X180994747Y-111732654D02*
X180518556Y-111732654D01*
X180470937Y-112208845D01*
X180518556Y-112161226D01*
X180613794Y-112113607D01*
X180851889Y-112113607D01*
X180947128Y-112161226D01*
X180994747Y-112208845D01*
X181042366Y-112304083D01*
X181042366Y-112542178D01*
X180994747Y-112637416D01*
X180947128Y-112685035D01*
X180851889Y-112732654D01*
X180613794Y-112732654D01*
X180518556Y-112685035D01*
X180470937Y-112637416D01*
X164552380Y-66373333D02*
X165266666Y-66373333D01*
X165409523Y-66420952D01*
X165504761Y-66516190D01*
X165552380Y-66659047D01*
X165552380Y-66754285D01*
X164552380Y-65420952D02*
X164552380Y-65897142D01*
X165028571Y-65944761D01*
X164980952Y-65897142D01*
X164933333Y-65801904D01*
X164933333Y-65563809D01*
X164980952Y-65468571D01*
X165028571Y-65420952D01*
X165123809Y-65373333D01*
X165361904Y-65373333D01*
X165457142Y-65420952D01*
X165504761Y-65468571D01*
X165552380Y-65563809D01*
X165552380Y-65801904D01*
X165504761Y-65897142D01*
X165457142Y-65944761D01*
X160279095Y-88004380D02*
X160279095Y-88813904D01*
X160326714Y-88909142D01*
X160374333Y-88956761D01*
X160469571Y-89004380D01*
X160660047Y-89004380D01*
X160755285Y-88956761D01*
X160802904Y-88909142D01*
X160850523Y-88813904D01*
X160850523Y-88004380D01*
X161231476Y-88004380D02*
X161850523Y-88004380D01*
X161517190Y-88385333D01*
X161660047Y-88385333D01*
X161755285Y-88432952D01*
X161802904Y-88480571D01*
X161850523Y-88575809D01*
X161850523Y-88813904D01*
X161802904Y-88909142D01*
X161755285Y-88956761D01*
X161660047Y-89004380D01*
X161374333Y-89004380D01*
X161279095Y-88956761D01*
X161231476Y-88909142D01*
X182657761Y-86780619D02*
X182562523Y-86733000D01*
X182467285Y-86637761D01*
X182324428Y-86494904D01*
X182229190Y-86447285D01*
X182133952Y-86447285D01*
X182181571Y-86685380D02*
X182086333Y-86637761D01*
X181991095Y-86542523D01*
X181943476Y-86352047D01*
X181943476Y-86018714D01*
X181991095Y-85828238D01*
X182086333Y-85733000D01*
X182181571Y-85685380D01*
X182372047Y-85685380D01*
X182467285Y-85733000D01*
X182562523Y-85828238D01*
X182610142Y-86018714D01*
X182610142Y-86352047D01*
X182562523Y-86542523D01*
X182467285Y-86637761D01*
X182372047Y-86685380D01*
X182181571Y-86685380D01*
X183514904Y-85685380D02*
X183038714Y-85685380D01*
X182991095Y-86161571D01*
X183038714Y-86113952D01*
X183133952Y-86066333D01*
X183372047Y-86066333D01*
X183467285Y-86113952D01*
X183514904Y-86161571D01*
X183562523Y-86256809D01*
X183562523Y-86494904D01*
X183514904Y-86590142D01*
X183467285Y-86637761D01*
X183372047Y-86685380D01*
X183133952Y-86685380D01*
X183038714Y-86637761D01*
X182991095Y-86590142D01*
X158428095Y-71920380D02*
X158428095Y-72729904D01*
X158475714Y-72825142D01*
X158523333Y-72872761D01*
X158618571Y-72920380D01*
X158809047Y-72920380D01*
X158904285Y-72872761D01*
X158951904Y-72825142D01*
X158999523Y-72729904D01*
X158999523Y-71920380D01*
X159999523Y-72920380D02*
X159428095Y-72920380D01*
X159713809Y-72920380D02*
X159713809Y-71920380D01*
X159618571Y-72063238D01*
X159523333Y-72158476D01*
X159428095Y-72206095D01*
X173085285Y-70064380D02*
X173656714Y-70064380D01*
X173371000Y-71064380D02*
X173371000Y-70064380D01*
X173990047Y-71064380D02*
X173990047Y-70064380D01*
X173990047Y-70540571D02*
X174561476Y-70540571D01*
X174561476Y-71064380D02*
X174561476Y-70064380D01*
X175466238Y-70397714D02*
X175466238Y-71064380D01*
X175228142Y-70016761D02*
X174990047Y-70731047D01*
X175609095Y-70731047D01*
X153888910Y-96952219D02*
X153412720Y-97285552D01*
X153888910Y-97523647D02*
X152888910Y-97523647D01*
X152888910Y-97142695D01*
X152936530Y-97047457D01*
X152984149Y-96999838D01*
X153079387Y-96952219D01*
X153222244Y-96952219D01*
X153317482Y-96999838D01*
X153365101Y-97047457D01*
X153412720Y-97142695D01*
X153412720Y-97523647D01*
X152984149Y-96571266D02*
X152936530Y-96523647D01*
X152888910Y-96428409D01*
X152888910Y-96190314D01*
X152936530Y-96095076D01*
X152984149Y-96047457D01*
X153079387Y-95999838D01*
X153174625Y-95999838D01*
X153317482Y-96047457D01*
X153888910Y-96618885D01*
X153888910Y-95999838D01*
X153888910Y-95047457D02*
X153888910Y-95618885D01*
X153888910Y-95333171D02*
X152888910Y-95333171D01*
X153031768Y-95428409D01*
X153127006Y-95523647D01*
X153174625Y-95618885D01*
X193239380Y-58300857D02*
X192763190Y-58634190D01*
X193239380Y-58872285D02*
X192239380Y-58872285D01*
X192239380Y-58491333D01*
X192287000Y-58396095D01*
X192334619Y-58348476D01*
X192429857Y-58300857D01*
X192572714Y-58300857D01*
X192667952Y-58348476D01*
X192715571Y-58396095D01*
X192763190Y-58491333D01*
X192763190Y-58872285D01*
X193239380Y-57348476D02*
X193239380Y-57919904D01*
X193239380Y-57634190D02*
X192239380Y-57634190D01*
X192382238Y-57729428D01*
X192477476Y-57824666D01*
X192525095Y-57919904D01*
X192239380Y-56443714D02*
X192239380Y-56919904D01*
X192715571Y-56967523D01*
X192667952Y-56919904D01*
X192620333Y-56824666D01*
X192620333Y-56586571D01*
X192667952Y-56491333D01*
X192715571Y-56443714D01*
X192810809Y-56396095D01*
X193048904Y-56396095D01*
X193144142Y-56443714D01*
X193191761Y-56491333D01*
X193239380Y-56586571D01*
X193239380Y-56824666D01*
X193191761Y-56919904D01*
X193144142Y-56967523D01*
X175514686Y-56265367D02*
X175038496Y-56598700D01*
X175514686Y-56836795D02*
X174514686Y-56836795D01*
X174514686Y-56455843D01*
X174562306Y-56360605D01*
X174609925Y-56312986D01*
X174705163Y-56265367D01*
X174848020Y-56265367D01*
X174943258Y-56312986D01*
X174990877Y-56360605D01*
X175038496Y-56455843D01*
X175038496Y-56836795D01*
X175514686Y-55312986D02*
X175514686Y-55884414D01*
X175514686Y-55598700D02*
X174514686Y-55598700D01*
X174657544Y-55693938D01*
X174752782Y-55789176D01*
X174800401Y-55884414D01*
X174514686Y-54979652D02*
X174514686Y-54360605D01*
X174895639Y-54693938D01*
X174895639Y-54551081D01*
X174943258Y-54455843D01*
X174990877Y-54408224D01*
X175086115Y-54360605D01*
X175324210Y-54360605D01*
X175419448Y-54408224D01*
X175467067Y-54455843D01*
X175514686Y-54551081D01*
X175514686Y-54836795D01*
X175467067Y-54932033D01*
X175419448Y-54979652D01*
X146391333Y-86567380D02*
X146058000Y-86091190D01*
X145819904Y-86567380D02*
X145819904Y-85567380D01*
X146200857Y-85567380D01*
X146296095Y-85615000D01*
X146343714Y-85662619D01*
X146391333Y-85757857D01*
X146391333Y-85900714D01*
X146343714Y-85995952D01*
X146296095Y-86043571D01*
X146200857Y-86091190D01*
X145819904Y-86091190D01*
X147248476Y-85567380D02*
X147058000Y-85567380D01*
X146962761Y-85615000D01*
X146915142Y-85662619D01*
X146819904Y-85805476D01*
X146772285Y-85995952D01*
X146772285Y-86376904D01*
X146819904Y-86472142D01*
X146867523Y-86519761D01*
X146962761Y-86567380D01*
X147153238Y-86567380D01*
X147248476Y-86519761D01*
X147296095Y-86472142D01*
X147343714Y-86376904D01*
X147343714Y-86138809D01*
X147296095Y-86043571D01*
X147248476Y-85995952D01*
X147153238Y-85948333D01*
X146962761Y-85948333D01*
X146867523Y-85995952D01*
X146819904Y-86043571D01*
X146772285Y-86138809D01*
X149185333Y-62954380D02*
X148852000Y-62478190D01*
X148613904Y-62954380D02*
X148613904Y-61954380D01*
X148994857Y-61954380D01*
X149090095Y-62002000D01*
X149137714Y-62049619D01*
X149185333Y-62144857D01*
X149185333Y-62287714D01*
X149137714Y-62382952D01*
X149090095Y-62430571D01*
X148994857Y-62478190D01*
X148613904Y-62478190D01*
X150042476Y-62287714D02*
X150042476Y-62954380D01*
X149804380Y-61906761D02*
X149566285Y-62621047D01*
X150185333Y-62621047D01*
X134438380Y-94155666D02*
X133962190Y-94489000D01*
X134438380Y-94727095D02*
X133438380Y-94727095D01*
X133438380Y-94346142D01*
X133486000Y-94250904D01*
X133533619Y-94203285D01*
X133628857Y-94155666D01*
X133771714Y-94155666D01*
X133866952Y-94203285D01*
X133914571Y-94250904D01*
X133962190Y-94346142D01*
X133962190Y-94727095D01*
X133438380Y-93822333D02*
X133438380Y-93203285D01*
X133819333Y-93536619D01*
X133819333Y-93393761D01*
X133866952Y-93298523D01*
X133914571Y-93250904D01*
X134009809Y-93203285D01*
X134247904Y-93203285D01*
X134343142Y-93250904D01*
X134390761Y-93298523D01*
X134438380Y-93393761D01*
X134438380Y-93679476D01*
X134390761Y-93774714D01*
X134343142Y-93822333D01*
X134961333Y-83636380D02*
X134628000Y-83160190D01*
X134389904Y-83636380D02*
X134389904Y-82636380D01*
X134770857Y-82636380D01*
X134866095Y-82684000D01*
X134913714Y-82731619D01*
X134961333Y-82826857D01*
X134961333Y-82969714D01*
X134913714Y-83064952D01*
X134866095Y-83112571D01*
X134770857Y-83160190D01*
X134389904Y-83160190D01*
X135342285Y-82731619D02*
X135389904Y-82684000D01*
X135485142Y-82636380D01*
X135723238Y-82636380D01*
X135818476Y-82684000D01*
X135866095Y-82731619D01*
X135913714Y-82826857D01*
X135913714Y-82922095D01*
X135866095Y-83064952D01*
X135294666Y-83636380D01*
X135913714Y-83636380D01*
X134698333Y-72206380D02*
X134365000Y-71730190D01*
X134126904Y-72206380D02*
X134126904Y-71206380D01*
X134507857Y-71206380D01*
X134603095Y-71254000D01*
X134650714Y-71301619D01*
X134698333Y-71396857D01*
X134698333Y-71539714D01*
X134650714Y-71634952D01*
X134603095Y-71682571D01*
X134507857Y-71730190D01*
X134126904Y-71730190D01*
X135650714Y-72206380D02*
X135079285Y-72206380D01*
X135365000Y-72206380D02*
X135365000Y-71206380D01*
X135269761Y-71349238D01*
X135174523Y-71444476D01*
X135079285Y-71492095D01*
X182657761Y-73953619D02*
X182562523Y-73906000D01*
X182467285Y-73810761D01*
X182324428Y-73667904D01*
X182229190Y-73620285D01*
X182133952Y-73620285D01*
X182181571Y-73858380D02*
X182086333Y-73810761D01*
X181991095Y-73715523D01*
X181943476Y-73525047D01*
X181943476Y-73191714D01*
X181991095Y-73001238D01*
X182086333Y-72906000D01*
X182181571Y-72858380D01*
X182372047Y-72858380D01*
X182467285Y-72906000D01*
X182562523Y-73001238D01*
X182610142Y-73191714D01*
X182610142Y-73525047D01*
X182562523Y-73715523D01*
X182467285Y-73810761D01*
X182372047Y-73858380D01*
X182181571Y-73858380D01*
X183467285Y-73191714D02*
X183467285Y-73858380D01*
X183229190Y-72810761D02*
X182991095Y-73525047D01*
X183610142Y-73525047D01*
X171394380Y-105600190D02*
X170394380Y-105600190D01*
X170870571Y-105600190D02*
X170870571Y-105028761D01*
X171394380Y-105028761D02*
X170394380Y-105028761D01*
X170870571Y-104219238D02*
X170870571Y-104552571D01*
X171394380Y-104552571D02*
X170394380Y-104552571D01*
X170394380Y-104076380D01*
X170727714Y-103266857D02*
X171394380Y-103266857D01*
X170727714Y-103695428D02*
X171251523Y-103695428D01*
X171346761Y-103647809D01*
X171394380Y-103552571D01*
X171394380Y-103409714D01*
X171346761Y-103314476D01*
X171299142Y-103266857D01*
X171346761Y-102838285D02*
X171394380Y-102743047D01*
X171394380Y-102552571D01*
X171346761Y-102457333D01*
X171251523Y-102409714D01*
X171203904Y-102409714D01*
X171108666Y-102457333D01*
X171061047Y-102552571D01*
X171061047Y-102695428D01*
X171013428Y-102790666D01*
X170918190Y-102838285D01*
X170870571Y-102838285D01*
X170775333Y-102790666D01*
X170727714Y-102695428D01*
X170727714Y-102552571D01*
X170775333Y-102457333D01*
X171346761Y-101600190D02*
X171394380Y-101695428D01*
X171394380Y-101885904D01*
X171346761Y-101981142D01*
X171251523Y-102028761D01*
X170870571Y-102028761D01*
X170775333Y-101981142D01*
X170727714Y-101885904D01*
X170727714Y-101695428D01*
X170775333Y-101600190D01*
X170870571Y-101552571D01*
X170965809Y-101552571D01*
X171061047Y-102028761D01*
X171394380Y-100600190D02*
X171394380Y-101171619D01*
X171394380Y-100885904D02*
X170394380Y-100885904D01*
X170537238Y-100981142D01*
X170632476Y-101076380D01*
X170680095Y-101171619D01*
X152197242Y-112115919D02*
X152197242Y-111115919D01*
X152197242Y-111592110D02*
X152768671Y-111592110D01*
X152768671Y-112115919D02*
X152768671Y-111115919D01*
X153578195Y-111592110D02*
X153244862Y-111592110D01*
X153244862Y-112115919D02*
X153244862Y-111115919D01*
X153721052Y-111115919D01*
X154578195Y-112115919D02*
X154102004Y-112115919D01*
X154102004Y-111115919D01*
X154911528Y-111592110D02*
X155244862Y-111592110D01*
X155387719Y-112115919D02*
X154911528Y-112115919D01*
X154911528Y-111115919D01*
X155387719Y-111115919D01*
X155816290Y-112115919D02*
X155816290Y-111115919D01*
X156054385Y-111115919D01*
X156197242Y-111163539D01*
X156292481Y-111258777D01*
X156340100Y-111354015D01*
X156387719Y-111544491D01*
X156387719Y-111687348D01*
X156340100Y-111877824D01*
X156292481Y-111973062D01*
X156197242Y-112068300D01*
X156054385Y-112115919D01*
X155816290Y-112115919D01*
X157340100Y-112115919D02*
X156768671Y-112115919D01*
X157054385Y-112115919D02*
X157054385Y-111115919D01*
X156959147Y-111258777D01*
X156863909Y-111354015D01*
X156768671Y-111401634D01*
X174045571Y-128658666D02*
X174045571Y-128992000D01*
X174569380Y-128992000D02*
X173569380Y-128992000D01*
X173569380Y-128515809D01*
X174569380Y-127992000D02*
X174521761Y-128087238D01*
X174426523Y-128134857D01*
X173569380Y-128134857D01*
X173902714Y-127706285D02*
X174569380Y-127468190D01*
X173902714Y-127230095D02*
X174569380Y-127468190D01*
X174807476Y-127563428D01*
X174855095Y-127611047D01*
X174902714Y-127706285D01*
X174521761Y-126896761D02*
X174569380Y-126753904D01*
X174569380Y-126515809D01*
X174521761Y-126420571D01*
X174474142Y-126372952D01*
X174378904Y-126325333D01*
X174283666Y-126325333D01*
X174188428Y-126372952D01*
X174140809Y-126420571D01*
X174093190Y-126515809D01*
X174045571Y-126706285D01*
X173997952Y-126801523D01*
X173950333Y-126849142D01*
X173855095Y-126896761D01*
X173759857Y-126896761D01*
X173664619Y-126849142D01*
X173617000Y-126801523D01*
X173569380Y-126706285D01*
X173569380Y-126468190D01*
X173617000Y-126325333D01*
X174569380Y-125753904D02*
X174521761Y-125849142D01*
X174474142Y-125896761D01*
X174378904Y-125944380D01*
X174093190Y-125944380D01*
X173997952Y-125896761D01*
X173950333Y-125849142D01*
X173902714Y-125753904D01*
X173902714Y-125611047D01*
X173950333Y-125515809D01*
X173997952Y-125468190D01*
X174093190Y-125420571D01*
X174378904Y-125420571D01*
X174474142Y-125468190D01*
X174521761Y-125515809D01*
X174569380Y-125611047D01*
X174569380Y-125753904D01*
X174569380Y-124849142D02*
X174521761Y-124944380D01*
X174426523Y-124992000D01*
X173569380Y-124992000D01*
X173664619Y-124515809D02*
X173617000Y-124468190D01*
X173569380Y-124372952D01*
X173569380Y-124134857D01*
X173617000Y-124039619D01*
X173664619Y-123992000D01*
X173759857Y-123944380D01*
X173855095Y-123944380D01*
X173997952Y-123992000D01*
X174569380Y-124563428D01*
X174569380Y-123944380D01*
X184713571Y-114180666D02*
X184713571Y-114514000D01*
X185237380Y-114514000D02*
X184237380Y-114514000D01*
X184237380Y-114037809D01*
X185237380Y-113514000D02*
X185189761Y-113609238D01*
X185094523Y-113656857D01*
X184237380Y-113656857D01*
X184570714Y-113228285D02*
X185237380Y-112990190D01*
X184570714Y-112752095D02*
X185237380Y-112990190D01*
X185475476Y-113085428D01*
X185523095Y-113133047D01*
X185570714Y-113228285D01*
X185189761Y-112418761D02*
X185237380Y-112275904D01*
X185237380Y-112037809D01*
X185189761Y-111942571D01*
X185142142Y-111894952D01*
X185046904Y-111847333D01*
X184951666Y-111847333D01*
X184856428Y-111894952D01*
X184808809Y-111942571D01*
X184761190Y-112037809D01*
X184713571Y-112228285D01*
X184665952Y-112323523D01*
X184618333Y-112371142D01*
X184523095Y-112418761D01*
X184427857Y-112418761D01*
X184332619Y-112371142D01*
X184285000Y-112323523D01*
X184237380Y-112228285D01*
X184237380Y-111990190D01*
X184285000Y-111847333D01*
X185237380Y-111275904D02*
X185189761Y-111371142D01*
X185142142Y-111418761D01*
X185046904Y-111466380D01*
X184761190Y-111466380D01*
X184665952Y-111418761D01*
X184618333Y-111371142D01*
X184570714Y-111275904D01*
X184570714Y-111133047D01*
X184618333Y-111037809D01*
X184665952Y-110990190D01*
X184761190Y-110942571D01*
X185046904Y-110942571D01*
X185142142Y-110990190D01*
X185189761Y-111037809D01*
X185237380Y-111133047D01*
X185237380Y-111275904D01*
X185237380Y-110371142D02*
X185189761Y-110466380D01*
X185094523Y-110514000D01*
X184237380Y-110514000D01*
X185237380Y-109466380D02*
X185237380Y-110037809D01*
X185237380Y-109752095D02*
X184237380Y-109752095D01*
X184380238Y-109847333D01*
X184475476Y-109942571D01*
X184523095Y-110037809D01*
X150619380Y-96877095D02*
X149619380Y-96877095D01*
X149619380Y-96639000D01*
X149667000Y-96496142D01*
X149762238Y-96400904D01*
X149857476Y-96353285D01*
X150047952Y-96305666D01*
X150190809Y-96305666D01*
X150381285Y-96353285D01*
X150476523Y-96400904D01*
X150571761Y-96496142D01*
X150619380Y-96639000D01*
X150619380Y-96877095D01*
X149619380Y-95400904D02*
X149619380Y-95877095D01*
X150095571Y-95924714D01*
X150047952Y-95877095D01*
X150000333Y-95781857D01*
X150000333Y-95543761D01*
X150047952Y-95448523D01*
X150095571Y-95400904D01*
X150190809Y-95353285D01*
X150428904Y-95353285D01*
X150524142Y-95400904D01*
X150571761Y-95448523D01*
X150619380Y-95543761D01*
X150619380Y-95781857D01*
X150571761Y-95877095D01*
X150524142Y-95924714D01*
X152563870Y-52540922D02*
X152563870Y-51540922D01*
X152801966Y-51540922D01*
X152944823Y-51588542D01*
X153040061Y-51683780D01*
X153087680Y-51779018D01*
X153135299Y-51969494D01*
X153135299Y-52112351D01*
X153087680Y-52302827D01*
X153040061Y-52398065D01*
X152944823Y-52493303D01*
X152801966Y-52540922D01*
X152563870Y-52540922D01*
X153992442Y-51874256D02*
X153992442Y-52540922D01*
X153754346Y-51493303D02*
X153516251Y-52207589D01*
X154135299Y-52207589D01*
X154790142Y-94028666D02*
X154837761Y-94076285D01*
X154885380Y-94219142D01*
X154885380Y-94314380D01*
X154837761Y-94457238D01*
X154742523Y-94552476D01*
X154647285Y-94600095D01*
X154456809Y-94647714D01*
X154313952Y-94647714D01*
X154123476Y-94600095D01*
X154028238Y-94552476D01*
X153933000Y-94457238D01*
X153885380Y-94314380D01*
X153885380Y-94219142D01*
X153933000Y-94076285D01*
X153980619Y-94028666D01*
X154218714Y-93171523D02*
X154885380Y-93171523D01*
X153837761Y-93409619D02*
X154552047Y-93647714D01*
X154552047Y-93028666D01*
X165831333Y-94592142D02*
X165783714Y-94639761D01*
X165640857Y-94687380D01*
X165545619Y-94687380D01*
X165402761Y-94639761D01*
X165307523Y-94544523D01*
X165259904Y-94449285D01*
X165212285Y-94258809D01*
X165212285Y-94115952D01*
X165259904Y-93925476D01*
X165307523Y-93830238D01*
X165402761Y-93735000D01*
X165545619Y-93687380D01*
X165640857Y-93687380D01*
X165783714Y-93735000D01*
X165831333Y-93782619D01*
X166164666Y-93687380D02*
X166783714Y-93687380D01*
X166450380Y-94068333D01*
X166593238Y-94068333D01*
X166688476Y-94115952D01*
X166736095Y-94163571D01*
X166783714Y-94258809D01*
X166783714Y-94496904D01*
X166736095Y-94592142D01*
X166688476Y-94639761D01*
X166593238Y-94687380D01*
X166307523Y-94687380D01*
X166212285Y-94639761D01*
X166164666Y-94592142D01*
X193144142Y-65707666D02*
X193191761Y-65755285D01*
X193239380Y-65898142D01*
X193239380Y-65993380D01*
X193191761Y-66136238D01*
X193096523Y-66231476D01*
X193001285Y-66279095D01*
X192810809Y-66326714D01*
X192667952Y-66326714D01*
X192477476Y-66279095D01*
X192382238Y-66231476D01*
X192287000Y-66136238D01*
X192239380Y-65993380D01*
X192239380Y-65898142D01*
X192287000Y-65755285D01*
X192334619Y-65707666D01*
X192334619Y-65326714D02*
X192287000Y-65279095D01*
X192239380Y-65183857D01*
X192239380Y-64945761D01*
X192287000Y-64850523D01*
X192334619Y-64802904D01*
X192429857Y-64755285D01*
X192525095Y-64755285D01*
X192667952Y-64802904D01*
X193239380Y-65374333D01*
X193239380Y-64755285D01*
X193095571Y-78342904D02*
X193143190Y-78200047D01*
X193190809Y-78152428D01*
X193286047Y-78104809D01*
X193428904Y-78104809D01*
X193524142Y-78152428D01*
X193571761Y-78200047D01*
X193619380Y-78295285D01*
X193619380Y-78676238D01*
X192619380Y-78676238D01*
X192619380Y-78342904D01*
X192667000Y-78247666D01*
X192714619Y-78200047D01*
X192809857Y-78152428D01*
X192905095Y-78152428D01*
X193000333Y-78200047D01*
X193047952Y-78247666D01*
X193095571Y-78342904D01*
X193095571Y-78676238D01*
X193619380Y-77200047D02*
X193619380Y-77676238D01*
X192619380Y-77676238D01*
X193095571Y-76866714D02*
X193095571Y-76533380D01*
X193619380Y-76390523D02*
X193619380Y-76866714D01*
X192619380Y-76866714D01*
X192619380Y-76390523D01*
X193619380Y-75961952D02*
X192619380Y-75961952D01*
X192619380Y-75723857D01*
X192667000Y-75581000D01*
X192762238Y-75485761D01*
X192857476Y-75438142D01*
X193047952Y-75390523D01*
X193190809Y-75390523D01*
X193381285Y-75438142D01*
X193476523Y-75485761D01*
X193571761Y-75581000D01*
X193619380Y-75723857D01*
X193619380Y-75961952D01*
X193619380Y-74438142D02*
X193619380Y-75009571D01*
X193619380Y-74723857D02*
X192619380Y-74723857D01*
X192762238Y-74819095D01*
X192857476Y-74914333D01*
X192905095Y-75009571D01*
X167747380Y-54108095D02*
X166747380Y-54108095D01*
X166747380Y-53870000D01*
X166795000Y-53727142D01*
X166890238Y-53631904D01*
X166985476Y-53584285D01*
X167175952Y-53536666D01*
X167318809Y-53536666D01*
X167509285Y-53584285D01*
X167604523Y-53631904D01*
X167699761Y-53727142D01*
X167747380Y-53870000D01*
X167747380Y-54108095D01*
X166747380Y-53203333D02*
X166747380Y-52584285D01*
X167128333Y-52917619D01*
X167128333Y-52774761D01*
X167175952Y-52679523D01*
X167223571Y-52631904D01*
X167318809Y-52584285D01*
X167556904Y-52584285D01*
X167652142Y-52631904D01*
X167699761Y-52679523D01*
X167747380Y-52774761D01*
X167747380Y-53060476D01*
X167699761Y-53155714D01*
X167652142Y-53203333D01*
X140636666Y-50252380D02*
X140636666Y-50966666D01*
X140589047Y-51109523D01*
X140493809Y-51204761D01*
X140350952Y-51252380D01*
X140255714Y-51252380D01*
X141065238Y-50347619D02*
X141112857Y-50300000D01*
X141208095Y-50252380D01*
X141446190Y-50252380D01*
X141541428Y-50300000D01*
X141589047Y-50347619D01*
X141636666Y-50442857D01*
X141636666Y-50538095D01*
X141589047Y-50680952D01*
X141017619Y-51252380D01*
X141636666Y-51252380D01*
X174563525Y-92106500D02*
X175134954Y-92106500D01*
X174849240Y-93106500D02*
X174849240Y-92106500D01*
X175468287Y-93106500D02*
X175468287Y-92106500D01*
X175468287Y-92582691D02*
X176039716Y-92582691D01*
X176039716Y-93106500D02*
X176039716Y-92106500D01*
X176944478Y-92106500D02*
X176754001Y-92106500D01*
X176658763Y-92154120D01*
X176611144Y-92201739D01*
X176515906Y-92344596D01*
X176468287Y-92535072D01*
X176468287Y-92916024D01*
X176515906Y-93011262D01*
X176563525Y-93058881D01*
X176658763Y-93106500D01*
X176849240Y-93106500D01*
X176944478Y-93058881D01*
X176992097Y-93011262D01*
X177039716Y-92916024D01*
X177039716Y-92677929D01*
X176992097Y-92582691D01*
X176944478Y-92535072D01*
X176849240Y-92487453D01*
X176658763Y-92487453D01*
X176563525Y-92535072D01*
X176515906Y-92582691D01*
X176468287Y-92677929D01*
X174172365Y-81021940D02*
X174743794Y-81021940D01*
X174458080Y-82021940D02*
X174458080Y-81021940D01*
X175077127Y-82021940D02*
X175077127Y-81021940D01*
X175077127Y-81498131D02*
X175648556Y-81498131D01*
X175648556Y-82021940D02*
X175648556Y-81021940D01*
X176600937Y-81021940D02*
X176124746Y-81021940D01*
X176077127Y-81498131D01*
X176124746Y-81450512D01*
X176219984Y-81402893D01*
X176458080Y-81402893D01*
X176553318Y-81450512D01*
X176600937Y-81498131D01*
X176648556Y-81593369D01*
X176648556Y-81831464D01*
X176600937Y-81926702D01*
X176553318Y-81974321D01*
X176458080Y-82021940D01*
X176219984Y-82021940D01*
X176124746Y-81974321D01*
X176077127Y-81926702D01*
X143748285Y-89622380D02*
X144319714Y-89622380D01*
X144034000Y-90622380D02*
X144034000Y-89622380D01*
X144653047Y-90622380D02*
X144653047Y-89622380D01*
X144653047Y-90098571D02*
X145224476Y-90098571D01*
X145224476Y-90622380D02*
X145224476Y-89622380D01*
X145605428Y-89622380D02*
X146224476Y-89622380D01*
X145891142Y-90003333D01*
X146034000Y-90003333D01*
X146129238Y-90050952D01*
X146176857Y-90098571D01*
X146224476Y-90193809D01*
X146224476Y-90431904D01*
X146176857Y-90527142D01*
X146129238Y-90574761D01*
X146034000Y-90622380D01*
X145748285Y-90622380D01*
X145653047Y-90574761D01*
X145605428Y-90527142D01*
X143733005Y-77506580D02*
X144304434Y-77506580D01*
X144018720Y-78506580D02*
X144018720Y-77506580D01*
X144637767Y-78506580D02*
X144637767Y-77506580D01*
X144637767Y-77982771D02*
X145209196Y-77982771D01*
X145209196Y-78506580D02*
X145209196Y-77506580D01*
X145637767Y-77601819D02*
X145685386Y-77554200D01*
X145780624Y-77506580D01*
X146018720Y-77506580D01*
X146113958Y-77554200D01*
X146161577Y-77601819D01*
X146209196Y-77697057D01*
X146209196Y-77792295D01*
X146161577Y-77935152D01*
X145590148Y-78506580D01*
X146209196Y-78506580D01*
X143545085Y-63602620D02*
X144116514Y-63602620D01*
X143830800Y-64602620D02*
X143830800Y-63602620D01*
X144449847Y-64602620D02*
X144449847Y-63602620D01*
X144449847Y-64078811D02*
X145021276Y-64078811D01*
X145021276Y-64602620D02*
X145021276Y-63602620D01*
X146021276Y-64602620D02*
X145449847Y-64602620D01*
X145735561Y-64602620D02*
X145735561Y-63602620D01*
X145640323Y-63745478D01*
X145545085Y-63840716D01*
X145449847Y-63888335D01*
X159215864Y-58298340D02*
X159215864Y-57298340D01*
X159453960Y-57298340D01*
X159596817Y-57345960D01*
X159692055Y-57441198D01*
X159739674Y-57536436D01*
X159787293Y-57726912D01*
X159787293Y-57869769D01*
X159739674Y-58060245D01*
X159692055Y-58155483D01*
X159596817Y-58250721D01*
X159453960Y-58298340D01*
X159215864Y-58298340D01*
X160168245Y-57393579D02*
X160215864Y-57345960D01*
X160311102Y-57298340D01*
X160549198Y-57298340D01*
X160644436Y-57345960D01*
X160692055Y-57393579D01*
X160739674Y-57488817D01*
X160739674Y-57584055D01*
X160692055Y-57726912D01*
X160120626Y-58298340D01*
X160739674Y-58298340D01*
X162554600Y-55459380D02*
X162554600Y-55697476D01*
X162316504Y-55602238D02*
X162554600Y-55697476D01*
X162792695Y-55602238D01*
X162411742Y-55887952D02*
X162554600Y-55697476D01*
X162697457Y-55887952D01*
X162554600Y-55459380D02*
X162554600Y-55697476D01*
X162316504Y-55602238D02*
X162554600Y-55697476D01*
X162792695Y-55602238D01*
X162411742Y-55887952D02*
X162554600Y-55697476D01*
X162697457Y-55887952D01*
X134697584Y-64414660D02*
X134697584Y-63414660D01*
X134935680Y-63414660D01*
X135078537Y-63462280D01*
X135173775Y-63557518D01*
X135221394Y-63652756D01*
X135269013Y-63843232D01*
X135269013Y-63986089D01*
X135221394Y-64176565D01*
X135173775Y-64271803D01*
X135078537Y-64367041D01*
X134935680Y-64414660D01*
X134697584Y-64414660D01*
X136221394Y-64414660D02*
X135649965Y-64414660D01*
X135935680Y-64414660D02*
X135935680Y-63414660D01*
X135840441Y-63557518D01*
X135745203Y-63652756D01*
X135649965Y-63700375D01*
X138168400Y-61428380D02*
X138168400Y-61666476D01*
X137930304Y-61571238D02*
X138168400Y-61666476D01*
X138406495Y-61571238D01*
X138025542Y-61856952D02*
X138168400Y-61666476D01*
X138311257Y-61856952D01*
X138168400Y-61428380D02*
X138168400Y-61666476D01*
X137930304Y-61571238D02*
X138168400Y-61666476D01*
X138406495Y-61571238D01*
X138025542Y-61856952D02*
X138168400Y-61666476D01*
X138311257Y-61856952D01*
X175458380Y-51823857D02*
X174982190Y-52157190D01*
X175458380Y-52395285D02*
X174458380Y-52395285D01*
X174458380Y-52014333D01*
X174506000Y-51919095D01*
X174553619Y-51871476D01*
X174648857Y-51823857D01*
X174791714Y-51823857D01*
X174886952Y-51871476D01*
X174934571Y-51919095D01*
X174982190Y-52014333D01*
X174982190Y-52395285D01*
X175458380Y-50871476D02*
X175458380Y-51442904D01*
X175458380Y-51157190D02*
X174458380Y-51157190D01*
X174601238Y-51252428D01*
X174696476Y-51347666D01*
X174744095Y-51442904D01*
X174791714Y-50014333D02*
X175458380Y-50014333D01*
X174410761Y-50252428D02*
X175125047Y-50490523D01*
X175125047Y-49871476D01*
X173553380Y-88399857D02*
X173077190Y-88733190D01*
X173553380Y-88971285D02*
X172553380Y-88971285D01*
X172553380Y-88590333D01*
X172601000Y-88495095D01*
X172648619Y-88447476D01*
X172743857Y-88399857D01*
X172886714Y-88399857D01*
X172981952Y-88447476D01*
X173029571Y-88495095D01*
X173077190Y-88590333D01*
X173077190Y-88971285D01*
X173553380Y-87447476D02*
X173553380Y-88018904D01*
X173553380Y-87733190D02*
X172553380Y-87733190D01*
X172696238Y-87828428D01*
X172791476Y-87923666D01*
X172839095Y-88018904D01*
X172648619Y-87066523D02*
X172601000Y-87018904D01*
X172553380Y-86923666D01*
X172553380Y-86685571D01*
X172601000Y-86590333D01*
X172648619Y-86542714D01*
X172743857Y-86495095D01*
X172839095Y-86495095D01*
X172981952Y-86542714D01*
X173553380Y-87114142D01*
X173553380Y-86495095D01*
X171140380Y-76742857D02*
X170664190Y-77076190D01*
X171140380Y-77314285D02*
X170140380Y-77314285D01*
X170140380Y-76933333D01*
X170188000Y-76838095D01*
X170235619Y-76790476D01*
X170330857Y-76742857D01*
X170473714Y-76742857D01*
X170568952Y-76790476D01*
X170616571Y-76838095D01*
X170664190Y-76933333D01*
X170664190Y-77314285D01*
X171140380Y-75790476D02*
X171140380Y-76361904D01*
X171140380Y-76076190D02*
X170140380Y-76076190D01*
X170283238Y-76171428D01*
X170378476Y-76266666D01*
X170426095Y-76361904D01*
X171140380Y-74838095D02*
X171140380Y-75409523D01*
X171140380Y-75123809D02*
X170140380Y-75123809D01*
X170283238Y-75219047D01*
X170378476Y-75314285D01*
X170426095Y-75409523D01*
X170680142Y-68523380D02*
X170346809Y-68047190D01*
X170108714Y-68523380D02*
X170108714Y-67523380D01*
X170489666Y-67523380D01*
X170584904Y-67571000D01*
X170632523Y-67618619D01*
X170680142Y-67713857D01*
X170680142Y-67856714D01*
X170632523Y-67951952D01*
X170584904Y-67999571D01*
X170489666Y-68047190D01*
X170108714Y-68047190D01*
X171632523Y-68523380D02*
X171061095Y-68523380D01*
X171346809Y-68523380D02*
X171346809Y-67523380D01*
X171251571Y-67666238D01*
X171156333Y-67761476D01*
X171061095Y-67809095D01*
X172251571Y-67523380D02*
X172346809Y-67523380D01*
X172442047Y-67571000D01*
X172489666Y-67618619D01*
X172537285Y-67713857D01*
X172584904Y-67904333D01*
X172584904Y-68142428D01*
X172537285Y-68332904D01*
X172489666Y-68428142D01*
X172442047Y-68475761D01*
X172346809Y-68523380D01*
X172251571Y-68523380D01*
X172156333Y-68475761D01*
X172108714Y-68428142D01*
X172061095Y-68332904D01*
X172013476Y-68142428D01*
X172013476Y-67904333D01*
X172061095Y-67713857D01*
X172108714Y-67618619D01*
X172156333Y-67571000D01*
X172251571Y-67523380D01*
X186254380Y-95162666D02*
X185778190Y-95496000D01*
X186254380Y-95734095D02*
X185254380Y-95734095D01*
X185254380Y-95353142D01*
X185302000Y-95257904D01*
X185349619Y-95210285D01*
X185444857Y-95162666D01*
X185587714Y-95162666D01*
X185682952Y-95210285D01*
X185730571Y-95257904D01*
X185778190Y-95353142D01*
X185778190Y-95734095D01*
X186254380Y-94686476D02*
X186254380Y-94496000D01*
X186206761Y-94400761D01*
X186159142Y-94353142D01*
X186016285Y-94257904D01*
X185825809Y-94210285D01*
X185444857Y-94210285D01*
X185349619Y-94257904D01*
X185302000Y-94305523D01*
X185254380Y-94400761D01*
X185254380Y-94591238D01*
X185302000Y-94686476D01*
X185349619Y-94734095D01*
X185444857Y-94781714D01*
X185682952Y-94781714D01*
X185778190Y-94734095D01*
X185825809Y-94686476D01*
X185873428Y-94591238D01*
X185873428Y-94400761D01*
X185825809Y-94305523D01*
X185778190Y-94257904D01*
X185682952Y-94210285D01*
X184745333Y-80607380D02*
X184412000Y-80131190D01*
X184173904Y-80607380D02*
X184173904Y-79607380D01*
X184554857Y-79607380D01*
X184650095Y-79655000D01*
X184697714Y-79702619D01*
X184745333Y-79797857D01*
X184745333Y-79940714D01*
X184697714Y-80035952D01*
X184650095Y-80083571D01*
X184554857Y-80131190D01*
X184173904Y-80131190D01*
X185316761Y-80035952D02*
X185221523Y-79988333D01*
X185173904Y-79940714D01*
X185126285Y-79845476D01*
X185126285Y-79797857D01*
X185173904Y-79702619D01*
X185221523Y-79655000D01*
X185316761Y-79607380D01*
X185507238Y-79607380D01*
X185602476Y-79655000D01*
X185650095Y-79702619D01*
X185697714Y-79797857D01*
X185697714Y-79845476D01*
X185650095Y-79940714D01*
X185602476Y-79988333D01*
X185507238Y-80035952D01*
X185316761Y-80035952D01*
X185221523Y-80083571D01*
X185173904Y-80131190D01*
X185126285Y-80226428D01*
X185126285Y-80416904D01*
X185173904Y-80512142D01*
X185221523Y-80559761D01*
X185316761Y-80607380D01*
X185507238Y-80607380D01*
X185602476Y-80559761D01*
X185650095Y-80512142D01*
X185697714Y-80416904D01*
X185697714Y-80226428D01*
X185650095Y-80131190D01*
X185602476Y-80083571D01*
X185507238Y-80035952D01*
X184745333Y-68016380D02*
X184412000Y-67540190D01*
X184173904Y-68016380D02*
X184173904Y-67016380D01*
X184554857Y-67016380D01*
X184650095Y-67064000D01*
X184697714Y-67111619D01*
X184745333Y-67206857D01*
X184745333Y-67349714D01*
X184697714Y-67444952D01*
X184650095Y-67492571D01*
X184554857Y-67540190D01*
X184173904Y-67540190D01*
X185078666Y-67016380D02*
X185745333Y-67016380D01*
X185316761Y-68016380D01*
X144178459Y-94126038D02*
X144130840Y-94221276D01*
X144035601Y-94316514D01*
X143892744Y-94459371D01*
X143845125Y-94554609D01*
X143845125Y-94649847D01*
X144083220Y-94602228D02*
X144035601Y-94697466D01*
X143940363Y-94792704D01*
X143749887Y-94840323D01*
X143416554Y-94840323D01*
X143226078Y-94792704D01*
X143130840Y-94697466D01*
X143083220Y-94602228D01*
X143083220Y-94411752D01*
X143130840Y-94316514D01*
X143226078Y-94221276D01*
X143416554Y-94173657D01*
X143749887Y-94173657D01*
X143940363Y-94221276D01*
X144035601Y-94316514D01*
X144083220Y-94411752D01*
X144083220Y-94602228D01*
X143083220Y-93840323D02*
X143083220Y-93221276D01*
X143464173Y-93554609D01*
X143464173Y-93411752D01*
X143511792Y-93316514D01*
X143559411Y-93268895D01*
X143654649Y-93221276D01*
X143892744Y-93221276D01*
X143987982Y-93268895D01*
X144035601Y-93316514D01*
X144083220Y-93411752D01*
X144083220Y-93697466D01*
X144035601Y-93792704D01*
X143987982Y-93840323D01*
X143721259Y-81832438D02*
X143673640Y-81927676D01*
X143578401Y-82022914D01*
X143435544Y-82165771D01*
X143387925Y-82261009D01*
X143387925Y-82356247D01*
X143626020Y-82308628D02*
X143578401Y-82403866D01*
X143483163Y-82499104D01*
X143292687Y-82546723D01*
X142959354Y-82546723D01*
X142768878Y-82499104D01*
X142673640Y-82403866D01*
X142626020Y-82308628D01*
X142626020Y-82118152D01*
X142673640Y-82022914D01*
X142768878Y-81927676D01*
X142959354Y-81880057D01*
X143292687Y-81880057D01*
X143483163Y-81927676D01*
X143578401Y-82022914D01*
X143626020Y-82118152D01*
X143626020Y-82308628D01*
X142721259Y-81499104D02*
X142673640Y-81451485D01*
X142626020Y-81356247D01*
X142626020Y-81118152D01*
X142673640Y-81022914D01*
X142721259Y-80975295D01*
X142816497Y-80927676D01*
X142911735Y-80927676D01*
X143054592Y-80975295D01*
X143626020Y-81546723D01*
X143626020Y-80927676D01*
X143563779Y-70260198D02*
X143516160Y-70355436D01*
X143420921Y-70450674D01*
X143278064Y-70593531D01*
X143230445Y-70688769D01*
X143230445Y-70784007D01*
X143468540Y-70736388D02*
X143420921Y-70831626D01*
X143325683Y-70926864D01*
X143135207Y-70974483D01*
X142801874Y-70974483D01*
X142611398Y-70926864D01*
X142516160Y-70831626D01*
X142468540Y-70736388D01*
X142468540Y-70545912D01*
X142516160Y-70450674D01*
X142611398Y-70355436D01*
X142801874Y-70307817D01*
X143135207Y-70307817D01*
X143325683Y-70355436D01*
X143420921Y-70450674D01*
X143468540Y-70545912D01*
X143468540Y-70736388D01*
X143468540Y-69355436D02*
X143468540Y-69926864D01*
X143468540Y-69641150D02*
X142468540Y-69641150D01*
X142611398Y-69736388D01*
X142706636Y-69831626D01*
X142754255Y-69926864D01*
X182220142Y-59865666D02*
X182267761Y-59913285D01*
X182315380Y-60056142D01*
X182315380Y-60151380D01*
X182267761Y-60294238D01*
X182172523Y-60389476D01*
X182077285Y-60437095D01*
X181886809Y-60484714D01*
X181743952Y-60484714D01*
X181553476Y-60437095D01*
X181458238Y-60389476D01*
X181363000Y-60294238D01*
X181315380Y-60151380D01*
X181315380Y-60056142D01*
X181363000Y-59913285D01*
X181410619Y-59865666D01*
X182315380Y-58913285D02*
X182315380Y-59484714D01*
X182315380Y-59199000D02*
X181315380Y-59199000D01*
X181458238Y-59294238D01*
X181553476Y-59389476D01*
X181601095Y-59484714D01*
X184689761Y-97702619D02*
X184594523Y-97655000D01*
X184499285Y-97559761D01*
X184356428Y-97416904D01*
X184261190Y-97369285D01*
X184165952Y-97369285D01*
X184213571Y-97607380D02*
X184118333Y-97559761D01*
X184023095Y-97464523D01*
X183975476Y-97274047D01*
X183975476Y-96940714D01*
X184023095Y-96750238D01*
X184118333Y-96655000D01*
X184213571Y-96607380D01*
X184404047Y-96607380D01*
X184499285Y-96655000D01*
X184594523Y-96750238D01*
X184642142Y-96940714D01*
X184642142Y-97274047D01*
X184594523Y-97464523D01*
X184499285Y-97559761D01*
X184404047Y-97607380D01*
X184213571Y-97607380D01*
X185499285Y-96607380D02*
X185308809Y-96607380D01*
X185213571Y-96655000D01*
X185165952Y-96702619D01*
X185070714Y-96845476D01*
X185023095Y-97035952D01*
X185023095Y-97416904D01*
X185070714Y-97512142D01*
X185118333Y-97559761D01*
X185213571Y-97607380D01*
X185404047Y-97607380D01*
X185499285Y-97559761D01*
X185546904Y-97512142D01*
X185594523Y-97416904D01*
X185594523Y-97178809D01*
X185546904Y-97083571D01*
X185499285Y-97035952D01*
X185404047Y-96988333D01*
X185213571Y-96988333D01*
X185118333Y-97035952D01*
X185070714Y-97083571D01*
X185023095Y-97178809D01*
X178063013Y-103724978D02*
X178110632Y-103629740D01*
X178110632Y-103439264D01*
X178063013Y-103344026D01*
X177967775Y-103296407D01*
X177920156Y-103296407D01*
X177824918Y-103344026D01*
X177777299Y-103439264D01*
X177777299Y-103582121D01*
X177729680Y-103677359D01*
X177634442Y-103724978D01*
X177586823Y-103724978D01*
X177491585Y-103677359D01*
X177443966Y-103582121D01*
X177443966Y-103439264D01*
X177491585Y-103344026D01*
X178110632Y-102724978D02*
X178063013Y-102820217D01*
X178015394Y-102867836D01*
X177920156Y-102915455D01*
X177634442Y-102915455D01*
X177539204Y-102867836D01*
X177491585Y-102820217D01*
X177443966Y-102724978D01*
X177443966Y-102582121D01*
X177491585Y-102486883D01*
X177539204Y-102439264D01*
X177634442Y-102391645D01*
X177920156Y-102391645D01*
X178015394Y-102439264D01*
X178063013Y-102486883D01*
X178110632Y-102582121D01*
X178110632Y-102724978D01*
X178110632Y-101820217D02*
X178063013Y-101915455D01*
X177967775Y-101963074D01*
X177110632Y-101963074D01*
X178110632Y-100915455D02*
X178110632Y-101486883D01*
X178110632Y-101201169D02*
X177110632Y-101201169D01*
X177253490Y-101296407D01*
X177348728Y-101391645D01*
X177396347Y-101486883D01*
X148486761Y-124467761D02*
X148534380Y-124372523D01*
X148534380Y-124182047D01*
X148486761Y-124086809D01*
X148391523Y-124039190D01*
X148343904Y-124039190D01*
X148248666Y-124086809D01*
X148201047Y-124182047D01*
X148201047Y-124324904D01*
X148153428Y-124420142D01*
X148058190Y-124467761D01*
X148010571Y-124467761D01*
X147915333Y-124420142D01*
X147867714Y-124324904D01*
X147867714Y-124182047D01*
X147915333Y-124086809D01*
X148534380Y-123467761D02*
X148486761Y-123563000D01*
X148439142Y-123610619D01*
X148343904Y-123658238D01*
X148058190Y-123658238D01*
X147962952Y-123610619D01*
X147915333Y-123563000D01*
X147867714Y-123467761D01*
X147867714Y-123324904D01*
X147915333Y-123229666D01*
X147962952Y-123182047D01*
X148058190Y-123134428D01*
X148343904Y-123134428D01*
X148439142Y-123182047D01*
X148486761Y-123229666D01*
X148534380Y-123324904D01*
X148534380Y-123467761D01*
X148534380Y-122563000D02*
X148486761Y-122658238D01*
X148391523Y-122705857D01*
X147534380Y-122705857D01*
X147629619Y-122229666D02*
X147582000Y-122182047D01*
X147534380Y-122086809D01*
X147534380Y-121848714D01*
X147582000Y-121753476D01*
X147629619Y-121705857D01*
X147724857Y-121658238D01*
X147820095Y-121658238D01*
X147962952Y-121705857D01*
X148534380Y-122277285D01*
X148534380Y-121658238D01*
D17*
X192592335Y-126190901D02*
X192592335Y-125947092D01*
X192379001Y-126099473D02*
X192927573Y-126099473D01*
X192988525Y-126068996D01*
X193019001Y-126008044D01*
X193019001Y-125947092D01*
X193019001Y-125733758D02*
X192592335Y-125733758D01*
X192714239Y-125733758D02*
X192653287Y-125703282D01*
X192622811Y-125672806D01*
X192592335Y-125611854D01*
X192592335Y-125550901D01*
X192988525Y-125093758D02*
X193019001Y-125154711D01*
X193019001Y-125276615D01*
X192988525Y-125337568D01*
X192927573Y-125368044D01*
X192683763Y-125368044D01*
X192622811Y-125337568D01*
X192592335Y-125276615D01*
X192592335Y-125154711D01*
X192622811Y-125093758D01*
X192683763Y-125063282D01*
X192744716Y-125063282D01*
X192805668Y-125368044D01*
X192988525Y-124819473D02*
X193019001Y-124758520D01*
X193019001Y-124636615D01*
X192988525Y-124575663D01*
X192927573Y-124545187D01*
X192897097Y-124545187D01*
X192836144Y-124575663D01*
X192805668Y-124636615D01*
X192805668Y-124728044D01*
X192775192Y-124788996D01*
X192714239Y-124819473D01*
X192683763Y-124819473D01*
X192622811Y-124788996D01*
X192592335Y-124728044D01*
X192592335Y-124636615D01*
X192622811Y-124575663D01*
X193019001Y-123935663D02*
X193019001Y-124301377D01*
X193019001Y-124118520D02*
X192379001Y-124118520D01*
X192470430Y-124179473D01*
X192531382Y-124240425D01*
X192561858Y-124301377D01*
X192988525Y-123691854D02*
X193019001Y-123630901D01*
X193019001Y-123508996D01*
X192988525Y-123448044D01*
X192927573Y-123417568D01*
X192897097Y-123417568D01*
X192836144Y-123448044D01*
X192805668Y-123508996D01*
X192805668Y-123600425D01*
X192775192Y-123661377D01*
X192714239Y-123691854D01*
X192683763Y-123691854D01*
X192622811Y-123661377D01*
X192592335Y-123600425D01*
X192592335Y-123508996D01*
X192622811Y-123448044D01*
X193019001Y-123051854D02*
X192988525Y-123112806D01*
X192958049Y-123143282D01*
X192897097Y-123173758D01*
X192714239Y-123173758D01*
X192653287Y-123143282D01*
X192622811Y-123112806D01*
X192592335Y-123051854D01*
X192592335Y-122960425D01*
X192622811Y-122899473D01*
X192653287Y-122868996D01*
X192714239Y-122838520D01*
X192897097Y-122838520D01*
X192958049Y-122868996D01*
X192988525Y-122899473D01*
X193019001Y-122960425D01*
X193019001Y-123051854D01*
X193019001Y-122472806D02*
X192988525Y-122533758D01*
X192927573Y-122564234D01*
X192379001Y-122564234D01*
X193019001Y-121893758D02*
X193019001Y-122259473D01*
X193019001Y-122076615D02*
X192379001Y-122076615D01*
X192470430Y-122137568D01*
X192531382Y-122198520D01*
X192561858Y-122259473D01*
X164015952Y-119728257D02*
X164259761Y-119728257D01*
X164107380Y-119514923D02*
X164107380Y-120063495D01*
X164137857Y-120124447D01*
X164198809Y-120154923D01*
X164259761Y-120154923D01*
X164473095Y-120154923D02*
X164473095Y-119728257D01*
X164473095Y-119850161D02*
X164503571Y-119789209D01*
X164534047Y-119758733D01*
X164595000Y-119728257D01*
X164655952Y-119728257D01*
X165113095Y-120124447D02*
X165052142Y-120154923D01*
X164930238Y-120154923D01*
X164869285Y-120124447D01*
X164838809Y-120063495D01*
X164838809Y-119819685D01*
X164869285Y-119758733D01*
X164930238Y-119728257D01*
X165052142Y-119728257D01*
X165113095Y-119758733D01*
X165143571Y-119819685D01*
X165143571Y-119880638D01*
X164838809Y-119941590D01*
X165387380Y-120124447D02*
X165448333Y-120154923D01*
X165570238Y-120154923D01*
X165631190Y-120124447D01*
X165661666Y-120063495D01*
X165661666Y-120033019D01*
X165631190Y-119972066D01*
X165570238Y-119941590D01*
X165478809Y-119941590D01*
X165417857Y-119911114D01*
X165387380Y-119850161D01*
X165387380Y-119819685D01*
X165417857Y-119758733D01*
X165478809Y-119728257D01*
X165570238Y-119728257D01*
X165631190Y-119758733D01*
X166271190Y-120154923D02*
X165905476Y-120154923D01*
X166088333Y-120154923D02*
X166088333Y-119514923D01*
X166027380Y-119606352D01*
X165966428Y-119667304D01*
X165905476Y-119697780D01*
X166515000Y-120124447D02*
X166575952Y-120154923D01*
X166697857Y-120154923D01*
X166758809Y-120124447D01*
X166789285Y-120063495D01*
X166789285Y-120033019D01*
X166758809Y-119972066D01*
X166697857Y-119941590D01*
X166606428Y-119941590D01*
X166545476Y-119911114D01*
X166515000Y-119850161D01*
X166515000Y-119819685D01*
X166545476Y-119758733D01*
X166606428Y-119728257D01*
X166697857Y-119728257D01*
X166758809Y-119758733D01*
X167155000Y-120154923D02*
X167094047Y-120124447D01*
X167063571Y-120093971D01*
X167033095Y-120033019D01*
X167033095Y-119850161D01*
X167063571Y-119789209D01*
X167094047Y-119758733D01*
X167155000Y-119728257D01*
X167246428Y-119728257D01*
X167307380Y-119758733D01*
X167337857Y-119789209D01*
X167368333Y-119850161D01*
X167368333Y-120033019D01*
X167337857Y-120093971D01*
X167307380Y-120124447D01*
X167246428Y-120154923D01*
X167155000Y-120154923D01*
X167734047Y-120154923D02*
X167673095Y-120124447D01*
X167642619Y-120063495D01*
X167642619Y-119514923D01*
X167947380Y-119575876D02*
X167977857Y-119545400D01*
X168038809Y-119514923D01*
X168191190Y-119514923D01*
X168252142Y-119545400D01*
X168282619Y-119575876D01*
X168313095Y-119636828D01*
X168313095Y-119697780D01*
X168282619Y-119789209D01*
X167916904Y-120154923D01*
X168313095Y-120154923D01*
D11*
X132635666Y-121499380D02*
X132635666Y-122213666D01*
X132588047Y-122356523D01*
X132492809Y-122451761D01*
X132349952Y-122499380D01*
X132254714Y-122499380D01*
X133159476Y-122499380D02*
X133349952Y-122499380D01*
X133445190Y-122451761D01*
X133492809Y-122404142D01*
X133588047Y-122261285D01*
X133635666Y-122070809D01*
X133635666Y-121689857D01*
X133588047Y-121594619D01*
X133540428Y-121547000D01*
X133445190Y-121499380D01*
X133254714Y-121499380D01*
X133159476Y-121547000D01*
X133111857Y-121594619D01*
X133064238Y-121689857D01*
X133064238Y-121927952D01*
X133111857Y-122023190D01*
X133159476Y-122070809D01*
X133254714Y-122118428D01*
X133445190Y-122118428D01*
X133540428Y-122070809D01*
X133588047Y-122023190D01*
X133635666Y-121927952D01*
X135921761Y-121927952D02*
X135826523Y-121880333D01*
X135778904Y-121832714D01*
X135731285Y-121737476D01*
X135731285Y-121689857D01*
X135778904Y-121594619D01*
X135826523Y-121547000D01*
X135921761Y-121499380D01*
X136112238Y-121499380D01*
X136207476Y-121547000D01*
X136255095Y-121594619D01*
X136302714Y-121689857D01*
X136302714Y-121737476D01*
X136255095Y-121832714D01*
X136207476Y-121880333D01*
X136112238Y-121927952D01*
X135921761Y-121927952D01*
X135826523Y-121975571D01*
X135778904Y-122023190D01*
X135731285Y-122118428D01*
X135731285Y-122308904D01*
X135778904Y-122404142D01*
X135826523Y-122451761D01*
X135921761Y-122499380D01*
X136112238Y-122499380D01*
X136207476Y-122451761D01*
X136255095Y-122404142D01*
X136302714Y-122308904D01*
X136302714Y-122118428D01*
X136255095Y-122023190D01*
X136207476Y-121975571D01*
X136112238Y-121927952D01*
X133762714Y-105989380D02*
X133191285Y-105989380D01*
X133477000Y-105989380D02*
X133477000Y-104989380D01*
X133381761Y-105132238D01*
X133286523Y-105227476D01*
X133191285Y-105275095D01*
X140676380Y-66627333D02*
X141390666Y-66627333D01*
X141533523Y-66674952D01*
X141628761Y-66770190D01*
X141676380Y-66913047D01*
X141676380Y-67008285D01*
X141676380Y-65627333D02*
X141676380Y-66198761D01*
X141676380Y-65913047D02*
X140676380Y-65913047D01*
X140819238Y-66008285D01*
X140914476Y-66103523D01*
X140962095Y-66198761D01*
X140504857Y-65252571D02*
X140504857Y-64795428D01*
X140733428Y-65024000D02*
X140276285Y-65024000D01*
X140930380Y-78057333D02*
X141644666Y-78057333D01*
X141787523Y-78104952D01*
X141882761Y-78200190D01*
X141930380Y-78343047D01*
X141930380Y-78438285D01*
X140930380Y-77676380D02*
X140930380Y-77057333D01*
X141311333Y-77390666D01*
X141311333Y-77247809D01*
X141358952Y-77152571D01*
X141406571Y-77104952D01*
X141501809Y-77057333D01*
X141739904Y-77057333D01*
X141835142Y-77104952D01*
X141882761Y-77152571D01*
X141930380Y-77247809D01*
X141930380Y-77533523D01*
X141882761Y-77628761D01*
X141835142Y-77676380D01*
X140758857Y-76682571D02*
X140758857Y-76225428D01*
X140987428Y-76454000D02*
X140530285Y-76454000D01*
X141422380Y-90503333D02*
X142136666Y-90503333D01*
X142279523Y-90550952D01*
X142374761Y-90646190D01*
X142422380Y-90789047D01*
X142422380Y-90884285D01*
X141755714Y-89598571D02*
X142422380Y-89598571D01*
X141374761Y-89836666D02*
X142089047Y-90074761D01*
X142089047Y-89455714D01*
X141250857Y-89128571D02*
X141250857Y-88671428D01*
X141479428Y-88900000D02*
X141022285Y-88900000D01*
X177633380Y-78565333D02*
X178347666Y-78565333D01*
X178490523Y-78612952D01*
X178585761Y-78708190D01*
X178633380Y-78851047D01*
X178633380Y-78946285D01*
X177633380Y-78184380D02*
X177633380Y-77517714D01*
X178633380Y-77946285D01*
X178985857Y-79730571D02*
X178985857Y-79273428D01*
X179214428Y-79502000D02*
X178757285Y-79502000D01*
X177633380Y-90884333D02*
X178347666Y-90884333D01*
X178490523Y-90931952D01*
X178585761Y-91027190D01*
X178633380Y-91170047D01*
X178633380Y-91265285D01*
X178061952Y-90265285D02*
X178014333Y-90360523D01*
X177966714Y-90408142D01*
X177871476Y-90455761D01*
X177823857Y-90455761D01*
X177728619Y-90408142D01*
X177681000Y-90360523D01*
X177633380Y-90265285D01*
X177633380Y-90074809D01*
X177681000Y-89979571D01*
X177728619Y-89931952D01*
X177823857Y-89884333D01*
X177871476Y-89884333D01*
X177966714Y-89931952D01*
X178014333Y-89979571D01*
X178061952Y-90074809D01*
X178061952Y-90265285D01*
X178109571Y-90360523D01*
X178157190Y-90408142D01*
X178252428Y-90455761D01*
X178442904Y-90455761D01*
X178538142Y-90408142D01*
X178585761Y-90360523D01*
X178633380Y-90265285D01*
X178633380Y-90074809D01*
X178585761Y-89979571D01*
X178538142Y-89931952D01*
X178442904Y-89884333D01*
X178252428Y-89884333D01*
X178157190Y-89931952D01*
X178109571Y-89979571D01*
X178061952Y-90074809D01*
X178985857Y-92049571D02*
X178985857Y-91592428D01*
X179214428Y-91821000D02*
X178757285Y-91821000D01*
X189799508Y-56015945D02*
X189799508Y-56825469D01*
X189847127Y-56920707D01*
X189894746Y-56968326D01*
X189989984Y-57015945D01*
X190180460Y-57015945D01*
X190275698Y-56968326D01*
X190323317Y-56920707D01*
X190370936Y-56825469D01*
X190370936Y-56015945D01*
X190799508Y-56111184D02*
X190847127Y-56063565D01*
X190942365Y-56015945D01*
X191180460Y-56015945D01*
X191275698Y-56063565D01*
X191323317Y-56111184D01*
X191370936Y-56206422D01*
X191370936Y-56301660D01*
X191323317Y-56444517D01*
X190751889Y-57015945D01*
X191370936Y-57015945D01*
M02*
